<?xml version="1.0" encoding="UTF-8"?>
<svg width="30px" height="31px" viewBox="0 0 30 31" version="1.1" xmlns="http://www.w3.org/2000/svg" xmlns:xlink="http://www.w3.org/1999/xlink">
    <!-- Generator: Sketch 62 (91390) - https://sketch.com -->
    <title>Icons/Add User</title>
    <desc>Created with Sketch.</desc>
    <g id="Page-1" stroke="none" stroke-width="1" fill="none" fill-rule="evenodd">
        <g id="Icons" transform="translate(-769.000000, -288.000000)" fill="#1B1E24">
            <g id="Icons/Add-A-User" transform="translate(769.000000, 288.000000)">
                <g id="Actian-Icon__Add-A-User">
                    <path d="M29.88,24.885 C29.5360937,27.8689083 27.0036368,30.1171099 24,30.1050487 L23.34,30.1050487 C22.0644703,29.956571 20.8732153,29.3925698 19.95,28.5 C18.3654221,29.0857841 16.6893874,29.3854387 15,29.385 L14.34,29.385 L13.755,29.385 C7.39963549,28.921227 2.06862461,24.4116454 0.557601929,18.2211241 C-0.953420749,12.0306028 1.70041141,5.57202884 7.1274027,2.23234189 C12.554394,-1.10734506 19.5159209,-0.565915094 24.3612902,3.57270058 C29.2066595,7.71131626 30.8299936,14.5025452 28.38,20.385 C29.4864294,21.6097379 30.0303008,23.2413521 29.88,24.885 Z M6,24.375 C5.86574481,23.4850348 5.86574481,22.5799652 6,21.69 C6.62992337,18.3916701 9.02138981,15.7063126 12.225,14.7 C9.847871,13.4322192 8.64015272,10.7080306 9.29690118,8.09523671 C9.95364965,5.48244281 12.3059393,3.6530932 15,3.66 C15.3568668,3.66075851 15.7130669,3.69085993 16.065,3.75 C18.505099,4.19794698 20.4015262,6.1291873 20.8050168,8.5770302 C21.2085074,11.0248731 20.0322398,13.4626016 17.865,14.67 C19.897104,15.3319625 21.6327844,16.6854748 22.77,18.495 C23.1783251,18.3999574 23.5957856,18.3496609 24.015,18.345 L24.69,18.345 C25.5726816,18.4529874 26.419128,18.7607861 27.165,19.245 C29.4856095,13.0409111 26.8313823,6.07906353 20.9694762,2.99458554 C15.1075702,-0.0898924401 7.86658015,1.66518806 4.06748475,7.09131204 C0.26838936,12.517436 1.09629911,19.9219488 6,24.375 L6,24.375 Z M18.165,23.565 C18.407397,21.6325373 19.5932763,19.9464529 21.33,19.065 C20.2155582,17.3906362 18.4752939,16.2340631 16.5,15.855 C16.0454417,15.7655221 15.5832812,15.7203108 15.12,15.72 C11.4390445,15.7244597 8.28531783,18.3546678 7.62,21.975 C7.39560911,23.207 7.48327501,24.4755771 7.875,25.665 C9.99188545,27.0554961 12.4672944,27.8007245 15,27.81 C16.3620681,27.7956412 17.7134687,27.5678771 19.005,27.135 C18.3644834,26.0601331 18.0760291,24.8119123 18.18,23.565 L18.165,23.565 Z M15,13.92 C17.259699,13.9138139 19.1437879,12.1895792 19.3497739,9.93927982 C19.5557598,7.68898041 18.0160223,5.65133846 15.795,5.235 C15.5335285,5.18107977 15.2669423,5.15593013 15,5.16 C13.3823934,5.16881806 11.9013402,6.06849475 11.1479345,7.49996555 C10.3945289,8.93143635 10.4914437,10.6616225 11.4,12 C12.0467713,12.9692748 13.058836,13.6349645 14.205,13.845 C14.4675212,13.8915652 14.7334021,13.9166483 15,13.92 Z M27.45,21.495 C26.730864,20.5855814 25.6774051,20.0021273 24.525,19.875 L24.015,19.875 C21.7013791,19.8912898 19.7994644,21.704241 19.6724437,24.0144299 C19.545423,26.3246188 21.2371115,28.3351564 23.535,28.6050153 L24.03,28.6050153 C26.2593455,28.6108583 28.1348555,26.9358339 28.38,24.72 C28.5190913,23.5634504 28.1835565,22.3999023 27.45,21.495 L27.45,21.495 Z" id="Shape" fill-rule="nonzero"></path>
                    <path d="M27.36,24.15 C27.36,24.5642136 27.0242136,24.9 26.61,24.9 L24.975,24.9 L24.975,26.55 C24.975,26.9642136 24.6392136,27.3 24.225,27.3 C23.8141373,27.2920198 23.4829802,26.9608627 23.475,26.55 L23.475,24.9 L21.84,24.9 C21.4257864,24.9 21.09,24.5642136 21.09,24.15 C21.09,23.7357864 21.4257864,23.4 21.84,23.4 L23.475,23.4 L23.475,21.765 C23.475,21.3507864 23.8107864,21.015 24.225,21.015 C24.6392136,21.015 24.975,21.3507864 24.975,21.765 L24.975,23.4 L26.61,23.4 C27.0242136,23.4 27.36,23.7357864 27.36,24.15 Z" id="Path" fill-rule="nonzero"></path>
                </g>
            </g>
        </g>
    </g>
</svg>