<?xml version="1.0" encoding="UTF-8"?>
<svg width="20px" height="21px" viewBox="0 0 20 21" version="1.1" xmlns="http://www.w3.org/2000/svg" xmlns:xlink="http://www.w3.org/1999/xlink">
    <!-- Generator: Sketch 61.2 (89653) - https://sketch.com -->
    <title>Icons/Add A User</title>
    <desc>Created with Sketch.</desc>
    <g id="Page-1" stroke="none" stroke-width="1" fill="none" fill-rule="evenodd">
        <g id="Tables" transform="translate(-520.000000, -1693.000000)" fill="#238FFB">
            <g id="Icons/Add-A-User" transform="translate(520.000000, 1693.000000)">
                <g id="Actian-Icon__Add-A-User">
                    <path d="M19.92,16.59 C19.6907292,18.5792722 18.0024245,20.0780733 16,20.0700325 L15.56,20.0700325 C14.7096469,19.9710474 13.9154768,19.5950465 13.3,19 C12.2436147,19.3905227 11.1262583,19.5902925 10,19.59 L9.56,19.59 L9.17,19.59 C4.93309033,19.280818 1.37908307,16.2744303 0.37173462,12.1474161 C-0.635613833,8.0204019 1.13360761,3.71468589 4.7516018,1.48822793 C8.369596,-0.738230039 13.0106139,-0.377276729 16.2408601,2.38180039 C19.4711063,5.14087751 20.553329,9.66836344 18.92,13.59 C19.6576196,14.4064919 20.0202005,15.4942347 19.92,16.59 Z M4,16.25 C3.91049654,15.6566898 3.91049654,15.0533102 4,14.46 C4.41994891,12.2611134 6.01425987,10.4708751 8.15,9.8 C6.56524733,8.95481279 5.76010181,7.13868707 6.19793412,5.39682447 C6.63576643,3.65496188 8.20395957,2.43539546 10,2.44 C10.2379112,2.44050567 10.4753779,2.46057329 10.71,2.5 C12.3367327,2.79863132 13.6010175,4.08612487 13.8700112,5.71802013 C14.1390049,7.3499154 13.3548266,8.97506771 11.91,9.78 C13.264736,10.2213083 14.4218563,11.1236498 15.18,12.33 C15.4522167,12.2666383 15.7305237,12.2331073 16.01,12.23 L16.46,12.23 C17.0484544,12.3019916 17.612752,12.5071907 18.11,12.83 C19.657073,8.69394076 17.8875882,4.05270902 13.9796508,1.99639036 C10.0717134,-0.0599282934 5.24438676,1.11012537 2.7116565,4.72754136 C0.17892624,8.34495735 0.730866076,13.2812992 4,16.25 L4,16.25 Z M12.11,15.71 C12.271598,14.4216915 13.0621842,13.2976353 14.22,12.71 C13.4770388,11.5937575 12.3168626,10.8227087 11,10.57 C10.6969611,10.5103481 10.3888541,10.4802072 10.08,10.48 C7.62602968,10.4829732 5.52354522,12.2364452 5.08,14.65 C4.93040607,15.4713333 4.98885001,16.3170514 5.25,17.11 C6.66125697,18.0369974 8.31152962,18.5338164 10,18.54 C10.9080454,18.5304275 11.8089791,18.3785847 12.67,18.09 C12.242989,17.3734221 12.050686,16.5412749 12.12,15.71 L12.11,15.71 Z M10,9.28 C11.506466,9.27587594 12.7625253,8.12638616 12.8998493,6.62618655 C13.0371732,5.12598694 12.0106815,3.76755897 10.53,3.49 C10.3556857,3.45405318 10.1779615,3.43728675 10,3.44 C8.92159562,3.44587871 7.93422681,4.04566316 7.43195636,4.99997703 C6.9296859,5.9542909 6.99429581,7.10774836 7.6,8 C8.03118084,8.64618323 8.70589068,9.08997633 9.47,9.23 C9.64501414,9.26104346 9.82226804,9.27776553 10,9.28 Z M18.3,14.33 C17.820576,13.723721 17.11827,13.3347515 16.35,13.25 L16.01,13.25 C14.4675861,13.2608599 13.1996429,14.469494 13.1149625,16.0096199 C13.030282,17.5497459 14.1580743,18.8901043 15.69,19.0700102 L16.02,19.0700102 C17.5062303,19.0739055 18.7565703,17.9572226 18.92,16.48 C19.0127275,15.708967 18.7890377,14.9332682 18.3,14.33 L18.3,14.33 Z" id="Shape" fill-rule="nonzero"></path>
                    <path d="M18.24,16.1 C18.24,16.3761424 18.0161424,16.6 17.74,16.6 L16.65,16.6 L16.65,17.7 C16.65,17.9761424 16.4261424,18.2 16.15,18.2 C15.8760915,18.1946799 15.6553201,17.9739085 15.65,17.7 L15.65,16.6 L14.56,16.6 C14.2838576,16.6 14.06,16.3761424 14.06,16.1 C14.06,15.8238576 14.2838576,15.6 14.56,15.6 L15.65,15.6 L15.65,14.51 C15.65,14.2338576 15.8738576,14.01 16.15,14.01 C16.4261424,14.01 16.65,14.2338576 16.65,14.51 L16.65,15.6 L17.74,15.6 C18.0161424,15.6 18.24,15.8238576 18.24,16.1 Z" id="Path" fill-rule="nonzero"></path>
                </g>
            </g>
        </g>
    </g>
</svg>