<?xml version="1.0" encoding="UTF-8"?>
<svg width="24px" height="30px" viewBox="0 0 24 30" version="1.1" xmlns="http://www.w3.org/2000/svg" xmlns:xlink="http://www.w3.org/1999/xlink">
    <!-- Generator: Sketch 62 (91390) - https://sketch.com -->
    <title>Icons/Blank File</title>
    <desc>Created with Sketch.</desc>
    <g id="Page-1" stroke="none" stroke-width="1" fill="none" fill-rule="evenodd">
        <g id="Icons" transform="translate(-1024.000000, -288.000000)" fill="#1B1E24">
            <g id="Icons/Blank-File-Format-Page" transform="translate(1021.000000, 288.000000)">
                <g id="Actian-Icon__Blank-Format-Page" transform="translate(3.000000, 0.000000)">
                    <path d="M22.815,6.81 C22.815,6.81 22.815,6.81 22.815,6.81 L16.5,0.42 L16.5,0.42 L16.065,-2.24060863e-07 L2.91,-2.24060863e-07 C2.38623924,-2.24060863e-07 1.8847485,0.211829207 1.52009044,0.587794491 C1.15543239,0.963759775 0.958759294,1.47149104 0.975,1.995 L0.975,28.11 C1.00722359,29.1576589 1.86187294,29.9924327 2.91,29.9999998 L21.195,29.9999998 C22.2685553,29.9918357 23.1368357,29.1235553 23.145,28.05 L23.145,7.05 L22.815,6.81 Z M16.68,2.79 L20.4,6.525 L16.68,6.525 L16.68,2.79 Z M21.645,28.11 C21.6372091,28.3552286 21.4402286,28.5522091 21.195,28.56 L2.91,28.56 C2.66734868,28.5519072 2.47486508,28.3527862 2.475,28.11 L2.475,1.995 C2.45753698,1.86964562 2.49553535,1.74290137 2.5790827,1.64783025 C2.66263004,1.55275913 2.78344088,1.49878947 2.91,1.49998006 L15.18,1.49998006 L15.18,7.275 C15.18,7.68921356 15.5157864,8.025 15.93,8.025 L21.645,8.025 L21.645,28.11 Z" id="Shape" fill-rule="nonzero"></path>
                </g>
            </g>
        </g>
    </g>
</svg>