<?xml version="1.0" encoding="UTF-8"?>
<svg width="30px" height="30px" viewBox="0 0 30 30" version="1.1" xmlns="http://www.w3.org/2000/svg" xmlns:xlink="http://www.w3.org/1999/xlink">
    <!-- Generator: Sketch 62 (91390) - https://sketch.com -->
    <title>Icons/Blank Calendar</title>
    <desc>Created with Sketch.</desc>
    <g id="Page-1" stroke="none" stroke-width="1" fill="none" fill-rule="evenodd">
        <g id="Icons" transform="translate(-934.000000, -288.000000)" fill="#1B1E24">
            <g id="Icons/Blank-Calendar" transform="translate(934.000000, 288.000000)">
                <g id="Actian-Icon__Blank-Calendar">
                    <path d="M30,6 L30,27 C30,28.6568542 28.6568542,30 27,30 L3,30 C1.34314575,30 0,28.6568542 0,27 L0,6 C0,4.34314575 1.34314575,3 3,3 L7.5,3 L7.5,0.81 C7.5,0.395786438 7.83578644,0.06 8.25,0.06 C8.66421356,0.06 9,0.395786438 9,0.81 L9,3 L21,3 L21,0.81 C21,0.395786438 21.3357864,0.06 21.75,0.06 C22.1642136,0.06 22.5,0.395786438 22.5,0.81 L22.5,3 L27,3 C28.6568542,3 30,4.34314575 30,6 Z M1.5,6 L1.5,10.5 L28.5,10.5 L28.5,6 C28.5,5.17157288 27.8284271,4.5 27,4.5 L22.5,4.5 L22.5,6.75 C22.4920198,7.16086268 22.1608627,7.49201984 21.75,7.5 C21.3357864,7.5 21,7.16421356 21,6.75 L21,4.5 L9,4.5 L9,6.75 C8.99201984,7.16086268 8.66086268,7.49201984 8.25,7.5 C7.83578644,7.5 7.5,7.16421356 7.5,6.75 L7.5,4.5 L3,4.5 C2.17157288,4.5 1.5,5.17157288 1.5,6 Z M28.5,27 L28.5,12 L1.5,12 L1.5,27 C1.5,27.8284271 2.17157288,28.5 3,28.5 L27,28.5 C27.8284271,28.5 28.5,27.8284271 28.5,27 Z" id="Shape" fill-rule="nonzero"></path>
                </g>
            </g>
        </g>
    </g>
</svg>