<?xml version="1.0" encoding="UTF-8"?>
<svg width="30px" height="28px" viewBox="0 0 30 28" version="1.1" xmlns="http://www.w3.org/2000/svg" xmlns:xlink="http://www.w3.org/1999/xlink">
    <!-- Generator: Sketch 62 (91390) - https://sketch.com -->
    <title>Icons/Blog</title>
    <desc>Created with Sketch.</desc>
    <g id="Page-1" stroke="none" stroke-width="1" fill="none" fill-rule="evenodd">
        <g id="Icons" transform="translate(-1106.000000, -289.000000)" fill="#1B1E24">
            <g id="Icons/Blog" transform="translate(1106.000000, 288.000000)">
                <g id="Actian-Icon__Blog" transform="translate(-1.500000, 1.500000)">
                    <path d="M25.035,19.5 L11.535,19.5 C11.1241373,19.4920198 10.7929802,19.1608627 10.785,18.75 C10.785,18.3357864 11.1207864,18 11.535,18 L25.035,18 C25.4492136,18 25.785,18.3357864 25.785,18.75 C25.785,19.1642136 25.4492136,19.5 25.035,19.5 Z" id="Path" fill-rule="nonzero"></path>
                    <path d="M24.945,15.465 L18,15.465 C17.8089864,15.4572072 17.6289138,15.3737689 17.4994792,15.2330791 C17.3700446,15.0923894 17.3018756,14.9059997 17.31,14.715 C17.3018756,14.5240003 17.3700446,14.3376106 17.4994792,14.1969209 C17.6289138,14.0562311 17.8089864,13.9727928 18,13.965 L25.005,13.965 C25.3968452,13.9891642 25.6971023,14.3227832 25.68,14.715 C25.6929911,14.9149742 25.6202657,15.1110277 25.480003,15.254153 C25.3397403,15.3972782 25.1451958,15.473949 24.945,15.465 Z" id="Path" fill-rule="nonzero"></path>
                    <path d="M27.225,0.435 L29.13,3 C29.4810931,3.47352187 29.3876322,4.14109968 28.92,4.5 L17.43,13.14 C17.3428235,13.1999389 17.246603,13.245517 17.145,13.275 L17.145,13.275 L16.875,13.5 L11.745,15 C11.4437838,15.0758379 11.1266128,14.9620122 10.9423554,14.7119486 C10.758098,14.461885 10.7433368,14.1252312 10.905,13.86 L13.8,9.36 C13.8430332,9.29421014 13.8992101,9.23803317 13.965,9.195 C14.0329594,9.09497826 14.1136357,9.00421745 14.205,8.925 L25.695,0.225 C25.9245575,0.0467713303 26.216258,-0.0314182642 26.5041823,0.00810074468 C26.7921065,0.0476197536 27.0519527,0.201511843 27.225,0.435 Z M13.245,12.885 L15.42,12.285 L14.475,11.01 L13.245,12.885 Z M23.475,3.765 L15.435,9.765 L16.935,11.655 L24.96,5.655 L23.475,3.765 Z M26.28,1.665 L24.675,2.865 L26.085,4.755 L27.69,3.54 L26.28,1.665 Z" id="Shape" fill-rule="nonzero"></path>
                    <path d="M31.5,16.065 C31.5,22.35 25.5,27.4501213 18.165,27.4501213 C15.78959,27.4531539 13.4466567,26.8982486 11.325,25.83 L3,27.4501213 C2.44495563,27.4570427 1.93139807,27.1569866 1.665,26.67 C1.33132498,26.094285 1.41682251,25.3675559 1.875,24.885 L6,20.61 C5.26845768,19.2223416 4.88253719,17.6786597 4.875,16.11 C4.875,9.84 10.875,4.74 18.225,4.74 L15.99,6.375 C10.62,7.215 6.525,11.175 6.525,15.915 C6.53732485,17.3984736 6.94091273,18.8524248 7.695,20.13 L7.98,20.61 L3.27,25.635 L11.655,24 L11.895,24.135 C13.820798,25.138404 15.9635544,25.6534897 18.135,25.635 C24.54,25.635 29.745,21.27 29.745,15.915 C29.6683345,12.8713508 28.0900379,10.0629939 25.53,8.415 L26.805,7.5 C29.6472137,9.44211146 31.3915813,12.6243284 31.5,16.065 Z" id="Path" fill-rule="nonzero"></path>
                </g>
            </g>
        </g>
    </g>
</svg>