<?xml version="1.0" encoding="UTF-8"?>
<svg width="30px" height="30px" viewBox="0 0 30 30" version="1.1" xmlns="http://www.w3.org/2000/svg" xmlns:xlink="http://www.w3.org/1999/xlink">
    <!-- Generator: Sketch 62 (91390) - https://sketch.com -->
    <title>Icons/Calendar 2</title>
    <desc>Created with Sketch.</desc>
    <g id="Page-1" stroke="none" stroke-width="1" fill="none" fill-rule="evenodd">
        <g id="Icons" transform="translate(-1275.000000, -288.000000)" fill="#1B1E24">
            <g id="Icons/Calendar_2" transform="translate(1275.000000, 288.000000)">
                <g id="Actian-Icon__Calendar_2">
                    <path d="M7.68,19.5 L6,19.5 C5.62391326,19.5331263 5.25067638,19.4107223 4.96724987,19.161307 C4.68382337,18.9118916 4.51495882,18.5572464 4.5,18.18 L4.5,16.5 C4.45702973,16.0905046 4.60119874,15.6834923 4.89234554,15.3923455 C5.18349234,15.1011987 5.59050461,14.9570297 6,15 L7.68,15 C8.0587952,15.01062 8.41612857,15.1782284 8.66646957,15.4627068 C8.91681058,15.7471852 9.03762683,16.1229286 9,16.5 L9,18.255 C8.9330326,18.9415953 8.36933517,19.4732645 7.68,19.5 Z" id="Path" fill-rule="nonzero"></path>
                    <path d="M15.93,19.5 L14.175,19.5 C13.4187114,19.491779 12.8099553,18.8763333 12.81,18.12 L12.81,16.5 C12.7717526,16.1152194 12.8984956,15.7322711 13.1587449,15.4462828 C13.4189942,15.1602946 13.7883278,14.9981038 14.175,15 L15.93,15 C16.2946125,14.995993 16.6456715,15.1380342 16.9049121,15.394457 C17.1641527,15.6508797 17.31,16.0003655 17.31,16.365 L17.31,18.12 C17.31,18.882153 16.692153,19.5 15.93,19.5 Z" id="Path" fill-rule="nonzero"></path>
                    <path d="M7.68,25.5 L6,25.5 C5.62391326,25.5331263 5.25067638,25.4107223 4.96724987,25.161307 C4.68382337,24.9118916 4.51495882,24.5572464 4.5,24.18 L4.5,22.5 C4.45702973,22.0905046 4.60119874,21.6834923 4.89234554,21.3923455 C5.18349234,21.1011987 5.59050461,20.9570297 6,21 L7.68,21 C8.0587952,21.01062 8.41612857,21.1782284 8.66646957,21.4627068 C8.91681058,21.7471852 9.03762683,22.1229286 9,22.5 L9,24.255 C8.9330326,24.9415953 8.36933517,25.4732645 7.68,25.5 Z" id="Path" fill-rule="nonzero"></path>
                    <path d="M15.93,25.5 L14.175,25.5 C13.4187114,25.491779 12.8099553,24.8763333 12.81,24.12 L12.81,22.5 C12.7717526,22.1152194 12.8984956,21.7322711 13.1587449,21.4462828 C13.4189942,21.1602946 13.7883278,20.9981038 14.175,21 L15.93,21 C16.2946125,20.995993 16.6456715,21.1380342 16.9049121,21.394457 C17.1641527,21.6508797 17.31,22.0003655 17.31,22.365 L17.31,24.12 C17.31,24.882153 16.692153,25.5 15.93,25.5 Z" id="Path" fill-rule="nonzero"></path>
                    <path d="M24.18,19.5 L22.5,19.5 C21.7437114,19.491779 21.1349553,18.8763333 21.135,18.12 L21.135,16.5 C21.0967526,16.1152194 21.2234956,15.7322711 21.4837449,15.4462828 C21.7439942,15.1602946 22.1133278,14.9981038 22.5,14.9999836 L24.255,14.9999836 C24.6204376,15.030312 24.9583112,15.2063815 25.1925065,15.4885446 C25.4267019,15.7707076 25.5375213,16.1352321 25.5,16.5 L25.5,18.255 C25.4330326,18.9415953 24.8693352,19.4732645 24.18,19.5 Z" id="Path" fill-rule="nonzero"></path>
                    <path d="M30,6 L30,27 C30,28.6568542 28.6568542,30 27,30 L3,30 C1.34314575,30 0,28.6568542 0,27 L0,6 C0,4.34314575 1.34314575,3 3,3 L7.5,3 L7.5,0.81 C7.5,0.395786438 7.83578644,0.06 8.25,0.06 C8.66421356,0.06 9,0.395786438 9,0.81 L9,3 L21,3 L21,0.81 C21,0.395786438 21.3357864,0.06 21.75,0.06 C22.1642136,0.06 22.5,0.395786438 22.5,0.81 L22.5,3 L27,3 C28.6568542,3 30,4.34314575 30,6 Z M1.5,6 L1.5,10.5 L28.5,10.5 L28.5,6 C28.5,5.17157288 27.8284271,4.5 27,4.5 L22.5,4.5 L22.5,6.75 C22.4920198,7.16086268 22.1608627,7.49201984 21.75,7.5 C21.3357864,7.5 21,7.16421356 21,6.75 L21,4.5 L9,4.5 L9,6.75 C8.99201984,7.16086268 8.66086268,7.49201984 8.25,7.5 C7.83578644,7.5 7.5,7.16421356 7.5,6.75 L7.5,4.5 L3,4.5 C2.17157288,4.5 1.5,5.17157288 1.5,6 Z M28.5,27 L28.5,12 L1.5,12 L1.5,27 C1.5,27.8284271 2.17157288,28.5 3,28.5 L27,28.5 C27.8284271,28.5 28.5,27.8284271 28.5,27 Z" id="Shape" fill-rule="nonzero"></path>
                </g>
            </g>
        </g>
    </g>
</svg>