<?xml version="1.0" encoding="UTF-8"?>
<svg width="30px" height="30px" viewBox="0 0 30 30" version="1.1" xmlns="http://www.w3.org/2000/svg" xmlns:xlink="http://www.w3.org/1999/xlink">
    <!-- Generator: Sketch 62 (91390) - https://sketch.com -->
    <title>Icons/Calendar</title>
    <desc>Created with Sketch.</desc>
    <g id="Page-1" stroke="none" stroke-width="1" fill="none" fill-rule="evenodd">
        <g id="Icons" transform="translate(-1191.000000, -288.000000)" fill="#1B1E24">
            <g id="Icons/Calendar" transform="translate(1191.000000, 288.000000)">
                <g id="Actian-Icon__Calendar">
                    <path d="M30,6 L30,27 C30,28.6568542 28.6568542,30 27,30 L3,30 C1.34314575,30 0,28.6568542 0,27 L0,6 C0,4.34314575 1.34314575,3 3,3 L7.5,3 L7.5,0.75 C7.5,0.335786438 7.83578644,0 8.25,0 C8.66421356,0 9,0.335786438 9,0.75 L9,3 L21,3 L21,0.75 C21,0.335786438 21.3357864,0 21.75,0 C22.1642136,0 22.5,0.335786438 22.5,0.75 L22.5,3 L27,3 C28.6568542,3 30,4.34314575 30,6 Z M1.5,6 L1.5,10.5 L28.5,10.5 L28.5,6 C28.5,5.17157288 27.8284271,4.5 27,4.5 L22.5,4.5 L22.5,6.75 C22.5,7.16421356 22.1642136,7.5 21.75,7.5 C21.3357864,7.5 21,7.16421356 21,6.75 L21,4.5 L9,4.5 L9,6.75 C9,7.16421356 8.66421356,7.5 8.25,7.5 C7.83578644,7.5 7.5,7.16421356 7.5,6.75 L7.5,4.5 L3,4.5 C2.17157288,4.5 1.5,5.17157288 1.5,6 Z M28.5,27 L28.5,12 L1.5,12 L1.5,27 C1.5,27.8284271 2.17157288,28.5 3,28.5 L27,28.5 C27.8284271,28.5 28.5,27.8284271 28.5,27 Z" id="Shape" fill-rule="nonzero"></path>
                    <path d="M13.335,26.145 C13.1165426,26.1489469 12.9076537,26.0554966 12.765,25.89 L8.265,20.745 C8.00091932,20.4244294 8.04086765,19.9517075 8.355,19.68 C8.50310155,19.548286 8.69812034,19.4819672 8.89581513,19.4960882 C9.09350992,19.5102093 9.27712278,19.6035733 9.405,19.755 L13.245,24.255 L20.475,14.685 C20.7280926,14.3585087 21.1975493,14.2981499 21.525,14.55 C21.848902,14.8029017 21.9151335,15.2665218 21.675,15.6 L13.935,25.86 C13.7965024,26.0427273 13.5792556,26.1485654 13.35,26.145 L13.335,26.145 Z" id="Path" fill-rule="nonzero"></path>
                </g>
            </g>
        </g>
    </g>
</svg>