<?xml version="1.0" encoding="UTF-8"?>
<svg width="31px" height="30px" viewBox="0 0 31 30" version="1.1" xmlns="http://www.w3.org/2000/svg" xmlns:xlink="http://www.w3.org/1999/xlink">
    <!-- Generator: Sketch 62 (91390) - https://sketch.com -->
    <title>Icons/Cart with Number</title>
    <desc>Created with Sketch.</desc>
    <g id="Page-1" stroke="none" stroke-width="1" fill="none" fill-rule="evenodd">
        <g id="Icons" transform="translate(-769.000000, -390.000000)">
            <g id="Icons/Cart-with-Number" transform="translate(769.000000, 390.000000)">
                <g transform="translate(0.500000, 0.000000)" fill="#1B1E24" id="Actian-Icon__Cart-with-Number">
                    <g>
                        <path d="M13.5,28.095 C13.5,29.1471024 12.6471024,30 11.595,30 C10.5428976,30 9.69,29.1471024 9.69,28.095 C9.69,27.0428976 10.5428976,26.19 11.595,26.19 C12.1002374,26.19 12.5847816,26.3907048 12.9420384,26.7479616 C13.2992952,27.1052184 13.5,27.5897626 13.5,28.095 L13.5,28.095 Z" id="Path" fill-rule="nonzero"></path>
                        <path d="M26.085,28.095 C26.085,28.8655006 25.6208617,29.5601327 24.9090119,29.8549905 C24.1971622,30.1498483 23.3777878,29.9868646 22.8329616,29.4420384 C22.2881354,28.8972122 22.1251517,28.0778378 22.4200095,27.3659881 C22.7148673,26.6541383 23.4094994,26.19 24.18,26.19 C25.2321024,26.19 26.085,27.0428976 26.085,28.095 L26.085,28.095 Z" id="Path" fill-rule="nonzero"></path>
                        <path d="M29.685,9.66 L26.31,24.54 C26.2276694,24.8801765 25.924976,25.1210958 25.575,25.1250097 L9.795,25.1250097 C9.45123332,25.1267575 9.15216863,24.8899979 9.075,24.555 L5.46,9.675 L5.46,9.675 L4.8,6.945 L0.84,6.945 C0.425786438,6.945 0.09,6.60921356 0.09,6.195 C0.09,5.78078644 0.425786438,5.445 0.84,5.445 L5.34,5.445 C5.69793044,5.42436622 6.02217571,5.6550792 6.12,6 L6.78,8.715 L15,8.715 C14.9296393,8.3388116 14.8895111,7.95759362 14.88,7.575 C14.88,3.43286438 18.2378644,0.075 22.38,0.075 C26.5221356,0.075 29.88,3.43286438 29.88,7.575 C29.9168092,8.27261013 29.8408331,8.97159012 29.655,9.645 M16.41,7.59 C16.41,10.9037085 19.0962915,13.59 22.41,13.59 C25.7237085,13.59 28.41,10.9037085 28.41,7.59 C28.41,4.2762915 25.7237085,1.59 22.41,1.59 C19.0962915,1.59 16.41,4.2762915 16.41,7.59 Z M27.345,13.215 C25.4936487,14.8537355 22.9535927,15.4747573 20.5549743,14.8751027 C18.156356,14.2754481 16.2073756,12.5321672 15.345,10.215 L7.14,10.215 L10.395,23.61 L24.975,23.61 L27.345,13.215 Z" id="Shape" fill-rule="nonzero"></path>
                    </g>
                </g>
                <text id="12" font-family="RedHatText-Medium, Red Hat Text" font-size="7" font-weight="400" letter-spacing="0.1944444" fill="#000000">
                    <tspan x="20" y="9">12</tspan>
                </text>
            </g>
        </g>
    </g>
</svg>