<?xml version="1.0" encoding="UTF-8"?>
<svg width="31px" height="25px" viewBox="0 0 31 25" version="1.1" xmlns="http://www.w3.org/2000/svg" xmlns:xlink="http://www.w3.org/1999/xlink">
    <!-- Generator: Sketch 62 (91390) - https://sketch.com -->
    <title>Icons/Cart</title>
    <desc>Created with Sketch.</desc>
    <g id="Page-1" stroke="none" stroke-width="1" fill="none" fill-rule="evenodd">
        <g id="Icons" transform="translate(-680.000000, -395.000000)" fill="#1B1E24">
            <g id="Icons/Cart" transform="translate(681.000000, 390.000000)">
                <g id="Actian-Icon__Cart" transform="translate(-1.500000, 4.500000)">
                    <path d="M26.91,20.5350097 L11.13,20.5350097 C10.7862333,20.5367575 10.4871686,20.2999979 10.41,19.965 L6.795,5.085 L6.795,5.085 L6.135,2.34 L2.175,2.34 C1.76078644,2.34 1.425,2.00421356 1.425,1.59 C1.43298016,1.17913732 1.76413732,0.847980159 2.175,0.84 L6.675,0.84 C6.87254562,0.814732611 7.07188858,0.870710728 7.2274025,0.995121869 C7.38291643,1.11953301 7.48128744,1.30172606 7.5,1.5 L8.16,4.2 L30.33,4.2 C30.5587226,4.19880158 30.7749669,4.30415137 30.915,4.485 C31.0619513,4.65939379 31.1175945,4.8930953 31.065,5.115 L27.645,19.95 C27.5675841,20.2932858 27.2619032,20.5365828 26.91,20.5350097 Z M11.73,19.035 L26.31,19.035 L29.31,5.655 L8.43,5.655 L11.73,19.035 Z" id="Shape" fill-rule="nonzero"></path>
                    <path d="M14.685,23.595 C14.685,24.3655006 14.2208617,25.0601327 13.5090119,25.3549905 C12.7971622,25.6498483 11.9777878,25.4868646 11.4329616,24.9420384 C10.8881354,24.3972122 10.7251517,23.5778378 11.0200095,22.8659881 C11.3148673,22.1541383 12.0094994,21.69 12.78,21.69 C13.2852374,21.69 13.7697816,21.8907048 14.1270384,22.2479616 C14.4842952,22.6052184 14.685,23.0897626 14.685,23.595 L14.685,23.595 Z" id="Path" fill-rule="nonzero"></path>
                    <path d="M27.3300006,23.595 C27.3293974,24.3721977 26.856722,25.0711006 26.1356228,25.3610188 C25.4145235,25.6509369 24.5896081,25.4737308 24.0511901,24.9132465 C23.5127721,24.3527622 23.3688246,23.5213979 23.6874572,22.8125186 C24.0060898,22.1036393 24.7234046,21.6594019 25.5,21.69 C26.5227025,21.7302948 27.3307935,22.5715043 27.3300006,23.595 L27.3300006,23.595 Z" id="Path" fill-rule="nonzero"></path>
                </g>
            </g>
        </g>
    </g>
</svg>