<?xml version="1.0" encoding="UTF-8"?>
<svg width="31px" height="28px" viewBox="0 0 31 28" version="1.1" xmlns="http://www.w3.org/2000/svg" xmlns:xlink="http://www.w3.org/1999/xlink">
    <!-- Generator: Sketch 62 (91390) - https://sketch.com -->
    <title>Icons/Chat</title>
    <desc>Created with Sketch.</desc>
    <g id="Page-1" stroke="none" stroke-width="1" fill="none" fill-rule="evenodd">
        <g id="Icons" transform="translate(-847.000000, -391.000000)" fill="#1B1E24">
            <g id="Icons/Chat" transform="translate(847.000000, 390.000000)">
                <g id="Actian-Icon__Chat">
                    <path d="M28.575,28.5 C28.4403897,28.514506 28.3046103,28.514506 28.17,28.5 L18.27,25.5 C8.61,27.315 0,21.165 0,13.5 C0,6.675 6.705,1.125 15,1.125 C23.295,1.125 30,6.675 30,13.5 C29.9722583,16.1117453 29.0028776,18.6257436 27.27,20.58 L30,26.355 C30.1978111,26.8615396 30.1059826,27.4354674 29.76,27.855 C29.4894363,28.245532 29.0498566,28.4847969 28.575,28.5 Z M18.345,24 L28.59,27 L25.59,20.355 L25.935,19.995 C27.5945036,18.2410951 28.5133085,15.9145304 28.5,13.5 C28.5,7.5 22.5,2.625 15,2.625 C7.5,2.625 1.5,7.5 1.5,13.5 C1.5,20.31 9.39,25.74 18.21,24 L18.345,24 Z" id="Shape" fill-rule="nonzero"></path>
                </g>
            </g>
        </g>
    </g>
</svg>