<?xml version="1.0" encoding="UTF-8"?>
<svg width="31px" height="30px" viewBox="0 0 31 30" version="1.1" xmlns="http://www.w3.org/2000/svg" xmlns:xlink="http://www.w3.org/1999/xlink">
    <!-- Generator: Sketch 62 (91390) - https://sketch.com -->
    <title>Icons/Circle with number</title>
    <desc>Created with Sketch.</desc>
    <g id="Page-1" stroke="none" stroke-width="1" fill="none" fill-rule="evenodd">
        <g id="Icons" transform="translate(-934.000000, -390.000000)" fill="#1B1E24">
            <g id="Icons/Circle-with-number" transform="translate(934.000000, 390.000000)">
                <g id="Icons/Circle-with-Number-" transform="translate(0.500000, 0.000000)">
                    <g id="Actian-Icon__Circle-with-Number">
                        <path d="M15,30 C6.71572875,30 0,23.2842712 0,15 C0,6.71572875 6.71572875,0 15,0 C23.2842712,0 30,6.71572875 30,15 C29.950858,23.2638304 23.2638304,29.950858 15,30 Z M15,1.5 C7.54415588,1.5 1.5,7.54415588 1.5,15 C1.5,22.4558441 7.54415588,28.5 15,28.5 C22.4558441,28.5 28.5,22.4558441 28.5,15 C28.4509197,7.56458048 22.4354195,1.54908028 15,1.5 Z" id="Shape" fill-rule="nonzero"></path>
                    </g>
                </g>
                <text id="12" font-family="RedHatText-Medium, Red Hat Text" font-size="16" font-weight="400" letter-spacing="0.4444443">
                    <tspan x="8" y="19">12</tspan>
                </text>
            </g>
        </g>
    </g>
</svg>