<?xml version="1.0" encoding="UTF-8"?>
<svg width="20px" height="20px" viewBox="0 0 20 20" version="1.1" xmlns="http://www.w3.org/2000/svg" xmlns:xlink="http://www.w3.org/1999/xlink">
    <!-- Generator: Sketch 62 (91390) - https://sketch.com -->
    <title>Close-Icon</title>
    <desc>Created with Sketch.</desc>
    <g id="Page-1" stroke="none" stroke-width="1" fill="none" fill-rule="evenodd">
        <g id="Icons" transform="translate(-300.000000, -762.000000)" fill="#778CA2">
            <g id="Icons/Error" transform="translate(300.000000, 762.000000)">
                <g id="Actian-Icon__Error">
                    <path d="M10,19 C5.02943725,19 1,14.9705627 1,10 C1,5.02943725 5.02943725,1 10,1 C14.9705627,1 19,5.02943725 19,10 C19,12.3869484 18.0517884,14.6761336 16.363961,16.363961 C14.6761336,18.0517884 12.3869484,19 10,19 M10,20 C15.5228475,20 20,15.5228475 20,10 C20,4.4771525 15.5228475,0 10,0 C4.4771525,0 0,4.4771525 0,10 C0,15.5228475 4.4771525,20 10,20 Z M10.71,10 L13.18,7.53 C13.4253772,7.33372387 13.4656335,6.97588983 13.27,6.73 C13.0241102,6.5343665 12.6662761,6.57462283 12.47,6.82 L10,9.29 L7.53,6.82 C7.33372387,6.57462283 6.97588983,6.5343665 6.73,6.73 C6.5343665,6.97588983 6.57462283,7.33372387 6.82,7.53 L9.29,10 L6.82,12.47 C6.57462283,12.6662761 6.5343665,13.0241102 6.73,13.27 C6.97588983,13.4656335 7.33372387,13.4253772 7.53,13.18 L10,10.71 L12.47,13.18 C12.5865452,13.3472658 12.7915046,13.429057 12.9911888,13.387986 C13.1908731,13.3469149 13.3469149,13.1908731 13.387986,12.9911888 C13.429057,12.7915046 13.3472658,12.5865452 13.18,12.47 L10.71,10 Z" id="Shape"></path>
                </g>
            </g>
        </g>
    </g>
</svg>