<?xml version="1.0" encoding="UTF-8"?>
<svg width="28px" height="30px" viewBox="0 0 28 30" version="1.1" xmlns="http://www.w3.org/2000/svg" xmlns:xlink="http://www.w3.org/1999/xlink">
    <!-- Generator: Sketch 62 (91390) - https://sketch.com -->
    <title>Icons/Closed Lock</title>
    <desc>Created with Sketch.</desc>
    <g id="Page-1" stroke="none" stroke-width="1" fill="none" fill-rule="evenodd">
        <g id="Icons" transform="translate(-1276.000000, -390.000000)" fill="#1B1E24">
            <g id="Icons/Closed-Lock" transform="translate(1275.000000, 390.000000)">
                <g id="Actian-Icon__Closed-Lock" transform="translate(1.500000, 0.000000)">
                    <path d="M26.5350006,14.175 L26.5350006,23.52 C26.526753,27.020825 23.690825,29.856753 20.19,29.865 L6.81,29.865 C3.30917496,29.856753 0.473246972,27.020825 0.465,23.52 L0.465,14.175 C0.472734595,10.9230033 2.94337801,8.20594398 6.18,7.89 L6.18,4.5 C6.20467459,2.08201606 8.17189016,0.135 10.59,0.135 L16.77,0.135 C19.1881098,0.135 21.1553254,2.08201606 21.18,4.5 L21.18,7.905 L21.18,7.905 C24.2648237,8.39228775 26.5363338,11.051927 26.5350006,14.175 Z M7.68,4.5 L7.68,7.83 L19.68,7.83 L19.68,4.5 C19.68,2.89285138 18.3771486,1.59 16.77,1.59 L10.59,1.59 C8.98285138,1.59 7.68,2.89285138 7.68,4.5 Z M25.035,14.175 C25.035,11.4991804 22.8658196,9.33 20.19,9.33 L6.81,9.33 C4.13418039,9.33 1.965,11.4991804 1.965,14.175 L1.965,23.52 C1.965,26.1958196 4.13418039,28.365 6.81,28.365 L20.19,28.365 C22.8658196,28.365 25.035,26.1958196 25.035,23.52 L25.035,14.175 Z" id="Shape" fill-rule="nonzero"></path>
                    <path d="M14.25,19.8 L14.25,23.865 L12.75,23.865 L12.75,19.8 C11.5009674,19.4276104 10.7143339,18.1951626 10.9024999,16.9054534 C11.090666,15.6157441 12.1966365,14.6594235 13.5,14.6594235 C14.8033635,14.6594235 15.909334,15.6157441 16.0975001,16.9054534 C16.2856661,18.1951626 15.4990326,19.4276104 14.25,19.8 L14.25,19.8 Z" id="Path" fill-rule="nonzero"></path>
                </g>
            </g>
        </g>
    </g>
</svg>