<?xml version="1.0" encoding="UTF-8"?>
<svg width="30px" height="23px" viewBox="0 0 30 23" version="1.1" xmlns="http://www.w3.org/2000/svg" xmlns:xlink="http://www.w3.org/1999/xlink">
    <!-- Generator: Sketch 62 (91390) - https://sketch.com -->
    <title>Icons/Closed Folder</title>
    <desc>Created with Sketch.</desc>
    <g id="Page-1" stroke="none" stroke-width="1" fill="none" fill-rule="evenodd">
        <g id="Icons" transform="translate(-1191.000000, -393.000000)" fill="#1B1E24">
            <g id="Icons/Closed-Folder" transform="translate(1191.000000, 390.000000)">
                <g id="Actian-Icon__Closed-Folder-" transform="translate(0.000000, 3.000000)">
                    <path d="M29.2440393,22.4967684 L0.792773828,22.4967684 C0.390428839,22.5235136 0.0398561613,22.2188303 0.000187478014,21.8081015 L0.000187478014,2.38769443 C-0.00759766271,1.76262436 0.227354973,1.15991527 0.65354486,0.712183345 C1.07973475,0.264451423 1.66224271,0.0083808657 2.27289746,0.000149146923 L9.47915597,0.000149146923 C9.6160602,-0.00266910716 9.75094082,0.0345022256 9.86787531,0.107441742 L13.9942806,2.61725007 L27.6592604,2.61725007 C28.2796011,2.52563957 28.9067737,2.72979959 29.3614677,3.17136021 C29.8161618,3.61292082 30.0483233,4.24327365 29.9915765,4.88219904 L29.9915765,21.8081015 C29.9927482,22.0077595 29.9176339,22.1999786 29.7822661,22.3437314 C29.626954,22.4599299 29.4356486,22.5143249 29.2440393,22.4967684 Z M1.49545879,20.9663975 L28.4067976,20.9663975 L28.4067976,4.88219904 C28.4313607,4.66161551 28.3665172,4.44036737 28.2273887,4.27005067 C28.0624978,4.1638751 27.8683226,4.11552821 27.6742112,4.13231729 L13.7849702,4.13231729 C13.6705412,4.12389537 13.558816,4.0927055 13.4560538,4.04049503 L9.26984556,1.53068671 L2.27289746,1.53068671 C1.64496622,1.53068671 1.55526176,2.21935362 1.54031102,2.43360556 L1.49545879,20.9663975 Z" id="Shape" fill-rule="nonzero"></path>
                </g>
            </g>
        </g>
    </g>
</svg>