<?xml version="1.0" encoding="UTF-8"?>
<svg width="32px" height="32px" viewBox="0 0 32 32" version="1.1" xmlns="http://www.w3.org/2000/svg" xmlns:xlink="http://www.w3.org/1999/xlink">
    <!-- Generator: Sketch 62 (91390) - https://sketch.com -->
    <title>Icons/Community</title>
    <desc>Created with Sketch.</desc>
    <g id="Page-1" stroke="none" stroke-width="1" fill="none" fill-rule="evenodd">
        <g id="Icons" transform="translate(-680.000000, -491.000000)" fill="#1B1E24">
            <g id="Icons/Community" transform="translate(681.000000, 492.000000)">
                <g id="Actian-Icon__Community" transform="translate(-1.500000, -1.500000)">
                    <path d="M31.605,16.5 C31.605,24.8422611 24.8422611,31.605 16.5,31.605 C8.15773885,31.605 1.395,24.8422611 1.395,16.5 C1.395,8.15773885 8.15773885,1.395 16.5,1.395 C20.5060951,1.395 24.3481109,2.98641507 27.1808479,5.81915207 C30.0135849,8.65188907 31.605,12.4939049 31.605,16.5 Z M2.895,16.5 C2.89813902,17.6545524 3.04937328,18.8039328 3.345,19.92 C3.77105304,18.7466592 4.62970222,17.7806788 5.745,17.22 C5.13872185,16.6422476 4.80154373,15.8373708 4.815,15 C4.82287473,13.6458998 5.73689013,12.4649337 7.04574553,12.1177348 C8.35460092,11.770536 9.73379597,12.3431842 10.4118083,13.5153398 C11.0898206,14.6874955 10.8985527,16.1685497 9.945,17.13 C10.3650162,17.3174081 10.7584224,17.5595042 11.115,17.85 C11.8332273,16.8193875 12.8330727,16.0174281 13.995,15.54 C13.0457344,14.7960313 12.4923516,13.6560628 12.495,12.45 C12.4525696,10.5927653 13.7068864,8.95569241 15.5111903,8.51341605 C17.3154943,8.0711397 19.1847016,8.94256504 20.005976,10.6088872 C20.8272503,12.2752094 20.3797935,14.2884408 18.93,15.45 C20.1491385,15.9291727 21.1948987,16.7657808 21.93,17.85 C22.2925132,17.56021 22.6907775,17.3182267 23.115,17.13 C22.1222217,16.1833483 21.8980099,14.6838905 22.5704527,13.4882405 C23.2428956,12.2925906 24.6406796,11.7053559 25.9652752,12.0620133 C27.2898709,12.4186708 28.2038202,13.6283572 28.185,15 C28.1818837,15.8165629 27.8460458,16.5965735 27.255,17.16 C28.3702978,17.7206788 29.228947,18.6866592 29.655,19.86 C31.0046331,14.741096 29.2623997,9.30411216 25.1890021,5.92297043 C21.1156045,2.54182869 15.4507785,1.83055009 10.6679276,4.09969651 C5.88507679,6.36884292 2.85277484,11.2063335 2.895,16.5 L2.895,16.5 Z M22.5,19.2 C22.6819154,19.6840253 22.8077369,20.1873116 22.875,20.7 L28.5,20.7 C28.158466,19.1625408 26.8190933,18.0515405 25.245,18 L25.065,18 C24.0811311,18.0292904 23.1530102,18.463499 22.5,19.2 Z M25.065,16.71 L25.2,16.71 C26.0973619,16.673259 26.800529,15.9255499 26.7821546,15.0276242 C26.7637803,14.1296985 26.0306137,13.4113813 25.1325,13.4113813 C24.2343863,13.4113813 23.5012197,14.1296985 23.4828454,15.0276242 C23.464471,15.9255499 24.1676381,16.673259 25.065,16.71 Z M11.4,20.76 L21.525,20.76 C21.1607189,18.2899556 19.0710194,16.4408882 16.575,16.38 L16.335,16.38 C13.8561733,16.4623329 11.7912345,18.3062539 11.43,20.76 L11.4,20.76 Z M16.335,15 L16.605,15 C18.0431504,14.926779 19.1607636,13.72046 19.1241413,12.2809126 C19.0875189,10.8413652 17.9100132,9.69343442 16.47,9.69343442 C15.0299868,9.69343442 13.8524811,10.8413652 13.8158587,12.2809126 C13.7792364,13.72046 14.8968496,14.926779 16.335,15 L16.335,15 Z M4.5,20.76 L10.095,20.76 C10.1690569,20.2211868 10.3049531,19.6927015 10.5,19.185 C9.84012566,18.4597993 8.91494992,18.0323789 7.935,18 L7.755,18 C6.16287757,18.0580763 4.81757738,19.1987917 4.5,20.76 Z M7.77,16.71 L7.905,16.71 C8.82723385,16.6732447 9.55054511,15.9053708 9.53216383,14.9825879 C9.51378254,14.0598049 8.760466,13.3213446 7.8375,13.3213446 C6.914534,13.3213446 6.16121746,14.0598049 6.14283617,14.9825879 C6.12445489,15.9053708 6.84776615,16.6732447 7.77,16.71 Z M28.77,22.26 L4.2,22.26 C6.3855874,27.091398 11.1972461,30.1958289 16.5,30.1958289 C21.8027539,30.1958289 26.6144126,27.091398 28.8,22.26 L28.77,22.26 Z" id="Shape" fill-rule="nonzero"></path>
                </g>
            </g>
        </g>
    </g>
</svg>