<?xml version="1.0" encoding="UTF-8"?>
<svg width="30px" height="30px" viewBox="0 0 30 30" version="1.1" xmlns="http://www.w3.org/2000/svg" xmlns:xlink="http://www.w3.org/1999/xlink">
    <!-- Generator: Sketch 62 (91390) - https://sketch.com -->
    <title>Icons/Complete Success</title>
    <desc>Created with Sketch.</desc>
    <g id="Page-1" stroke="none" stroke-width="1" fill="none" fill-rule="evenodd">
        <g id="Icons" transform="translate(-769.000000, -492.000000)" fill="#1B1E24">
            <g id="Icons/Complete-Success" transform="translate(769.000000, 492.000000)">
                <g id="Actian-Icon__Complete_Success">
                    <path d="M15,1.5 C22.4558441,1.5 28.5,7.54415588 28.5,15 C28.5,22.4558441 22.4558441,28.5 15,28.5 C7.54415588,28.5 1.5,22.4558441 1.5,15 C1.5,7.54415588 7.54415588,1.5 15,1.5 M15,0 C6.71572875,0 0,6.71572875 0,15 C0,23.2842712 6.71572875,30 15,30 C23.2842712,30 30,23.2842712 30,15 C30,11.0217527 28.4196474,7.20644396 25.6066017,4.39339828 C22.793556,1.58035261 18.9782473,0 15,0 Z" id="Shape" fill-rule="nonzero"></path>
                    <path d="M13.335,20.145 C13.1165426,20.1489469 12.9076537,20.0554966 12.765,19.89 L8.265,14.745 C8.00091932,14.4244294 8.04086765,13.9517075 8.355,13.68 C8.50310155,13.548286 8.69812034,13.4819672 8.89581513,13.4960882 C9.09350992,13.5102093 9.27712278,13.6035733 9.405,13.755 L13.245,18.255 L20.475,8.685 C20.7280926,8.35850866 21.1975493,8.29814994 21.525,8.55 C21.848902,8.80290173 21.9151335,9.26652176 21.675,9.6 L13.935,19.86 C13.7965024,20.0427273 13.5792556,20.1485654 13.35,20.145 L13.335,20.145 Z" id="Path" fill-rule="nonzero"></path>
                </g>
            </g>
        </g>
    </g>
</svg>