<?xml version="1.0" encoding="UTF-8"?>
<svg width="26px" height="30px" viewBox="0 0 26 30" version="1.1" xmlns="http://www.w3.org/2000/svg" xmlns:xlink="http://www.w3.org/1999/xlink">
    <!-- Generator: Sketch 62 (91390) - https://sketch.com -->
    <title>Icons/Connect</title>
    <desc>Created with Sketch.</desc>
    <g id="Page-1" stroke="none" stroke-width="1" fill="none" fill-rule="evenodd">
        <g id="Icons" transform="translate(-851.000000, -492.000000)" fill="#1B1E24">
            <g id="Icons/Connect" transform="translate(847.000000, 492.000000)">
                <g id="Actian-Icon__Connect" transform="translate(3.000000, 0.000000)">
                    <path d="M27.0000527,15 C27.0087002,16.8422114 25.9392092,18.5192784 24.2652157,19.2884106 C22.5912221,20.0575427 20.6221024,19.7765942 19.23,18.57 L10.83,24.405 C10.8903739,24.696117 10.9205337,24.992689 10.92,25.29 C10.9286894,27.6633534 9.17544715,29.6748649 6.82314154,29.9903647 C4.47083593,30.3058645 2.24951027,28.8274366 1.63249721,26.5356738 C1.01548415,24.243911 2.19427508,21.8500671 4.38701653,20.9419004 C6.57975799,20.0337337 9.10592773,20.8930958 10.29,22.95 L18.255,17.415 C17.8159097,16.6857836 17.5826424,15.8512049 17.58,15 C17.5849645,14.4896453 17.6710389,13.9833253 17.835,13.5 L9.915,7.605 C8.49711562,9.40731444 5.98470782,9.92165482 3.97263409,8.82152175 C1.96056036,7.72138868 1.03761001,5.32871202 1.78966494,3.16234482 C2.54171988,0.995977626 4.74870769,-0.310140191 7.0096492,0.073105091 C9.27059071,0.456350373 10.9238709,2.41681041 10.92,4.71 C10.918288,5.24766833 10.8218119,5.78082594 10.635,6.285 L18.54,12.165 C19.7616759,10.5574154 21.8721019,9.90734026 23.7865806,10.5488943 C25.7010593,11.1904483 26.9936505,12.9808962 27.0000527,15 Z M9.42,4.71 C9.42,2.93716595 7.98283405,1.5 6.21,1.5 C4.43716595,1.5 3,2.93716595 3,4.71 C3,6.48283405 4.43716595,7.92 6.21,7.92 C7.06134493,7.92 7.87782099,7.58180454 8.47981277,6.97981277 C9.08180454,6.37782099 9.42,5.56134493 9.42,4.71 Z M9.42,25.29 C9.42,23.517166 7.98283405,22.08 6.21,22.08 C4.43716595,22.08 3,23.517166 3,25.29 C3,27.062834 4.43716595,28.5 6.21,28.5 C7.06134493,28.5 7.87782099,28.1618045 8.47981277,27.5598128 C9.08180454,26.957821 9.42,26.1413449 9.42,25.29 Z M25.5,15 C25.5,13.227166 24.062834,11.79 22.29,11.79 C20.517166,11.79 19.08,13.227166 19.08,15 C19.08,16.772834 20.517166,18.21 22.29,18.21 C23.1413449,18.21 23.957821,17.8718045 24.5598128,17.2698128 C25.1618045,16.667821 25.5,15.8513449 25.5,15 L25.5,15 Z" id="Shape" fill-rule="nonzero"></path>
                </g>
            </g>
        </g>
    </g>
</svg>