<?xml version="1.0" encoding="UTF-8"?>
<svg width="24px" height="30px" viewBox="0 0 24 30" version="1.1" xmlns="http://www.w3.org/2000/svg" xmlns:xlink="http://www.w3.org/1999/xlink">
    <!-- Generator: Sketch 62 (91390) - https://sketch.com -->
    <title>Icons/Connection 2</title>
    <desc>Created with Sketch.</desc>
    <g id="Page-1" stroke="none" stroke-width="1" fill="none" fill-rule="evenodd">
        <g id="Icons" transform="translate(-937.000000, -492.000000)" fill="#1B1E24">
            <g id="Icons/Connections" transform="translate(934.000000, 492.000000)">
                <g id="Actian-Icon__Connections" transform="translate(3.000000, 0.000000)">
                    <path d="M23.715,10.995 C23.5697955,10.8436297 23.3697446,10.7571213 23.16,10.755 L19.5,10.755 L19.5,2.76 C19.5001556,2.28664236 19.30909,1.83329378 18.9701658,1.50284273 C18.6312417,1.17239169 18.173202,0.992862598 17.7,1.005 L16.2,1.005 C15.2307403,1.005 14.445,1.79074026 14.445,2.76 L14.445,10.74 L9.945,10.74 L9.945,2.745 C9.95279341,2.28056462 9.7745649,1.83229292 9.45,1.5 C9.12075026,1.1672537 8.67309546,0.9784836 8.205,0.975 L6.705,0.975 C5.73913674,0.983151179 4.95815118,1.76413674 4.95,2.73 L4.95,10.725 L0.855,10.725 C0.642866287,10.722461 0.438203461,10.803249 0.285,10.95 C0.117488854,11.0941578 0.014819535,11.2994964 0,11.52 L0,14.25 C0,15.18 1.005,15.63 2.01,15.9 L2.01,19.65 C1.98589113,21.2329647 2.59789063,22.7594213 3.70885446,23.8873034 C4.8198183,25.0151854 6.3368517,25.6501836 7.92,25.65 L8.205,25.65 L8.52,28.38 C8.55875717,28.7812521 8.89688476,29.0868674 9.3,29.0850167 L14.58,29.0850167 C14.9861932,29.0876104 15.3290233,28.7835912 15.375,28.38 L15.69,25.65 L15.975,25.65 C19.2538771,25.6503689 21.9258169,23.0185083 21.975,19.74 L21.975,15.99 C22.98,15.735 24,15.27 24,14.355 L24,11.565 C23.9851805,11.3444964 23.8825111,11.1391578 23.715,10.995 Z M16.035,2.745 C16.0223499,2.71114303 16.0223499,2.67385697 16.035,2.64 C16.068566,2.62583124 16.106434,2.62583124 16.14,2.64 L17.64,2.64 C17.6837607,2.64 17.7257291,2.65738388 17.7566726,2.68832738 C17.7876161,2.71927088 17.805,2.76123928 17.805,2.805 L17.805,10.755 L16.005,10.755 L16.035,2.745 Z M6.555,2.745 C6.56197556,2.66522497 6.62522497,2.60197556 6.705,2.595 L8.205,2.595 C8.28784271,2.595 8.355,2.66215729 8.355,2.745 L8.355,10.74 L6.54,10.74 L6.555,2.745 Z M22.35,14.085 C21.9188232,14.2931353 21.4586006,14.4347422 20.985,14.505 C20.608561,14.5833231 20.3390586,14.9155004 20.34,15.3 L20.34,19.68 C20.3440335,20.8295715 19.8881233,21.9330058 19.0738409,22.7444706 C18.2595585,23.5559353 17.1545506,24.0080181 16.005,24 L15,24 C14.5938068,23.9973896 14.2509767,24.3014088 14.205,24.705 L13.875,27.435 L10.05,27.435 L9.735,24.69 C9.69151606,24.3113005 9.38068855,24.0195033 9,24 L7.95,24 C6.81982479,23.9928457 5.73951274,23.5337131 4.95,22.725 C4.15097323,21.930182 3.69813387,20.851993 3.69,19.725 L3.69,15.27 C3.69351212,14.8688704 3.39763285,14.527966 3,14.475 C2.52414766,14.406167 2.06293707,14.2591878 1.635,14.04 L1.635,12.315 L22.335,12.315 L22.35,14.085 Z" id="Shape" fill-rule="nonzero"></path>
                </g>
            </g>
        </g>
    </g>
</svg>