<?xml version="1.0" encoding="UTF-8"?>
<svg width="30px" height="30px" viewBox="0 0 30 30" version="1.1" xmlns="http://www.w3.org/2000/svg" xmlns:xlink="http://www.w3.org/1999/xlink">
    <!-- Generator: Sketch 62 (91390) - https://sketch.com -->
    <title>Icons/Contact</title>
    <desc>Created with Sketch.</desc>
    <g id="Page-1" stroke="none" stroke-width="1" fill="none" fill-rule="evenodd">
        <g id="Icons" transform="translate(-1021.000000, -492.000000)" fill="#1B1E24">
            <g id="Icons/Contact" transform="translate(1021.000000, 492.000000)">
                <g id="Actian-Icon__Contact-Actian">
                    <path d="M17.67,23.4301283 C16.6632879,23.4044068 15.6767146,23.1423483 14.79,22.665 C13.6354093,22.074616 12.5781327,21.3107464 11.655,20.4 C10.2977473,19.1461825 9.14393511,17.6887356 8.235,16.08 C7.72236862,15.1766279 7.36729465,14.1925658 7.185,13.17 C6.85991206,11.4802921 7.26297879,9.73185404 8.295,8.355 C8.46658397,8.13343504 8.66284924,7.93213733 8.88,7.755 L9.555,7.17 C9.92029419,6.78569574 10.4272834,6.56812368 10.9575,6.56812368 C11.4877166,6.56812368 11.9947058,6.78569574 12.36,7.17 L12.495,7.305 C13.1395114,8.06411559 13.6700752,8.91301777 14.07,9.825 C14.1954483,10.1453911 14.2615254,10.4859424 14.265,10.83 C14.3144011,11.4472539 14.0630722,12.0504433 13.59,12.45 L13.035,12.915 L12.78,13.125 L12.525,13.32 C12.345,13.44 12.21,13.575 12.33,14.025 C12.4630146,14.4123069 12.6553005,14.7766379 12.9,15.105 C13.5735048,16.1174205 14.4277614,16.9971013 15.42,17.7 C15.5359241,17.7850996 15.6618683,17.8556283 15.795,17.91 C15.9485911,18.0156317 16.1514089,18.0156317 16.305,17.91 C16.4169436,17.8229683 16.522236,17.7277038 16.62,17.625 L16.875,17.37 L17.13,17.1 C17.8738396,16.3867413 18.9883351,16.2240852 19.905,16.695 C20.1804148,16.840169 20.4415649,17.0109209 20.685,17.205 L21.93,18.27 C22.3111495,18.58585 22.6054272,18.9937086 22.785,19.455 C23.0045376,20.0102801 22.8944652,20.6417479 22.5,21.09 C21.7550686,22.0254469 20.7699838,22.7409296 19.65,23.16 C19.036834,23.3430398 18.3998904,23.4340317 17.76,23.4301283 L17.67,23.4301283 Z M10.965,8.055 C10.8320452,8.07139683 10.7095077,8.13532944 10.62,8.235 C10.305,8.505 10.08,8.67 9.885,8.865 C9.73896074,8.98848993 9.60348993,9.12396074 9.48,9.27 C8.70422634,10.3261396 8.41010256,11.6605901 8.67,12.945 C8.81363892,13.8023779 9.11362128,14.6260582 9.555,15.375 C10.3992417,16.8463333 11.4612636,18.1814465 12.705,19.335 C13.5108983,20.134403 14.4371445,20.8025149 15.45,21.315 C16.1494782,21.7003852 16.9315993,21.911352 17.73,21.93 L17.73,21.93 C18.2388219,21.9564141 18.7479942,21.8851299 19.23,21.72 C20.0782333,21.3763283 20.8225699,20.8180759 21.39,20.1 C21.39,20.1 21.39,19.995 21.39,19.89 C21.2983853,19.6646306 21.1482037,19.4678409 20.955,19.32 L19.755,18.285 C19.5977388,18.1606519 19.4265973,18.0549468 19.245,17.97 C18.8910415,17.7639219 18.4412797,17.8326355 18.165,18.135 L17.97,18.33 L17.775,18.54 C17.6081561,18.7142147 17.4275742,18.8747319 17.235,19.02 C16.6757478,19.4827295 15.9021309,19.5874295 15.24,19.29 C15.0057749,19.1981497 14.7840342,19.0772002 14.58,18.93 C13.4313603,18.1202722 12.4443765,17.1027631 11.67,15.93 C11.3306701,15.4754229 11.0672553,14.9688559 10.89,14.43 C10.5978111,13.5677764 10.9169302,12.6165561 11.67,12.105 L12.09,11.76 L12.615,11.34 C12.7294378,11.24404 12.7908204,11.0989538 12.78,10.95 C12.799951,10.7755686 12.799951,10.5994314 12.78,10.425 C12.4402613,9.64626787 11.9851554,8.92315522 11.43,8.28 C11.19,8.13 11.085,8.055 10.965,8.055 Z" id="Shape" fill-rule="nonzero"></path>
                    <path d="M15,30 C6.71572875,30 0,23.2842712 0,15 C0,6.71572875 6.71572875,0 15,0 C23.2842712,0 30,6.71572875 30,15 C29.950858,23.2638304 23.2638304,29.950858 15,30 Z M15,1.5 C7.54415588,1.5 1.5,7.54415588 1.5,15 C1.5,22.4558441 7.54415588,28.5 15,28.5 C22.4558441,28.5 28.5,22.4558441 28.5,15 C28.4509197,7.56458048 22.4354195,1.54908028 15,1.5 Z" id="Shape" fill-rule="nonzero"></path>
                </g>
            </g>
        </g>
    </g>
</svg>