<?xml version="1.0" encoding="UTF-8"?>
<svg width="30px" height="30px" viewBox="0 0 30 30" version="1.1" xmlns="http://www.w3.org/2000/svg" xmlns:xlink="http://www.w3.org/1999/xlink">
    <!-- Generator: Sketch 62 (91390) - https://sketch.com -->
    <title>Icons/Copy-Paste</title>
    <desc>Created with Sketch.</desc>
    <g id="Page-1" stroke="none" stroke-width="1" fill="none" fill-rule="evenodd">
        <g id="Icons" transform="translate(-1106.000000, -492.000000)" fill="#1B1E24">
            <g id="Icons/Copy-Paste" transform="translate(1106.000000, 492.000000)">
                <g id="Actian-Icon__Copy_Paste">
                    <path d="M29.16,9.435 L16.17,9.435 L16.17,2.415 C16.1740308,2.21350154 16.0967962,2.01885979 15.9557046,1.87494643 C15.8146131,1.73103306 15.6215388,1.64995969 15.42,1.65 L13.635,1.65 L13.635,0.78 C13.6390297,0.574523032 13.5602143,0.376066431 13.4163098,0.229340356 C13.2724054,0.0826142804 13.0755165,-1.41591272e-08 12.87,-1.41591272e-08 L3.375,-1.41591272e-08 C2.95250217,-1.41591272e-08 2.61,0.342502166 2.61,0.765 L2.61,1.65 L0.84,1.65 C0.417502166,1.65 0.075,1.99250217 0.075,2.415 L0.075,20.85 C0.075,21.2724978 0.417502166,21.615 0.84,21.615 L13.35,21.615 L13.35,29.22 C13.35,29.6424978 13.6925022,29.985 14.115,29.985 L29.115,29.985 C29.3178906,29.985 29.5124714,29.904402 29.6559367,29.7609367 C29.799402,29.6174714 29.8800002,29.4228906 29.8800002,29.22 L29.8800002,10.185 C29.8803223,9.78222485 29.5624529,9.45111088 29.16,9.435 Z M4.125,1.5 L12.12,1.5 L12.12,3.255 L4.125,3.255 L4.125,1.5 Z M13.35,10.185 L13.35,20.085 L1.605,20.085 L1.605,3.165 L2.61,3.165 L2.61,4.02 C2.61,4.44249783 2.95250217,4.785 3.375,4.785 L12.87,4.785 C13.2924978,4.785 13.635,4.44249783 13.635,4.02 L13.635,3.165 L14.655,3.165 L14.655,9.435 L14.115,9.435 C13.9135015,9.43096922 13.7188598,9.50820382 13.5749464,9.64929536 C13.4310331,9.79038689 13.3499597,9.98346123 13.35,10.185 Z M28.395,28.5 L14.895,28.5 L14.895,10.95 L28.395,10.95 L28.395,28.5 Z" id="Shape" fill-rule="nonzero"></path>
                    <path d="M15.99,13.695 C15.99,13.2807864 16.3257864,12.945 16.74,12.945 L26.535,12.945 C26.9492136,12.945 27.285,13.2807864 27.285,13.695 C27.285,14.1092136 26.9492136,14.445 26.535,14.445 L16.74,14.445 C16.3257864,14.445 15.99,14.1092136 15.99,13.695 Z" id="Path" fill-rule="nonzero"></path>
                    <path d="M15.99,19.755 C15.99,19.3407864 16.3257864,19.005 16.74,19.005 L26.535,19.005 C26.9492136,19.005 27.285,19.3407864 27.285,19.755 C27.285,20.1692136 26.9492136,20.505 26.535,20.505 L16.74,20.505 C16.3257864,20.505 15.99,20.1692136 15.99,19.755 Z" id="Path" fill-rule="nonzero"></path>
                    <path d="M15.99,25.71 C15.99,25.2957864 16.3257864,24.96 16.74,24.96 L26.535,24.96 C26.9492136,24.96 27.285,25.2957864 27.285,25.71 C27.285,26.1242136 26.9492136,26.46 26.535,26.46 L16.74,26.46 C16.3257864,26.46 15.99,26.1242136 15.99,25.71 Z" id="Path" fill-rule="nonzero"></path>
                </g>
            </g>
        </g>
    </g>
</svg>