<?xml version="1.0" encoding="UTF-8"?>
<svg width="30px" height="23px" viewBox="0 0 30 23" version="1.1" xmlns="http://www.w3.org/2000/svg" xmlns:xlink="http://www.w3.org/1999/xlink">
    <!-- Generator: Sketch 62 (91390) - https://sketch.com -->
    <title>Icons/Credit Card Security Code</title>
    <desc>Created with Sketch.</desc>
    <g id="Page-1" stroke="none" stroke-width="1" fill="none" fill-rule="evenodd">
        <g id="Icons" transform="translate(-1275.000000, -496.000000)" fill="#1B1E24">
            <g id="Icons/Credit-Card-Security-Code" transform="translate(1275.000000, 492.000000)">
                <g id="Actian-Icon__Credit-Card---Security-Code" transform="translate(0.000000, 4.500000)">
                    <path d="M30,4.65 L30,17.28 C29.9917708,19.6458845 28.0758845,21.5617708 25.71,21.57 L4.365,21.57 C1.99911547,21.5617708 0.0832292382,19.6458845 0.075,17.28 L0.075,4.65 C0.0832292382,2.28411547 1.99911547,0.368229238 4.365,0.36 L25.635,0.36 C26.7845212,0.343970647 27.8927007,0.788384791 28.7126275,1.59422346 C29.5325542,2.40006214 29.9961061,3.50037367 30,4.65 L30,4.65 Z M1.65,4.65 L1.65,5.28 L28.5,5.28 L28.5,4.65 C28.5,3.10912555 27.2508745,1.86 25.71,1.86 L4.365,1.86 C2.82412555,1.86 1.575,3.10912555 1.575,4.65 L1.65,4.65 Z M19.425,6.15 L19.425,9 L26.73,9 L26.73,6.18 L19.425,6.15 Z M28.425,17.25 L28.425,9.96 L1.575,9.96 L1.575,17.28 C1.575,18.0185821 1.86941261,18.7266969 2.3930748,19.2475437 C2.91673698,19.7683905 3.62642873,20.0589923 4.365,20.055 L25.635,20.055 C26.3864426,20.079384 27.1156194,19.7978192 27.6556639,19.2747394 C28.1957084,18.7516597 28.5003955,18.031838 28.5000004,17.28 L28.425,17.25 Z" id="Shape" fill-rule="nonzero"></path>
                </g>
            </g>
        </g>
    </g>
</svg>