<?xml version="1.0" encoding="UTF-8"?>
<svg width="30px" height="23px" viewBox="0 0 30 23" version="1.1" xmlns="http://www.w3.org/2000/svg" xmlns:xlink="http://www.w3.org/1999/xlink">
    <!-- Generator: Sketch 62 (91390) - https://sketch.com -->
    <title>Icons/Credit Card</title>
    <desc>Created with Sketch.</desc>
    <g id="Page-1" stroke="none" stroke-width="1" fill="none" fill-rule="evenodd">
        <g id="Icons" transform="translate(-1191.000000, -496.000000)" fill="#1B1E24">
            <g id="Icons/Credit-Card" transform="translate(1191.000000, 492.000000)">
                <g id="Actian-Icon__Credit-Card" transform="translate(0.000000, 4.500000)">
                    <path d="M25.5,21.57 L4.215,21.57 C1.87845513,21.5211542 0.00763254093,19.6170429 0,17.28 L0,4.65 C0.00763254093,2.31295708 1.87845513,0.408845837 4.215,0.36 L25.5,0.36 C27.8600246,0.376432436 29.7668339,2.28993231 29.775,4.65 L29.775,17.28 C29.7668339,19.6400677 27.8600246,21.5535676 25.5,21.57 Z M4.215,1.86 C2.70349227,1.90064652 1.49945358,3.13794595 1.49999981,4.65 L1.49999981,17.28 C1.49999981,18.8208745 2.74912555,20.07 4.29,20.07 L25.4999998,20.07 C27.0408745,20.07 28.29,18.8208745 28.29,17.28 L28.29,4.65 C28.29,3.10912555 27.0408745,1.86 25.4999998,1.86 L4.215,1.86 Z" id="Shape" fill-rule="nonzero"></path>
                    <path d="M7.5,13.86 L4.26,13.86 C3.84578644,13.86 3.51,13.5242136 3.51,13.11 C3.51,12.6957864 3.84578644,12.36 4.26,12.36 L7.5,12.36 C7.91421356,12.36 8.25,12.6957864 8.25,13.11 C8.25,13.5242136 7.91421356,13.86 7.5,13.86 Z M14.355,13.11 C14.355,12.6957864 14.0192136,12.36 13.605,12.36 L10.365,12.36 C9.95078644,12.36 9.615,12.6957864 9.615,13.11 C9.615,13.5242136 9.95078644,13.86 10.365,13.86 L13.5,13.86 C13.7065878,13.872418 13.9091247,13.7989172 14.0596665,13.6568965 C14.2102084,13.5148759 14.2953729,13.3169603 14.295,13.11 L14.355,13.11 Z M20.355,13.11 C20.355,12.6957864 20.0192136,12.36 19.605,12.36 L16.395,12.36 C15.9807864,12.36 15.645,12.6957864 15.645,13.11 C15.645,13.5242136 15.9807864,13.86 16.395,13.86 L19.575,13.86 C19.9892136,13.86 20.325,13.5242136 20.325,13.11 L20.355,13.11 Z M26.52,13.11 C26.52,12.6957864 26.1842136,12.36 25.77,12.36 L22.5,12.36 C22.0857864,12.36 21.75,12.6957864 21.75,13.11 C21.75,13.5242136 22.0857864,13.86 22.5,13.86 L25.68,13.86 C25.8890868,13.8767818 26.0956468,13.8052368 26.2495599,13.6627247 C26.4034729,13.5202126 26.4906724,13.3197581 26.49,13.11 L26.52,13.11 Z" id="Shape" fill-rule="nonzero"></path>
                    <path d="M19.575,17.4 L4.26,17.4 C3.84578644,17.4 3.51,17.0642136 3.51,16.65 C3.51,16.2357864 3.84578644,15.9 4.26,15.9 L19.575,15.9 C19.9892136,15.9 20.325,16.2357864 20.325,16.65 C20.3170198,17.0608627 19.9858627,17.3920198 19.575,17.4 Z" id="Path" fill-rule="nonzero"></path>
                    <path d="M7.5,9.00000008 L4.74,9.00000008 C4.24675551,9.00014915 3.77433613,8.80118121 3.42982116,8.44819455 C3.08530618,8.0952079 2.89787101,7.61809536 2.91,7.125 L2.91,5.625 C2.94238366,4.63782502 3.75229414,3.85446898 4.74,3.85499973 L7.5,3.85499973 C8.49894609,3.87137836 9.30013426,4.68591966 9.3,5.685 L9.3,7.185 C9.28419233,8.17497088 8.48980561,8.97597749 7.5,9.00000008 L7.5,9.00000008 Z M4.74,5.355 C4.55774603,5.355 4.41,5.50274603 4.41,5.685 L4.41,7.185 C4.41802506,7.36137087 4.56344675,7.50018248 4.74,7.5 L7.5,7.5 C7.59009027,7.5040993 7.67793329,7.47114978 7.74310365,7.40881291 C7.80827401,7.34647604 7.84509322,7.26018344 7.84500018,7.17 L7.84500018,5.67 C7.84111094,5.58244675 7.80255453,5.50003643 7.73783397,5.44094375 C7.67311341,5.38185107 7.58754503,5.35093005 7.5,5.355 L4.74,5.355 Z" id="Shape" fill-rule="nonzero"></path>
                </g>
            </g>
        </g>
    </g>
</svg>