<?xml version="1.0" encoding="UTF-8"?>
<svg width="24px" height="16px" viewBox="0 0 24 16" version="1.1" xmlns="http://www.w3.org/2000/svg" xmlns:xlink="http://www.w3.org/1999/xlink">
    <!-- Generator: Sketch 62 (91390) - https://sketch.com -->
    <title>Icons/Data Grid View</title>
    <desc>Created with Sketch.</desc>
    <g id="Page-1" stroke="none" stroke-width="1" fill="none" fill-rule="evenodd">
        <g id="Icons" transform="translate(-850.000000, -601.000000)" fill="#1B1E24">
            <g id="Icons/DG-View" transform="translate(847.000000, 594.000000)">
                <g id="Actian-Icon__DG-View" transform="translate(3.000000, 7.500000)">
                    <path d="M19.935,14.865 L4.065,14.865 C2.99364957,14.8770007 1.96183436,14.4608298 1.19861601,13.7088766 C0.435397662,12.9569235 0.00393061648,11.9314104 0,10.86 L0,0.765 C0,0.350786438 0.335786438,0.015 0.75,0.015 L23.19,0.015 C23.6042136,0.015 23.94,0.350786438 23.94,0.765 L23.94,10.86 C23.9317746,13.0684844 22.1434844,14.8567746 19.935,14.865 Z M1.5,1.5 L1.5,10.845 C1.5,12.2284733 2.6215267,13.35 4.005,13.35 L19.935,13.35 C20.6071073,13.3661139 21.2574824,13.1113882 21.7398707,12.6431048 C22.222259,12.1748214 22.4961674,11.5322895 22.5,10.86 L22.5,1.5 L1.5,1.5 Z" id="Shape" fill-rule="nonzero"></path>
                    <path d="M19.755,10.965 L4.245,10.965 C3.77279654,10.965 3.39,10.5822035 3.39,10.11 L3.39,4.62 C3.39,4.14779654 3.77279654,3.765 4.245,3.765 L19.755,3.765 C20.2272035,3.765 20.61,4.14779654 20.61,4.62 L20.61,10.11 C20.61,10.5822035 20.2272035,10.965 19.755,10.965 Z" id="Path" fill-rule="nonzero"></path>
                </g>
            </g>
        </g>
    </g>
</svg>