<?xml version="1.0" encoding="UTF-8"?>
<svg width="25px" height="30px" viewBox="0 0 25 30" version="1.1" xmlns="http://www.w3.org/2000/svg" xmlns:xlink="http://www.w3.org/1999/xlink">
    <!-- Generator: Sketch 62 (91390) - https://sketch.com -->
    <title>Icons/Database</title>
    <desc>Created with Sketch.</desc>
    <g id="Page-1" stroke="none" stroke-width="1" fill="none" fill-rule="evenodd">
        <g id="Icons" transform="translate(-773.000000, -594.000000)" fill="#1B1E24">
            <g id="Icons/Database" transform="translate(769.000000, 594.000000)">
                <g id="Actian-Icon__Database" transform="translate(4.500000, 0.000000)">
                    <path d="M24,3.51 C23.9796296,3.3042314 23.869952,3.11777947 23.7,3 C22.77,1.32 17.88,0.075 12,0.075 C5.385,0.075 1.03758929e-12,1.605 1.03758929e-12,3.51 C-0.00702530597,3.55472581 -0.00702530597,3.60027419 1.03758929e-12,3.645 L1.03758929e-12,25.71 C1.03758929e-12,28.485 6,29.925 12,29.925 C18,29.925 23.46,28.59 23.895,26.025 C23.919288,25.9214045 23.919288,25.8135955 23.895,25.71 L24,3.51 Z M22.5,10.035 C22.5,10.035 22.5,10.035 22.5,10.14 C22.5,11.055 18.825,12.81 12.105,12.81 C5.385,12.81 1.62,11.055 1.62,10.14 L1.62,5.22 C4.9224487,6.51037998 8.45770219,7.09788598 12,6.945 C15.5872865,7.10626467 19.1675246,6.49762419 22.5,5.16 L22.5,10.035 Z M1.62,12.33 C3.78,13.665 7.905,14.355 12,14.355 C16.095,14.355 20.25,13.665 22.41,12.315 L22.41,17.82 C22.41,17.82 22.41,17.82 22.41,17.925 C22.41,18.84 18.735,20.595 12.015,20.595 C5.295,20.595 1.62,18.84 1.62,18 L1.62,12.33 Z M12,1.62 C17.85,1.62 21.315,2.82 22.215,3.51 C21.27,4.2 17.805,5.4 12,5.4 C6.195,5.4 2.7,4.2 1.8,3.51 C2.655,2.82 6.105,1.62 12,1.62 Z M12,28.38 C5.28,28.38 1.62,26.625 1.62,25.71 L1.62,20.115 C3.78,21.45 7.905,22.14 12,22.14 C16.095,22.14 20.25,21.45 22.41,20.1 L22.41,25.605 C22.41,25.605 22.41,25.68 22.41,25.71 C22.395,26.625 18.72,28.38 12,28.38 Z" id="Shape" fill-rule="nonzero"></path>
                </g>
            </g>
        </g>
    </g>
</svg>