<?xml version="1.0" encoding="UTF-8"?>
<svg width="31px" height="30px" viewBox="0 0 31 30" version="1.1" xmlns="http://www.w3.org/2000/svg" xmlns:xlink="http://www.w3.org/1999/xlink">
    <!-- Generator: Sketch 62 (91390) - https://sketch.com -->
    <title>Icons/Data Grid Filter</title>
    <desc>Created with Sketch.</desc>
    <g id="Page-1" stroke="none" stroke-width="1" fill="none" fill-rule="evenodd">
        <g id="Icons" transform="translate(-681.000000, -594.000000)" fill="#1B1E24">
            <g id="Icons/Data-Grid-Filter" transform="translate(681.000000, 594.000000)">
                <g id="Actian-Icon__Data-Grid-Filter">
                    <path d="M18.87,29.79 C18.6058707,29.7872569 18.3471492,29.7148149 18.12,29.58 L10.32,25.08 C9.8690205,24.8126498 9.59035032,24.3292423 9.585,23.805 L9.585,18 L1.395,8.445 C1.32735507,8.34979036 1.2671756,8.24949124 1.215,8.145 C0.444686875,7.50338583 -0.000515166582,6.55252221 -4.46601181e-07,5.55 L-4.46601181e-07,3.39 C-4.46601181e-07,1.5177547 1.5177547,0 3.39,0 L26.7,0 C27.5990839,0 28.4613437,0.357159689 29.097092,0.992908012 C29.7328403,1.62865633 30.09,2.4909161 30.09,3.39 L30.09,5.55 C30.085895,6.58506995 29.6111923,7.56207417 28.8,8.205 C28.766737,8.29431688 28.7157089,8.37596178 28.65,8.445 L20.325,18 L20.325,28.365 C20.3196497,28.8892423 20.0409795,29.3726498 19.59,29.64 C19.3661662,29.7489736 19.118729,29.8005231 18.87,29.79 Z M3.39,1.5 C2.34618182,1.5 1.5,2.34618182 1.5,3.39 L1.5,5.55 C1.50806101,6.14882968 1.80396808,6.7071449 2.295,7.05 L2.49,7.2 L2.565,7.5 L11.085,17.415 L11.085,23.76 L18.885,28.26 L18.885,17.355 L27.525,7.5 L27.525,7.29 L27.69,7.155 C28.1943614,6.82056099 28.5026462,6.26004314 28.515,5.655 L28.515,3.39 C28.5081594,2.37787097 27.711023,1.5477951 26.7,1.5 L3.39,1.5 Z" id="Shape" fill-rule="nonzero"></path>
                </g>
            </g>
        </g>
    </g>
</svg>