<?xml version="1.0" encoding="UTF-8"?>
<svg width="30px" height="26px" viewBox="0 0 30 26" version="1.1" xmlns="http://www.w3.org/2000/svg" xmlns:xlink="http://www.w3.org/1999/xlink">
    <!-- Generator: Sketch 62 (91390) - https://sketch.com -->
    <title>Icons/DJAR</title>
    <desc>Created with Sketch.</desc>
    <g id="Page-1" stroke="none" stroke-width="1" fill="none" fill-rule="evenodd">
        <g id="Icons" transform="translate(-681.000000, -202.000000)" fill="#1B1E24">
            <g id="Icons/.DJAR" transform="translate(681.000000, 200.000000)">
                <g id="Actian-Icon__.djar" transform="translate(0.000000, 1.500000)">
                    <path d="M30.0000279,5.64 L30.0000279,5.64 L30.0000279,19.74 C30.0026381,20.0440399 29.8177978,20.3183191 29.535,20.43 L15.33,26.43 C15.2361884,26.4512509 15.1388116,26.4512509 15.045,26.43 C14.9461093,26.4510644 14.8438907,26.4510644 14.745,26.43 L0.54,20.43 C0.257202171,20.3183191 0.0723618513,20.0440399 0.0749721262,19.74 L0.0749721262,5.655 L0.0749721262,5.655 C0.0823787992,5.5078313 0.134734819,5.36647004 0.225,5.25 L0.315,5.145 C0.315,5.145 0.315,5.055 0.42,5.04 L0.555,5.04 C0.555,5.04 0.555,5.04 0.555,5.04 L14.82,0.69 C14.9615319,0.645150261 15.1134681,0.645150261 15.255,0.69 L29.475,4.935 C29.475,4.935 29.475,4.935 29.55,4.935 C29.5946295,4.92683331 29.6403705,4.92683331 29.685,4.935 C29.685,4.935 29.76,4.935 29.79,5.04 L29.88,5.145 C29.9438624,5.23928601 29.9849426,5.34712163 30.0000279,5.46 C30.0000279,5.46 30.0000279,5.46 30.0000279,5.46 L30.0000279,5.64 Z M14.295,11.64 L8.91,9.54 L1.59,6.735 L1.59,19.26 L14.31,24.57 L14.295,11.64 Z M18.15,9.09 L20.4,8.235 L13.005,5.715 C12.6114971,5.57830952 12.4033095,5.14850288 12.54,4.755 C12.6766905,4.36149712 13.1064971,4.15330952 13.5,4.29 L22.62,7.395 L27,5.745 L15,2.19 L3.165,5.745 L15.06,10.245 L18.15,9.09 Z M28.5,6.735 L23.16,8.79 L23.16,17.22 C23.1520198,17.6308627 22.8208627,17.9620198 22.41,17.97 C21.9957864,17.97 21.66,17.6342136 21.66,17.22 L21.66,9.36 L21.195,9.54 L15.81,11.595 L15.81,24.57 L28.5,19.26 L28.5,6.735 Z" id="Shape" fill-rule="nonzero"></path>
                </g>
            </g>
        </g>
    </g>
</svg>