<?xml version="1.0" encoding="UTF-8"?>
<svg width="24px" height="30px" viewBox="0 0 24 30" version="1.1" xmlns="http://www.w3.org/2000/svg" xmlns:xlink="http://www.w3.org/1999/xlink">
    <!-- Generator: Sketch 62 (91390) - https://sketch.com -->
    <title>Icons/DOC</title>
    <desc>Created with Sketch.</desc>
    <g id="Page-1" stroke="none" stroke-width="1" fill="none" fill-rule="evenodd">
        <g id="Icons" transform="translate(-772.000000, -200.000000)" fill="#1B1E24">
            <g id="Icons/.DOC" transform="translate(769.000000, 200.000000)">
                <g id="Actian-Icon__doc" transform="translate(3.000000, 0.000000)">
                    <path d="M7.785,18.81 L7.785,18.3 C7.55879423,18.4906295 7.29948986,18.638077 7.02,18.735 C6.73678458,18.8391866 6.43672899,18.8900435 6.135,18.885 C5.76904257,18.8922468 5.40581385,18.8206242 5.07,18.675 C4.75198241,18.5332837 4.46229663,18.3350777 4.215,18.09 C3.96585837,17.8375798 3.77177171,17.5362347 3.645,17.205 C3.49949472,16.8638763 3.42792287,16.4957925 3.435,16.125 C3.4233395,15.739266 3.4949663,15.355551 3.645,15 C3.77578244,14.6752561 3.96949895,14.3795835 4.215,14.13 C4.45702227,13.8717092 4.7544873,13.6716896 5.085,13.545 C5.42456715,13.3930104 5.79298833,13.3162559 6.165,13.32 C6.45666556,13.3186024 6.74622824,13.3694029 7.02,13.47 C7.29122803,13.5543044 7.54521679,13.6863786 7.77,13.86 L7.77,11.43 L8.82,11.19 L8.82,18.81 L7.785,18.81 Z M4.5,16.11 C4.48692601,16.6062575 4.68285521,17.0851956 5.04,17.43 C5.37448165,17.7840457 5.84304775,17.9801896 6.33,17.97 C6.61809033,17.9703781 6.90346747,17.9143463 7.17,17.805 C7.41742324,17.6939372 7.63756565,17.5301103 7.815,17.325 L7.815,14.895 C7.63284315,14.6988971 7.41361762,14.5408508 7.17,14.43 C6.90303349,14.3221063 6.61794262,14.2661063 6.33,14.265 C5.84079318,14.2608897 5.37064338,14.4544434 5.02612455,14.8017861 C4.68160573,15.1491289 4.49189638,15.620843 4.5,16.11 L4.5,16.11 Z M9.525,16.11 C9.50969227,15.7329153 9.56567146,15.356328 9.69,15 C9.8275427,14.6671634 10.0317298,14.3659875 10.29,14.115 C10.5491817,13.8596688 10.8546244,13.6560404 11.19,13.515 C11.5328325,13.3751457 11.8997407,13.3038024 12.27,13.3049852 C12.6449155,13.3059627 13.0163287,13.3771927 13.365,13.515 C13.6957421,13.6564055 13.9961996,13.8601055 14.25,14.115 C14.5085744,14.3626692 14.708457,14.6650558 14.835,15 C15.1352353,15.6991297 15.1352353,16.4908703 14.835,17.19 C14.5651454,17.8767044 14.0217044,18.4201454 13.335,18.69 C12.9896927,18.8405664 12.6166995,18.9172088 12.24,18.9150464 C11.5028869,18.8974899 10.7980364,18.609142 10.26,18.105 C10.0051055,17.8511996 9.80140549,17.5507421 9.66,17.22 C9.53242818,16.8693694 9.47138406,16.4980176 9.48,16.125 L9.525,16.11 Z M12.27,18 C12.7432406,18.0068904 13.1966545,17.810229 13.515,17.46 C13.8536877,17.1052747 14.0372021,16.6302964 14.025,16.14 C14.0407427,15.6417881 13.8508936,15.1590291 13.5,14.805 C13.1816545,14.454771 12.7282406,14.2581096 12.255,14.265 C11.7821465,14.2600356 11.3294871,14.4563698 11.01,14.805 C10.6684102,15.1578766 10.4844067,15.6341208 10.5,16.125 C10.4877979,16.6152964 10.6713123,17.0902747 11.01,17.445 C11.3290618,17.8047646 11.7891928,18.0074413 12.27,18 Z M18.555,18 C18.8194334,18.0059881 19.0815444,17.9494544 19.32,17.835 C19.5753934,17.7150049 19.8086767,17.5527209 20.01,17.355 L20.64,18.03 C20.3617848,18.3122412 20.030404,18.5365605 19.665,18.69 C19.301943,18.8527597 18.9078436,18.9346504 18.51,18.93 C17.7791902,18.9398502 17.0756074,18.6530048 16.56,18.135 C16.3047643,17.8845612 16.1053994,17.5829577 15.975,17.25 C15.6747647,16.5508703 15.6747647,15.7591297 15.975,15.06 C16.0799735,14.7198382 16.259305,14.4072888 16.5,14.145 C16.7481502,13.8902411 17.0436869,13.6864227 17.37,13.545 C17.713976,13.4090205 18.0801325,13.3378234 18.45,13.3349859 C18.8571944,13.3337497 19.2603813,13.4154078 19.635,13.575 C20.005755,13.7266964 20.3423744,13.9511094 20.625,14.235 L19.95,14.955 C19.7637295,14.7390379 19.5336335,14.5651876 19.275,14.445 C19.02554,14.3316487 18.7539646,14.275284 18.48,14.28 C18.0142778,14.2735521 17.5675237,14.4642398 17.25,14.805 C16.5708246,15.5539548 16.5708246,16.6960452 17.25,17.445 C17.5841713,17.8101563 18.0601759,18.012595 18.555,18 L18.555,18 Z" id="Shape" fill-rule="nonzero"></path>
                    <path d="M22.815,6.81 C22.815,6.81 22.815,6.81 22.815,6.81 L16.5,0.42 L16.5,0.42 L16.065,-2.24060863e-07 L2.91,-2.24060863e-07 C2.38623924,-2.24060863e-07 1.8847485,0.211829207 1.52009044,0.587794491 C1.15543239,0.963759775 0.958759294,1.47149104 0.975,1.995 L0.975,28.11 C1.00722359,29.1576589 1.86187294,29.9924327 2.91,29.9999998 L21.195,29.9999998 C22.2685553,29.9918357 23.1368357,29.1235553 23.145,28.05 L23.145,7.05 L22.815,6.81 Z M16.68,2.79 L20.4,6.525 L16.68,6.525 L16.68,2.79 Z M21.645,28.11 C21.6372091,28.3552286 21.4402286,28.5522091 21.195,28.56 L2.91,28.56 C2.66734868,28.5519072 2.47486508,28.3527862 2.475,28.11 L2.475,1.995 C2.45753698,1.86964562 2.49553535,1.74290137 2.5790827,1.64783025 C2.66263004,1.55275913 2.78344088,1.49878947 2.91,1.49998006 L15.18,1.49998006 L15.18,7.275 C15.18,7.68921356 15.5157864,8.025 15.93,8.025 L21.645,8.025 L21.645,28.11 Z" id="Shape" fill-rule="nonzero"></path>
                </g>
            </g>
        </g>
    </g>
</svg>