<?xml version="1.0" encoding="UTF-8"?>
<svg width="24px" height="30px" viewBox="0 0 24 30" version="1.1" xmlns="http://www.w3.org/2000/svg" xmlns:xlink="http://www.w3.org/1999/xlink">
    <!-- Generator: Sketch 62 (91390) - https://sketch.com -->
    <title>Icons/Documentation</title>
    <desc>Created with Sketch.</desc>
    <g id="Page-1" stroke="none" stroke-width="1" fill="none" fill-rule="evenodd">
        <g id="Icons" transform="translate(-937.000000, -594.000000)" fill="#1B1E24">
            <g id="Icons/Documentation" transform="translate(934.000000, 594.000000)">
                <g id="Actian-Icon__Documentation" transform="translate(3.000000, 0.000000)">
                    <path d="M22.8,6.75 C22.8,6.75 22.8,6.75 22.8,6.75 L16.5,0.375 C16.5,0.375 16.5,0.375 16.5,0.375 L16.035,0 L2.895,0 C1.81804474,0 0.945,0.873044738 0.945,1.95 L0.945,28.05 C0.945,29.1269553 1.81804474,30 2.895,30 L21.165,30 C22.2419553,30 23.115,29.1269553 23.115,28.05 L23.115,7.05 L22.8,6.75 Z M16.665,2.745 L20.385,6.465 L16.665,6.465 L16.665,2.745 Z M21.615,28.05 C21.6192354,28.170596 21.5731863,28.2875326 21.4878595,28.3728595 C21.4025326,28.4581863 21.285596,28.5042354 21.165,28.5002684 L2.895,28.5002684 C2.64647186,28.5002684 2.445,28.2985281 2.445,28.05 L2.445,1.95 C2.445,1.70147186 2.64647186,1.5 2.895,1.5 L15.165,1.5 L15.165,7.215 C15.165,7.62921356 15.5007864,7.965 15.915,7.965 L21.615,7.965 L21.615,28.05 Z" id="Shape" fill-rule="nonzero"></path>
                    <path d="M16.5000039,10.5 C16.5000039,10.0857864 16.1642136,9.75 15.75,9.75 L8.19,9.75 C7.77578644,9.75 7.44,10.0857864 7.44,10.5 C7.44,10.9142136 7.77578644,11.25 8.19,11.25 L15.81,11.25 C16.2006165,11.2186522 16.5012558,10.8918703 16.5000039,10.5 Z" id="Path" fill-rule="nonzero"></path>
                    <path d="M19.5,16.5 C19.5,16.0857864 19.1642136,15.75 18.75,15.75 L5.25,15.75 C4.83578644,15.75 4.5,16.0857864 4.5,16.5 C4.5,16.9142136 4.83578644,17.25 5.25,17.25 L18.75,17.25 C19.1642136,17.25 19.5,16.9142136 19.5,16.5 Z" id="Path" fill-rule="nonzero"></path>
                    <path d="M19.5,22.5 C19.5,22.0857864 19.1642136,21.75 18.75,21.75 L5.25,21.75 C4.83578644,21.75 4.5,22.0857864 4.5,22.5 C4.5,22.9142136 4.83578644,23.25 5.25,23.25 L18.75,23.25 C19.1642136,23.25 19.5,22.9142136 19.5,22.5 Z" id="Path" fill-rule="nonzero"></path>
                </g>
            </g>
        </g>
    </g>
</svg>