<?xml version="1.0" encoding="UTF-8"?>
<svg width="30px" height="30px" viewBox="0 0 30 30" version="1.1" xmlns="http://www.w3.org/2000/svg" xmlns:xlink="http://www.w3.org/1999/xlink">
    <!-- Generator: Sketch 62 (91390) - https://sketch.com -->
    <title>Icons/Down</title>
    <desc>Created with Sketch.</desc>
    <g id="Page-1" stroke="none" stroke-width="1" fill="none" fill-rule="evenodd">
        <g id="Icons" transform="translate(-1191.000000, -594.000000)" fill="#1B1E24">
            <g id="Icons/Down_in-Circle" transform="translate(1191.000000, 594.000000)">
                <g id="Actian-Icon__Down">
                    <path d="M15,1.5 C22.4558441,1.5 28.5,7.54415588 28.5,15 C28.5,22.4558441 22.4558441,28.5 15,28.5 C7.54415588,28.5 1.5,22.4558441 1.5,15 C1.5,7.54415588 7.54415588,1.5 15,1.5 M15,0 C6.71572875,0 0,6.71572875 0,15 C0,23.2842712 6.71572875,30 15,30 C23.2842712,30 30,23.2842712 30,15 C30,11.0217527 28.4196474,7.20644396 25.6066017,4.39339828 C22.793556,1.58035261 18.9782473,0 15,0 Z" id="Shape" fill-rule="nonzero"></path>
                    <path d="M15.09,21.48 C14.8954557,21.4753375 14.7090924,21.4007922 14.565,21.27 L6,12.81 C5.85801551,12.6691751 5.77815126,12.4774782 5.77815126,12.2775 C5.77815126,12.0775218 5.85801551,11.8858249 6,11.745 C6.13824538,11.6039039 6.32746546,11.5243928 6.525,11.5243928 C6.72253454,11.5243928 6.91175462,11.6039039 7.05,11.745 L15.165,19.695 L23.085,11.76 C23.2258249,11.6180155 23.4175218,11.5381513 23.6175,11.5381513 C23.8174782,11.5381513 24.0091751,11.6180155 24.15,11.76 C24.2950158,11.8961 24.377278,12.0861211 24.377278,12.285 C24.377278,12.4838789 24.2950158,12.6739 24.15,12.81 L15.705,21.27 C15.5413979,21.427922 15.3160221,21.5048796 15.09,21.48 L15.09,21.48 Z" id="Path" fill-rule="nonzero"></path>
                </g>
            </g>
        </g>
    </g>
</svg>