<?xml version="1.0" encoding="UTF-8"?>
<svg width="30px" height="30px" viewBox="0 0 30 30" version="1.1" xmlns="http://www.w3.org/2000/svg" xmlns:xlink="http://www.w3.org/1999/xlink">
    <!-- Generator: Sketch 62 (91390) - https://sketch.com -->
    <title>Icons/Download</title>
    <desc>Created with Sketch.</desc>
    <g id="Page-1" stroke="none" stroke-width="1" fill="none" fill-rule="evenodd">
        <g id="Icons" transform="translate(-1275.000000, -594.000000)" fill="#1B1E24">
            <g id="Icons/Download" transform="translate(1275.000000, 594.000000)">
                <g id="Actian-Icon__Download">
                    <path d="M21.615,23.01 L8.385,23.01 C7.97078644,23.01 7.635,22.6742136 7.635,22.26 C7.64298016,21.8491373 7.97413732,21.5179802 8.385,21.51 L21.615,21.51 C22.0258627,21.5179802 22.3570198,21.8491373 22.365,22.26 C22.365,22.6742136 22.0292136,23.01 21.615,23.01 Z" id="Path" fill-rule="nonzero"></path>
                    <path d="M20.865,13.5 L15.54,19.41 C15.3733116,19.5878198 15.1386562,19.6860476 14.895,19.68 C14.6490116,19.6822125 14.4139889,19.5783652 14.25,19.395 L9.12,13.5 C8.98856171,13.3510382 8.92941695,13.1517399 8.95832073,12.9551942 C8.98722451,12.7586485 9.10124157,12.5848152 9.27,12.48 C9.64318614,12.1839962 10.1823852,12.2300254 10.5,12.585 L14.205,16.86 L14.205,5.865 C14.2367635,5.45196936 14.5858517,5.13581409 15,5.145 C15.2029774,5.13270773 15.4024967,5.20173499 15.5544819,5.3368329 C15.706467,5.47193082 15.7984101,5.66198126 15.81,5.865 L15.81,16.815 L19.635,12.57 C19.9402319,12.2524649 20.4325115,12.2077122 20.79,12.465 C20.9529812,12.5817698 21.0556181,12.7649494 21.0701087,12.9649197 C21.0845993,13.1648899 21.0094438,13.360953 20.865,13.5 Z" id="Path" fill-rule="nonzero"></path>
                    <path d="M15,1.5 C22.4558441,1.5 28.5,7.54415588 28.5,15 C28.5,22.4558441 22.4558441,28.5 15,28.5 C7.54415588,28.5 1.5,22.4558441 1.5,15 C1.5,7.54415588 7.54415588,1.5 15,1.5 M15,0 C6.71572875,0 0,6.71572875 0,15 C0,23.2842712 6.71572875,30 15,30 C23.2842712,30 30,23.2842712 30,15 C30,11.0217527 28.4196474,7.20644396 25.6066017,4.39339828 C22.793556,1.58035261 18.9782473,0 15,0 Z" id="Shape" fill-rule="nonzero"></path>
                </g>
            </g>
        </g>
    </g>
</svg>