<?xml version="1.0" encoding="UTF-8"?>
<svg width="30px" height="20px" viewBox="0 0 30 20" version="1.1" xmlns="http://www.w3.org/2000/svg" xmlns:xlink="http://www.w3.org/1999/xlink">
    <!-- Generator: Sketch 62 (91390) - https://sketch.com -->
    <title>Icons/Down Arrow Sort</title>
    <desc>Created with Sketch.</desc>
    <g id="Page-1" stroke="none" stroke-width="1" fill="none" fill-rule="evenodd">
        <g id="Icons" transform="translate(-1106.000000, -599.000000)" fill="#1B1E24">
            <g id="Icons/Down-Arrow_Sort" transform="translate(1106.000000, 594.000000)">
                <g id="Actian-Icon__Down-Arrow-(Sort)" transform="translate(0.000000, 4.500000)">
                    <path d="M15,19.845 L15,19.845 C14.3135475,19.8513995 13.6576251,19.5617004 13.2,19.05 L0.75,5.55 C0.0425990161,4.77147628 -0.145028469,3.65157473 0.27,2.685 C0.650090191,1.77800877 1.53658879,1.1870097 2.52,1.185 L27.48,1.185 C28.4634112,1.1870097 29.3499098,1.77800877 29.73,2.685 C30.2055477,3.68807546 30.0147794,4.88037688 29.25,5.685 L16.755,19.185 C16.2818512,19.6309237 15.6497376,19.8686417 15,19.845 Z M2.52,2.655 C2.12449878,2.66598216 1.77484808,2.91488605 1.635,3.285 C1.43752939,3.72282735 1.52014511,4.23622503 1.845,4.59 L1.845,4.59 L14.295,18.09 C14.4662871,18.2844563 14.7109403,18.3986278 14.97,18.405 L14.97,18.405 C15.2290597,18.3986278 15.4737129,18.2844563 15.645,18.09 L28.155,4.59 C28.4798549,4.23622503 28.5624706,3.72282735 28.365,3.285 C28.2251519,2.91488605 27.8755012,2.66598216 27.48,2.655 L2.52,2.655 Z" id="Shape" fill-rule="nonzero"></path>
                </g>
            </g>
        </g>
    </g>
</svg>