<?xml version="1.0" encoding="UTF-8"?>
<svg width="31px" height="22px" viewBox="0 0 31 22" version="1.1" xmlns="http://www.w3.org/2000/svg" xmlns:xlink="http://www.w3.org/1999/xlink">
    <!-- Generator: Sketch 62 (91390) - https://sketch.com -->
    <title>Icons/Download Cloud</title>
    <desc>Created with Sketch.</desc>
    <g id="Page-1" stroke="none" stroke-width="1" fill="none" fill-rule="evenodd">
        <g id="Icons" transform="translate(-681.000000, -702.000000)" fill="#1B1E24">
            <g id="Icons/Download_Cloud" transform="translate(681.000000, 698.000000)">
                <g id="Actian-Icon__Download---Cloud" transform="translate(0.000000, 3.000000)">
                    <path d="M22.035,20.4 C21.525,20.4 21,20.4 20.535,20.4 C20.1207865,20.371005 19.8085051,20.0117135 19.8375,19.5975 C19.866495,19.1832865 20.2257865,18.8710051 20.64,18.9 C23.64,19.14 26.04,18.645 27.39,17.4 C28.0160275,16.8308095 28.4110632,16.0514146 28.5,15.21 C28.790512,13.3751834 27.8713064,11.5609619 26.22,10.71 C25.923744,10.5917348 25.7406209,10.2926336 25.77,9.975 C25.9317169,7.27012405 24.4530684,4.73276326 22.02,3.54 C18.5321449,1.94644773 14.4039951,3.24053858 12.45,6.54 C12.2848225,6.83819016 11.9422768,6.99111234 11.61,6.915 C10.162224,6.43079842 8.57928569,6.56090294 7.23,7.275 C6.27107255,7.9088384 5.57328118,8.8676357 5.265,9.975 C5.19807833,10.2217114 5.01235181,10.4186941 4.77,10.5 C2.88402641,10.9166094 1.53095765,12.5738083 1.5,14.505 C1.5453158,16.3540897 2.61473749,18.0246998 4.275,18.84 L9.465,18.84 C9.87921356,18.84 10.215,19.1757864 10.215,19.59 C10.215,20.0042136 9.87921356,20.34 9.465,20.34 L4.125,20.34 C4.03623123,20.3610534 3.94376877,20.3610534 3.855,20.34 C1.54047456,19.3231182 0.0333941566,17.0478373 0,14.52 C0.0395049306,12.0611224 1.65553887,9.90641047 4.005,9.18 C4.4522925,7.86934335 5.32987261,6.74857839 6.495,6 C8.01553009,5.13656418 9.81273434,4.89980673 11.505,5.34 C13.9358597,1.68127308 18.6527868,0.311842653 22.665,2.1 C25.4991966,3.49572489 27.3083304,6.36598536 27.345,9.525 C29.318634,10.7556424 30.3642959,13.0478277 30,15.345 C29.851662,16.5709297 29.2463748,17.6957996 28.305,18.495 C26.5147144,19.8684525 24.2867464,20.545371 22.035,20.4 L22.035,20.4 Z" id="Path" fill-rule="nonzero"></path>
                    <path d="M20.445,16.23 L15.555,22.305 C15.406172,22.4830047 15.1870067,22.5871083 14.955,22.59 C14.7273007,22.5868052 14.5128618,22.4823349 14.37,22.305 L9.66,16.215 C9.4764417,15.9908429 9.4416908,15.6797668 9.57125937,15.4206297 C9.70082794,15.1614925 9.97053931,15.0026476 10.26,15.015 C10.4892556,15.0114346 10.7065024,15.1172727 10.845,15.3 L14.265,19.695 L14.265,8.385 C14.265,7.97078644 14.6007864,7.635 15.015,7.635 C15.4258627,7.64298016 15.7570198,7.97413732 15.765,8.385 L15.765,19.65 L19.275,15.285 C19.39854,15.1292 19.5799322,15.0300998 19.7777815,15.0103149 C19.9756308,14.9905299 20.1730548,15.0517485 20.325,15.18 C20.6466811,15.4375904 20.7002677,15.9064726 20.445,16.23 Z" id="Path" fill-rule="nonzero"></path>
                </g>
            </g>
        </g>
    </g>
</svg>