<?xml version="1.0" encoding="UTF-8"?>
<svg width="25px" height="25px" viewBox="0 0 25 25" version="1.1" xmlns="http://www.w3.org/2000/svg" xmlns:xlink="http://www.w3.org/1999/xlink">
    <!-- Generator: Sketch 62 (91390) - https://sketch.com -->
    <title>Icons/Drag 2</title>
    <desc>Created with Sketch.</desc>
    <g id="Page-1" stroke="none" stroke-width="1" fill="none" fill-rule="evenodd">
        <g id="Icons" transform="translate(-853.000000, -704.000000)" fill="#1B1E24">
            <g id="Icons/Drag_2" transform="translate(847.000000, 698.000000)">
                <g id="Actian-Icon__Drag_2" transform="translate(6.000000, 6.000000)">
                    <path d="M22.74,24.105 L19.5,24.105 C18.7436667,24.1050834 18.128221,23.4962886 18.12,22.74 L18.12,19.5 C18.12,18.737847 18.737847,18.12 19.5,18.12 L22.755,18.12 C23.5112886,18.128221 24.12,18.7436667 24.12,19.5 L24.12,22.755 C24.1160435,23.1170274 23.968423,23.462653 23.709618,23.7158318 C23.450813,23.9690106 23.102027,24.1090002 22.74,24.105 L22.74,24.105 Z" id="Path" fill-rule="nonzero"></path>
                    <path d="M22.74,15.105 L19.5,15.105 C18.7436667,15.1050834 18.128221,14.4962886 18.12,13.74 L18.12,10.5 C18.12,9.73784705 18.737847,9.12 19.5,9.12 L22.755,9.12 C23.5112886,9.12822101 24.12,9.74366669 24.12,10.5 L24.12,13.755 C24.1160435,14.1170274 23.968423,14.462653 23.709618,14.7158318 C23.450813,14.9690106 23.102027,15.1090002 22.74,15.105 L22.74,15.105 Z" id="Path" fill-rule="nonzero"></path>
                    <path d="M22.74,6.105 L19.5,6.105 C18.7436667,6.10508253 18.128221,5.49628863 18.12,4.74 L18.12,1.5 C18.1159933,1.13140922 18.2596151,0.776534975 18.5188508,0.514481452 C18.7780866,0.25242793 19.1313874,0.105 19.5,0.105 L22.755,0.105 C23.5112886,0.113221013 24.12,0.728666687 24.12,1.485 L24.12,4.74 C24.12,5.10463448 23.9741527,5.45412026 23.7149121,5.71054301 C23.4556715,5.96696575 23.1046125,6.10900697 22.74,6.105 L22.74,6.105 Z" id="Path" fill-rule="nonzero"></path>
                    <path d="M13.74,24.105 L10.5,24.105 C9.74366669,24.1050834 9.12822101,23.4962886 9.12,22.74 L9.12,19.5 C9.12,18.737847 9.73784705,18.12 10.5,18.12 L13.755,18.12 C14.5112886,18.128221 15.12,18.7436667 15.12,19.5 L15.12,22.755 C15.1160435,23.1170274 14.968423,23.462653 14.709618,23.7158318 C14.450813,23.9690106 14.102027,24.1090002 13.74,24.105 L13.74,24.105 Z" id="Path" fill-rule="nonzero"></path>
                    <path d="M4.74,24.105 L1.5,24.105 C0.743666687,24.105 0.128221013,23.4962886 0.12,22.74 L0.12,19.5 C0.115993341,19.1314092 0.259615073,18.776535 0.518850816,18.5144815 C0.778086559,18.2524279 1.13138744,18.105 1.5,18.105 L4.74,18.105 C5.49628863,18.113221 6.105,18.7286667 6.105,19.485 L6.105,22.74 C6.105,23.4938687 5.49386868,24.105 4.74,24.105 L4.74,24.105 Z" id="Path" fill-rule="nonzero"></path>
                    <path d="M13.74,15.105 L10.5,15.105 C9.74366669,15.1050834 9.12822101,14.4962886 9.12,13.74 L9.12,10.5 C9.12,9.73784705 9.73784705,9.12 10.5,9.12 L13.755,9.12 C14.5112886,9.12822101 15.12,9.74366669 15.12,10.5 L15.12,13.755 C15.1160435,14.1170274 14.968423,14.462653 14.709618,14.7158318 C14.450813,14.9690106 14.102027,15.1090002 13.74,15.105 L13.74,15.105 Z" id="Path" fill-rule="nonzero"></path>
                </g>
            </g>
        </g>
    </g>
</svg>