<?xml version="1.0" encoding="UTF-8"?>
<svg width="31px" height="15px" viewBox="0 0 31 15" version="1.1" xmlns="http://www.w3.org/2000/svg" xmlns:xlink="http://www.w3.org/1999/xlink">
    <!-- Generator: Sketch 62 (91390) - https://sketch.com -->
    <title>Icons/Drag 1</title>
    <desc>Created with Sketch.</desc>
    <g id="Page-1" stroke="none" stroke-width="1" fill="none" fill-rule="evenodd">
        <g id="Icons" transform="translate(-769.000000, -704.000000)" fill="#1B1E24">
            <g id="Icons/Drag_1" transform="translate(769.000000, 698.000000)">
                <g id="Actian-Icon__Drag_1" transform="translate(0.000000, 6.000000)">
                    <path d="M29.43,6.81000386 L0.675,6.81000386 C0.266151899,6.77039846 -0.0347743737,6.40928693 -1.5639998e-12,6 C0.00798015866,5.58913732 0.339137321,5.25798016 0.75,5.25 L29.43,5.25 C29.8408627,5.25798016 30.1720198,5.58913732 30.18,6 C30.1967818,6.20908683 30.1252368,6.41564681 29.9827247,6.56955988 C29.8402126,6.72347295 29.6397581,6.81067239 29.43,6.81000386 Z" id="Path" fill-rule="nonzero"></path>
                    <path d="M29.43,9.75 L0.675,9.75 C0.293649586,9.70485277 0.00486653655,9.38398272 0,9 C0,8.58578644 0.335786438,8.25 0.75,8.25 L29.43,8.25 C29.8442136,8.25 30.18,8.58578644 30.18,9 C30.1720198,9.41086268 29.8408627,9.74201984 29.43,9.75 Z" id="Path" fill-rule="nonzero"></path>
                    <path d="M17.1,3.9 L13.005,3.9 C12.9360639,3.8943101 12.8743508,3.85503817 12.84,3.795 C12.8103701,3.73337665 12.8103701,3.66162335 12.84,3.6 L14.895,0.705 C14.9426182,0.683174242 14.9973818,0.683174242 15.045,0.705 L15.045,0.705 C15.0926182,0.683174242 15.1473818,0.683174242 15.195,0.705 L17.25,3.6 C17.2882576,3.6593706 17.2882576,3.7356294 17.25,3.795 C17.2186939,3.85110234 17.1634291,3.88978765 17.1,3.9 L17.1,3.9 Z" id="Path" fill-rule="nonzero"></path>
                    <path d="M15,14.475 L15,14.475 C14.9406966,14.4762423 14.8845882,14.4481881 14.85,14.4 L12.855,11.505 C12.8253701,11.4433767 12.8253701,11.3716233 12.855,11.31 C12.8893508,11.2499618 12.9510639,11.2106899 13.02,11.205 L17.1,11.205 C17.1689361,11.2106899 17.2306492,11.2499618 17.265,11.31 C17.3032576,11.3693706 17.3032576,11.4456294 17.265,11.505 L15.195,14.4 C15.1526435,14.4640244 15.0743429,14.49414 15,14.475 Z" id="Path" fill-rule="nonzero"></path>
                </g>
            </g>
        </g>
    </g>
</svg>