<?xml version="1.0" encoding="UTF-8"?>
<svg width="31px" height="31px" viewBox="0 0 31 31" version="1.1" xmlns="http://www.w3.org/2000/svg" xmlns:xlink="http://www.w3.org/1999/xlink">
    <!-- Generator: Sketch 62 (91390) - https://sketch.com -->
    <title>Icons/Edit</title>
    <desc>Created with Sketch.</desc>
    <g id="Page-1" stroke="none" stroke-width="1" fill="none" fill-rule="evenodd">
        <g id="Icons" transform="translate(-934.000000, -698.000000)" fill="#1B1E24">
            <g id="Icons/Edit" transform="translate(934.000000, 698.000000)">
                <g id="Actian-Icon__Edit" transform="translate(0.000000, -1.500000)">
                    <path d="M18.6,1.5 C18.8859589,1.61031378 19.0760202,1.88352691 19.08,2.19 C19.08,2.60421356 18.7442136,2.94 18.33,2.94 L6,2.94 C4.79605702,2.93989298 3.64227684,3.42222618 2.79661699,4.2791615 C1.95095713,5.13609681 1.48394742,6.29616403 1.5,7.5 L1.5,25.62 C1.5,28.1052814 3.51471863,30.12 6,30.12 L24.12,30.12 C26.6052814,30.12 28.62,28.1052814 28.62,25.62 L28.62,16.5 L28.62,16.5 L28.62,12.345 C28.62,11.9307864 28.9557864,11.595 29.37,11.595 C29.7842136,11.595 30.12,11.9307864 30.12,12.345 L30.12,13.5 L30.12,13.5 L30.12,25.62 C30.12,28.9337085 27.4337085,31.62 24.12,31.62 L6,31.62 C2.6862915,31.62 0,28.9337085 0,25.62 L0,7.5 C0,4.1862915 2.6862915,1.5 6,1.5 L18.345,1.5" id="Path" fill-rule="nonzero"></path>
                    <path d="M27.675,1.875 L29.58,3.57 C30.2905951,4.20050815 30.3576553,5.2868838 29.73,6 L27.93,8.04 L27.93,8.04 L16.845,20.475 L13.2,21.975 C12.7224564,22.1787572 12.1703759,22.0905976 11.7800375,21.7482516 C11.3896991,21.4059056 11.2302768,20.8700423 11.37,20.37 L12.6,16.32 L23.415,4.065 L24.405,3 L25.215,2.085 C25.842766,1.36024973 26.9334747,1.26714046 27.675,1.875 Z M26.805,7.065 L24.54,5.07 L13.83,17.175 L12.885,20.535 L16.095,19.185 L26.805,7.065 Z M26.67,3 C26.6274214,2.95407309 26.5676276,2.92797059 26.505,2.92797059 C26.4423724,2.92797059 26.3825786,2.95407309 26.34,3 L25.5,3.945 L27.795,6 L28.605,5.085 C28.692621,4.99244873 28.692621,4.84755127 28.605,4.755 L26.67,3 Z" id="Shape" fill-rule="nonzero"></path>
                </g>
            </g>
        </g>
    </g>
</svg>