<?xml version="1.0" encoding="UTF-8"?>
<svg width="31px" height="21px" viewBox="0 0 31 21" version="1.1" xmlns="http://www.w3.org/2000/svg" xmlns:xlink="http://www.w3.org/1999/xlink">
    <!-- Generator: Sketch 62 (91390) - https://sketch.com -->
    <title>Icons/Email</title>
    <desc>Created with Sketch.</desc>
    <g id="Page-1" stroke="none" stroke-width="1" fill="none" fill-rule="evenodd">
        <g id="Icons" transform="translate(-1021.000000, -703.000000)">
            <g id="Icons/Email" transform="translate(1021.000000, 698.000000)">
                <g id="Actian-Icon__Email" transform="translate(0.000000, 4.500000)">
                    <path d="M1.92,20.67 C1.5460747,20.5092059 1.20528864,20.2803198 0.915,19.995 C1.20528864,20.2803198 1.5460747,20.5092059 1.92,20.67 L1.92,20.67 Z" id="Path" fill="#FFFFFF" fill-rule="nonzero"></path>
                    <path d="M0.915,1.845 C1.20528864,1.55968023 1.5460747,1.33079407 1.92,1.17 C1.5460747,1.33079407 1.20528864,1.55968023 0.915,1.845 L0.915,1.845 Z" id="Path" fill="#FFFFFF" fill-rule="nonzero"></path>
                    <path d="M29.565,2.31 C28.9921736,1.4526394 28.0310995,0.9355703 27,0.93 L3.135,0.93 C2.71837267,0.931504613 2.30590807,1.0129791 1.92,1.17 C1.5460747,1.33079407 1.20528864,1.55968023 0.915,1.845 C0.326056361,2.43330416 -0.00336945511,3.23256679 -2.55955777e-05,4.065 L-2.55955777e-05,17.775 C-0.00336945511,18.6074332 0.326056361,19.4066958 0.915,19.995 C1.20528864,20.2803198 1.5460747,20.5092059 1.92,20.67 C2.30590807,20.8270209 2.71837267,20.9084954 3.135,20.91 L27,20.91 C28.7314127,20.91 30.135,19.5064127 30.135,17.775 L30.135,4.065 C30.1291422,3.43544244 29.9301818,2.82285403 29.565,2.31 Z M27,2.43 C27.232867,2.43351249 27.4625622,2.48455587 27.675,2.58 L15,11.025 L2.475,2.58 C2.68153011,2.48276152 2.9067293,2.43157989 3.135,2.43 L27,2.43 Z M3.135,19.41 C2.23201443,19.41 1.5,18.6779856 1.5,17.775 L1.5,4.065 C1.49146868,3.97019154 1.49146868,3.87480846 1.5,3.78 L14.58,12.555 C14.7033107,12.6394275 14.850699,12.6815385 15,12.675 C15.1443614,12.6793582 15.2863145,12.6372981 15.405,12.555 L28.5,3.78 C28.5156661,3.87435414 28.5156661,3.97064586 28.5,4.065 L28.5,17.775 C28.5029116,18.6277887 27.8498821,19.3395908 27,19.41 L3.135,19.41 Z" id="Shape" fill="#1B1E24" fill-rule="nonzero"></path>
                </g>
            </g>
        </g>
    </g>
</svg>