<?xml version="1.0" encoding="UTF-8"?>
<svg width="30px" height="30px" viewBox="0 0 30 30" version="1.1" xmlns="http://www.w3.org/2000/svg" xmlns:xlink="http://www.w3.org/1999/xlink">
    <!-- Generator: Sketch 62 (91390) - https://sketch.com -->
    <title>Icons/Error</title>
    <desc>Created with Sketch.</desc>
    <g id="Page-1" stroke="none" stroke-width="1" fill="none" fill-rule="evenodd">
        <g id="Icons" transform="translate(-1106.000000, -698.000000)" fill="#1B1E24">
            <g id="Icons/Error" transform="translate(1106.000000, 698.000000)">
                <g id="Actian-Icon__Error">
                    <path d="M15,28.5 C7.54415588,28.5 1.5,22.4558441 1.5,15 C1.5,7.54415588 7.54415588,1.5 15,1.5 C22.4558441,1.5 28.5,7.54415588 28.5,15 C28.5,18.5804226 27.0776827,22.0142004 24.5459415,24.5459415 C22.0142004,27.0776827 18.5804226,28.5 15,28.5 M15,30 C23.2842712,30 30,23.2842712 30,15 C30,6.71572875 23.2842712,0 15,0 C6.71572875,0 0,6.71572875 0,15 C0,23.2842712 6.71572875,30 15,30 Z M16.065,15 L19.77,11.295 C20.1380658,11.0005858 20.1984503,10.4638347 19.905,10.095 C19.5361653,9.80154975 18.9994142,9.86193424 18.705,10.23 L15,13.935 L11.295,10.23 C11.0005858,9.86193424 10.4638347,9.80154975 10.095,10.095 C9.80154975,10.4638347 9.86193424,11.0005858 10.23,11.295 L13.935,15 L10.23,18.705 C9.86193424,18.9994142 9.80154975,19.5361653 10.095,19.905 C10.4638347,20.1984503 11.0005858,20.1380658 11.295,19.77 L15,16.065 L18.705,19.77 C18.8798179,20.0208987 19.1872568,20.1435855 19.4867832,20.0819789 C19.7863096,20.0203724 20.0203724,19.7863096 20.0819789,19.4867832 C20.1435855,19.1872568 20.0208987,18.8798179 19.77,18.705 L16.065,15 Z" id="Shape" fill-rule="nonzero"></path>
                </g>
            </g>
        </g>
    </g>
</svg>