<?xml version="1.0" encoding="UTF-8"?>
<svg width="28px" height="30px" viewBox="0 0 28 30" version="1.1" xmlns="http://www.w3.org/2000/svg" xmlns:xlink="http://www.w3.org/1999/xlink">
    <!-- Generator: Sketch 62 (91390) - https://sketch.com -->
    <title>Icons/Filter</title>
    <desc>Created with Sketch.</desc>
    <g id="Page-1" stroke="none" stroke-width="1" fill="none" fill-rule="evenodd">
        <g id="Icons" transform="translate(-1192.000000, -698.000000)" fill="#1B1E24">
            <g id="Icons/Filter" transform="translate(1191.000000, 698.000000)">
                <g id="Actian-Icon__Filter">
                    <path d="M7.5,21.825 C7.53798942,23.2459845 6.5735028,24.4985645 5.19,24.825 L5.19,29.1 C5.19,29.5142136 4.85421356,29.85 4.44,29.85 C4.02578644,29.85 3.69,29.5142136 3.69,29.1 L3.69,24.78 C2.25471829,24.5285644 1.20766302,23.2821388 1.20766302,21.825 C1.20766302,20.3678612 2.25471829,19.1214356 3.69,18.87 L3.69,18.87 L3.69,0.9 C3.68932761,0.690241854 3.77652705,0.489787434 3.93044012,0.347275333 C4.08435319,0.204763231 4.29091317,0.133218184 4.5,0.15 C4.91421356,0.15 5.25,0.485786438 5.25,0.9 L5.25,18.9 L5.25,18.9 C6.58189138,19.2438595 7.50928269,20.4494682 7.5,21.825 Z M6,21.825 C6,20.9634358 5.30156421,20.265 4.44,20.265 C3.57843579,20.265 2.88,20.9634358 2.88,21.825 C2.88,22.6865642 3.57843579,23.385 4.44,23.385 C5.30156421,23.385 6,22.6865642 6,21.825 Z" id="Shape" fill-rule="nonzero"></path>
                    <path d="M15.75,9.45 L15.75,29.1 C15.75,29.5142136 15.4142136,29.85 15,29.85 C14.5857864,29.85 14.25,29.5142136 14.25,29.1 L14.25,9.45 C12.9071307,9.10347939 11.9768144,7.88166392 12,6.495 C11.9620106,5.0740155 12.9264972,3.82143549 14.31,3.495 L14.31,3.495 L14.31,0.9 C14.31,0.485786438 14.6457864,0.15 15.06,0.15 C15.4742136,0.15 15.81,0.485786438 15.81,0.9 L15.81,3.51 L15.81,3.51 C17.1935028,3.83643549 18.1579894,5.0890155 18.12,6.51 C18.1232556,7.92665658 17.1350716,9.15250507 15.75,9.45 Z M16.56,6.45 C16.56,5.62157288 15.8884271,4.95 15.06,4.95 C14.2315729,4.95 13.56,5.62157288 13.56,6.45 C13.56,7.27842712 14.2315729,7.95 15.06,7.95 C15.8477862,7.91880042 16.4769655,7.28306716 16.5,6.495 L16.56,6.45 Z" id="Shape" fill-rule="nonzero"></path>
                    <path d="M25.935,20.91 L25.935,20.91 L25.935,29.1 C25.935,29.5142136 25.5992136,29.85 25.185,29.85 C24.7707864,29.85 24.435,29.5142136 24.435,29.1 L24.435,20.91 L24.435,20.91 C22.9997183,20.6585644 21.952663,19.4121388 21.952663,17.955 C21.952663,16.4978612 22.9997183,15.2514356 24.435,15 L24.435,0.9 C24.435,0.485786438 24.7707864,0.15 25.185,0.15 C25.5992136,0.15 25.935,0.485786438 25.935,0.9 L25.935,15 C27.3702817,15.2514356 28.417337,16.4978612 28.417337,17.955 C28.417337,19.4121388 27.3702817,20.6585644 25.935,20.91 Z M26.76,17.91 C26.76,17.0815729 26.0884271,16.41 25.26,16.41 C24.4315729,16.41 23.76,17.0815729 23.76,17.91 C23.76,18.7384271 24.4315729,19.41 25.26,19.41 C26.0545159,19.4114313 26.7123303,18.7930858 26.76,18 L26.76,17.91 Z" id="Shape" fill-rule="nonzero"></path>
                </g>
            </g>
        </g>
    </g>
</svg>