<?xml version="1.0" encoding="UTF-8"?>
<svg width="24px" height="16px" viewBox="0 0 24 16" version="1.1" xmlns="http://www.w3.org/2000/svg" xmlns:xlink="http://www.w3.org/1999/xlink">
    <!-- Generator: Sketch 62 (91390) - https://sketch.com -->
    <title>Icons/Gant View</title>
    <desc>Created with Sketch.</desc>
    <g id="Page-1" stroke="none" stroke-width="1" fill="none" fill-rule="evenodd">
        <g id="Icons" transform="translate(-684.000000, -809.000000)" fill="#1B1E24">
            <g id="Icons/Gant-View" transform="translate(681.000000, 802.000000)">
                <g id="Actian-Icon__Gant-View" transform="translate(3.000000, 7.500000)">
                    <path d="M23.19,14.88 L0.81,14.88 C0.395786438,14.88 0.0598874818,14.5442136 0.0598874818,14.13 L0.0598874818,4.035 C0.0520044163,2.96761958 0.470426187,1.94120816 1.22237774,1.18362401 C1.9743293,0.426039853 2.99758963,-2.9946428e-05 4.065,-6.59791232e-16 L19.935,-6.59791232e-16 C21.0127716,-0.0161793679 22.0515672,0.402759498 22.8165703,1.16211689 C23.5815735,1.92147427 24.0081955,2.95713808 24.0001159,4.035 L24.0001159,14.13 C24.0006724,14.3397581 23.9134729,14.5402126 23.7595599,14.6827247 C23.6056468,14.8252368 23.3990868,14.8967818 23.19,14.88 Z M1.49981131,13.38 L22.5001887,13.38 L22.5001887,4.035 C22.5083417,3.35491694 22.2397891,2.70067598 21.756041,2.22258572 C21.2722929,1.74449546 20.6149379,1.4836582 19.935,1.5 L4.065,1.5 C3.38506214,1.4836582 2.72770712,1.74449546 2.24395899,2.22258572 C1.76021086,2.70067598 1.49165833,3.35491694 1.49981131,4.035 L1.49981131,13.38 Z" id="Shape" fill-rule="nonzero"></path>
                    <path d="M19.77,6.555 L4.245,6.555 C3.77859291,6.55507178 3.39818258,6.18133531 3.39,5.715 L3.39,4.935 C3.39818258,4.46866469 3.77859291,4.09492822 4.245,4.095 L19.77,4.095 C20.2339192,4.095 20.61,4.47108081 20.61,4.935 L20.61,5.715 C20.61,6.17891919 20.2339192,6.555 19.77,6.555 L19.77,6.555 Z" id="Path" fill-rule="nonzero"></path>
                    <path d="M12.39,10.92 L4.245,10.92 C3.77859291,10.9200718 3.39818258,10.5463353 3.39,10.08 L3.39,9.3 C3.39818258,8.83366469 3.77859291,8.45992822 4.245,8.46 L12.39,8.46 C12.6153694,8.4559749 12.8329005,8.54269452 12.9936903,8.70066346 C13.1544801,8.85863239 13.245,9.07459471 13.245,9.3 L13.245,10.08 C13.245,10.3054053 13.1544801,10.5213676 12.9936903,10.6793365 C12.8329005,10.8373055 12.6153694,10.9240251 12.39,10.92 L12.39,10.92 Z" id="Path" fill-rule="nonzero"></path>
                </g>
            </g>
        </g>
    </g>
</svg>