<?xml version="1.0" encoding="UTF-8"?>
<svg width="30px" height="28px" viewBox="0 0 30 28" version="1.1" xmlns="http://www.w3.org/2000/svg" xmlns:xlink="http://www.w3.org/1999/xlink">
    <!-- Generator: Sketch 62 (91390) - https://sketch.com -->
    <title>Icons/Health Status</title>
    <desc>Created with Sketch.</desc>
    <g id="Page-1" stroke="none" stroke-width="1" fill="none" fill-rule="evenodd">
        <g id="Icons" transform="translate(-769.000000, -803.000000)" fill="#1B1E24">
            <g id="Icons/Health-Status" transform="translate(769.000000, 802.000000)">
                <g id="Actian-Icon__Health-Status" transform="translate(-1.500000, 1.500000)">
                    <path d="M31.5000002,14.445 C31.5000002,14.8592136 31.1642136,15.195 30.75,15.195 L29.34,15.195 C25.065,21.99 17.04,26.49 16.65,26.7 C16.5434401,26.7707308 16.4178762,26.8073536 16.29,26.8051067 C16.1394792,26.8040684 15.9928736,26.7569451 15.87,26.67 C1.665,17.19 1.5,10.935 1.5,10.05 C0.93,1.5 8.25,0.375 8.325,0.36 C11.228382,-0.00288037776 14.1400226,0.96766649 16.245,3 C18.5592564,0.849510515 21.7039162,-0.17126909 24.84,0.21 C27.1121959,0.550757737 29.1140261,1.88714437 30.3,3.855 C32.37,7.425 30.885,12.09 30.81,12.285 C30.615,12.765 30.39,13.23 30.165,13.695 L30.72,13.695 C30.9240576,13.6868311 31.1226225,13.7622276 31.2698318,13.903775 C31.4170411,14.0453223 31.5000002,14.240779 31.5000002,14.445 Z M4.125,13.5 L8.115,13.5 L11.025,9.09 C11.1795583,8.86466487 11.4425702,8.73887659 11.715,8.76 C11.9866105,8.78691955 12.2221542,8.95926862 12.33,9.21 L15.66,16.935 L20.265,4.305 C20.3759131,3.99742943 20.6732948,3.79715197 21,3.81 C21.3245316,3.82559937 21.6054035,4.04073535 21.705,4.35 L24.405,13.695 L28.5,13.695 C28.8527788,13.0719209 29.173204,12.4310705 29.46,11.775 C29.46,11.775 30.78,7.59 29.04,4.605 C28.0621847,3.05117632 26.4483431,2.00821751 24.63,1.755 C21.739157,1.43234236 18.8667867,2.50113128 16.89,4.635 C16.7453552,4.79974245 16.5391006,4.89744199 16.32,4.905 L16.32,4.905 C16.1019659,4.90689722 15.8938997,4.813815 15.75,4.65 C14.1605659,2.91578452 11.9498071,1.88050235 9.6,1.77 C9.24558226,1.74124563 8.88941774,1.74124563 8.535,1.77 C8.28,1.77 2.535,2.745 3.06,9.915 C3.07542231,9.96891887 3.07542231,10.0260811 3.06,10.08 C3.10915232,11.2936326 3.47642108,12.4730309 4.125,13.5 Z M27.48,15.255 L23.85,15.255 C23.5132082,15.2656564 23.2140715,15.041304 23.13,14.715 L20.88,7.005 L16.38,19.26 C16.2732306,19.5443789 16.008321,19.738646 15.705,19.755 L15.705,19.755 C15.410098,19.7539981 15.1443487,19.5768318 15.03,19.305 L11.505,11.07 L9.135,14.64 C8.99382025,14.8489042 8.75711971,14.9728902 8.505,14.97 L5.055,14.97 C6.81,17.505 10.095,20.97 16.29,25.17 C20.6207882,22.5999095 24.4192212,19.2240904 27.48,15.225 L27.48,15.255 Z" id="Shape" fill-rule="nonzero"></path>
                </g>
            </g>
        </g>
    </g>
</svg>