<?xml version="1.0" encoding="UTF-8"?>
<svg width="30px" height="30px" viewBox="0 0 30 30" version="1.1" xmlns="http://www.w3.org/2000/svg" xmlns:xlink="http://www.w3.org/1999/xlink">
    <!-- Generator: Sketch 62 (91390) - https://sketch.com -->
    <title>Icons/Help</title>
    <desc>Created with Sketch.</desc>
    <g id="Page-1" stroke="none" stroke-width="1" fill="none" fill-rule="evenodd">
        <g id="Icons" transform="translate(-847.000000, -802.000000)" fill="#1B1E24">
            <g id="Icons/Help" transform="translate(847.000000, 802.000000)">
                <g id="Actian-Icon__Help">
                    <path d="M15,1.5 C22.4558441,1.5 28.5,7.54415588 28.5,15 C28.5,22.4558441 22.4558441,28.5 15,28.5 C7.54415588,28.5 1.5,22.4558441 1.5,15 C1.5,7.54415588 7.54415588,1.5 15,1.5 M15,0 C6.71572875,0 0,6.71572875 0,15 C0,23.2842712 6.71572875,30 15,30 C23.2842712,30 30,23.2842712 30,15 C30,11.0217527 28.4196474,7.20644396 25.6066017,4.39339828 C22.793556,1.58035261 18.9782473,0 15,0 Z M15,7.29 C13.7532733,7.23494965 12.5317587,7.65283622 11.58,8.46 C10.6613772,9.31856197 10.0991751,10.4911549 10.005,11.745 C9.9608128,12.1741899 10.267025,12.5602836 10.695,12.615 C11.1016436,12.6708426 11.4819883,12.4019782 11.565,12 C11.6097952,11.1217105 11.991203,10.2944316 12.63,9.69 C13.2838953,9.11787986 14.1317628,8.81736985 15,8.85 C15.9222597,8.78830827 16.8320706,9.08978407 17.535,9.69 C18.1069651,10.1747976 18.4316974,10.8903095 18.42,11.64 C18.4219464,12.0540295 18.3187204,12.4617722 18.12,12.825 C17.730585,13.3950575 17.2549035,13.9011017 16.71,14.325 C16.2954758,14.6688319 15.9138319,15.0504758 15.57,15.465 C15.3536989,15.7755418 15.1914153,16.1203943 15.09,16.485 C14.9846105,17.0032432 14.9343309,17.5311798 14.94,18.06 C14.9318353,18.2680369 15.0088144,18.4704153 15.1531741,18.6204362 C15.2975339,18.7704572 15.496803,18.8551602 15.705,18.8550167 L15.705,18.8550167 C16.1111932,18.8576104 16.4540233,18.5535912 16.5,18.15 C16.4939329,17.747464 16.5291166,17.3453653 16.605,16.95 C16.6444451,16.7637146 16.726602,16.5891311 16.845,16.44 C17.1148387,16.1158192 17.4163302,15.8193526 17.745,15.555 C18.4283462,14.9949584 19.0204235,14.3320344 19.5,13.59 C20.4130528,11.9008963 20.0399274,9.80517551 18.6,8.535 C17.60426,7.67334808 16.3153125,7.22758707 15,7.29 L15,7.29 Z M15.75,21.21 C15.3357864,21.21 15,21.5457864 15,21.96 C15,22.3742136 15.3357864,22.71 15.75,22.71 C16.1642136,22.71 16.5,22.3742136 16.5,21.96 C16.5,21.5457864 16.1642136,21.21 15.75,21.21 Z" id="Shape" fill-rule="nonzero"></path>
                </g>
            </g>
        </g>
    </g>
</svg>