<?xml version="1.0" encoding="UTF-8"?>
<svg width="17px" height="16px" viewBox="0 0 17 16" version="1.1" xmlns="http://www.w3.org/2000/svg" xmlns:xlink="http://www.w3.org/1999/xlink">
    <!-- Generator: Sketch 55.2 (78181) - https://sketchapp.com -->
    <title>Group 10</title>
    <desc>Created with Sketch.</desc>
    <g id="Actian---Avalache" stroke="none" stroke-width="1" fill="none" fill-rule="evenodd">
        <g id="Cluster-/-Create-Cluster-2-IP" transform="translate(-990.000000, -599.000000)">
            <g id="Choose-a-Location-Copy-2" transform="translate(462.198745, 580.000000)">
                <g id="Group-10" transform="translate(527.838341, 19.000000)">
                    <rect id="Rectangle" fill="#FFFFFF" x="6.16165865" y="3" width="4" height="11"></rect>
                    <path d="M13.6572975,2.34308758 C10.5330896,-0.780772458 5.46764328,-0.781120288 2.34308758,2.34308758 C-0.781120288,5.46729545 -0.780772458,10.5327418 2.34308758,13.6572975 C5.46729545,16.7808097 10.5327418,16.7811576 13.6572975,13.6572975 C16.7811576,10.5327418 16.7808097,5.46764328 13.6572975,2.34308758 Z M9.14291926,11.6191097 C9.14291926,12.1451415 8.63130021,12.5714907 8.00006211,12.5714907 C7.36882402,12.5714907 6.85720497,12.1451415 6.85720497,11.6191097 L6.85720497,7.80958592 C6.85720497,7.28355418 7.36882402,6.85720497 8.00006211,6.85720497 C8.63130021,6.85720497 9.14291926,7.28355418 9.14291926,7.80958592 L9.14291926,11.6191097 Z M7.97893138,5.71434783 C7.29757263,5.71434783 6.84333345,5.20622682 6.85752843,4.57896305 C6.84333345,3.92139469 7.29757263,3.42863354 7.99273205,3.42863354 C8.68828578,3.42863354 9.12832998,3.92180982 9.14291926,4.57896305 C9.14252495,5.20622682 8.68868009,5.71434783 7.97893138,5.71434783 Z" id="Shape" fill="#C3D0DE" fill-rule="nonzero"></path>
                </g>
            </g>
        </g>
    </g>
</svg>