<?xml version="1.0" encoding="UTF-8"?>
<svg width="30px" height="30px" viewBox="0 0 30 30" version="1.1" xmlns="http://www.w3.org/2000/svg" xmlns:xlink="http://www.w3.org/1999/xlink">
    <!-- Generator: Sketch 62 (91390) - https://sketch.com -->
    <title>Icons/Information</title>
    <desc>Created with Sketch.</desc>
    <g id="Page-1" stroke="none" stroke-width="1" fill="none" fill-rule="evenodd">
        <g id="Icons" transform="translate(-934.000000, -802.000000)" fill="#1B1E24">
            <g id="Icons/Information" transform="translate(934.000000, 802.000000)">
                <g id="Actian-Icon__Information">
                    <path d="M15,1.5 C22.4558441,1.5 28.5,7.54415588 28.5,15 C28.5,22.4558441 22.4558441,28.5 15,28.5 C7.54415588,28.5 1.5,22.4558441 1.5,15 C1.5,7.54415588 7.54415588,1.5 15,1.5 M15,0 C6.71572875,0 0,6.71572875 0,15 C0,23.2842712 6.71572875,30 15,30 C23.2842712,30 30,23.2842712 30,15 C30,11.0217527 28.4196474,7.20644396 25.6066017,4.39339828 C22.793556,1.58035261 18.9782473,0 15,0 Z" id="Shape" fill-rule="nonzero"></path>
                    <path d="M15,22.5000002 C14.5857864,22.5000002 14.25,22.1642136 14.25,21.75 L14.25,12.255 C14.25,11.8407864 14.5857864,11.505 15,11.505 C15.4142136,11.505 15.75,11.8407864 15.75,12.255 L15.75,21.78 C15.7338891,22.1824529 15.4027752,22.5003223 15,22.5000002 Z" id="Path" fill-rule="nonzero"></path>
                    <path d="M15.75,7.875 C15.75,8.28921356 15.4142136,8.625 15,8.625 C14.5857864,8.625 14.25,8.28921356 14.25,7.875 C14.25,7.46078644 14.5857864,7.125 15,7.125 C15.4142136,7.125 15.75,7.46078644 15.75,7.875 Z" id="Path" fill-rule="nonzero"></path>
                </g>
            </g>
        </g>
    </g>
</svg>