<?xml version="1.0" encoding="UTF-8"?>
<svg width="30px" height="28px" viewBox="0 0 30 28" version="1.1" xmlns="http://www.w3.org/2000/svg" xmlns:xlink="http://www.w3.org/1999/xlink">
    <!-- Generator: Sketch 62 (91390) - https://sketch.com -->
    <title>Icons/Integration</title>
    <desc>Created with Sketch.</desc>
    <g id="Page-1" stroke="none" stroke-width="1" fill="none" fill-rule="evenodd">
        <g id="Icons" transform="translate(-1021.000000, -803.000000)" fill="#1B1E24">
            <g id="Icons/Integration" transform="translate(1021.000000, 802.000000)">
                <g id="Actian-Icon__Integration_2" transform="translate(0.000000, 1.500000)">
                    <path d="M15,17.235 C12.9740002,17.2101383 11.3470212,15.5563203 11.3552771,13.5301849 C11.3635961,11.5040495 13.0040495,9.86359609 15.0301849,9.85527715 C17.0563203,9.84702124 18.7101383,11.4740002 18.735,13.5 C18.7513905,14.4955178 18.3631482,15.4550826 17.6591154,16.1591154 C16.9550826,16.8631482 15.9955178,17.2513905 15,17.235 L15,17.235 Z M15,11.37 L15,11.37 C13.8646073,11.4642079 12.9910904,12.4132056 12.9910904,13.5525 C12.9910904,14.6917944 13.8646073,15.6407921 15,15.735 L15,15.735 C15.5977306,15.7517297 16.1759838,15.5216336 16.5988087,15.0988087 C17.0216336,14.6759838 17.2517297,14.0977306 17.235,13.5 L17.235,13.5 C17.2232308,12.9204501 16.9806026,12.3695751 16.560976,11.9696625 C16.1413494,11.5697499 15.5794455,11.3538896 15,11.37 Z" id="Shape" fill-rule="nonzero"></path>
                    <path d="M15,21.375 C14.7252026,21.3899272 14.4497974,21.3899272 14.175,21.375 C13.8907508,21.3479678 13.6465089,21.1618788 13.545,20.895 L13.14,19.785 C12.8157262,19.6847683 12.4997674,19.5593878 12.195,19.41 L11.13,19.95 C10.8840261,20.0920131 10.5809739,20.0920131 10.335,19.95 C9.8302379,19.5121771 9.38180579,19.0133594 9,18.465 C8.81701768,18.2472216 8.77612046,17.9434136 8.895,17.685 L9.39,16.575 C9.24,16.275 9.105,15.93 9,15.675 L7.845,15.285 C7.57461488,15.2023518 7.37975995,14.966164 7.35,14.685 C7.29704906,14.3625285 7.26697401,14.0367155 7.26,13.71 C7.26,13.36 7.26,13.03 7.26,12.72 C7.28703216,12.4357508 7.47312123,12.1915089 7.74,12.09 L9,11.655 L9.345,10.785 L8.79,9.66 C8.64066239,9.42144396 8.64066239,9.11855604 8.79,8.88 C9.18549561,8.32892323 9.64355422,7.82556212 10.155,7.38 C10.3786012,7.2086835 10.6782593,7.17410756 10.935,7.29 L12,7.86 C12.2984366,7.71203479 12.6097205,7.5915378 12.93,7.5 L13.32,6.36 C13.4026482,6.08961488 13.638836,5.89475995 13.92,5.865 C14.24742,5.81133953 14.578271,5.78126217 14.91,5.775 C15.2396187,5.75256671 15.5703813,5.75256671 15.9,5.775 C16.1760374,5.81362499 16.4104867,5.99660976 16.515,6.255 L16.935,7.38 C17.2554134,7.47113841 17.5667333,7.59164932 17.865,7.74 L18.945,7.215 C19.183556,7.06566239 19.486444,7.06566239 19.725,7.215 C20.2498111,7.61497493 20.7278328,8.07286937 21.15,8.58 C21.3279955,8.80085197 21.3630221,9.10441523 21.24,9.36 L20.745,10.5 C20.895,10.8 21.03,11.145 21.135,11.4 L22.29,11.79 C22.559767,11.8774903 22.7571128,12.1096619 22.8,12.39 C22.8484845,12.7177995 22.873548,13.0486374 22.875,13.38 C22.875,13.71 22.875,14.04 22.875,14.355 C22.8479678,14.6392492 22.6618788,14.8834911 22.395,14.985 L21.255,15.405 C21.165,15.66 21.045,16.02 20.91,16.335 L21.45,17.415 C21.5925036,17.6554738 21.5925036,17.9545262 21.45,18.195 C21.0542072,18.723373 20.595869,19.2018579 20.085,19.62 C19.864148,19.7979955 19.5605848,19.8330221 19.305,19.71 L18.195,19.215 C17.895,19.365 17.55,19.5 17.295,19.605 L16.905,20.76 C16.8175097,21.029767 16.5853381,21.2271128 16.305,21.27 C15.9821715,21.3179275 15.6563606,21.3429899 15.33,21.345 L15,21.375 Z M14.79,19.875 L15.48,19.875 L15.825,18.825 C15.9001615,18.6066875 16.0716875,18.4351615 16.29,18.36 C16.7452236,18.2073989 17.1867845,18.0167249 17.61,17.79 C17.829666,17.6699419 18.095334,17.6699419 18.315,17.79 L19.32,18.24 C19.485,18.09 19.65,17.91 19.8,17.745 L19.305,16.755 C19.1927392,16.5334069 19.1927392,16.2715931 19.305,16.05 C19.5165143,15.6202387 19.6921131,15.1737159 19.83,14.715 C19.9033715,14.4938585 20.0668311,14.314053 20.28,14.22 L21.315,13.845 L21.315,13.5 C21.3224684,13.3801162 21.3224684,13.2598838 21.315,13.14 L20.265,12.795 C20.0466875,12.7198385 19.8751615,12.5483125 19.8,12.33 C19.6446308,11.8758408 19.4540521,11.4345006 19.23,11.01 C19.1099419,10.790334 19.1099419,10.524666 19.23,10.305 L19.68,9.3 C19.53,9.135 19.35,8.97 19.185,8.82 L18.195,9.315 C17.975334,9.43505814 17.709666,9.43505814 17.49,9.315 C17.0889438,9.07934824 16.6537748,8.90730467 16.2,8.805 C15.9562361,8.75146592 15.7575813,8.57551444 15.675,8.34 L15.285,7.305 L14.595,7.305 L14.235,8.355 C14.1595137,8.59247182 13.9666068,8.77403122 13.725,8.835 C13.2764624,8.96038187 12.8474038,9.14714854 12.45,9.39 C12.230334,9.51005814 11.964666,9.51005814 11.745,9.39 L10.74,9 L10.26,9.495 L10.755,10.485 C10.8375032,10.6816991 10.8375032,10.9033009 10.755,11.1 L10.17,12.6 C10.0907187,12.7984718 9.93347179,12.9557187 9.735,13.035 L8.7,13.425 L8.7,13.77 C8.7,13.875 8.7,13.995 8.7,14.115 L9.75,14.46 C9.96831252,14.5351615 10.1398385,14.7066875 10.215,14.925 C10.3703692,15.3791592 10.5609479,15.8204994 10.785,16.245 C10.9050581,16.464666 10.9050581,16.730334 10.785,16.95 L10.335,17.955 C10.5,18.12 10.665,18.285 10.845,18.435 L11.82,17.94 C12.0415931,17.8277392 12.3034069,17.8277392 12.525,17.94 C12.9310917,18.161594 13.3649131,18.3280603 13.815,18.435 C14.0606108,18.4915793 14.2625921,18.6655077 14.355,18.9 L14.79,19.875 Z" id="Shape" fill-rule="nonzero"></path>
                    <path d="M2.04,12.795 C1.77816713,12.7214517 1.57354833,12.5168329 1.5,12.255 L0.18,7.755 C0.0642349636,7.32888778 0.311083448,6.88856345 0.735,6.765 C1.1573713,6.65002454 1.59322122,6.89812372 1.71,7.32 L2.31,9.39 C4.26243164,3.6425089 9.81077501,-0.0951704292 15.8707441,0.254712312 C21.9307132,0.604595054 27.0120196,4.95599551 28.29,10.89 L26.655,10.89 C25.463857,5.73821032 21.0073651,1.99639507 15.727178,1.71464596 C10.4469909,1.43289684 5.61761405,4.67922107 3.885,9.675 L5.385,8.4 C5.72263196,8.12082574 6.22104607,8.16069887 6.51,8.49 C6.78550251,8.8315362 6.73894695,9.33034575 6.405,9.615 L2.73,12.615 C2.58830243,12.7363394 2.40646993,12.8005156 2.22,12.795 C2.16034135,12.8040512 2.09965865,12.8040512 2.04,12.795 Z" id="Path" fill-rule="nonzero"></path>
                    <path d="M29.355,20.46 C29.2907813,20.4742526 29.2242187,20.4742526 29.16,20.46 C28.7962988,20.4628201 28.4789226,20.2138976 28.395,19.86 L27.855,17.835 C25.8851999,23.5546773 20.3509827,27.2657117 14.3116983,26.9166201 C8.27241386,26.5675286 3.20264839,22.2435472 1.905,16.335 L3.54,16.335 C4.77462793,21.4785701 9.26127727,25.1862428 14.5453479,25.4295882 C19.8294186,25.6729335 24.6378506,22.3933238 26.34,17.385 L24.705,18.675 C24.3570606,18.9483809 23.853381,18.8879394 23.58,18.54 C23.3066191,18.1920606 23.3670606,17.688381 23.715,17.415 L27.48,14.415 C27.6876787,14.2503961 27.9657527,14.2049963 28.215,14.295 C28.4748221,14.3757698 28.6737782,14.5860948 28.74,14.85 L30,19.5 C30.0582307,19.7141822 30.0205671,19.9430963 29.8967841,20.1273315 C29.7730011,20.3115667 29.5753034,20.4329579 29.355,20.46 Z" id="Path" fill-rule="nonzero"></path>
                </g>
            </g>
        </g>
    </g>
</svg>