<?xml version="1.0" encoding="UTF-8"?>
<svg width="30px" height="30px" viewBox="0 0 30 30" version="1.1" xmlns="http://www.w3.org/2000/svg" xmlns:xlink="http://www.w3.org/1999/xlink">
    <!-- Generator: Sketch 62 (91390) - https://sketch.com -->
    <title>Icons/Job Queued</title>
    <desc>Created with Sketch.</desc>
    <g id="Page-1" stroke="none" stroke-width="1" fill="none" fill-rule="evenodd">
        <g id="Icons" transform="translate(-1275.000000, -802.000000)" fill="#1B1E24">
            <g id="Icons/Job-Queued" transform="translate(1275.000000, 802.000000)">
                <g id="Actian-Icon__Job-Queued-">
                    <path d="M15,1.5 C22.4558441,1.5 28.5,7.54415588 28.5,15 C28.5,22.4558441 22.4558441,28.5 15,28.5 C7.54415588,28.5 1.5,22.4558441 1.5,15 C1.5,7.54415588 7.54415588,1.5 15,1.5 M15,0 C6.71572875,0 0,6.71572875 0,15 C0,23.2842712 6.71572875,30 15,30 C23.2842712,30 30,23.2842712 30,15 C30,11.0217527 28.4196474,7.20644396 25.6066017,4.39339828 C22.793556,1.58035261 18.9782473,0 15,0 Z" id="Shape" fill-rule="nonzero"></path>
                    <path d="M9.675,8.265 L9.675,21.765 C9.66276431,22.14323 9.37582327,22.4556769 9,22.5 C8.58578644,22.5 8.25,22.1642136 8.25,21.75 L8.25,8.25 C8.25,7.83578644 8.58578644,7.5 9,7.5 C9.39049596,7.53912261 9.68480391,7.87267162 9.675,8.265 L9.675,8.265 Z" id="Path" fill-rule="nonzero"></path>
                    <path d="M14.175,8.265 L14.175,21.765 C14.1627643,22.14323 13.8758233,22.4556769 13.5,22.5 C13.0857864,22.5 12.75,22.1642136 12.75,21.75 L12.75,8.25 C12.75,7.83578644 13.0857864,7.5 13.5,7.5 C13.890496,7.53912261 14.1848039,7.87267162 14.175,8.265 Z" id="Path" fill-rule="nonzero"></path>
                    <path d="M17.835,22.5 C17.5424179,22.5115013 17.2709181,22.3482423 17.1438934,22.0844217 C17.0168686,21.8206011 17.0585524,21.50655 17.25,21.285 L22.365,15 L17.25,8.715 C16.9975516,8.38817902 17.0435889,7.92122921 17.355,7.65 C17.6833852,7.39309534 18.1570167,7.44646227 18.42,7.77 L23.91,14.535 C24.1334049,14.8103891 24.1334049,15.2046109 23.91,15.48 L18.42,22.275 C18.2660839,22.4301075 18.0531851,22.5119917 17.835,22.5 L17.835,22.5 Z" id="Path" fill-rule="nonzero"></path>
                </g>
            </g>
        </g>
    </g>
</svg>