<?xml version="1.0" encoding="UTF-8"?>
<svg width="30px" height="30px" viewBox="0 0 30 30" version="1.1" xmlns="http://www.w3.org/2000/svg" xmlns:xlink="http://www.w3.org/1999/xlink">
    <!-- Generator: Sketch 62 (91390) - https://sketch.com -->
    <title>Icons/Job Aborted</title>
    <desc>Created with Sketch.</desc>
    <g id="Page-1" stroke="none" stroke-width="1" fill="none" fill-rule="evenodd">
        <g id="Icons" transform="translate(-1106.000000, -802.000000)" fill="#1B1E24">
            <g id="Icons/Job-Aborted" transform="translate(1106.000000, 802.000000)">
                <g id="Actian-Icon__Jobs-Aborted">
                    <path d="M15,1.5 C22.4558441,1.5 28.5,7.54415588 28.5,15 C28.5,22.4558441 22.4558441,28.5 15,28.5 C7.54415588,28.5 1.5,22.4558441 1.5,15 C1.5,7.54415588 7.54415588,1.5 15,1.5 M15,0 C6.71572875,0 0,6.71572875 0,15 C0,23.2842712 6.71572875,30 15,30 C23.2842712,30 30,23.2842712 30,15 C30,11.0217527 28.4196474,7.20644396 25.6066017,4.39339828 C22.793556,1.58035261 18.9782473,0 15,0 Z" id="Shape" fill-rule="nonzero"></path>
                    <path d="M8.25,14.25 L21.75,14.25 C22.1642136,14.25 22.5,14.5857864 22.5,15 C22.5,15.4142136 22.1642136,15.75 21.75,15.75 L8.25,15.75 C7.83578644,15.75 7.5,15.4142136 7.5,15 C7.5,14.5857864 7.83578644,14.25 8.25,14.25 Z" id="Path" fill-rule="nonzero"></path>
                </g>
            </g>
        </g>
    </g>
</svg>