<?xml version="1.0" encoding="UTF-8"?>
<svg width="30px" height="30px" viewBox="0 0 30 30" version="1.1" xmlns="http://www.w3.org/2000/svg" xmlns:xlink="http://www.w3.org/1999/xlink">
    <!-- Generator: Sketch 62 (91390) - https://sketch.com -->
    <title>Icons/Job Running in Circle</title>
    <desc>Created with Sketch.</desc>
    <g id="Page-1" stroke="none" stroke-width="1" fill="none" fill-rule="evenodd">
        <g id="Icons" transform="translate(-769.000000, -904.000000)" fill="#1B1E24">
            <g id="Icons/Job-Running_In-Circle" transform="translate(769.000000, 904.000000)">
                <g id="Actian-Icon__Job-Running-">
                    <path d="M15,1.5 C22.4558441,1.5 28.5,7.54415588 28.5,15 C28.5,22.4558441 22.4558441,28.5 15,28.5 C7.54415588,28.5 1.5,22.4558441 1.5,15 C1.5,7.54415588 7.54415588,1.5 15,1.5 M15,0 C6.71572875,0 0,6.71572875 0,15 C0,23.2842712 6.71572875,30 15,30 C23.2842712,30 30,23.2842712 30,15 C30,11.0217527 28.4196474,7.20644396 25.6066017,4.39339828 C22.793556,1.58035261 18.9782473,0 15,0 Z" id="Shape" fill-rule="nonzero"></path>
                    <path d="M13.095,21.6 C13.5092136,21.6 13.845,21.9357864 13.845,22.35 C13.845,22.7642136 13.5092136,23.1 13.095,23.1 C12.6807864,23.1 12.345,22.7642136 12.345,22.35 C12.345,21.9357864 12.6807864,21.6 13.095,21.6 Z" id="Path" fill-rule="nonzero"></path>
                    <path d="M10.8,20.595 C11.2142136,20.595 11.55,20.9307864 11.55,21.345 C11.55,21.7592136 11.2142136,22.095 10.8,22.095 C10.3857864,22.095 10.05,21.7592136 10.05,21.345 C10.0579802,20.9341373 10.3891373,20.6029802 10.8,20.595 Z" id="Path" fill-rule="nonzero"></path>
                    <path d="M9,18.9 C9.41421356,18.9 9.75,19.2357864 9.75,19.65 C9.75,20.0642136 9.41421356,20.4 9,20.4 C8.58578644,20.4 8.25,20.0642136 8.25,19.65 C8.25798016,19.2391373 8.58913732,18.9079802 9,18.9 Z" id="Path" fill-rule="nonzero"></path>
                    <path d="M24,15 L24,15 C23.9896945,19.4187495 20.5231148,23.0566811 16.11,23.28 L16.11,23.28 C15.7268105,23.2728934 15.4133987,22.9725405 15.39,22.59 C15.3818756,22.3990003 15.4500446,22.2126106 15.5794792,22.0719209 C15.7089138,21.9312311 15.8889864,21.8477928 16.08,21.84 C17.9043565,21.7395381 19.6143876,20.9195863 20.835,19.56 C21.9805785,18.2538847 22.5771247,16.5556091 22.5,14.82 C22.5148204,14.5852337 22.5148204,14.3497663 22.5,14.115 C22.5,13.905 22.5,13.68 22.395,13.455 C22.29,13.23 22.26,13.005 22.185,12.795 C22.11,12.585 22.05,12.39 21.975,12.195 C21.9,12 21.75,11.775 21.63,11.565 C21.5338908,11.3848168 21.4287573,11.2095944 21.315,11.04 C21.1825312,10.8502553 21.0371893,10.669831 20.88,10.5 C20.73692,10.3241945 20.5815287,10.158778 20.415,10.005 C20.2619162,9.86200975 20.1017124,9.72683777 19.935,9.6 C19.7489972,9.44327673 19.5536367,9.29800867 19.35,9.165 L18.84,8.88 C18.6,8.775 18.375,8.655 18.135,8.565 L17.625,8.4 C17.3641305,8.31918735 17.0986552,8.25407077 16.83,8.205 L16.305,8.205 C16.0304408,8.18298075 15.7545592,8.18298075 15.48,8.205 C11.8253122,8.30775644 8.89136675,11.2548882 8.805,14.91 L10.035,13.41 C10.194567,13.1698752 10.4776533,13.0424737 10.7632006,13.0822771 C11.0487478,13.1220804 11.2862019,13.3220418 11.3740186,13.5966502 C11.4618353,13.8712585 11.3844673,14.1718965 11.175,14.37 L8.415,17.7 L5.085,14.835 C4.88466085,14.5598662 4.8946991,14.1843247 5.10945036,13.9202863 C5.32420162,13.6562479 5.68982235,13.5699135 6,13.71 L7.305,14.82 C7.40727069,10.4763197 10.8272488,6.93886147 15.165,6.69 L15.315,6.69 L15.63,6.69 L15.855,6.69 L16.245,6.69 L16.635,6.69 L17.13,6.69 L17.415,6.69 C17.5982517,6.72081755 17.778805,6.76595588 17.955,6.825 L18.195,6.825 L18.72,7.005 L18.975,7.11 L19.425,7.335 L19.71,7.485 L20.1,7.725 L20.415,7.935 L20.745,8.19 L21.06,8.43 L21.21,8.565 L21.285,8.565 C21.6306515,8.88071217 21.9469478,9.22713198 22.23,9.6 L22.38,9.81 C22.6464572,10.1748941 22.8822619,10.5612124 23.085,10.965 C23.085,11.055 23.16,11.13 23.19,11.205 C23.3875954,11.6252347 23.5482026,12.0618856 23.67,12.51 L23.67,12.72 C23.7910528,13.1814852 23.8664157,13.6537592 23.895,14.13 C23.895,14.13 23.895,14.13 23.895,14.235 L23.895,15 L24,15 Z" id="Path" fill-rule="nonzero"></path>
                </g>
            </g>
        </g>
    </g>
</svg>