<?xml version="1.0" encoding="UTF-8"?>
<svg width="30px" height="28px" viewBox="0 0 30 28" version="1.1" xmlns="http://www.w3.org/2000/svg" xmlns:xlink="http://www.w3.org/1999/xlink">
    <!-- Generator: Sketch 62 (91390) - https://sketch.com -->
    <title>Icons/Job Running</title>
    <desc>Created with Sketch.</desc>
    <g id="Page-1" stroke="none" stroke-width="1" fill="none" fill-rule="evenodd">
        <g id="Icons" transform="translate(-681.000000, -905.000000)" fill="#1B1E24">
            <g id="Icons/Job-Running" transform="translate(681.000000, 904.000000)">
                <g id="Actian-Icon__Job-Running" transform="translate(0.000000, 1.500000)">
                    <path d="M13.185,25.935 C13.103744,26.1856528 12.8894933,26.3700721 12.6295392,26.4131208 C12.3695851,26.4561695 12.107322,26.3506614 11.9496029,26.1395832 C11.7918837,25.928505 11.7650367,25.6470923 11.88,25.41 C12.0416488,25.0766268 12.4337605,24.925257 12.7774851,25.063537 C13.1212097,25.201817 13.2992532,25.5825597 13.185,25.935 L13.185,25.935 Z" id="Path" fill-rule="nonzero"></path>
                    <path d="M9.15,23.76 C9.00840118,24.1127867 8.60813366,24.2845907 8.25485839,24.1442154 C7.90158311,24.00384 7.72839291,23.6041704 7.86754303,23.2504107 C8.00669316,22.896651 8.40576022,22.7220767 8.76,22.86 C8.9344004,22.9233795 9.07501809,23.0557593 9.14879808,23.2260208 C9.22257806,23.3962823 9.22301276,23.5894081 9.15,23.76 L9.15,23.76 Z" id="Path" fill-rule="nonzero"></path>
                    <path d="M6.405,20.445 C6.24335124,20.7783732 5.8512395,20.929743 5.50751488,20.791463 C5.16379025,20.653183 4.98574678,20.2724403 5.1,19.92 C5.24572984,19.5678291 5.63648049,19.3854788 6,19.5 C6.18025442,19.5700676 6.32474304,19.709704 6.40092455,19.8874609 C6.47710606,20.0652178 6.47857481,20.2661485 6.405,20.445 L6.405,20.445 Z" id="Path" fill-rule="nonzero"></path>
                    <path d="M30,13.5 L30,13.605 C29.893395,20.9845811 23.880351,26.91077 16.5,26.91 L16.5,26.91 C16.1853478,26.8615928 15.9530752,26.590854 15.9530752,26.2725 C15.9530752,25.954146 16.1853478,25.6834072 16.5,25.635 L16.5,25.635 C23.1462712,25.6273012 28.5529517,20.2807692 28.635,13.635 C28.635,13.425 28.635,13.215 28.635,13.005 C28.635,12.795 28.635,12.555 28.635,12.345 C28.635,12.135 28.635,11.955 28.545,11.775 C28.455,11.595 28.545,11.34 28.455,11.13 L28.32,10.5 C28.32,10.305 28.215,10.11 28.155,9.915 C28.095,9.72 28.02,9.54 27.96,9.345 C27.9,9.15 27.84,8.985 27.765,8.805 L27.495,8.25 C27.495,8.085 27.345,7.905 27.255,7.74 L27,7.26 C26.9111006,7.08852258 26.8108788,6.9231566 26.7,6.765 C26.595,6.6 26.475,6.45 26.37,6.3 L26.01,5.82 L25.635,5.415 L25.23,4.965 C25.11,4.83 24.96,4.71 24.84,4.59 L24.375,4.17 L23.955,3.855 L23.43,3.465 L23.01,3.21 L22.44,2.85 L21.99,2.64 L21.375,2.34 L20.895,2.16 L20.265,1.92 L19.755,1.785 L19.11,1.62 L18.51,1.5 C18.285,1.5 18.075,1.5 17.85,1.5 L17.28,1.5 L16.56,1.5 C10.0621141,1.54337848 4.74854527,6.69172438 4.5,13.185 L6.75,10.395 C7.01095454,10.0719134 7.48441342,10.0215455 7.8075,10.2825 C8.13058658,10.5434545 8.18095454,11.0169134 7.92,11.34 L4.32,15.72 C4.18622966,15.9003538 3.97454523,16.006196 3.75,16.005 L3.75,16.005 C3.51112015,15.9899366 3.29377686,15.8617598 3.165,15.66 L0.165,11.16 C0.0176279393,10.9349227 0.00152786266,10.6483206 0.122764513,10.408154 C0.244001164,10.1679874 0.48415581,10.0107433 0.752764519,9.99565399 C1.02137323,9.9805647 1.27762795,10.1099227 1.425,10.335 L3.165,13.005 C3.47523259,5.84196424 9.33070588,0.170915315 16.5,0.09 L16.62,0.09 L17.295,0.09 L17.925,0.09 L18.63,0.195 L19.26,0.3 L19.935,0.48 L20.535,0.63 L21.195,0.87 L21.765,1.095 L22.5,1.5 C22.68,1.59 22.875,1.665 23.055,1.77 L23.625,2.115 L24.165,2.445 L24.69,2.835 L25.185,3.225 L25.665,3.66 L26.145,4.095 L26.55,4.545 C26.7,4.71 26.865,4.875 27,5.055 C27.128322,5.20858607 27.2484875,5.36880682 27.36,5.535 C27.495,5.715 27.645,5.895 27.765,6.09 C27.885,6.285 27.975,6.435 28.08,6.6 C28.185,6.765 28.335,6.99 28.44,7.2 L28.71,7.755 C28.8,7.95 28.905,8.16 28.995,8.37 C29.085,8.58 29.145,8.775 29.22,8.97 L29.445,9.6 C29.445,9.81 29.55,10.035 29.61,10.26 C29.67,10.485 29.73,10.665 29.775,10.89 C29.82,11.115 29.775,11.355 29.88,11.595 L29.97,12.21 C29.97,12.465 29.97,12.705 29.97,12.96 C29.97,13.215 29.97,13.335 29.97,13.53 L30,13.5 Z" id="Path" fill-rule="nonzero"></path>
                </g>
            </g>
        </g>
    </g>
</svg>