<?xml version="1.0" encoding="UTF-8"?>
<svg width="30px" height="30px" viewBox="0 0 30 30" version="1.1" xmlns="http://www.w3.org/2000/svg" xmlns:xlink="http://www.w3.org/1999/xlink">
    <!-- Generator: Sketch 62 (91390) - https://sketch.com -->
    <title>Icons/Job Error</title>
    <desc>Created with Sketch.</desc>
    <g id="Page-1" stroke="none" stroke-width="1" fill="none" fill-rule="evenodd">
        <g id="Icons" transform="translate(-1191.000000, -802.000000)" fill="#1B1E24">
            <g id="Icons/Job-Error" transform="translate(1191.000000, 802.000000)">
                <g id="Actian-Icon__Job-Error-">
                    <path d="M15,1.5 C22.4558441,1.5 28.5,7.54415588 28.5,15 C28.5,22.4558441 22.4558441,28.5 15,28.5 C7.54415588,28.5 1.5,22.4558441 1.5,15 C1.5,7.54415588 7.54415588,1.5 15,1.5 M15,0 C6.71572875,0 0,6.71572875 0,15 C0,23.2842712 6.71572875,30 15,30 C23.2842712,30 30,23.2842712 30,15 C30,11.0217527 28.4196474,7.20644396 25.6066017,4.39339828 C22.793556,1.58035261 18.9782473,0 15,0 Z" id="Shape" fill-rule="nonzero"></path>
                    <path d="M15.21,17.3400096 C14.7957864,17.3400096 14.46,17.0042136 14.46,16.59 L14.46,10.665 C14.46,10.2507864 14.7957864,9.915 15.21,9.915 C15.6242136,9.915 15.96,10.2507864 15.96,10.665 L15.96,16.665 C15.9213435,17.049676 15.5966086,17.3419374 15.21,17.3400096 L15.21,17.3400096 Z" id="Path" fill-rule="nonzero"></path>
                    <path d="M22.815,22.725 L7.185,22.725 C6.57826724,22.7139001 6.02114599,22.3875016 5.71480855,21.8636646 C5.40847111,21.3398276 5.39717532,20.6942329 5.685,20.16 L13.665,5.85 L13.665,5.85 C13.9559131,5.29365305 14.5373495,4.95060556 15.165,4.965 C15.7917752,4.98278024 16.3623661,5.3308407 16.665,5.88 L24.3,20.19 C24.582506,20.7210525 24.5679761,21.3609165 24.2616556,21.878598 C23.9553352,22.3962795 23.4014669,22.7170084 22.8,22.725 L22.815,22.725 Z M15,6.585 L6.99,20.88 C6.94377155,20.9533217 6.94377155,21.0466783 6.99,21.12 C7.03400024,21.1846916 7.10677107,21.2238759 7.185,21.225 L22.815,21.225 C22.8920244,21.2194957 22.9630059,21.1812749 23.01,21.12 C23.0576324,21.0525628 23.0576324,20.9624372 23.01,20.895 L15.375,6.585 C15.375,6.48 15.24,6.48 15.18,6.465 C15.0958866,6.4586116 15.0172022,6.50703275 14.985,6.585 L15,6.585 Z" id="Shape" fill-rule="nonzero"></path>
                    <path d="M15.96,19.365 C15.9517551,19.7771602 15.612406,20.1054033 15.2001996,20.099934 C14.7879933,20.0944647 14.4574725,19.7573335 14.460166,19.3450997 C14.4628595,18.9328658 14.7977574,18.6000825 15.21,18.6 C15.4115388,18.5999597 15.6046131,18.6810331 15.7457046,18.8249464 C15.8867962,18.9688598 15.9640308,19.1635015 15.96,19.365 Z" id="Path" fill-rule="nonzero"></path>
                </g>
            </g>
        </g>
    </g>
</svg>