<?xml version="1.0" encoding="UTF-8"?>
<svg width="24px" height="30px" viewBox="0 0 24 30" version="1.1" xmlns="http://www.w3.org/2000/svg" xmlns:xlink="http://www.w3.org/1999/xlink">
    <!-- Generator: Sketch 62 (91390) - https://sketch.com -->
    <title>Icons/JSON</title>
    <desc>Created with Sketch.</desc>
    <g id="Page-1" stroke="none" stroke-width="1" fill="none" fill-rule="evenodd">
        <g id="Icons" transform="translate(-850.000000, -200.000000)" fill="#1B1E24">
            <g id="Icons/.JSON" transform="translate(847.000000, 200.000000)">
                <g id="Actian-Icon__json" transform="translate(3.000000, 0.000000)">
                    <path d="M4.5,20.865 L4.2,20.865 L3.96,20.865 L3.96,20.145 L4.32,20.145 C4.47728335,20.1606123 4.63419118,20.1119168 4.755,20.01 C4.8753886,19.8695446 4.92012837,19.6794006 4.875,19.5 L4.875,14.385 L5.775,14.385 L5.775,19.62 C5.79908519,19.9579074 5.67922287,20.2902529 5.445,20.535 C5.18554007,20.7647988 4.84610826,20.8833305 4.5,20.865 L4.5,20.865 Z M5.34,13.65 C5.19391536,13.6621758 5.0502749,13.6069295 4.95,13.5 C4.84419498,13.3978871 4.78460703,13.2570428 4.785,13.11 C4.78787738,12.963635 4.84695877,12.823988 4.95,12.72 C5.05106908,12.6126847 5.19260011,12.5528061 5.34,12.555 C5.48573326,12.5607715 5.6243748,12.6194276 5.73,12.72 C5.83304123,12.823988 5.89212262,12.963635 5.895,13.11 C5.89539297,13.2570428 5.83580502,13.3978871 5.73,13.5 C5.62450485,13.598897 5.48457687,13.6527155 5.34,13.65 L5.34,13.65 Z M6.33,18.405 L6.81,17.82 C7.03391663,17.9940369 7.28137972,18.1354444 7.545,18.24 C7.78754009,18.3402014 8.04757935,18.3911895 8.31,18.39 C8.58653476,18.4045331 8.86169521,18.3422326 9.105,18.21 C9.28323736,18.1073311 9.39645907,17.9205153 9.405,17.715 C9.41223439,17.5634163 9.34504502,17.4178393 9.225,17.325 C9.06358995,17.2060997 8.87030832,17.1381899 8.67,17.13 L7.845,17.01 C7.47166311,16.9710888 7.11749029,16.8252529 6.825,16.59 C6.58620285,16.372127 6.45928392,16.0575888 6.48,15.735 C6.47400863,15.3399411 6.65816221,14.9660535 6.975,14.73 C7.35084557,14.4640104 7.80513148,14.3319506 8.265,14.355 C8.58990099,14.3524949 8.91339081,14.3979856 9.225,14.49 C9.5384331,14.6005978 9.83597878,14.7518922 10.11,14.94 L9.66,15.525 C9.45443199,15.3802501 9.23299538,15.2594664 9,15.165 C8.7463787,15.0649648 8.47748296,15.0091563 8.205,15 C7.97296952,14.9824634 7.74148028,15.0403358 7.545,15.165 C7.38459993,15.2575744 7.28699029,15.4298267 7.29,15.615 C7.26965155,15.7884664 7.35151447,15.9580396 7.5,16.05 C7.67498632,16.1642256 7.87647558,16.2313887 8.085,16.245 L8.91,16.365 C9.28716043,16.4067562 9.64539443,16.5521265 9.945,16.785 C10.1823925,17.0049532 10.3135642,17.316486 10.305,17.64 C10.3031645,17.8395156 10.2516094,18.0354249 10.155,18.21 C10.0492937,18.3882617 9.91206281,18.545823 9.75,18.675 C9.56080762,18.804595 9.35359265,18.9056755 9.135,18.975 C8.89218787,19.0497215 8.63899669,19.0851682 8.385,19.08 C8.00831172,19.0884811 7.63293433,19.0326818 7.275,18.915 C6.92855038,18.8111417 6.60697398,18.6375926 6.33,18.405 L6.33,18.405 Z M10.665,16.665 C10.658333,16.0391299 10.9075786,15.4376893 11.355,15 C11.5713311,14.7781345 11.8319968,14.6043573 12.12,14.49 C12.7167239,14.2497402 13.3832761,14.2497402 13.98,14.49 C14.5443956,14.7353003 14.9946997,15.1856044 15.24,15.75 C15.3615776,16.0448468 15.4227847,16.3610831 15.42,16.68 C15.4227757,17.0037763 15.3616063,17.3249155 15.24,17.625 C15.1254014,17.9084937 14.9515148,18.1642093 14.73,18.375 C14.03847,19.0482144 13.0140833,19.2483819 12.12,18.885 C11.8350435,18.764906 11.5754547,18.5918468 11.355,18.375 C11.138303,18.1601631 10.9651326,17.9055007 10.845,17.625 C10.7214374,17.3202477 10.6602312,16.9938145 10.665,16.665 L10.665,16.665 Z M13.05,18.255 C13.4517646,18.2640069 13.8366557,18.0935552 14.1,17.79 C14.3960257,17.4923857 14.5538006,17.0843472 14.535,16.665 C14.5538006,16.2456528 14.3960257,15.8376143 14.1,15.54 C13.83143,15.2453758 13.4485693,15.0812926 13.05,15.09 C12.6491312,15.0916641 12.2656072,15.2537165 11.985,15.54 C11.700598,15.8450283 11.5447872,16.2479873 11.55,16.665 C11.5311994,17.0843472 11.6889743,17.4923857 11.985,17.79 C12.2542516,18.0942021 12.6438614,18.2643134 13.05,18.255 Z M16.05,18.96 L16.05,14.385 L16.95,14.385 L16.95,14.835 C17.122844,14.656563 17.332798,14.5183006 17.565,14.43 C17.8042036,14.3379413 18.0587093,14.2921303 18.315,14.295 C18.7945954,14.2766685 19.2607739,14.455551 19.605,14.79 C19.9496064,15.1286426 20.134874,15.5972606 20.115,16.08 L20.115,18.96 L19.215,18.96 L19.215,16.23 C19.2371019,15.9200755 19.1246517,15.6156461 18.9063861,15.3945086 C18.6881205,15.173371 18.3851869,15.0569512 18.075,15.075 C17.8507471,15.0693815 17.6287617,15.121006 17.43,15.225 C17.2329689,15.3298407 17.0673212,15.4851354 16.95,15.675 L16.95,18.96 L16.05,18.96 Z" id="Shape" fill-rule="nonzero"></path>
                    <path d="M22.815,6.81 C22.815,6.81 22.815,6.81 22.815,6.81 L16.5,0.42 L16.5,0.42 L16.065,-2.24060863e-07 L2.91,-2.24060863e-07 C2.38623924,-2.24060863e-07 1.8847485,0.211829207 1.52009044,0.587794491 C1.15543239,0.963759775 0.958759294,1.47149104 0.975,1.995 L0.975,28.11 C1.00722359,29.1576589 1.86187294,29.9924327 2.91,29.9999998 L21.195,29.9999998 C22.2685553,29.9918357 23.1368357,29.1235553 23.145,28.05 L23.145,7.05 L22.815,6.81 Z M16.68,2.79 L20.4,6.525 L16.68,6.525 L16.68,2.79 Z M21.645,28.11 C21.6372091,28.3552286 21.4402286,28.5522091 21.195,28.56 L2.91,28.56 C2.66734868,28.5519072 2.47486508,28.3527862 2.475,28.11 L2.475,1.995 C2.45753698,1.86964562 2.49553535,1.74290137 2.5790827,1.64783025 C2.66263004,1.55275913 2.78344088,1.49878947 2.91,1.49998006 L15.18,1.49998006 L15.18,7.275 C15.18,7.68921356 15.5157864,8.025 15.93,8.025 L21.645,8.025 L21.645,28.11 Z" id="Shape" fill-rule="nonzero"></path>
                </g>
            </g>
        </g>
    </g>
</svg>