<?xml version="1.0" encoding="UTF-8"?>
<svg width="30px" height="18px" viewBox="0 0 30 18" version="1.1" xmlns="http://www.w3.org/2000/svg" xmlns:xlink="http://www.w3.org/1999/xlink">
    <!-- Generator: Sketch 62 (91390) - https://sketch.com -->
    <title>Icons/Keyboard Shortcut</title>
    <desc>Created with Sketch.</desc>
    <g id="Page-1" stroke="none" stroke-width="1" fill="none" fill-rule="evenodd">
        <g id="Icons" transform="translate(-847.000000, -910.000000)" fill="#1B1E24">
            <g id="Icons/Keyboard-Shortcut" transform="translate(847.000000, 904.000000)">
                <g id="Actian-Icon__Shortcut" transform="translate(0.000000, 6.000000)">
                    <path d="M28.335,18 L1.665,18 C0.743024809,17.9917678 0,17.2420119 0,16.32 L0,1.68 C0,0.757988058 0.743024809,0.00823224876 1.665,0 L28.335,0 C29.2569752,0.00823224876 30,0.757988058 30,1.68 L30,16.32 C30,17.2420119 29.2569752,17.9917678 28.335,18 Z M3.09,16.6050004 L26.91,16.6050004 C27.8066233,16.6055824 28.5426894,15.8960411 28.575,15 L28.575,3 C28.575,2.08044589 27.8295541,1.335 26.91,1.335 L3.09,1.335 C2.19986035,1.37513666 1.49909557,2.10895638 1.49999913,3 L1.49999913,15 C1.53043178,15.8677427 2.2225813,16.5664219 3.09,16.6050004 Z M5.25,4.965 L5.25,4.035 C5.24246613,3.88082724 5.11917276,3.75753387 4.965,3.75 L4.035,3.75 C3.88082724,3.75753387 3.75753387,3.88082724 3.75,4.035 L3.75,4.965 C3.75753387,5.11917276 3.88082724,5.24246613 4.035,5.25 L4.965,5.25 C5.11917276,5.24246613 5.24246613,5.11917276 5.25,4.965 Z M8.25,4.965 L8.25,4.035 C8.24246613,3.88082724 8.11917276,3.75753387 7.965,3.75 L7.035,3.75 C6.88082724,3.75753387 6.75753387,3.88082724 6.75,4.035 L6.75,4.965 C6.75753387,5.11917276 6.88082724,5.24246613 7.035,5.25 L7.965,5.25 C8.11917276,5.24246613 8.24246613,5.11917276 8.25,4.965 Z M11.25,4.965 L11.25,4.035 C11.2424661,3.88082724 11.1191728,3.75753387 10.965,3.75 L10.035,3.75 C9.88082724,3.75753387 9.75753387,3.88082724 9.75,4.035 L9.75,4.965 C9.75753387,5.11917276 9.88082724,5.24246613 10.035,5.25 L10.965,5.25 C11.1191728,5.24246613 11.2424661,5.11917276 11.25,4.965 L11.25,4.965 Z M14.175,4.965 L14.175,4.035 C14.175,3.87759885 14.0474012,3.74999976 13.89,3.74999976 L12.975,3.74999976 C12.815,3.74979988 12.6829999,3.87519995 12.675,4.035 L12.675,4.965 C12.6829999,5.12480005 12.815,5.25020012 12.975,5.24999976 L13.89,5.24999976 C13.9655867,5.24999976 14.0380776,5.2199733 14.0915254,5.16652543 C14.1449733,5.11307756 14.175,5.0405867 14.175,4.965 Z M17.175,4.965 L17.175,4.035 C17.1670001,3.87519995 17.035,3.74979988 16.875,3.74999976 L15.96,3.74999976 C15.8025988,3.74999976 15.675,3.87759885 15.675,4.035 L15.675,4.965 C15.675,5.12240115 15.8025988,5.24999976 15.96,5.24999976 L16.875,5.24999976 C16.9594654,5.26287985 17.0454154,5.23913297 17.1112877,5.18471669 C17.17716,5.1303004 17.2167043,5.05037819 17.22,4.965 L17.175,4.965 Z M20.175,4.965 L20.175,4.035 C20.1674661,3.88082724 20.0441728,3.75753387 19.89,3.75 L18.96,3.75 C18.8058272,3.75753387 18.6825339,3.88082724 18.675,4.035 L18.675,4.965 C18.6825339,5.11917276 18.8058272,5.24246613 18.96,5.25 L19.89,5.25 C19.9767531,5.26774911 20.0669159,5.24626538 20.1363433,5.19130203 C20.2057707,5.13633869 20.2473696,5.05351108 20.25,4.965 L20.175,4.965 Z M23.175,4.965 L23.175,4.035 C23.1674661,3.88082724 23.0441728,3.75753387 22.89,3.75 L21.96,3.75 C21.8058272,3.75753387 21.6825339,3.88082724 21.675,4.035 L21.675,4.965 C21.6825339,5.11917276 21.8058272,5.24246613 21.96,5.25 L22.89,5.25 C22.9767531,5.26774911 23.0669159,5.24626538 23.1363433,5.19130203 C23.2057707,5.13633869 23.2473696,5.05351108 23.25,4.965 L23.175,4.965 Z M8.175,7.965 L8.175,7.035 C8.16746613,6.88082724 8.04417276,6.75753387 7.89,6.75 L7.035,6.75 C6.88082724,6.75753387 6.75753387,6.88082724 6.75,7.035 L6.75,7.965 C6.75753387,8.11917276 6.88082724,8.24246613 7.035,8.25 L7.965,8.25 C8.11917276,8.24246613 8.24246613,8.11917276 8.25,7.965 L8.175,7.965 Z M11.175,7.965 L11.175,7.035 C11.1674661,6.88082724 11.0441728,6.75753387 10.89,6.75 L10.035,6.75 C9.88082724,6.75753387 9.75753387,6.88082724 9.75,7.035 L9.75,7.965 C9.75753387,8.11917276 9.88082724,8.24246613 10.035,8.25 L10.965,8.25 C11.1191728,8.24246613 11.2424661,8.11917276 11.25,7.965 L11.175,7.965 Z M14.1,7.965 L14.1,7.035 C14.1,6.87759885 13.9724012,6.74999976 13.815,6.74999976 L12.975,6.74999976 C12.815,6.74979988 12.6829999,6.87519995 12.675,7.035 L12.675,7.965 C12.6829999,8.12480005 12.815,8.25020012 12.975,8.24999976 L13.89,8.24999976 C13.9655867,8.24999976 14.0380776,8.2199733 14.0915254,8.16652543 C14.1449733,8.11307756 14.175,8.0405867 14.175,7.965 L14.1,7.965 Z M17.1,7.965 L17.1,7.035 C17.0920001,6.87519995 16.96,6.74979988 16.8,6.74999976 L15.885,6.74999976 C15.7275988,6.74999976 15.6,6.87759885 15.6,7.035 L15.6,7.965 C15.6,8.12240115 15.7275988,8.24999976 15.885,8.24999976 L16.8,8.24999976 C16.8943986,8.29126876 17.0033702,8.28121163 17.0886212,8.22336277 C17.1738721,8.16551392 17.2234754,8.06796667 17.22,7.965 L17.1,7.965 Z M20.1,7.965 L20.1,7.035 C20.0924661,6.88082724 19.9691728,6.75753387 19.815,6.75 L18.885,6.75 C18.7308272,6.75753387 18.6075339,6.88082724 18.6,7.035 L18.6,7.965 C18.6075339,8.11917276 18.7308272,8.24246613 18.885,8.25 L19.815,8.25 C19.9107621,8.29848008 20.0251286,8.29210537 20.1149097,8.23328324 C20.2046909,8.1744611 20.2562057,8.07215498 20.25,7.965 L20.1,7.965 Z M23.1,7.965 L23.1,7.035 C23.0924661,6.88082724 22.9691728,6.75753387 22.815,6.75 L21.885,6.75 C21.7308272,6.75753387 21.6075339,6.88082724 21.6,7.035 L21.6,7.965 C21.6075339,8.11917276 21.7308272,8.24246613 21.885,8.25 L22.815,8.25 C22.9107621,8.29848008 23.0251286,8.29210537 23.1149097,8.23328324 C23.2046909,8.1744611 23.2562057,8.07215498 23.25,7.965 L23.1,7.965 Z M26.1,4.965 L26.1,4.035 C26.0924661,3.88082724 25.9691728,3.75753387 25.815,3.75 L24.885,3.75 C24.7308272,3.75753387 24.6075339,3.88082724 24.6,4.035 L24.6,4.965 C24.6075339,5.11917276 24.7308272,5.24246613 24.885,5.25 L25.815,5.25 C25.9107621,5.29848008 26.0251286,5.29210537 26.1149097,5.23328324 C26.2046909,5.1744611 26.2562057,5.07215498 26.25,4.965 L26.1,4.965 Z M5.1,10.965 L5.1,10.035 C5.09246613,9.88082724 4.96917276,9.75753387 4.815,9.75 L4.035,9.75 C3.88082724,9.75753387 3.75753387,9.88082724 3.75,10.035 L3.75,10.965 C3.75753387,11.1191728 3.88082724,11.2424661 4.035,11.25 L4.965,11.25 C5.11917276,11.2424661 5.24246613,11.1191728 5.25,10.965 L5.1,10.965 Z M8.1,10.965 L8.1,10.035 C8.09246613,9.88082724 7.96917276,9.75753387 7.815,9.75 L7.035,9.75 C6.88082724,9.75753387 6.75753387,9.88082724 6.75,10.035 L6.75,10.965 C6.75753387,11.1191728 6.88082724,11.2424661 7.035,11.25 L7.965,11.25 C8.11917276,11.2424661 8.24246613,11.1191728 8.25,10.965 L8.1,10.965 Z M23.1,13.965 L23.1,13.035 C23.0924661,12.8808272 22.9691728,12.7575339 22.815,12.75 L7.035,12.75 C6.88082724,12.7575339 6.75753387,12.8808272 6.75,13.035 L6.75,13.965 C6.75753387,14.1191728 6.88082724,14.2424661 7.035,14.25 L22.965,14.25 C23.1191728,14.2424661 23.2424661,14.1191728 23.25,13.965 L23.1,13.965 Z M11.1,10.965 L11.1,10.035 C11.0924661,9.88082724 10.9691728,9.75753387 10.815,9.75 L10.035,9.75 C9.88082724,9.75753387 9.75753387,9.88082724 9.75,10.035 L9.75,10.965 C9.75753387,11.1191728 9.88082724,11.2424661 10.035,11.25 L10.965,11.25 C11.1191728,11.2424661 11.2424661,11.1191728 11.25,10.965 L11.1,10.965 Z M14.025,10.965 L14.025,10.035 C14.025,9.87759885 13.8974012,9.74999976 13.74,9.74999976 L12.975,9.74999976 C12.815,9.74979988 12.6829999,9.87519995 12.675,10.035 L12.675,10.965 C12.6829999,11.1248001 12.815,11.2502001 12.975,11.2499998 L13.89,11.2499998 C13.9655867,11.2499998 14.0380776,11.2199733 14.0915254,11.1665254 C14.1449733,11.1130776 14.175,11.0405867 14.175,10.965 L14.025,10.965 Z M17.025,10.965 L17.025,10.035 C17.0170001,9.87519995 16.885,9.74979988 16.725,9.74999976 L15.81,9.74999976 C15.6525988,9.74999976 15.525,9.87759885 15.525,10.035 L15.525,10.965 C15.525,11.1224012 15.6525988,11.2499998 15.81,11.2499998 L16.725,11.2499998 C16.821465,11.3375887 16.9634383,11.3528959 17.0763565,11.2878824 C17.1892747,11.2228689 17.247317,11.0924012 17.22,10.965 L17.025,10.965 Z M20.025,10.965 L20.025,10.035 C20.0174661,9.88082724 19.8941728,9.75753387 19.74,9.75 L18.81,9.75 C18.6558272,9.75753387 18.5325339,9.88082724 18.525,10.035 L18.525,10.965 C18.5325339,11.1191728 18.6558272,11.2424661 18.81,11.25 L19.74,11.25 C19.8339057,11.3529742 19.9863587,11.3777204 20.1080144,11.3097363 C20.2296702,11.2417522 20.2884889,11.0989424 20.25,10.965 L20.025,10.965 Z M23.025,10.965 L23.025,10.035 C23.0174661,9.88082724 22.8941728,9.75753387 22.74,9.75 L21.81,9.75 C21.6558272,9.75753387 21.5325339,9.88082724 21.525,10.035 L21.525,10.965 C21.5325339,11.1191728 21.6558272,11.2424661 21.81,11.25 L22.74,11.25 C22.8339057,11.3529742 22.9863587,11.3777204 23.1080144,11.3097363 C23.2296702,11.2417522 23.2884889,11.0989424 23.25,10.965 L23.025,10.965 Z M26.025,10.965 L26.025,10.035 C26.0174661,9.88082724 25.8941728,9.75753387 25.74,9.75 L24.81,9.75 C24.6558272,9.75753387 24.5325339,9.88082724 24.525,10.035 L24.525,10.965 C24.5325339,11.1191728 24.6558272,11.2424661 24.81,11.25 L25.74,11.25 C25.8339057,11.3529742 25.9863587,11.3777204 26.1080144,11.3097363 C26.2296702,11.2417522 26.2884889,11.0989424 26.25,10.965 L26.025,10.965 Z" id="Shape" fill-rule="nonzero"></path>
                </g>
            </g>
        </g>
    </g>
</svg>