<?xml version="1.0" encoding="UTF-8"?>
<svg width="19px" height="30px" viewBox="0 0 19 30" version="1.1" xmlns="http://www.w3.org/2000/svg" xmlns:xlink="http://www.w3.org/1999/xlink">
    <!-- Generator: Sketch 62 (91390) - https://sketch.com -->
    <title>Icons/Left Arrow Sort</title>
    <desc>Created with Sketch.</desc>
    <g id="Page-1" stroke="none" stroke-width="1" fill="none" fill-rule="evenodd">
        <g id="Icons" transform="translate(-1195.000000, -904.000000)" fill="#1B1E24">
            <g id="Icons/Left-Arrow_Sort" transform="translate(1191.000000, 904.000000)">
                <g id="Actian-Icon__Left-Arrow-(Sort)" transform="translate(3.000000, 0.000000)">
                    <path d="M15.435,29.31 L1.935,16.8 C1.43356769,16.3450846 1.14760465,15.6995394 1.14760465,15.0225 C1.14760465,14.3454606 1.43356769,13.6999154 1.935,13.245 L15.435,0.795 C16.2472278,0.045740528 17.4295419,-0.143429736 18.435,0.315 C19.3443493,0.700428027 19.935,1.59234068 19.935,2.58 L19.935,27.525 C19.935,28.5126593 19.3443493,29.404572 18.435,29.79 C18.0835395,29.93773 17.7062453,30.0142086 17.325,30.015 C16.6273145,30.0345831 15.9494222,29.7817185 15.435,29.31 Z M16.5,1.89 L16.5,1.89 L3,14.355 C2.80169456,14.5231523 2.68736352,14.7699995 2.68736352,15.03 C2.68736352,15.2900005 2.80169456,15.5368477 3,15.705 L16.5,28.215 C16.8599725,28.541184 17.3810893,28.6181672 17.82,28.41 C18.1868672,28.2687476 18.4305408,27.9180952 18.435,27.525 L18.435,2.58 C18.4305408,2.18690476 18.1868672,1.8362524 17.82,1.695 C17.6527129,1.628799 17.4748808,1.59323257 17.295,1.58997965 C17.0020258,1.58828375 16.7188022,1.6951606 16.5,1.89 Z" id="Shape" fill-rule="nonzero"></path>
                </g>
            </g>
        </g>
    </g>
</svg>