<?xml version="1.0" encoding="UTF-8"?>
<svg width="30px" height="30px" viewBox="0 0 30 30" version="1.1" xmlns="http://www.w3.org/2000/svg" xmlns:xlink="http://www.w3.org/1999/xlink">
    <!-- Generator: Sketch 62 (91390) - https://sketch.com -->
    <title>Icons/Left Arrow Circle</title>
    <desc>Created with Sketch.</desc>
    <g id="Page-1" stroke="none" stroke-width="1" fill="none" fill-rule="evenodd">
        <g id="Icons" transform="translate(-1106.000000, -904.000000)" fill="#1B1E24">
            <g id="Icons/Left-Arrow_In-Circle" transform="translate(1106.000000, 904.000000)">
                <g id="Actian-Icon__Left-Arrow-in-Circle">
                    <path d="M0,15 C0,6.71572875 6.71572875,0 15,0 C23.2842712,0 30,6.71572875 30,15 C30,23.2842712 23.2842712,30 15,30 C11.0217527,30 7.20644396,28.4196474 4.39339828,25.6066017 C1.58035261,22.793556 0,18.9782473 0,15 Z M1.5,15 C1.5,22.4558441 7.54415588,28.5 15,28.5 C22.4558441,28.5 28.5,22.4558441 28.5,15 C28.5,7.54415588 22.4558441,1.5 15,1.5 C7.54415588,1.5 1.5,7.54415588 1.5,15 Z" id="Shape" fill-rule="nonzero"></path>
                    <path d="M18.555,8.67 L18.555,21.45 L9.39,15.165 L18.555,8.67 M18.825,6.945 C18.5291885,6.93510333 18.2386341,7.02491105 18,7.2 L8.205,14.175 C7.83443377,14.3734177 7.60312173,14.7596562 7.60312173,15.18 C7.60312173,15.6003438 7.83443377,15.9865823 8.205,16.185 L18,22.92 C18.223035,23.0792249 18.4909811,23.1632864 18.765,23.16 C19.3845522,23.2123109 19.9317564,22.7585318 19.995,22.14 L19.995,7.98 C19.9394053,7.35544543 19.3898665,6.89302861 18.765,6.945 L18.825,6.945 Z" id="Shape" fill-rule="nonzero"></path>
                </g>
            </g>
        </g>
    </g>
</svg>