<?xml version="1.0" encoding="UTF-8"?>
<svg width="30px" height="30px" viewBox="0 0 30 30" version="1.1" xmlns="http://www.w3.org/2000/svg" xmlns:xlink="http://www.w3.org/1999/xlink">
    <!-- Generator: Sketch 62 (91390) - https://sketch.com -->
    <title>Icons/Left</title>
    <desc>Created with Sketch.</desc>
    <g id="Page-1" stroke="none" stroke-width="1" fill="none" fill-rule="evenodd">
        <g id="Icons" transform="translate(-934.000000, -904.000000)" fill="#1B1E24">
            <g id="Icons/Left" transform="translate(934.000000, 904.000000)">
                <g id="Actian-Icon__Left">
                    <path d="M28.5,15 C28.5,22.4558441 22.4558441,28.5 15,28.5 C7.54415588,28.5 1.5,22.4558441 1.5,15 C1.5,7.54415588 7.54415588,1.5 15,1.5 C18.5804226,1.5 22.0142004,2.92231734 24.5459415,5.45405845 C27.0776827,7.98579956 28.5,11.4195774 28.5,15 M30,15 C30,6.71572875 23.2842712,0 15,0 C6.71572875,0 0,6.71572875 0,15 C0,23.2842712 6.71572875,30 15,30 C23.2842712,30 30,23.2842712 30,15 Z" id="Shape" fill-rule="nonzero"></path>
                    <path d="M17.73,24.3000774 C17.5272996,24.2995034 17.3330824,24.2185796 17.19,24.075 L8.73,15.435 C8.58801551,15.2941751 8.50815126,15.1024782 8.50815126,14.9025 C8.50815126,14.7025218 8.58801551,14.5108249 8.73,14.37 L17.205,6 C17.4966326,5.71414284 17.9633674,5.71414284 18.255,6 C18.3969845,6.14082495 18.4768487,6.33252185 18.4768487,6.5325 C18.4768487,6.73247815 18.3969845,6.92417505 18.255,7.065 L10.32,14.91 L18.27,23.025 C18.4110961,23.1632454 18.4906072,23.3524655 18.4906072,23.55 C18.4906072,23.7475345 18.4110961,23.9367546 18.27,24.075 C18.1288866,24.2214876 17.9333787,24.3029492 17.73,24.3000774 Z" id="Path" fill-rule="nonzero"></path>
                </g>
            </g>
        </g>
    </g>
</svg>