<?xml version="1.0" encoding="UTF-8"?>
<svg width="31px" height="29px" viewBox="0 0 31 29" version="1.1" xmlns="http://www.w3.org/2000/svg" xmlns:xlink="http://www.w3.org/1999/xlink">
    <!-- Generator: Sketch 62 (91390) - https://sketch.com -->
    <title>Icons/Linking</title>
    <desc>Created with Sketch.</desc>
    <g id="Page-1" stroke="none" stroke-width="1" fill="none" fill-rule="evenodd">
        <g id="Icons" transform="translate(-1275.000000, -905.000000)" fill="#1B1E24">
            <g id="Icons/Linking" transform="translate(1275.000000, 904.000000)">
                <g id="Actian-Icon__Linking">
                    <path d="M30.195,7.86 L30,8.52 C29.7962962,9.41366068 29.349909,10.2337675 28.71,10.89 L21.525,18.15 C21.3125944,18.3802764 20.9896937,18.473219 20.6873695,18.3911007 C20.3850452,18.3089824 20.153539,18.0654499 20.0868236,17.7593577 C20.0201083,17.4532655 20.1292707,17.1354815 20.37,16.935 L24.87,12.435 C25.71,11.61 26.535,10.785 27.36,9.945 C28.064942,9.28426508 28.4649111,8.3611852 28.4649111,7.395 C28.4649111,6.4288148 28.064942,5.50573492 27.36,4.845 C26.8454724,4.2907119 26.2777471,3.78830014 25.665,3.345 C24.312462,2.47895719 22.5369844,2.68599168 21.42,3.84 C20.49,4.74 19.575,5.67 18.645,6.6 L14.385,10.845 C13.6880277,11.4870825 13.281666,12.3846645 13.259042,13.3320443 C13.236418,14.2794241 13.5994713,15.1953801 14.265,15.87 C14.4366009,16.0315681 14.5338953,16.2568071 14.5338953,16.4925 C14.5338953,16.7281929 14.4366009,16.9534319 14.265,17.115 C14.0901895,17.2667 13.8621359,17.3424891 13.6312977,17.3255985 C13.4004594,17.3087079 13.1858668,17.20053 13.035,17.025 C11.1321377,15.0311458 11.1321377,11.8938542 13.035,9.9 C15.445,7.4 17.9,4.925 20.4,2.475 C22.3437561,0.625692074 25.3841749,0.586460865 27.375,2.385 C27.9295797,2.87956265 28.4554374,3.40542028 28.95,3.96 C29.599147,4.70231952 30.0117829,5.62160963 30.135,6.6 C30.135,6.6 30.135,6.735 30.135,6.795 L30.195,7.86 Z" id="Path" fill-rule="nonzero"></path>
                    <path d="M6.39,29.1 C5.04387109,29.1222863 3.74384345,28.6098273 2.775,27.675 C2.31,27.225 1.845,26.775 1.41,26.295 C-0.426382412,24.2665811 -0.353882344,21.1556691 1.575,19.215 L8.7,12.09 C8.90602023,11.8527381 9.2272361,11.7503015 9.53257821,11.8244886 C9.83792033,11.8986757 10.0763243,12.1370797 10.1505114,12.4424218 C10.2246985,12.7477639 10.1222619,13.0689798 9.885,13.275 C7.5,15.615 5.205,18 2.865,20.295 C1.85314723,21.2404537 1.50467559,22.6993096 1.98,24 C2.64557205,25.4045933 3.77353949,26.5378564 5.175,27.21 C6.42689674,27.7045081 7.85338844,27.3967174 8.79,26.43 C11.22,24.045 13.62,21.63 16.005,19.215 C17.3414196,17.8647719 17.3414196,15.6902281 16.005,14.34 C15.7404748,14.0966367 15.6461193,13.7192148 15.765,13.38 C15.8684423,13.1149778 16.0989983,12.9203247 16.3776131,12.8627846 C16.656228,12.8052446 16.9450328,12.8926385 17.145,13.095 C17.9862333,13.8845153 18.5181278,14.9483042 18.645,16.095 C18.8697431,17.7149286 18.3132371,19.3454912 17.145,20.49 L10.08,27.525 C9.11683134,28.5320789 7.78352083,29.1011748 6.39,29.1 Z" id="Path" fill-rule="nonzero"></path>
                </g>
            </g>
        </g>
    </g>
</svg>