<?xml version="1.0" encoding="UTF-8"?>
<svg width="24px" height="31px" viewBox="0 0 24 31" version="1.1" xmlns="http://www.w3.org/2000/svg" xmlns:xlink="http://www.w3.org/1999/xlink">
    <!-- Generator: Sketch 62 (91390) - https://sketch.com -->
    <title>Icons/Log FIle</title>
    <desc>Created with Sketch.</desc>
    <g id="Page-1" stroke="none" stroke-width="1" fill="none" fill-rule="evenodd">
        <g id="Icons" transform="translate(-684.000000, -1006.000000)" fill="#1B1E24">
            <g id="Icons/Log-File" transform="translate(681.000000, 1006.000000)">
                <g id="Actian-Icon__Log-File" transform="translate(3.000000, 0.000000)">
                    <path d="M23.085,7.08 L23.085,28.08 C23.085,29.1569553 22.2119553,30.03 21.135,30.03 L2.865,30.03 C1.78804474,30.03 0.915,29.1569553 0.915,28.08 L0.915,1.95 C0.915,0.873044738 1.78804474,0 2.865,0 L16.005,0 L16.335,0.33 C16.335,0.33 16.335,0.33 16.335,0.33 L22.65,6.645 C22.65,6.645 22.65,6.645 22.65,6.645 L23.085,7.08 Z M2.865,28.5002684 L21,28.5002684 L14.55,19.5 C12.02759,20.8493571 8.9146795,20.3486179 6.94267703,18.2762947 C4.97067456,16.2039716 4.62488956,13.0700628 6.09764849,10.6176562 C7.57040742,8.16524959 10.4992646,6.99788196 13.2551824,7.76484605 C16.0111002,8.53181014 17.9158479,11.0443562 17.91,13.905 C17.9107447,15.7126406 17.1349859,17.4335141 15.78,18.63 L21.615,26.775 L21.615,7.965 L15.12,1.49973162 L2.865,1.49973162 C2.74440399,1.4957646 2.62746735,1.54181369 2.54214052,1.62714052 C2.45681369,1.71246735 2.4107646,1.82940399 2.415,1.95 L2.415,28.05 C2.4107646,28.170596 2.45681369,28.2875326 2.54214052,28.3728595 C2.62746735,28.4581863 2.74440399,28.5042354 2.865,28.5002684 Z M16.365,13.89 C16.3649907,11.9108166 15.1719509,10.1268035 13.3428409,9.37081176 C11.513731,8.61482 9.40928307,9.03594426 8.01194048,10.4375864 C6.61459789,11.8392285 6.19994087,13.9449602 6.96154845,15.771739 C7.72315602,17.5985178 9.51082592,18.7860711 11.49,18.7800232 C14.1906724,18.7800232 16.38,16.5906724 16.38,13.89 L16.365,13.89 Z" id="Shape" fill-rule="nonzero"></path>
                </g>
            </g>
        </g>
    </g>
</svg>