<?xml version="1.0" encoding="UTF-8"?>
<svg width="30px" height="30px" viewBox="0 0 30 30" version="1.1" xmlns="http://www.w3.org/2000/svg" xmlns:xlink="http://www.w3.org/1999/xlink">
    <!-- Generator: Sketch 62 (91390) - https://sketch.com -->
    <title>Icons/Logout</title>
    <desc>Created with Sketch.</desc>
    <g id="Page-1" stroke="none" stroke-width="1" fill="none" fill-rule="evenodd">
        <g id="Icons" transform="translate(-769.000000, -1006.000000)" fill="#1B1E24">
            <g id="Icons/Logout" transform="translate(769.000000, 1006.000000)">
                <g id="Actian-Icon__Logout">
                    <path d="M14.07,14.145 L27.57,14.145 L24.255,10.875 C23.9924498,10.5830582 23.9995003,10.1380339 24.2711669,9.85455578 C24.5428335,9.57107762 24.9871551,9.54510484 25.29,9.795 L29.79,14.145 C29.9587822,14.3142525 30.0367809,14.55382 30,14.79 L30,14.79 C30,14.79 30,14.79 30,14.895 L30,14.895 C30.0222696,14.9785414 30.0222696,15.0664586 30,15.15 C29.9688655,15.2525715 29.9120742,15.3455027 29.835,15.42 L29.835,15.42 L25.335,19.785 C25.1987049,19.9185482 25.0158145,19.993856 24.825,19.995 C24.6212694,19.9997998 24.4250471,19.9180405 24.285,19.77 C24.1430155,19.6291751 24.0631513,19.4374782 24.0631513,19.2375 C24.0631513,19.0375218 24.1430155,18.8458249 24.285,18.705 L27.435,15.705 L14.07,15.705 C13.6591373,15.6970198 13.3279802,15.3658627 13.32,14.955 C13.3032182,14.7459132 13.3747632,14.5393532 13.5172753,14.3854401 C13.6597874,14.2315271 13.8602419,14.1443276 14.07,14.145 Z M18.48,29.145 L18.48,20.145 C18.48,19.7307864 18.1442136,19.395 17.73,19.395 C17.3157864,19.395 16.98,19.7307864 16.98,20.145 L16.98,28.47 L1.5,28.47 L1.5,1.605 L16.98,1.605 L16.98,9.795 C16.98,10.2092136 17.3157864,10.545 17.73,10.545 C18.1442136,10.545 18.48,10.2092136 18.48,9.795 L18.48,0.795 C18.48,0.380786438 18.1442136,0.045 17.73,0.045 L0.75,0.045 C0.335786438,0.045 0,0.380786438 0,0.795 L0,29.145 C0,29.5592136 0.335786438,29.895 0.75,29.895 L17.73,29.895 C18.1442136,29.895 18.48,29.5592136 18.48,29.145 Z" id="Shape" fill-rule="nonzero"></path>
                </g>
            </g>
        </g>
    </g>
</svg>