<?xml version="1.0" encoding="UTF-8"?>
<svg width="30px" height="30px" viewBox="0 0 30 30" version="1.1" xmlns="http://www.w3.org/2000/svg" xmlns:xlink="http://www.w3.org/1999/xlink">
    <!-- Generator: Sketch 62 (91390) - https://sketch.com -->
    <title>Icons/MAP</title>
    <desc>Created with Sketch.</desc>
    <g id="Page-1" stroke="none" stroke-width="1" fill="none" fill-rule="evenodd">
        <g id="Icons" transform="translate(-934.000000, -200.000000)" fill="#1B1E24">
            <g id="Icons/.MAP" transform="translate(934.000000, 200.000000)">
                <g id="Actian-Icon__.map">
                    <path d="M29.7272727,12.3545455 L27.2727273,15.9545455 C27.1358271,16.1594399 26.9055116,16.2822747 26.6590909,16.2818195 L26.4545455,16.2818195 C26.291444,16.2316402 26.1513584,16.1253683 26.0590909,15.9818182 L23.7681818,12.2727273 C23.5535439,11.9338253 23.6542798,11.4850925 23.9931818,11.2704546 C24.3320838,11.0558166 24.7808166,11.1565525 24.9954545,11.4954545 L25.9772727,13.0363636 C25.6985741,9.04797373 23.4408274,5.46424882 19.9636364,3.49090909 C18.122615,2.42856574 16.0346338,1.86894914 13.9090909,1.86818182 C12.475231,1.87542031 11.0537317,2.13387471 9.70909091,2.63181818 C9.38181818,2.75454545 9.10909091,2.87727273 8.86363636,2.98636364 C8.48941781,3.1461992 8.12512686,3.32834468 7.77272727,3.53181818 L7.77272727,3.53181818 L7.45909091,3.73636364 C7.33380678,3.8435186 7.17394106,3.90165159 7.00909091,3.9 C6.81739638,3.90302409 6.63363806,3.82356103 6.50454545,3.68181818 C6.25171771,3.41386069 6.25171771,2.99523022 6.50454545,2.72727273 C6.50454545,2.72727273 6.64090909,2.61818182 6.84545455,2.49545455 L6.84545455,2.49545455 C7.2714477,2.22410801 7.71830529,1.9869999 8.18181818,1.78636364 L9.02727273,1.44545455 C9.34090909,1.36363636 9.69545455,1.18636364 10.0909091,1.06363636 L10.1863636,1.06363636 L10.2818182,1.06363636 L10.4454545,1.06363636 C11.5699426,0.723825203 12.7347961,0.535797673 13.9090909,0.504545455 C16.3052854,0.512937774 18.6569627,1.15259399 20.7272727,2.35909091 L20.7272727,2.35909091 L20.85,2.42727273 C21.2590909,2.68636364 21.6681818,2.95909091 22.05,3.24545455 L22.05,3.24545455 C24.2744759,4.93545018 25.9262219,7.2678869 26.7818182,9.92727273 L26.7818182,9.92727273 C26.9070922,10.3169547 27.0117823,10.7129563 27.0954545,11.1136364 L27.0954545,11.1136364 C27.2375647,11.7684414 27.3197224,12.434832 27.3409091,13.1045455 L28.4318182,11.4681818 C28.6592314,11.1509215 29.0974746,11.0715681 29.4216951,11.2889432 C29.7459156,11.5063183 29.8389423,11.9418641 29.6318182,12.2727273 L29.7272727,12.3545455 Z" id="Path" fill-rule="nonzero"></path>
                    <path d="M25.2818182,21.6136364 L25.1863636,21.7227273 C24.230495,23.1715305 23.0034122,24.4217657 21.5727273,25.4045455 L21.5727273,25.4045455 L21.4772727,25.4045455 C19.237703,26.9037209 16.6041211,27.7056584 13.9090909,27.7090909 C13.1362504,27.699223 12.3655066,27.6262532 11.6045455,27.4909091 C11.1441373,27.413726 10.6887739,27.3089924 10.2409091,27.1772727 L10.1045455,27.1772727 L10.1045455,27.1772727 C9.66197785,27.0490358 9.22907166,26.8895441 8.80909091,26.7 L9.80454545,28.3909091 C9.93608416,28.6150121 9.93807343,28.8922668 9.80976392,29.1182341 C9.68145441,29.3442015 9.44233939,29.4845516 9.18249118,29.4864348 C8.92264296,29.4882803 8.68153869,29.3513757 8.55,29.1272727 L6.36818182,25.3909091 C6.25174641,25.1785493 6.25174641,24.9214507 6.36818182,24.7090909 C6.37867567,24.6502177 6.40194931,24.5943609 6.43636364,24.5454545 C6.53768652,24.4318535 6.67064869,24.3511264 6.81818182,24.3136364 L11.1136364,23.8090909 C11.3040974,23.7821225 11.4973424,23.8336907 11.6490443,23.9519668 C11.8007463,24.0702429 11.8978862,24.2450764 11.9181818,24.4363636 C11.966358,24.8315345 11.6858971,25.1912561 11.2909091,25.2409091 L9.54545455,25.4590909 C10.3259728,25.8094175 11.1453531,26.0657599 11.9863636,26.2227273 C12.6250741,26.3423023 13.272963,26.4061787 13.9227273,26.4136364 C16.1334949,26.4133343 18.3022832,25.8098454 20.1954545,24.6681818 C20.383374,24.5596627 20.5654446,24.4413168 20.7409091,24.3136364 C22.0757022,23.414976 23.2240669,22.2666113 24.1227273,20.9318182 L24.1227273,20.9318182 C24.7902396,19.9503607 25.2966243,18.8685388 25.6227273,17.7272727 C25.649338,17.5639838 25.7311661,17.4147678 25.8545455,17.3045455 C25.9944571,17.1758508 26.1842798,17.1159068 26.3727273,17.1409091 C26.5503161,17.1580967 26.713655,17.2455946 26.8263573,17.3839109 C26.9390595,17.5222273 26.991763,17.6998725 26.9727273,17.8772727 C26.8049967,18.7036276 26.5008373,19.4962855 26.0727273,20.2227273 C26.04446,20.2700191 26.0215895,20.320334 26.0045455,20.3727273 L25.6636364,21 C25.5954545,21.1227273 25.5272727,21.2454545 25.4454545,21.3681818 C25.3636364,21.4909091 25.35,21.5045455 25.2818182,21.6136364 Z" id="Path" fill-rule="nonzero"></path>
                    <path d="M5.57727273,23.2909091 C5.61671847,23.4799966 5.57731925,23.6769927 5.46818182,23.8363636 C5.26086973,24.141063 4.84599648,24.220377 4.54090909,24.0136364 C4.0497902,23.6278609 3.62191067,23.1677754 3.27272727,22.65 C2.85676197,22.1227897 2.47854843,21.5668613 2.14090909,20.9863636 L1.99090909,20.7409091 C1.98863494,20.695483 1.98863494,20.6499716 1.99090909,20.6045455 C1.60936144,19.911406 1.28993249,19.185846 1.03636364,18.4363636 L1.03636364,18.4363636 L1.03636364,18.2727273 C1.03636364,18.1636364 0.968181818,18.0545455 0.927272727,17.9318182 C-0.340369306,13.8849049 0.415710011,9.47528795 2.95909091,6.08181818 L1.07727273,6.65454545 C0.728764262,6.69573973 0.401028914,6.4806233 0.300188588,6.14448888 C0.199348262,5.80835446 0.35454946,5.44835706 0.668181818,5.29090909 L4.75909091,4.03636364 C4.98536265,3.9366209 5.24659077,3.95710938 5.45454545,4.09090909 L5.60454545,4.25454545 C5.68877063,4.39877269 5.72683899,4.56532174 5.71363636,4.73181818 L5.23636364,9.08181818 C5.18656993,9.47840186 4.82949668,9.76285003 4.43181818,9.72272727 C4.03683019,9.67307428 3.75636926,9.31335265 3.80454545,8.91818182 L4.00909091,7.09090909 C3.4270905,7.84832047 2.93728353,8.6722948 2.55,9.54545455 L2.55,9.54545455 C2.46818182,9.75 2.4,9.95454545 2.33181818,10.1727273 C1.8816135,11.4379071 1.65101909,12.7707428 1.65,14.1136364 C1.65647203,14.665657 1.69746112,15.2167326 1.77272727,15.7636364 C1.77272727,16.0090909 1.84090909,16.2681818 1.89545455,16.5136364 C1.95,16.7590909 1.89545455,16.7181818 1.96363636,16.8136364 C2.04279775,17.1782073 2.14296478,17.537898 2.26363636,17.8909091 C2.53049229,18.6964295 2.87769438,19.4730657 3.3,20.2090909 C3.83843699,21.1897912 4.5184709,22.0857818 5.31818182,22.8681818 C5.45168931,22.9741322 5.54345647,23.1238576 5.57727273,23.2909091 Z" id="Path" fill-rule="nonzero"></path>
                </g>
            </g>
        </g>
    </g>
</svg>