<?xml version="1.0" encoding="UTF-8"?>
<svg width="30px" height="30px" viewBox="0 0 30 30" version="1.1" xmlns="http://www.w3.org/2000/svg" xmlns:xlink="http://www.w3.org/1999/xlink">
    <!-- Generator: Sketch 62 (91390) - https://sketch.com -->
    <title>Icons/Monday</title>
    <desc>Created with Sketch.</desc>
    <g id="Page-1" stroke="none" stroke-width="1" fill="none" fill-rule="evenodd">
        <g id="Icons" transform="translate(-934.000000, -1006.000000)" fill="#1B1E24">
            <g id="Icons/Monday" transform="translate(934.000000, 1006.000000)">
                <g id="Actian-Icon__Monday">
                    <path d="M15,30 C6.71572875,30 0,23.2842712 0,15 C0,6.71572875 6.71572875,0 15,0 C23.2842712,0 30,6.71572875 30,15 C29.950858,23.2638304 23.2638304,29.950858 15,30 Z M15,1.5 C7.54415588,1.5 1.5,7.54415588 1.5,15 C1.5,22.4558441 7.54415588,28.5 15,28.5 C22.4558441,28.5 28.5,22.4558441 28.5,15 C28.4509197,7.56458048 22.4354195,1.54908028 15,1.5 Z" id="Shape" fill-rule="nonzero"></path>
                    <path d="M19.725,15.795 C19.62,13.965 19.5,11.76 19.5,10.125 L19.5,10.125 C19.05,11.625 18.495,13.305 17.835,15.12 L15.51,21.495 L14.205,21.495 L12.075,15.24 C11.445,13.38 10.92,11.685 10.575,10.125 L10.5,10.125 C10.5,11.76 10.365,13.965 10.245,15.93 L9.9,21.57 L8.295,21.57 L9.21,8.43 L11.37,8.43 L13.62,14.79 C14.16,16.41 14.61,17.79 14.94,19.29 L14.94,19.29 C15.27,17.955 15.735,16.515 16.32,14.79 L18.66,8.43 L20.835,8.43 L21.645,21.57 L19.995,21.57 L19.725,15.795 Z" id="Path" fill-rule="nonzero"></path>
                </g>
            </g>
        </g>
    </g>
</svg>