<?xml version="1.0" encoding="UTF-8"?>
<svg width="30px" height="22px" viewBox="0 0 30 22" version="1.1" xmlns="http://www.w3.org/2000/svg" xmlns:xlink="http://www.w3.org/1999/xlink">
    <!-- Generator: Sketch 62 (91390) - https://sketch.com -->
    <title>Icons/Open Folder</title>
    <desc>Created with Sketch.</desc>
    <g id="Page-1" stroke="none" stroke-width="1" fill="none" fill-rule="evenodd">
        <g id="Icons" transform="translate(-1106.000000, -1010.000000)" fill="#1B1E24">
            <g id="Icons/Open-Folder" transform="translate(1106.000000, 1006.000000)">
                <g id="Actian-Icon__Open-Folder" transform="translate(0.000000, 3.000000)">
                    <path d="M29.88,8.655 L24.675,22.155 C24.5592662,22.4433095 24.2806648,22.6329955 23.97,22.635 L1.65,22.635 L1.5,22.5 L1.5,22.5 L1.5,22.5 C1.33576888,22.4634958 1.18815139,22.3738709 1.08,22.245 C0.375902646,21.6817861 -0.0237928112,20.8213306 -2.24337281e-12,19.92 L-2.24337281e-12,3.63 C0.0496496137,2.53505077 0.843647869,1.61699029 1.92,1.40999061 L9.42,1.40999061 C9.54564433,1.40937138 9.66943318,1.44031859 9.78,1.5 L13.98,3.825 L23.37,3.825 C23.921554,3.83226579 24.4528106,4.03414331 24.87,4.395 C25.2733599,4.78552171 25.4822214,5.33515739 25.44,5.895 L25.44,6 L27.495,6 C28.2259276,5.89360289 28.9655693,6.1254309 29.505,6.63 C29.9723843,7.1944475 30.1142675,7.96061698 29.88,8.655 L29.88,8.655 Z M1.5,3.66 L1.5,19.77 L5.25,7.875 C5.43449402,6.76434917 6.37490571,5.93678688 7.5,5.895 L7.5,5.895 L9.15,5.895 L24,5.895 L24,5.805 C24,5.565 23.925,5.49 23.895,5.46 C23.7570305,5.3562497 23.5874946,5.30326973 23.415,5.31 L13.785,5.31 C13.6849241,5.29942412 13.5879999,5.2688165 13.5,5.22 L9.225,2.895 L2.16,2.895 C1.79132111,2.96970962 1.51986451,3.28435249 1.5,3.66 Z M28.5,7.5 C28.365,7.335 27.915,7.32 27.72,7.35 L9.075,7.35 L7.5,7.395 L7.5,7.395 C6.975,7.395 6.78,8.235 6.78,8.25 L2.67,21.09 L23.445,21.09 L28.5,8.19 C28.5988242,7.97061546 28.5988242,7.71938454 28.5,7.5 Z" id="Shape" fill-rule="nonzero"></path>
                </g>
            </g>
        </g>
    </g>
</svg>