<?xml version="1.0" encoding="UTF-8"?>
<svg width="22px" height="30px" viewBox="0 0 22 30" version="1.1" xmlns="http://www.w3.org/2000/svg" xmlns:xlink="http://www.w3.org/1999/xlink">
    <!-- Generator: Sketch 62 (91390) - https://sketch.com -->
    <title>Icons/Open Ticket</title>
    <desc>Created with Sketch.</desc>
    <g id="Page-1" stroke="none" stroke-width="1" fill="none" fill-rule="evenodd">
        <g id="Icons" transform="translate(-1279.000000, -1006.000000)" fill="#1B1E24">
            <g id="Icons/Open-Ticket" transform="translate(1275.000000, 1006.000000)">
                <g id="Actian-Icon__Open-Ticket-" transform="translate(3.000000, 0.000000)">
                    <path d="M1.92,30.0001175 L1.725,30.0001175 C1.40138401,29.9182771 1.17346418,29.6287573 1.16999998,29.295 L1.16999998,0.735 C1.16999998,0.537438911 1.24945181,0.348179142 1.39055248,0.209900486 C1.53165315,0.0716218297 1.72248005,-0.00403186333 1.92,-0.00015327801 L22.08,-0.00015327801 C22.2775199,-0.00403186333 22.4683469,0.0716218297 22.6094475,0.209900486 C22.7505482,0.348179142 22.83,0.537438911 22.83,0.735 L22.83,29.235 C22.8254779,29.558672 22.6138035,29.8429205 22.305,29.94 C21.9896385,30.030469 21.6517021,29.9097774 21.465,29.64 L18.3,25.095 L16.8,27.99 C16.6727877,28.2235845 16.4353166,28.3762445 16.17,28.395 C15.8991638,28.41054 15.6410466,28.2786135 15.495,28.05 L13.71,25.335 L11.61,29.22 C11.4671864,29.446747 11.2179738,29.5843078 10.95,29.5843078 C10.6820262,29.5843078 10.4328136,29.446747 10.29,29.22 L8.265,25.5 L7.5,26.73 C7.37675396,26.9559306 7.14228777,27.0988978 6.885,27.105 C6.63161119,27.1287502 6.38509118,27.0140897 6.24,26.805 L5.115,25.305 L2.565,29.625 C2.43658287,29.8603344 2.18804828,30.0048312 1.92,30.0001175 Z M8.265,23.145 L8.265,23.145 C8.53896433,23.1474354 8.79070928,23.2961938 8.925,23.535 L10.965,27.3 L12.99,23.535 C13.1143204,23.3009172 13.3550421,23.151899 13.62,23.145 C13.8826405,23.1316824 14.1330698,23.256897 14.28,23.475 L16.065,26.175 L17.565,23.31 C17.6802369,23.0724506 17.916249,22.917028 18.18,22.905 C18.4484718,22.882998 18.7074707,23.0096197 18.855,23.235 L21.345,26.85 L21.345,1.5 L2.67,1.5 L2.67,26.55 L4.44,23.55 C4.57611202,23.3317055 4.81282787,23.1964393 5.07,23.19 C5.32229514,23.172369 5.56593361,23.2856892 5.715,23.49 L6.81,24.99 L7.62,23.49 C7.75385758,23.2637345 8.00249156,23.1307443 8.265,23.145 L8.265,23.145 Z" id="Shape" fill-rule="nonzero"></path>
                    <path d="M17.7,12.15 L9.33,12.15 C8.91578644,12.15 8.58,11.8142136 8.58,11.4 C8.58,10.9857864 8.91578644,10.65 9.33,10.65 L17.7,10.65 C18.1142136,10.65 18.45,10.9857864 18.45,11.4 C18.45,11.8142136 18.1142136,12.15 17.7,12.15 Z M6.285,10.65 C5.87078644,10.65 5.535,10.9857864 5.535,11.4 C5.535,11.8142136 5.87078644,12.15 6.285,12.15 C6.69921356,12.15 7.035,11.8142136 7.035,11.4 C7.035,10.9857864 6.69921356,10.65 6.285,10.65 Z M18.45,17.4 C18.45,16.9857864 18.1142136,16.65 17.7,16.65 L9.33,16.65 C8.91578644,16.65 8.58,16.9857864 8.58,17.4 C8.58,17.8142136 8.91578644,18.15 9.33,18.15 L17.7,18.15 C18.1142136,18.15 18.45,17.8142136 18.45,17.4 Z M6.285,16.65 C5.97293928,16.6439389 5.68848976,16.8280664 5.56625239,17.1152539 C5.44401502,17.4024414 5.5085057,17.7350906 5.72920757,17.9557924 C5.94990944,18.1764943 6.28255857,18.240985 6.56974606,18.1187476 C6.85693356,17.9965102 7.04106113,17.7120607 7.035,17.4 C7.035,16.9857864 6.69921356,16.65 6.285,16.65 L6.285,16.65 Z M18.465,5.4 C18.465,4.98578644 18.1292136,4.65 17.715,4.65 L6.285,4.65 C5.87078644,4.65 5.535,4.98578644 5.535,5.4 C5.535,5.81421356 5.87078644,6.15 6.285,6.15 L17.715,6.15 C18.1292136,6.15 18.465,5.81421356 18.465,5.4 L18.465,5.4 Z" id="Shape" fill-rule="nonzero"></path>
                </g>
            </g>
        </g>
    </g>
</svg>