<?xml version="1.0" encoding="UTF-8"?>
<svg width="26px" height="31px" viewBox="0 0 26 31" version="1.1" xmlns="http://www.w3.org/2000/svg" xmlns:xlink="http://www.w3.org/1999/xlink">
    <!-- Generator: Sketch 62 (91390) - https://sketch.com -->
    <title>Icons/Open Lock</title>
    <desc>Created with Sketch.</desc>
    <g id="Page-1" stroke="none" stroke-width="1" fill="none" fill-rule="evenodd">
        <g id="Icons" transform="translate(-1193.000000, -1006.000000)" fill="#1B1E24">
            <g id="Icons/Open-Lock" transform="translate(1191.000000, 1006.000000)">
                <g id="Actian-Icon__Open-Lock" transform="translate(1.500000, 0.000000)">
                    <path d="M26.04,14.235 L26.04,24.075 C26.04,27.3887085 23.3537085,30.075 20.04,30.075 L6.9,30.075 C3.5862915,30.075 0.9,27.3887085 0.9,24.075 L0.9,14.235 C0.940213555,11.300029 3.09792113,8.82501149 6,8.385 L6,3.255 C5.97491904,1.48785714 7.3829846,0.032856057 9.15,0 L17.85,0 C19.5237424,0.0204627458 20.8979642,1.32924542 21,3 C21,3 21,3 21,3 L21,5.19 L21,5.19 C20.9459718,5.55570184 20.6186421,5.81756553 20.25,5.79 C19.8836358,5.81032597 19.5605912,5.55189027 19.5,5.19 L19.5,5.19 L19.5,3.255 C19.5203191,2.80175156 19.3564519,2.35955433 19.0456757,2.02900149 C18.7348995,1.69844865 18.3036392,1.50764663 17.85,1.5 L9.15,1.5 C8.69636078,1.50764663 8.26510049,1.69844865 7.95432431,2.02900149 C7.64354814,2.35955433 7.47968093,2.80175156 7.5,3.255 L7.5,8.295 L20.1,8.295 C23.3670106,8.32750997 26.00749,10.9679894 26.04,14.235 Z M24.54,14.235 C24.54,11.7497186 22.5252814,9.735 20.04,9.735 L6.9,9.735 C4.41471863,9.735 2.4,11.7497186 2.4,14.235 L2.4,24.075 C2.4,26.5602814 4.41471863,28.575 6.9,28.575 L20.1,28.575 C22.5852814,28.575 24.6,26.5602814 24.6,24.075 L24.54,14.235 Z" id="Shape" fill-rule="nonzero"></path>
                    <path d="M14.25,19.8 L14.25,23.865 L12.75,23.865 L12.75,19.8 C11.5009674,19.4276104 10.7143339,18.1951626 10.9024999,16.9054534 C11.090666,15.6157441 12.1966365,14.6594235 13.5,14.6594235 C14.8033635,14.6594235 15.909334,15.6157441 16.0975001,16.9054534 C16.2856661,18.1951626 15.4990326,19.4276104 14.25,19.8 L14.25,19.8 Z" id="Path" fill-rule="nonzero"></path>
                </g>
            </g>
        </g>
    </g>
</svg>