<?xml version="1.0" encoding="UTF-8"?>
<svg width="30px" height="30px" viewBox="0 0 30 30" version="1.1" xmlns="http://www.w3.org/2000/svg" xmlns:xlink="http://www.w3.org/1999/xlink">
    <!-- Generator: Sketch 62 (91390) - https://sketch.com -->
    <title>Icons/Password Hidden</title>
    <desc>Created with Sketch.</desc>
    <g id="Page-1" stroke="none" stroke-width="1" fill="none" fill-rule="evenodd">
        <g id="Icons" transform="translate(-681.000000, -1108.000000)" fill="#1B1E24">
            <g id="Icons/Password-Hidden-" transform="translate(681.000000, 1108.000000)">
                <g id="Actian-Icon__Password-Hidden">
                    <path d="M30,15.27 C29.88,15.615 26.685,23.835 15.765,24.57 L15.765,24.57 C13.1799757,24.49952 10.6330728,23.9290137 8.265,22.89 L1.65,29.415 C1.51152715,29.5563107 1.32282695,29.6371822 1.125,29.64 C0.922299629,29.6395034 0.728082436,29.5585796 0.585,29.415 C0.297325064,29.1182795 0.297325064,28.6467205 0.585,28.35 L6.765,22.17 C5.21108568,21.2889737 3.84931688,20.1057139 2.76,18.69 C2.51147186,18.3586292 2.57862915,17.8885281 2.91,17.64 C3.24137085,17.3914719 3.71147186,17.4586292 3.96,17.79 C5.02148158,19.1325665 6.36253785,20.2279331 7.89,21 L10.635,18.3 C9.00021851,16.1202914 9.21698191,13.0701988 11.1435904,11.1435904 C13.0701988,9.21698191 16.1202914,9.00021851 18.3,10.635 L20.805,8.13 C19.1013985,7.36469353 17.2575358,6.96118896 15.39,6.945 C7.125,6.495 1.5,15.315 1.395,15.405 C1.28980916,15.5743428 1.12152662,15.6948388 0.92732517,15.739871 C0.733123717,15.7849033 0.528984195,15.750766 0.36,15.645 C0.187407187,15.542678 0.0641475512,15.3742452 0.0188239481,15.1787872 C-0.026499655,14.9833292 0.010053096,14.7778385 0.12,14.61 C0.375,14.205 6.33,4.905 15.39,5.445 C17.6593726,5.45120475 19.898772,5.96365313 21.945,6.945 L28.35,0.585 C28.6467205,0.297325064 29.1182795,0.297325064 29.415,0.585 C29.7026749,0.881720515 29.7026749,1.35327948 29.415,1.65 L23.325,7.74 C26.0858161,9.41956325 28.3526444,11.8002505 29.895,14.64 C30.0263232,14.822138 30.0651529,15.0551159 30,15.27 Z M18.3,12.765 L12.765,18.3 C13.4231148,18.7506542 14.2023767,18.9912317 15,18.9900047 C17.2036162,18.9900047 18.9900047,17.2036162 18.9900047,15 C18.9912317,14.2023767 18.7506542,13.4231148 18.3,12.765 Z M11.7,17.265 L17.235,11.7 C16.5768852,11.2493458 15.7976233,11.0087683 15,11.0099953 C12.7963838,11.0099953 11.0099953,12.7963838 11.0099953,15 C11.0087683,15.7976233 11.2493458,16.5768852 11.7,17.235 L11.7,17.265 Z M28.41,15 C26.9446222,12.4090172 24.8102832,10.2591369 22.23,8.775 L19.365,11.7 C20.9997815,13.8797086 20.7830181,16.9298012 18.8564096,18.8564096 C16.9298012,20.7830181 13.8797086,20.9997815 11.7,19.365 L9.33,21.735 C11.3467064,22.526105 13.4806652,22.977227 15.645,23.07 C24.495,22.5 27.735,16.5 28.41,15 Z" id="Shape" fill-rule="nonzero"></path>
                </g>
            </g>
        </g>
    </g>
</svg>