<?xml version="1.0" encoding="UTF-8"?>
<svg width="30px" height="20px" viewBox="0 0 30 20" version="1.1" xmlns="http://www.w3.org/2000/svg" xmlns:xlink="http://www.w3.org/1999/xlink">
    <!-- Generator: Sketch 62 (91390) - https://sketch.com -->
    <title>Icons/Password Showing</title>
    <desc>Created with Sketch.</desc>
    <g id="Page-1" stroke="none" stroke-width="1" fill="none" fill-rule="evenodd">
        <g id="Icons" transform="translate(-769.000000, -1113.000000)" fill="#1B1E24">
            <g id="Icons/Password-Showing" transform="translate(769.000000, 1108.000000)">
                <g id="Actian-Icon__Password-Showing" transform="translate(0.000000, 4.500000)">
                    <path d="M15.675,20.07 C14.985,20.07 7.125,19.935 2.76,14.19 C2.59923048,13.9756406 2.56503267,13.6917949 2.67028855,13.4453847 C2.77554444,13.1989746 3.00426315,13.0274355 3.27028856,12.9953847 C3.53631397,12.9633339 3.79923049,13.0756406 3.96,13.29 C7.95,18.54 15.495,18.6 15.645,18.57 C24.495,18 27.735,12 28.41,10.5 C25.8008517,5.69188432 20.8558124,2.60978036 15.39,2.385 C7.11,1.995 1.5,10.815 1.395,10.905 C1.1708763,11.2505983 0.713350292,11.3566913 0.36,11.145 C0.187407187,11.042678 0.0641475512,10.8742452 0.0188239481,10.6787872 C-0.026499655,10.4833292 0.010053096,10.2778385 0.12,10.11 C0.375,9.705 6.33,0.48 15.39,0.945 C21.5426834,1.12686706 27.1052776,4.65310307 29.895,10.14 C29.9917503,10.3388564 29.9917503,10.5711436 29.895,10.77 C29.775,11.115 26.58,19.335 15.66,20.07 L15.675,20.07 Z" id="Path" fill-rule="nonzero"></path>
                    <path d="M15,15.99 C11.9679567,15.99 9.51,13.5320433 9.51,10.5 C9.51,7.46795672 11.9679567,5.01 15,5.01 C18.0320433,5.01 20.49,7.46795672 20.49,10.5 C20.49,11.9560385 19.9115909,13.3524415 18.8820162,14.3820162 C17.8524415,15.4115909 16.4560385,15.99 15,15.99 L15,15.99 Z M15,6.51 C12.7963838,6.51 11.01,8.29638385 11.01,10.5 C11.01,12.7036162 12.7963838,14.49 15,14.49 C17.2036162,14.49 18.99,12.7036162 18.99,10.5 C18.99,9.44178621 18.5696262,8.42691409 17.8213561,7.67864394 C17.0730859,6.93037379 16.0582138,6.51 15,6.51 Z" id="Shape" fill-rule="nonzero"></path>
                </g>
            </g>
        </g>
    </g>
</svg>