<?xml version="1.0" encoding="UTF-8"?>
<svg width="24px" height="30px" viewBox="0 0 24 30" version="1.1" xmlns="http://www.w3.org/2000/svg" xmlns:xlink="http://www.w3.org/1999/xlink">
    <!-- Generator: Sketch 62 (91390) - https://sketch.com -->
    <title>Icons/PDF</title>
    <desc>Created with Sketch.</desc>
    <g id="Page-1" stroke="none" stroke-width="1" fill="none" fill-rule="evenodd">
        <g id="Icons" transform="translate(-1024.000000, -200.000000)" fill="#1B1E24">
            <g id="Icons/.PDF" transform="translate(1021.000000, 200.000000)">
                <g id="Actian-Icon__pdf" transform="translate(3.000000, 0.000000)">
                    <path d="M4.155,20.565 L4.155,12.975 L5.205,12.975 L5.205,13.5 C5.4359385,13.2965091 5.70666951,13.1432651 6,13.05 C6.28802166,12.9443157 6.59327108,12.8934408 6.9,12.9 C7.26528733,12.8999862 7.62706038,12.9713218 7.965,13.11 C8.28301759,13.2517163 8.57270337,13.4499223 8.82,13.695 C9.07039392,13.9493954 9.26906325,14.2499465 9.405,14.58 C9.54280734,14.9286713 9.61403727,15.3000845 9.615,15.675 C9.61403727,16.0499155 9.54280734,16.4213287 9.405,16.77 C9.13208363,17.4546935 8.58969353,17.9970836 7.905,18.27 C7.56216748,18.4098543 7.19525927,18.4811976 6.825,18.48 C6.54303802,18.4686947 6.26462078,18.4130113 6,18.315 C5.71956377,18.2541598 5.45100104,18.1477481 5.205,18 L5.205,20.64 L4.155,20.565 Z M6.705,13.815 C6.41515108,13.8123105 6.12829673,13.8737793 5.865,13.995 C5.61384353,14.1002341 5.38862311,14.2589121 5.205,14.46 L5.205,16.89 C5.38498216,17.0988192 5.61088562,17.2631126 5.865,17.37 C6.13153253,17.4793463 6.41690967,17.5354025 6.705,17.535 C7.19384619,17.5477856 7.66620015,17.3577581 8.01,17.01 C8.3579158,16.6540366 8.54724496,16.1725996 8.535,15.675 C8.54623105,15.1790815 8.35059266,14.7008543 7.995,14.355 C7.66051835,14.0009543 7.19195225,13.8048104 6.705,13.815 L6.705,13.815 Z M14.415,18.435 L14.415,18 C14.1850537,18.185198 13.9267348,18.3320852 13.65,18.435 C13.3667846,18.5391866 13.066729,18.5900435 12.765,18.585 C12.3997127,18.5850138 12.0379396,18.5136782 11.7,18.375 C11.3794955,18.2297205 11.0854625,18.0320086 10.83,17.79 C10.5840823,17.5350118 10.3904433,17.2343616 10.26,16.905 C9.98403008,16.201082 9.98403008,15.418918 10.26,14.715 C10.3904433,14.3856384 10.5840823,14.0849882 10.83,13.83 C11.0879055,13.5839746 11.3875903,13.3858779 11.715,13.245 C12.3400397,13.0180691 13.0249603,13.0180691 13.65,13.245 C13.9186376,13.3354947 14.1716369,13.4670544 14.4,13.635 L14.4,11.025 L15.465,10.785 L15.465,18.435 L14.415,18.435 Z M11.085,15.66 C11.076122,16.1569983 11.2649588,16.6371834 11.61,16.995 C11.9522648,17.346752 12.424261,17.5420607 12.915,17.535 C13.2030903,17.5354025 13.4884675,17.4793463 13.755,17.37 C14.0017001,17.2577091 14.2215969,17.094065 14.4,16.89 L14.4,14.445 C14.2249117,14.2410499 14.0038289,14.0816647 13.755,13.98 C13.4912436,13.8601663 13.2046999,13.798764 12.915,13.8 C12.424261,13.7929393 11.9522648,13.988248 11.61,14.34 C11.2629261,14.6903959 11.0733894,15.1669455 11.085,15.66 Z M16.11,12.975 L17.37,12.975 L17.37,12.165 C17.3363827,11.6886984 17.5052205,11.2203097 17.835,10.875 C18.2242411,10.5778928 18.7136013,10.4434532 19.2,10.5 L19.605,10.5 L19.965,10.5 L19.965,11.415 L19.62,11.415 L19.29,11.415 C19.055039,11.3912186 18.8209206,11.4674432 18.645,11.625 C18.4827339,11.7927741 18.400728,12.0223908 18.42,12.255 L18.42,13.035 L19.92,13.035 L19.92,13.935 L18.42,13.935 L18.42,18.435 L17.37,18.435 L17.37,13.935 L16.11,13.935 L16.11,12.975 Z" id="Shape" fill-rule="nonzero"></path>
                    <path d="M22.815,6.81 C22.815,6.81 22.815,6.81 22.815,6.81 L16.5,0.42 L16.5,0.42 L16.065,-2.24060863e-07 L2.91,-2.24060863e-07 C2.38623924,-2.24060863e-07 1.8847485,0.211829207 1.52009044,0.587794491 C1.15543239,0.963759775 0.958759294,1.47149104 0.975,1.995 L0.975,28.11 C1.00722359,29.1576589 1.86187294,29.9924327 2.91,29.9999998 L21.195,29.9999998 C22.2685553,29.9918357 23.1368357,29.1235553 23.145,28.05 L23.145,7.05 L22.815,6.81 Z M16.68,2.79 L20.4,6.525 L16.68,6.525 L16.68,2.79 Z M21.645,28.11 C21.6372091,28.3552286 21.4402286,28.5522091 21.195,28.56 L2.91,28.56 C2.66734868,28.5519072 2.47486508,28.3527862 2.475,28.11 L2.475,1.995 C2.45753698,1.86964562 2.49553535,1.74290137 2.5790827,1.64783025 C2.66263004,1.55275913 2.78344088,1.49878947 2.91,1.49998006 L15.18,1.49998006 L15.18,7.275 C15.18,7.68921356 15.5157864,8.025 15.93,8.025 L21.645,8.025 L21.645,28.11 Z" id="Shape" fill-rule="nonzero"></path>
                </g>
            </g>
        </g>
    </g>
</svg>