<?xml version="1.0" encoding="UTF-8"?>
<svg width="16px" height="16px" viewBox="0 0 16 16" version="1.1" xmlns="http://www.w3.org/2000/svg" xmlns:xlink="http://www.w3.org/1999/xlink">
    <!-- Generator: Sketch 61.2 (89653) - https://sketch.com -->
    <title>Icons/Plus-Blue</title>
    <desc>Created with Sketch.</desc>
    <g id="Page-1" stroke="none" stroke-width="1" fill="none" fill-rule="evenodd">
        <g id="Tables" transform="translate(-522.000000, -1597.000000)" fill-rule="nonzero">
            <g id="Icons/Plus-Blue" transform="translate(522.000000, 1597.000000)">
                <circle id="Oval-5" fill="#238FFB" cx="8" cy="8" r="8"></circle>
                <path d="M8.47818609,7.89 L10.5788507,5.78933539 C10.7469039,5.62128222 10.8309305,5.28517588 10.6628773,5.11712272 C10.4948241,4.94906955 10.1587178,4.94906955 9.99066461,5.2011493 L7.89,7.30181391 L5.78933539,5.2011493 C5.62128222,5.03309613 5.28517588,4.94906955 5.11712272,5.11712272 C4.94906955,5.28517588 4.94906955,5.62128222 5.2011493,5.78933539 L7.30181391,7.89 L5.2011493,9.99066461 C5.03309613,10.1587178 4.94906955,10.4948241 5.11712272,10.6628773 C5.28517588,10.8309305 5.62128222,10.8309305 5.78933539,10.5788507 L7.89,8.47818609 L9.99066461,10.5788507 C10.1587178,10.7469039 10.4948241,10.8309305 10.6628773,10.6628773 C10.8309305,10.4948241 10.8309305,10.1587178 10.5788507,9.99066461 L8.47818609,7.89 Z" id="Path" stroke="#FFFFFF" stroke-width="1" transform="translate(7.890000, 7.890000) rotate(135.000000) translate(-7.890000, -7.890000) "></path>
            </g>
        </g>
    </g>
</svg>