<?xml version="1.0" encoding="UTF-8"?>
<svg width="30px" height="30px" viewBox="0 0 30 30" version="1.1" xmlns="http://www.w3.org/2000/svg" xmlns:xlink="http://www.w3.org/1999/xlink">
    <!-- Generator: Sketch 62 (91390) - https://sketch.com -->
    <title>Icons/Plus</title>
    <desc>Created with Sketch.</desc>
    <g id="Page-1" stroke="none" stroke-width="1" fill="none" fill-rule="evenodd">
        <g id="Icons" transform="translate(-847.000000, -1108.000000)" fill="#1B1E24">
            <g id="Icons/Plus" transform="translate(847.000000, 1108.000000)">
                <g id="Actian-Icon__Plus-Sign">
                    <path d="M30,15 C30,15.4142136 29.6642136,15.75 29.25,15.75 L15.75,15.75 L15.75,29.25 C15.75,29.6642136 15.4142136,30 15,30 C14.5857864,30 14.25,29.6642136 14.25,29.25 L14.25,15.75 L0.75,15.75 C0.335786438,15.75 0,15.4142136 0,15 C0,14.5857864 0.335786438,14.25 0.75,14.25 L14.25,14.25 L14.25,0.75 C14.25,0.335786438 14.5857864,0 15,0 C15.4142136,0 15.75,0.335786438 15.75,0.75 L15.75,14.25 L29.25,14.25 C29.6642136,14.25 30,14.5857864 30,15 Z" id="Path" fill-rule="nonzero"></path>
                </g>
            </g>
        </g>
    </g>
</svg>