<?xml version="1.0" encoding="UTF-8"?>
<svg width="30px" height="30px" viewBox="0 0 30 30" version="1.1" xmlns="http://www.w3.org/2000/svg" xmlns:xlink="http://www.w3.org/1999/xlink">
    <!-- Generator: Sketch 62 (91390) - https://sketch.com -->
    <title>Icons/Print</title>
    <desc>Created with Sketch.</desc>
    <g id="Page-1" stroke="none" stroke-width="1" fill="none" fill-rule="evenodd">
        <g id="Icons" transform="translate(-934.000000, -1108.000000)" fill="#1B1E24">
            <g id="Icons/Print" transform="translate(934.000000, 1108.000000)">
                <g id="Actian-Icon__Print">
                    <path d="M29.88,9.45 L29.88,21.615 C29.8717983,23.1856017 28.6006017,24.4567983 27.03,24.465 L24.135,24.465 L24.135,28.5 C24.1367144,28.9223588 23.960286,29.3258688 23.6490584,29.6113987 C23.3378308,29.8969285 22.920648,30.0380161 22.5,30 L7.5,30 C7.08883312,30.0005143 6.69548046,29.8322257 6.41191687,29.5344839 C6.12835328,29.2367422 5.97944132,28.8356529 6,28.425 L6,24.465 L3,24.465 C1.42939828,24.4567983 0.158201743,23.1856017 0.15,21.615 L0.15,9.45 C0.158201743,7.87939828 1.42939828,6.60820174 3,6.6 L5.58,6.6 L5.58,1.5 C5.62464369,0.690785733 6.27078573,0.044643692 7.08,0 L22.845,0 C23.6833585,0.00656657861 24.37257,0.662958537 24.42,1.5 L24.42,6.6 L27,6.6 C27.7598484,6.59601132 28.4901587,6.89403998 29.0302658,7.42852091 C29.5703728,7.96300183 29.8760322,8.69015151 29.88,9.45 Z M7.08,6.24 L22.92,6.24 L22.92,1.5 L7.155,1.5 L7.08,6.24 Z M22.635,20.385 L7.365,20.385 L7.365,28.5 L22.5,28.5 C22.5414214,28.5 22.575,28.4664214 22.575,28.425 L22.635,20.385 Z M28.38,9.45 C28.38,8.70441559 27.7755844,8.1 27.03,8.1 L3,8.1 C2.25441559,8.1 1.65,8.70441559 1.65,9.45 L1.65,21.615 C1.65,22.3605844 2.25441559,22.965 3,22.965 L5.865,22.965 L5.865,20.34 L3.9,20.34 C3.48578644,20.34 3.15,20.0042136 3.15,19.59 C3.15,19.1757864 3.48578644,18.84 3.9,18.84 L26.1,18.84 C26.5142136,18.84 26.85,19.1757864 26.85,19.59 C26.85,20.0042136 26.5142136,20.34 26.1,20.34 L24.135,20.34 L24.135,22.965 L27,22.965 C27.7455844,22.965 28.35,22.3605844 28.35,21.615 L28.38,9.45 Z" id="Shape" fill-rule="nonzero"></path>
                    <path d="M20.73,23.145 L9.3,23.145 C8.88578644,23.145 8.55,22.8092136 8.55,22.395 C8.55,21.9807864 8.88578644,21.645 9.3,21.645 L20.73,21.645 C21.1442136,21.645 21.48,21.9807864 21.48,22.395 C21.4720198,22.8058627 21.1408627,23.1370198 20.73,23.145 L20.73,23.145 Z M21.465,25.14 C21.4570198,24.7291373 21.1258627,24.3979802 20.715,24.39 L9.285,24.39 C8.87413732,24.3979802 8.54298016,24.7291373 8.535,25.14 C8.535,25.5542136 8.87078644,25.89 9.285,25.89 L20.715,25.89 C21.1292136,25.89 21.465,25.5542136 21.465,25.14 L21.465,25.14 Z" id="Shape" fill-rule="nonzero"></path>
                    <path d="M26.85,10.5 C26.85,10.9142136 26.5142136,11.25 26.1,11.25 C25.6857864,11.25 25.35,10.9142136 25.35,10.5 C25.35,10.0857864 25.6857864,9.75 26.1,9.75 C26.5108627,9.75798016 26.8420198,10.0891373 26.85,10.5 Z" id="Path" fill-rule="nonzero"></path>
                </g>
            </g>
        </g>
    </g>
</svg>