<?xml version="1.0" encoding="UTF-8"?>
<svg width="30px" height="30px" viewBox="0 0 30 30" version="1.1" xmlns="http://www.w3.org/2000/svg" xmlns:xlink="http://www.w3.org/1999/xlink">
    <!-- Generator: Sketch 62 (91390) - https://sketch.com -->
    <title>Icons/Process</title>
    <desc>Created with Sketch.</desc>
    <g id="Page-1" stroke="none" stroke-width="1" fill="none" fill-rule="evenodd">
        <g id="Icons" transform="translate(-1106.000000, -200.000000)" fill="#1B1E24">
            <g id="Icons/.Process" transform="translate(1106.000000, 200.000000)">
                <g id="Actian-Icon__.process">
                    <path d="M12.8848866,0.129087361 L17.9371653,3.40157676 C18.1628197,3.54751161 18.2990756,3.79786223 18.2990756,4.06653466 C18.2990756,4.33520708 18.1628197,4.58555771 17.9371653,4.73149255 L12.8848866,8.01892482 C12.6422208,8.17751776 12.3322793,8.19093017 12.0768124,8.05389344 C11.8213455,7.91685671 11.6611624,7.65126158 11.6591858,7.36143837 L11.6591858,0.786573816 C11.6611624,0.496750609 11.8213455,0.231155471 12.0768124,0.0941187429 C12.3322793,-0.0429179856 12.6422208,-0.0295055705 12.8848866,0.129087361 Z M29.9999286,28.3860621 L29.9999286,24.0974572 C29.9999286,23.6747671 29.8308912,23.2696034 29.5305098,22.9721228 C29.2301285,22.6746423 28.8232687,22.5095249 28.4004645,22.513442 L24.1254594,22.513442 C23.2479453,22.513442 22.5342705,23.2202571 22.5260694,24.0974572 L22.5260694,28.3860621 C22.5260694,28.8087522 22.6950327,29.2139159 22.9954141,29.5113964 C23.2957954,29.808877 23.7026553,29.9739944 24.1254594,29.9700067 L28.4004645,29.9700067 C28.824481,29.9781021 29.2337274,29.8143139 29.5350116,29.5159392 C29.8362957,29.2175645 30.0039708,28.8100027 29.9999286,28.3860621 Z M16.1285093,21.0341681 L19.1180234,18.0455933 C19.7295756,17.4235129 19.7295756,16.4262425 19.1180234,15.8041622 L16.1285093,12.8155874 C15.8307297,12.5135107 15.4242088,12.3434317 14.9999678,12.3434317 C14.5757268,12.3434317 14.1692059,12.5135107 13.8714262,12.8155874 L10.8819122,15.8041622 C10.2703599,16.4262425 10.2703599,17.4235129 10.8819122,18.0455933 L13.8714262,21.0341681 C14.1672,21.3382249 14.5725959,21.5110012 14.9968398,21.5138447 C15.4210838,21.5166186 15.8287332,21.349225 16.1285093,21.0491109 L16.1285093,21.0341681 Z M3.73697357,22.5284555 C2.22418397,22.5284676 0.860641218,23.4402714 0.283128021,24.8380492 C-0.294385176,26.2358269 0.028076714,27.8437917 1.09992204,28.9110142 C2.17176736,29.9782368 3.781517,30.29415 5.17740813,29.7112206 C6.57329925,29.1282912 7.47991729,27.7615333 7.47389624,26.2492311 C7.47389624,24.1860507 5.80080234,22.5135126 3.73697357,22.5135126 L3.73697357,22.5284555 Z M15.6950298,10.6787564 L15.6950298,8.25801081 C15.6632689,7.87360706 15.3330934,7.58314393 14.9476513,7.60052435 C14.7612353,7.58824797 14.5776051,7.65070331 14.4373567,7.77408307 C14.2971084,7.89746284 14.2117934,8.0716049 14.2002728,8.25801081 L14.2002728,10.6638135 C14.2117934,10.8502194 14.2971084,11.0243615 14.4373567,11.1477413 C14.5776051,11.271121 14.7612353,11.3335764 14.9476513,11.3213 C15.1429189,11.3464589 15.3399489,11.2902959 15.4925793,11.1659695 C15.6452097,11.041643 15.7400283,10.8600782 15.7548201,10.6638135 L15.6950298,10.6787564 Z M9.11809886,15.8639337 L3.73697357,15.8639337 C3.32420781,15.8639337 2.98959505,16.1984413 2.98959505,16.6110774 L2.98959505,21.2134826 C2.98959505,21.6261186 3.32420781,21.9606263 3.73697357,21.9606263 C4.14973932,21.9606263 4.48435208,21.6261186 4.48435208,21.2134826 L4.48435208,17.3582211 L9.11809886,17.3582211 C9.53086462,17.3582211 9.86547738,17.0237134 9.86547738,16.6110774 C9.86547738,16.1984413 9.53086462,15.8639337 9.11809886,15.8639337 Z M26.262962,15.8639337 L20.9266794,15.8639337 C20.5139136,15.8639337 20.1793009,16.1984413 20.1793009,16.6110774 C20.1793009,17.0237134 20.5139136,17.3582211 20.9266794,17.3582211 L25.5454786,17.3582211 L25.5454786,21.2134826 C25.5454786,21.6261186 25.8800913,21.9606263 26.2928571,21.9606263 C26.7056229,21.9606263 27.0402359,21.6261186 27.0402359,21.2134826 L27.0402359,16.6110774 C27.0403985,16.4076341 26.9575667,16.2129218 26.8108719,16.0719135 C26.6641772,15.9309052 26.4663063,15.8557959 26.262962,15.8639337 Z" id="Shape" fill-rule="nonzero"></path>
                </g>
            </g>
        </g>
    </g>
</svg>