<?xml version="1.0" encoding="UTF-8"?>
<svg width="24px" height="30px" viewBox="0 0 24 30" version="1.1" xmlns="http://www.w3.org/2000/svg" xmlns:xlink="http://www.w3.org/1999/xlink">
    <!-- Generator: Sketch 62 (91390) - https://sketch.com -->
    <title>Icons/Product Tour</title>
    <desc>Created with Sketch.</desc>
    <g id="Page-1" stroke="none" stroke-width="1" fill="none" fill-rule="evenodd">
        <g id="Icons" transform="translate(-1024.000000, -1108.000000)" fill="#1B1E24">
            <g id="Icons/Product" transform="translate(1021.000000, 1108.000000)">
                <g id="Actian-Icon__Tour" transform="translate(3.000000, 0.000000)">
                    <path d="M19.365,12.915 L4.62,12.915 C4.20913732,12.9070198 3.87798016,12.5758627 3.87,12.165 L3.87,5.22 C3.87798016,4.80913732 4.20913732,4.47798016 4.62,4.47 L19.365,4.47 C19.5480161,4.47368344 19.7236445,4.54287039 19.86,4.665 L23.625,8.1 C23.7763703,8.24520452 23.8628787,8.44525537 23.8650916,8.655 C23.8683265,8.86586398 23.7809171,9.06799813 23.625,9.21 L19.875,12.705 C19.7370256,12.8359793 19.555198,12.9108495 19.365,12.915 Z M5.37,11.415 L19.065,11.415 L22.065,8.655 L19.065,6 L5.37,6 L5.37,11.415 Z M4.125,22.08 L0.375,18.57 C0.21148241,18.4271033 0.122943256,18.2168228 0.135,18 C0.133910643,17.7939505 0.221416135,17.5973656 0.375,17.46 L4.14,14.04 C4.2722995,13.9114442 4.45056724,13.8412175 4.635,13.845 L19.38,13.845 C19.7942136,13.845 20.13,14.1807864 20.13,14.595 L20.13,21.525 C20.13,21.9392136 19.7942136,22.275 19.38,22.275 L4.635,22.275 C4.44779474,22.2697701 4.26793948,22.2010019 4.125,22.08 L4.125,22.08 Z M18.63,15.345 L4.935,15.345 L1.98,18 L4.98,20.745 L18.675,20.745 L18.63,15.345 Z M11.04,3.96 L11.04,1.5 L12.96,1.5 L12.96,3.96 L14.46,3.96 L14.46,0.75 C14.46,0.335786438 14.1242136,0 13.71,0 L10.29,0 C9.87578644,0 9.54,0.335786438 9.54,0.75 L9.54,3.96 L11.04,3.96 Z M12.96,22.89 L12.96,24.81 L12.96,24.81 L12.96,28.5 L11.04,28.5 L11.04,24.81 L11.04,24.81 L11.04,22.89 L9.54,22.89 L9.54,29.25 C9.54,29.6642136 9.87578644,30 10.29,30 L13.71,30 C14.1242136,30 14.46,29.6642136 14.46,29.25 L14.46,22.89 L12.96,22.89 Z" id="Shape" fill-rule="nonzero"></path>
                </g>
            </g>
        </g>
    </g>
</svg>