<?xml version="1.0" encoding="UTF-8"?>
<svg width="30px" height="28px" viewBox="0 0 30 28" version="1.1" xmlns="http://www.w3.org/2000/svg" xmlns:xlink="http://www.w3.org/1999/xlink">
    <!-- Generator: Sketch 62 (91390) - https://sketch.com -->
    <title>Icons/Refresh</title>
    <desc>Created with Sketch.</desc>
    <g id="Page-1" stroke="none" stroke-width="1" fill="none" fill-rule="evenodd">
        <g id="Icons" transform="translate(-1106.000000, -1109.000000)" fill="#1B1E24">
            <g id="Icons/Refresh" transform="translate(1106.000000, 1108.000000)">
                <g id="Actian-Icon__Refresh" transform="translate(0.000000, 1.500000)">
                    <path d="M1.98,12.7500005 C1.74272491,12.6572988 1.56424346,12.4565071 1.5,12.21 L0.135,7.635 C0.0703103522,7.43208689 0.0914060255,7.21154628 0.193389704,7.0245762 C0.295373383,6.83760612 0.469374837,6.70046867 0.675,6.645 C1.09669035,6.52801365 1.53505425,6.76712123 1.665,7.185 L2.265,9.27 C4.21743164,3.5225089 9.76577501,-0.215170429 15.8257441,0.134712312 C21.8857132,0.484595054 26.9670196,4.83599551 28.245,10.77 L26.595,10.77 C25.3845012,5.62538395 20.9171923,1.9016687 15.6386943,1.63739607 C10.3601962,1.37312344 5.54329692,4.63201668 3.825,9.63 L5.325,8.34 C5.54471834,8.15779454 5.84495191,8.1066481 6.11260563,8.20582704 C6.38025935,8.30500597 6.57467025,8.53944265 6.62260563,8.82082704 C6.67054101,9.10221143 6.56471834,9.38779455 6.345,9.57 L2.685,12.57 C2.54064314,12.6866582 2.36060171,12.7502022 2.175,12.7500005 L1.98,12.7500005 Z" id="Path" fill-rule="nonzero"></path>
                    <path d="M29.31,20.415 L29.1,20.415 C28.738171,20.412397 28.4237434,20.1657871 28.335,19.815 L27.81,17.775 C25.8488285,23.5085368 20.3075692,27.2328319 14.2579826,26.8833468 C8.20839591,26.5338617 3.1328745,22.1962345 1.845,16.275 L3.495,16.275 C4.7098721,21.4363069 9.20179127,25.1650097 14.4985357,25.4089387 C19.7952802,25.6528677 24.6108927,22.3528013 26.295,17.325 L24.645,18.615 C24.3005187,18.8817701 23.8054947,18.8215645 23.535,18.48 C23.2665884,18.1306822 23.3265628,17.6308959 23.67,17.355 L27.42,14.355 C27.6276018,14.1812492 27.9104495,14.1275682 28.1672745,14.2131765 C28.4240995,14.2987848 28.6181691,14.5114383 28.68,14.775 L29.88,19.38 C29.9539319,19.5928285 29.9340872,19.827032 29.8253992,20.0243865 C29.7167112,20.221741 29.5293883,20.3637102 29.31,20.415 Z" id="Path" fill-rule="nonzero"></path>
                </g>
            </g>
        </g>
    </g>
</svg>