<?xml version="1.0" encoding="UTF-8"?>
<svg width="26px" height="31px" viewBox="0 0 26 31" version="1.1" xmlns="http://www.w3.org/2000/svg" xmlns:xlink="http://www.w3.org/1999/xlink">
    <!-- Generator: Sketch 62 (91390) - https://sketch.com -->
    <title>Icons/Request New Feature</title>
    <desc>Created with Sketch.</desc>
    <g id="Page-1" stroke="none" stroke-width="1" fill="none" fill-rule="evenodd">
        <g id="Icons" transform="translate(-1193.000000, -1108.000000)" fill="#1B1E24">
            <g id="Icons/Request-New-Feature" transform="translate(1191.000000, 1108.000000)">
                <g id="Actian-Icon__Request-New-Feature" transform="translate(1.500000, 0.000000)">
                    <path d="M21.3,6.495 L5.805,6.495 C5.39078644,6.495 5.055,6.15921356 5.055,5.745 C5.06298016,5.33413732 5.39413732,5.00298016 5.805,4.995 L21.3,4.995 C21.7108627,5.00298016 22.0420198,5.33413732 22.05,5.745 C22.05,6.15921356 21.7142136,6.495 21.3,6.495 Z" id="Path" fill-rule="nonzero"></path>
                    <path d="M21.3,10.995 L5.805,10.995 C5.39078644,10.995 5.055,10.6592136 5.055,10.245 C5.06298016,9.83413732 5.39413732,9.50298016 5.805,9.495 L21.3,9.495 C21.7108627,9.50298016 22.0420198,9.83413732 22.05,10.245 C22.05,10.6592136 21.7142136,10.995 21.3,10.995 Z" id="Path" fill-rule="nonzero"></path>
                    <path d="M13.5,15.495 L5.805,15.495 C5.39078644,15.495 5.055,15.1592136 5.055,14.745 C5.06298016,14.3341373 5.39413732,14.0029802 5.805,13.995 L13.5,13.995 C13.9108627,14.0029802 14.2420198,14.3341373 14.25,14.745 C14.25,15.1592136 13.9142136,15.495 13.5,15.495 L13.5,15.495 Z" id="Path" fill-rule="nonzero"></path>
                    <path d="M25.89,3.96 L25.89,26.145 C25.89,28.3486162 24.1036162,30.135 21.9,30.135 L5.22,30.135 C3.01638385,30.135 1.23,28.3486162 1.23,26.145 L1.23,3.96 C1.24648085,1.76810857 3.02804661,0 5.22,0 L21.9,0 C24.0919534,0 25.8735191,1.76810857 25.89,3.96 L25.89,3.96 Z M24.39,3.96 C24.3655871,2.5999472 23.2602488,1.50792625 21.9,1.5 L5.22,1.5 C3.85644202,1.5 2.74642841,2.59654098 2.73,3.96 L2.73,26.145 C2.73,27.520189 3.84481097,28.635 5.22,28.635 L17.76,28.635 L17.76,18.285 L15.57,21.435 C15.4320679,21.6379351 15.2002827,21.7566543 14.955,21.75 C14.8041628,21.7510902 14.6569527,21.7037726 14.535,21.615 C14.3697415,21.5053417 14.2558132,21.3335515 14.2190925,21.1386492 C14.1823718,20.943747 14.2259756,20.7422768 14.34,20.58 L17.895,15.48 L17.895,15.48 L18,15.375 L18.12,15.3 L18.24,15.3 L18.39,15.3 L18.54,15.3 C18.7899132,15.2909875 19.0272621,15.409662 19.17,15.615 L22.71,20.715 C22.9419949,21.0514233 22.8619547,21.5116549 22.53,21.75 C22.4016603,21.8372757 22.2502018,21.8842801 22.095,21.885 C21.8503472,21.8889134 21.6197882,21.7708223 21.48,21.57 L19.215,18.315 L19.215,28.815 L21.9,28.815 C23.2717823,28.80681 24.38181,27.6967823 24.39,26.325 L24.39,3.96 Z" id="Shape" fill-rule="nonzero"></path>
                </g>
            </g>
        </g>
    </g>
</svg>