<?xml version="1.0" encoding="UTF-8"?>
<svg width="20px" height="30px" viewBox="0 0 20 30" version="1.1" xmlns="http://www.w3.org/2000/svg" xmlns:xlink="http://www.w3.org/1999/xlink">
    <!-- Generator: Sketch 62 (91390) - https://sketch.com -->
    <title>Icons/Right Arrow Sort</title>
    <desc>Created with Sketch.</desc>
    <g id="Page-1" stroke="none" stroke-width="1" fill="none" fill-rule="evenodd">
        <g id="Icons" transform="translate(-852.000000, -1210.000000)" fill="#1B1E24">
            <g id="Icons/Right-Arrow_Sort" transform="translate(847.000000, 1210.000000)">
                <g id="Actian-Icon__Right-Arrow-(Sort)" transform="translate(4.500000, 0.000000)">
                    <path d="M3.795,30 C3.41375469,29.9992086 3.03646045,29.92273 2.685,29.775 C1.77829409,29.3863976 1.18893436,28.4964644 1.185,27.51 L1.185,2.52 C1.1870097,1.53658879 1.77800877,0.650090191 2.685,0.27 C3.68807546,-0.205547675 4.88037688,-0.0147794474 5.685,0.75 L19.185,13.2 C19.6470867,13.681272 19.8864554,14.3340959 19.845,15 C19.8414413,15.6800292 19.5530932,16.3274525 19.05,16.785 L5.55,29.28 C5.07285107,29.726727 4.44840953,29.9829082 3.795,30 L3.795,30 Z M3.795,1.5 C3.61995562,1.50303477 3.4470072,1.5386418 3.285,1.605 C2.91488605,1.74484808 2.66598216,2.09449878 2.655,2.49 L2.655,27.48 C2.66598216,27.8755012 2.91488605,28.2251519 3.285,28.365 C3.72282735,28.5624706 4.23622503,28.4798549 4.59,28.155 L18.09,15.645 C18.2883054,15.4768477 18.4026365,15.2300005 18.4026365,14.97 C18.4026365,14.7099995 18.2883054,14.4631523 18.09,14.295 L4.59,1.845 L4.59,1.845 C4.3807486,1.62982962 4.09508345,1.50586173 3.795,1.5 Z" id="Shape" fill-rule="nonzero"></path>
                </g>
            </g>
        </g>
    </g>
</svg>