<?xml version="1.0" encoding="UTF-8"?>
<svg width="30px" height="30px" viewBox="0 0 30 30" version="1.1" xmlns="http://www.w3.org/2000/svg" xmlns:xlink="http://www.w3.org/1999/xlink">
    <!-- Generator: Sketch 62 (91390) - https://sketch.com -->
    <title>Icons/Right</title>
    <desc>Created with Sketch.</desc>
    <g id="Page-1" stroke="none" stroke-width="1" fill="none" fill-rule="evenodd">
        <g id="Icons" transform="translate(-1275.000000, -1108.000000)" fill="#1B1E24">
            <g id="Icons/Right" transform="translate(1275.000000, 1108.000000)">
                <g id="Actian-Icon__Right">
                    <path d="M1.5,15 C1.5,7.54415588 7.54415588,1.5 15,1.5 C22.4558441,1.5 28.5,7.54415588 28.5,15 C28.5,22.4558441 22.4558441,28.5 15,28.5 C7.54415588,28.5 1.5,22.4558441 1.5,15 M0,15 C0,23.2842712 6.71572875,30 15,30 C23.2842712,30 30,23.2842712 30,15 C30,6.71572875 23.2842712,0 15,0 C6.71572875,0 0,6.71572875 0,15 Z" id="Shape" fill-rule="nonzero"></path>
                    <path d="M12.27,24.3 C12.0718229,24.2988459 11.8825096,24.2177116 11.745,24.075 C11.6039039,23.9367546 11.5243928,23.7475345 11.5243928,23.55 C11.5243928,23.3524655 11.6039039,23.1632454 11.745,23.025 L19.695,14.91 L11.745,6.99 C11.6030155,6.84917505 11.5231513,6.65747815 11.5231513,6.4575 C11.5231513,6.25752185 11.6030155,6.06582495 11.745,5.925 C12.0366326,5.63914284 12.5033674,5.63914284 12.795,5.925 L21.255,14.37 C21.3969845,14.5108249 21.4768487,14.7025218 21.4768487,14.9025 C21.4768487,15.1024782 21.3969845,15.2941751 21.255,15.435 L12.81,24.075 C12.6669176,24.2185796 12.4727004,24.2995034 12.27,24.3 Z" id="Path" fill-rule="nonzero"></path>
                </g>
            </g>
        </g>
    </g>
</svg>