<?xml version="1.0" encoding="UTF-8"?>
<svg width="30px" height="31px" viewBox="0 0 30 31" version="1.1" xmlns="http://www.w3.org/2000/svg" xmlns:xlink="http://www.w3.org/1999/xlink">
    <!-- Generator: Sketch 62 (91390) - https://sketch.com -->
    <title>Icons/Right Arrow Circle</title>
    <desc>Created with Sketch.</desc>
    <g id="Page-1" stroke="none" stroke-width="1" fill="none" fill-rule="evenodd">
        <g id="Icons" transform="translate(-769.000000, -1210.000000)" fill="#1B1E24">
            <g id="Icons/Right-Arrow_In-Circle" transform="translate(769.000000, 1210.000000)">
                <g id="Actian-Icon__Right-Arrow-in-Circle">
                    <path d="M15,30.105 C6.71572875,30.105 0,23.3892712 0,15.105 C0,6.82072875 6.71572875,0.105 15,0.105 C23.2842712,0.105 30,6.82072875 30,15.105 C30,19.0832473 28.4196474,22.898556 25.6066017,25.7116017 C22.793556,28.5246474 18.9782473,30.105 15,30.105 Z M15,1.5 C7.54415588,1.5 1.5,7.54415588 1.5,15 C1.5,22.4558441 7.54415588,28.5 15,28.5 C22.4558441,28.5 28.5,22.4558441 28.5,15 C28.5,7.54415588 22.4558441,1.5 15,1.5 Z" id="Shape" fill-rule="nonzero"></path>
                    <path d="M11.55,8.67 L20.715,15.165 L11.55,21.45 L11.55,8.67 M11.28,6.945 C10.6551335,6.89302861 10.1055947,7.35544543 10.05,7.98 L10.05,22.14 C10.1132436,22.7585318 10.6604478,23.2123109 11.28,23.16 C11.5378619,23.1496706 11.7875128,23.0664536 12,22.92 L21.825,16.185 C22.1955662,15.9865823 22.4268783,15.6003438 22.4268783,15.18 C22.4268783,14.7596562 22.1955662,14.3734177 21.825,14.175 L12.075,7.2 C11.8445685,7.03122568 11.5656096,6.94174829 11.28,6.945 Z" id="Shape" fill-rule="nonzero"></path>
                </g>
            </g>
        </g>
    </g>
</svg>