<?xml version="1.0" encoding="UTF-8"?>
<svg width="30px" height="30px" viewBox="0 0 30 30" version="1.1" xmlns="http://www.w3.org/2000/svg" xmlns:xlink="http://www.w3.org/1999/xlink">
    <!-- Generator: Sketch 62 (91390) - https://sketch.com -->
    <title>Icons/Saturday</title>
    <desc>Created with Sketch.</desc>
    <g id="Page-1" stroke="none" stroke-width="1" fill="none" fill-rule="evenodd">
        <g id="Icons" transform="translate(-934.000000, -1210.000000)" fill="#1B1E24">
            <g id="Icons/Saturday" transform="translate(934.000000, 1210.000000)">
                <g id="Actian-Icon__Saturday">
                    <path d="M15,30 C6.71572875,30 0,23.2842712 0,15 C0,6.71572875 6.71572875,0 15,0 C23.2842712,0 30,6.71572875 30,15 C29.950858,23.2638304 23.2638304,29.950858 15,30 Z M15,1.5 C7.54415588,1.5 1.5,7.54415588 1.5,15 C1.5,22.4558441 7.54415588,28.5 15,28.5 C22.4558441,28.5 28.5,22.4558441 28.5,15 C28.4509197,7.56458048 22.4354195,1.54908028 15,1.5 Z" id="Shape" fill-rule="nonzero"></path>
                    <path d="M11.445,19.5 C12.3521268,20.0445169 13.3871073,20.3394863 14.445,20.355 C16.185,20.355 17.205,19.44 17.205,18.12 C17.205,16.8 16.5,16.2 14.76,15.51 C12.615,14.76 11.295,13.65 11.295,11.79 C11.295,9.93 12.99,8.22 15.54,8.22 C16.5488117,8.18680823 17.5496942,8.40865332 18.45,8.865 L18,10.245 C17.2318586,9.84188693 16.377491,9.63086844 15.51,9.63 C13.71,9.63 13.02,10.695 13.02,11.595 C13.02,12.825 13.83,13.425 15.645,14.13 C17.865,14.985 18.99,16.065 18.99,18 C18.99,19.935 17.49,21.78 14.385,21.78 C13.2166891,21.8119807 12.0597397,21.5434032 11.025,21 L11.445,19.5 Z" id="Path" fill-rule="nonzero"></path>
                </g>
            </g>
        </g>
    </g>
</svg>