<?xml version="1.0" encoding="UTF-8"?>
<svg width="30px" height="30px" viewBox="0 0 30 30" version="1.1" xmlns="http://www.w3.org/2000/svg" xmlns:xlink="http://www.w3.org/1999/xlink">
    <!-- Generator: Sketch 62 (91390) - https://sketch.com -->
    <title>Icons/Search</title>
    <desc>Created with Sketch.</desc>
    <g id="Page-1" stroke="none" stroke-width="1" fill="none" fill-rule="evenodd">
        <g id="Icons" transform="translate(-1021.000000, -1210.000000)" fill="#1B1E24">
            <g id="Icons/Search" transform="translate(1021.000000, 1210.000000)">
                <g id="Actian-Icon__Search">
                    <path d="M29.775,29.775 C29.6389,29.9200158 29.4488789,30.002278 29.25,30.002278 C29.0511211,30.002278 28.8611,29.9200158 28.725,29.775 L17.37,18.435 C13.0968163,22.134873 6.66156504,21.7880843 2.81073792,17.6504171 C-1.04008921,13.5127499 -0.924443312,7.06919908 3.07237789,3.07237789 C7.06919908,-0.924443312 13.5127499,-1.04008921 17.6504171,2.81073792 C21.7880843,6.66156504 22.134873,13.0968163 18.435,17.37 L29.775,28.725 C29.9200158,28.8611 30.002278,29.0511211 30.002278,29.25 C30.002278,29.4488789 29.9200158,29.6389 29.775,29.775 Z M10.5,19.5 C15.4705627,19.5 19.5,15.4705627 19.5,10.5 C19.5,5.52943725 15.4705627,1.5 10.5,1.5 C5.52943725,1.5 1.5,5.52943725 1.5,10.5 C1.5,15.4705627 5.52943725,19.5 10.5,19.5 Z" id="Shape" fill-rule="nonzero"></path>
                </g>
            </g>
        </g>
    </g>
</svg>