<?xml version="1.0" encoding="UTF-8"?>
<svg width="30px" height="30px" viewBox="0 0 30 30" version="1.1" xmlns="http://www.w3.org/2000/svg" xmlns:xlink="http://www.w3.org/1999/xlink">
    <!-- Generator: Sketch 62 (91390) - https://sketch.com -->
    <title>Icons/Send Feedback</title>
    <desc>Created with Sketch.</desc>
    <g id="Page-1" stroke="none" stroke-width="1" fill="none" fill-rule="evenodd">
        <g id="Icons" transform="translate(-1106.000000, -1210.000000)" fill="#1B1E24">
            <g id="Icons/Send-Feedback" transform="translate(1106.000000, 1210.000000)">
                <g id="Actian-Icon__Send-Feedback">
                    <path d="M15,30 C6.71572875,30 0,23.2842712 0,15 C0,6.71572875 6.71572875,0 15,0 C23.2842712,0 30,6.71572875 30,15 C29.950858,23.2638304 23.2638304,29.950858 15,30 Z M15,1.5 C7.54415588,1.5 1.5,7.54415588 1.5,15 C1.5,22.4558441 7.54415588,28.5 15,28.5 C22.4558441,28.5 28.5,22.4558441 28.5,15 C28.4509197,7.56458048 22.4354195,1.54908028 15,1.5 Z" id="Shape" fill-rule="nonzero"></path>
                    <path d="M25.35,15 C25.347413,15.127168 25.3111842,15.2513811 25.245,15.36 L25.245,15.36 C25.1775629,15.4585473 25.0840926,15.5364393 24.975,15.585 L24.975,15.585 L8.7,22.86 C8.60050091,22.8741551 8.49949909,22.8741551 8.4,22.86 C8.19025537,22.8578787 7.99020452,22.7713703 7.845,22.62 C7.62660044,22.3827321 7.58432083,22.0324153 7.74,21.75 L11.445,15 L7.74,8.19 C7.58313523,7.90806147 7.6241602,7.55739526 7.84186702,7.31927842 C8.05957384,7.08116158 8.40517025,7.00896068 8.7,7.14 L24.9,14.295 L24.9,14.295 C25.0130162,14.3438289 25.1112753,14.4214019 25.185,14.52 L25.185,14.595 C25.2493252,14.7044303 25.2854093,14.8281472 25.29,14.955 L25.35,15 Z M12.75,14.25 L21,14.25 L10.11,9.405 L12.75,14.25 Z M10.11,20.58 L21,15.735 L12.75,15.735 L10.11,20.58 Z" id="Shape" fill-rule="nonzero"></path>
                </g>
            </g>
        </g>
    </g>
</svg>