<?xml version="1.0" encoding="UTF-8"?>
<svg width="30px" height="31px" viewBox="0 0 30 31" version="1.1" xmlns="http://www.w3.org/2000/svg" xmlns:xlink="http://www.w3.org/1999/xlink">
    <!-- Generator: Sketch 62 (91390) - https://sketch.com -->
    <title>Icons/Settings</title>
    <desc>Created with Sketch.</desc>
    <g id="Page-1" stroke="none" stroke-width="1" fill="none" fill-rule="evenodd">
        <g id="Icons" transform="translate(-1191.000000, -1210.000000)" fill="#1B1E24">
            <g id="Icons/Settings" transform="translate(1191.000000, 1210.000000)">
                <g id="Actian-Icon__Settings-30">
                    <path d="M15,22.755 C10.7170318,22.7964213 7.21142147,19.3579682 7.17000012,15.075 C7.12857876,10.7920318 10.5670318,7.28642142 14.85,7.245 L15,7.245 C19.2829682,7.20357864 22.7885786,10.6420318 22.83,14.925 C22.8714214,19.2079682 19.4329682,22.7135786 15.15,22.755 L15,22.755 Z M15,8.745 L14.88,8.745 C11.4041889,8.77802582 8.60855816,11.6137865 8.62499848,15.0897153 C8.64158436,18.5656441 11.464032,21.374715 14.94,21.374715 C18.415968,21.374715 21.2384156,18.5656441 21.2550015,15.0897153 C21.2714418,11.6137865 18.4758111,8.77802582 15,8.745 Z M15,30 C14.4637292,30.0003523 13.9278695,29.9703041 13.395,29.91 C13.1135688,29.8845482 12.8730447,29.696822 12.78,29.43 L11.79,26.835 C10.937926,26.6042049 10.1131742,26.2823506 9.33,25.875 L6.825,27.105 C6.55473484,27.2439052 6.22685494,27.2021751 6,27 C4.99085795,26.2338583 4.0791029,25.3472899 3.285,24.36 C3.10201768,24.1422216 3.06112046,23.8384136 3.18,23.58 L4.335,21.03 C3.93460659,20.2530059 3.58390246,19.4513964 3.285,18.63 L0.615,17.73 C0.345233016,17.6425097 0.147887229,17.4103381 0.105,17.13 C0.0345611878,16.5175299 -0.000497017014,15.9015071 -1.31304126e-12,15.285 C-0.0153017985,14.6536576 0.0147756296,14.0220316 0.09,13.395 C0.115451832,13.1135688 0.30317798,12.8730447 0.57,12.78 L3.24,11.76 L4.17,9.375 L2.895,6.825 C2.76440873,6.5533297 2.80552187,6.23029783 3,6 C3.74646882,4.99758213 4.61860487,4.09519859 5.595,3.315 C5.81585197,3.13700447 6.11941523,3.10197794 6.375,3.225 L8.91,4.365 C9.68017943,3.92922689 10.4948278,3.57721835 11.34,3.315 L12.225,0.66 C12.3124903,0.390233016 12.5446619,0.192887229 12.825,0.15 C13.45149,0.0627662591 14.0825929,0.01267873 14.715,8.77683343e-15 C15.3463424,-0.0153017985 15.9779684,0.0147756296 16.605,0.09 C16.8892492,0.117032163 17.1334911,0.303121231 17.235,0.57 L18.21,3.18 C19.0628194,3.40852757 19.8878132,3.73047638 20.67,4.14 L23.175,2.895 C23.4452652,2.75609476 23.7731451,2.79782492 24,3 C25.0201472,3.75271629 25.9378719,4.63514382 26.73,5.625 C26.9079955,5.84585197 26.9430221,6.14941523 26.82,6.405 L25.62,9 C26.0203934,9.77699413 26.3710975,10.5786036 26.67,11.4 L29.34,12.3 C29.609767,12.3874903 29.8071128,12.6196619 29.85,12.9 C29.934344,13.5016698 29.9844248,14.1076469 30,14.715 C30.0153018,15.3463424 29.9852244,15.9779684 29.91,16.605 C29.8845482,16.8864312 29.696822,17.1269553 29.43,17.22 L26.79,18.225 C26.5241689,19.0581614 26.2086023,19.8746275 25.845,20.67 L27.105,23.175 C27.2355913,23.4466703 27.1944781,23.7697022 27,24 C26.2472837,25.0201472 25.3648562,25.9378719 24.375,26.73 C24.154148,26.9079955 23.8505848,26.9430221 23.595,26.82 L21.045,25.665 C20.2680059,26.0653934 19.4663964,26.4160975 18.645,26.715 L17.745,29.385 C17.6575097,29.654767 17.4253381,29.8521128 17.145,29.895 C16.5185719,29.9827998 15.8874352,30.03289 15.255,30.045 L15,30 Z M14.01,28.5 C14.43,28.5 14.85,28.5 15.255,28.5 C15.66,28.5 16.095,28.5 16.5,28.41 L17.37,25.845 C17.4410286,25.6241343 17.6141343,25.4510286 17.835,25.38 C18.7997102,25.0413991 19.7373916,24.6302233 20.64,24.15 C20.859666,24.0299419 21.125334,24.0299419 21.345,24.15 L23.82,25.26 C24.4413893,24.7038364 25.0043137,24.0856248 25.5,23.415 L24.345,21 C24.2249419,20.780334 24.2249419,20.514666 24.345,20.295 C24.8045846,19.3717882 25.1907776,18.413829 25.5,17.43 C25.5680671,17.2092327 25.7340785,17.0321539 25.95,16.95 L28.5,15.99 C28.5,15.57 28.5,15.165 28.5,14.745 C28.5,14.325 28.5,13.905 28.41,13.5 L25.845,12.63 C25.6241343,12.5589714 25.4510286,12.3858657 25.38,12.165 C25.0413991,11.2002898 24.6302233,10.2626084 24.15,9.36 C24.0299419,9.140334 24.0299419,8.874666 24.15,8.655 L25.26,6.18 C24.7038364,5.55861072 24.0856248,4.9956863 23.415,4.5 L21,5.655 C20.780334,5.77505814 20.514666,5.77505814 20.295,5.655 C19.415599,5.13605956 18.4657674,4.74703278 17.475,4.5 C17.2362559,4.43684958 17.041521,4.26437003 16.95,4.035 L15.99,1.5 C15.5753042,1.47752917 15.1596958,1.47752917 14.745,1.5 C14.3286597,1.50705855 13.9130268,1.5371043 13.5,1.59 L12.63,4.155 C12.5545137,4.39247182 12.3616068,4.57403122 12.12,4.635 C11.1477734,4.90911927 10.2187444,5.31809402 9.36,5.85 C9.140334,5.97005814 8.874666,5.97005814 8.655,5.85 L6.18,4.785 C5.56092219,5.32700695 4.99807521,5.93005729 4.5,6.585 L5.655,9 C5.74488765,9.1951466 5.74488765,9.4198534 5.655,9.615 L4.5,12.63 C4.42696018,12.8239148 4.27391485,12.9769602 4.08,13.05 L1.5,14.01 C1.5,14.43 1.5,14.835 1.5,15.255 C1.50705855,15.6713403 1.5371043,16.0869732 1.59,16.5 L4.155,17.37 C4.37586566,17.4410286 4.54897143,17.6141343 4.62,17.835 C4.95860094,18.7997102 5.36977674,19.7373916 5.85,20.64 C5.97005814,20.859666 5.97005814,21.125334 5.85,21.345 L4.74,23.82 C5.30025094,24.4373227 5.91804216,24.9998643 6.585,25.5 L9,24.36 C9.21428413,24.2397561 9.47571587,24.2397561 9.69,24.36 C10.5729986,24.8789734 11.5285313,25.2632088 12.525,25.5 C12.7706108,25.5565793 12.9725921,25.7305077 13.065,25.965 L14.01,28.5 Z" id="Shape" fill-rule="nonzero"></path>
                </g>
            </g>
        </g>
    </g>
</svg>