<?xml version="1.0" encoding="UTF-8"?>
<svg width="22px" height="30px" viewBox="0 0 22 30" version="1.1" xmlns="http://www.w3.org/2000/svg" xmlns:xlink="http://www.w3.org/1999/xlink">
    <!-- Generator: Sketch 62 (91390) - https://sketch.com -->
    <title>Icons/Sort</title>
    <desc>Created with Sketch.</desc>
    <g id="Page-1" stroke="none" stroke-width="1" fill="none" fill-rule="evenodd">
        <g id="Icons" transform="translate(-1279.000000, -1210.000000)" fill="#1B1E24">
            <g id="Icons/Sort" transform="translate(1275.000000, 1210.000000)">
                <g id="Actian-Icon__Sort-Arrow" transform="translate(4.500000, 0.000000)">
                    <path d="M10.35,1.62 L19.05,11.865 L1.95,11.865 L10.35,1.62 M19.05,18.12 L10.35,28.38 L1.95,18.135 L19.05,18.135 M10.335,-1.16570707e-15 C9.94989312,0.00419576182 9.58680279,0.18023956 9.345,0.48 L0.51,11.235 C0.193738715,11.6224845 0.126767862,12.1566416 0.337580845,12.6102089 C0.548393828,13.0637762 0.999899357,13.3569513 1.5,13.365 L19.5,13.365 C20.0058632,13.3616324 20.4642088,13.0662132 20.6761996,12.6068998 C20.8881904,12.1475864 20.8156315,11.6071344 20.49,11.22 L11.325,0.465 C11.0844002,0.165580725 10.7190625,-0.00601727802 10.335,-1.16570707e-15 Z M19.5,16.635 L1.5,16.635 C0.997191101,16.6373604 0.540462981,16.928382 0.325903527,17.38312 C0.111344073,17.8378579 0.177123262,18.3754147 0.495,18.765 L9.33,29.52 C9.57180279,29.8197604 9.93489312,29.9958042 10.32,30 C10.7040625,30.0060173 11.0694002,29.8344193 11.31,29.535 L20.46,18.78 C20.7824798,18.3970266 20.8574292,17.8633207 20.652906,17.4063393 C20.4483828,16.9493578 20.0004464,16.6496707 19.5,16.635 Z" id="Shape" fill-rule="nonzero"></path>
                </g>
            </g>
        </g>
    </g>
</svg>