<?xml version="1.0" encoding="UTF-8"?>
<svg width="24px" height="30px" viewBox="0 0 24 30" version="1.1" xmlns="http://www.w3.org/2000/svg" xmlns:xlink="http://www.w3.org/1999/xlink">
    <!-- Generator: Sketch 62 (91390) - https://sketch.com -->
    <title>Icons/SQL</title>
    <desc>Created with Sketch.</desc>
    <g id="Page-1" stroke="none" stroke-width="1" fill="none" fill-rule="evenodd">
        <g id="Icons" transform="translate(-1194.000000, -200.000000)" fill="#1B1E24">
            <g id="Icons/.SQL" transform="translate(1191.000000, 200.000000)">
                <g id="Actian-Icon__sql" transform="translate(3.000000, 0.000000)">
                    <path d="M4.41,17.73 L5.07,16.935 C5.36884945,17.1665619 5.69661121,17.3581765 6.045,17.505 C6.36384251,17.6357069 6.70541199,17.7019815 7.05,17.7 C7.42160603,17.7136542 7.78987607,17.6254769 8.115,17.445 C8.36191504,17.317093 8.51779339,17.063069 8.52,16.785 C8.52979856,16.5856648 8.43984093,16.3945048 8.28,16.275 C8.05892675,16.1190048 7.79977577,16.0257104 7.53,16.005 L6.435,15.855 C5.93367527,15.8040429 5.45868651,15.605696 5.07,15.285 C4.76296339,14.992576 4.59403018,14.5838666 4.605,14.16 C4.59273963,13.6336881 4.83936816,13.1348259 5.265,12.825 C5.76639709,12.4660775 6.37403901,12.2864269 6.99,12.315 C7.42769429,12.3101221 7.86330342,12.37597 8.28,12.51 C8.70026146,12.6374689 9.095868,12.8352722 9.45,13.095 L8.85,13.89 C8.54411239,13.680634 8.21102539,13.5140905 7.86,13.395 C7.55505353,13.2947649 7.23599635,13.2441209 6.915,13.245 C6.59042952,13.228636 6.26932342,13.3181246 6,13.5 C5.7879854,13.6259041 5.65715871,13.8534288 5.655,14.1 C5.67156821,14.3117887 5.80453853,14.4967909 6,14.58 C6.22965062,14.7300606 6.49203393,14.8226665 6.765,14.85 L7.875,15 C8.3824764,15.0443645 8.86413597,15.2433108 9.255,15.57 C9.75531147,16.0698442 9.86534263,16.8400623 9.525,17.46 C9.3909082,17.701157 9.20679045,17.9108467 8.985,18.075 C8.73704906,18.2502094 8.46393806,18.3867649 8.175,18.48 C7.84873306,18.5770677 7.51039142,18.6275664 7.17,18.63 C6.66045067,18.629873 6.15415123,18.5488651 5.67,18.39 C5.21013375,18.2563646 4.78170245,18.0319482 4.41,17.73 Z M13.23,18.615 C12.8116502,18.6156457 12.39779,18.5287862 12.015,18.36 C11.649596,18.2065605 11.3182152,17.9822412 11.04,17.7 C10.7560119,17.4116933 10.5317252,17.0701659 10.38,16.695 C10.0604756,15.9009381 10.0604756,15.0140619 10.38,14.22 C10.5282966,13.8474498 10.7531447,13.5101777 11.04,13.23 C11.3105616,12.9418198 11.6372732,12.7121007 12,12.555 C12.3838989,12.3913637 12.7977155,12.3096221 13.215,12.315 C13.5509419,12.3111112 13.8852883,12.3617697 14.205,12.465 C14.5164056,12.5693916 14.8098532,12.7211748 15.075,12.915 L15.075,12.405 L16.26,12.405 L16.26,21 L15.06,21 L15.06,18 C14.8043138,18.2111164 14.515397,18.378384 14.205,18.495 C13.8878517,18.5836431 13.5591776,18.6240953 13.23,18.615 Z M11.325,15.45 C11.3100582,16.0112634 11.5271019,16.5538726 11.925,16.95 C12.3096903,17.3663899 12.858727,17.5914949 13.425,17.565 C13.7553047,17.5698483 14.0827634,17.5033333 14.385,17.37 C14.6684101,17.2491688 14.9199836,17.0643393 15.12,16.83 L15.12,14.07 C14.9092036,13.8410051 14.6540307,13.6572806 14.37,13.53 C14.069481,13.4098745 13.748636,13.3487611 13.425,13.35 C12.8617697,13.3237316 12.3147403,13.5425433 11.925,13.95 C11.5224406,14.34303 11.3045466,14.8877649 11.325,15.45 Z M18.51,9.855 L18.51,18.51 L17.31,18.51 L17.31,10.11 L18.51,9.855 Z" id="Shape" fill-rule="nonzero"></path>
                    <path d="M22.815,6.81 C22.815,6.81 22.815,6.81 22.815,6.81 L16.5,0.42 L16.5,0.42 L16.065,-2.24060863e-07 L2.91,-2.24060863e-07 C2.38623924,-2.24060863e-07 1.8847485,0.211829207 1.52009044,0.587794491 C1.15543239,0.963759775 0.958759294,1.47149104 0.975,1.995 L0.975,28.11 C1.00722359,29.1576589 1.86187294,29.9924327 2.91,29.9999998 L21.195,29.9999998 C22.2685553,29.9918357 23.1368357,29.1235553 23.145,28.05 L23.145,7.05 L22.815,6.81 Z M16.68,2.79 L20.4,6.525 L16.68,6.525 L16.68,2.79 Z M21.645,28.11 C21.6372091,28.3552286 21.4402286,28.5522091 21.195,28.56 L2.91,28.56 C2.66734868,28.5519072 2.47486508,28.3527862 2.475,28.11 L2.475,1.995 C2.45753698,1.86964562 2.49553535,1.74290137 2.5790827,1.64783025 C2.66263004,1.55275913 2.78344088,1.49878947 2.91,1.49998006 L15.18,1.49998006 L15.18,7.275 C15.18,7.68921356 15.5157864,8.025 15.93,8.025 L21.645,8.025 L21.645,28.11 Z" id="Shape" fill-rule="nonzero"></path>
                </g>
            </g>
        </g>
    </g>
</svg>