<?xml version="1.0" encoding="UTF-8"?>
<svg width="31px" height="30px" viewBox="0 0 31 30" version="1.1" xmlns="http://www.w3.org/2000/svg" xmlns:xlink="http://www.w3.org/1999/xlink">
    <!-- Generator: Sketch 62 (91390) - https://sketch.com -->
    <title>Icons/Sunday</title>
    <desc>Created with Sketch.</desc>
    <g id="Page-1" stroke="none" stroke-width="1" fill="none" fill-rule="evenodd">
        <g id="Icons" transform="translate(-769.000000, -1312.000000)" fill="#1B1E24">
            <g id="Icons/Sunday" transform="translate(769.500000, 1312.000000)">
                <g id="Actian-Icon__Sunday">
                    <path d="M15,30 C6.71572875,30 0,23.2842712 0,15 C0,6.71572875 6.71572875,0 15,0 C23.2842712,0 30,6.71572875 30,15 C29.950858,23.2638304 23.2638304,29.950858 15,30 Z M15,1.5 C7.54415588,1.5 1.5,7.54415588 1.5,15 C1.5,22.4558441 7.54415588,28.5 15,28.5 C22.4558441,28.5 28.5,22.4558441 28.5,15 C28.4509197,7.56458048 22.4354195,1.54908028 15,1.5 Z" id="Shape" fill-rule="nonzero"></path>
                    <path d="M6.915,19.035 C7.81551039,19.5982201 8.85297903,19.9042734 9.915,19.92 C11.655,19.92 12.675,18.975 12.675,17.61 C12.675,16.245 12,15.63 10.23,15 C8.085,14.145 6.75,12.99 6.75,11.085 C6.78078919,10.0180803 7.25770816,9.0129998 8.06467957,8.31438497 C8.87165098,7.61577015 9.93466696,7.28769146 10.995,7.41 C12.0059382,7.37268159 13.0090788,7.60019802 13.905,8.07 L13.5,9.495 C12.7205001,9.06203995 11.8416103,8.83973254 10.95,8.85 C9.15,8.85 8.475,9.96 8.475,10.89 C8.475,12.15 9.27,12.765 11.085,13.5 C13.305,14.385 14.43,15.48 14.43,17.475 C14.43,19.47 12.93,21.375 9.84,21.375 C8.66287907,21.3863513 7.5036913,21.0862045 6.48,20.505 L6.915,19.035 Z M23.415,18.585 C23.415,19.56 23.415,20.415 23.415,21.15 L21.915,21.15 L21.81,19.65 L21.81,19.65 C21.1573832,20.749529 19.9685528,21.4182461 18.69,21.405 C17.19,21.405 15.42,20.58 15.42,17.265 L15.42,11.715 L17.145,11.715 L17.145,16.935 C17.145,18.735 17.685,19.935 19.245,19.935 C20.2291099,19.9233566 21.1152187,19.3365296 21.51,18.435 C21.615563,18.1521528 21.6664643,17.8518349 21.66,17.55 L21.66,11.715 L23.385,11.715 L23.415,18.585 Z" id="Shape" fill-rule="nonzero"></path>
                </g>
            </g>
        </g>
    </g>
</svg>