<?xml version="1.0" encoding="UTF-8"?>
<svg width="30px" height="30px" viewBox="0 0 30 30" version="1.1" xmlns="http://www.w3.org/2000/svg" xmlns:xlink="http://www.w3.org/1999/xlink">
    <!-- Generator: Sketch 62 (91390) - https://sketch.com -->
    <title>Icons/Support</title>
    <desc>Created with Sketch.</desc>
    <g id="Page-1" stroke="none" stroke-width="1" fill="none" fill-rule="evenodd">
        <g id="Icons" transform="translate(-848.000000, -1312.000000)" fill="#1B1E24">
            <g id="Icons/Support" transform="translate(848.000000, 1312.000000)">
                <g id="Actian-Icon__Support">
                    <path d="M25.605,25.605 C21.3153864,29.8959092 14.8632636,31.1800759 9.25759163,28.8586263 C3.65191964,26.5371768 -0.00320319375,21.0673459 -0.00320319375,15 C-0.00320319375,8.93265409 3.65191964,3.4628232 9.25759163,1.14137366 C14.8632636,-1.18007587 21.3153864,0.104090781 25.605,4.395 C31.4607291,10.2524978 31.4607291,19.7475022 25.605,25.605 Z M24.105,5.085 L21.24,7.995 C21.5240799,8.21916007 21.7808399,8.47592007 22.005,8.76 L24.915,5.85 C24.78,5.73 24.675,5.58 24.54,5.46 C24.405,5.34 24.27,5.22 24.15,5.085 L24.105,5.085 Z M22.9050657,15 C22.9180369,11.7949736 20.990962,8.90052479 18.0289583,7.67622992 C15.0669546,6.45193504 11.6586545,7.14109557 9.405,9.42 C6.3232511,12.5017489 6.3232511,17.4982511 9.405,20.58 C12.4867489,23.6617489 17.4832511,23.6617489 20.565,20.58 C22.0654911,19.1116118 22.909308,17.099433 22.9050657,15 Z M7.02,4.125 L10.02,7.125 C13.0941667,5.165 17.0258333,5.165 20.1,7.125 L23.1,4.125 C18.3246105,0.584654214 11.7953895,0.584654214 7.02,4.125 Z M5.085,5.85 L7.995,8.76 C8.21916007,8.47592007 8.47592007,8.21916007 8.76,7.995 L5.85,5.085 C5.73,5.22 5.58,5.325 5.46,5.46 C5.34,5.595 5.22,5.73 5.085,5.85 Z M7.065,20.04 C5.105,16.9658333 5.105,13.0341667 7.065,9.96 L4.065,6.96 C0.583622524,11.7104516 0.583622524,18.1695484 4.065,22.92 L7.065,20.04 Z M5.85,24.915 L8.76,22.005 C8.47592007,21.7808399 8.21916007,21.5240799 7.995,21.24 L5.085,24.15 C5.22,24.27 5.325,24.42 5.46,24.54 C5.595,24.66 5.73,24.78 5.85,24.915 Z M22.98,25.875 L19.98,22.875 C16.9058333,24.835 12.9741667,24.835 9.9,22.875 L6.9,25.875 C11.6753895,29.4153458 18.2046105,29.4153458 22.98,25.875 L22.98,25.875 Z M24.915,24.15 L22.005,21.24 C21.7808399,21.5240799 21.5240799,21.7808399 21.24,22.005 L24.15,24.915 C24.27,24.78 24.42,24.675 24.54,24.54 C24.66,24.405 24.78,24.27 24.915,24.15 Z M25.875,22.98 C29.3563775,18.2295484 29.3563775,11.7704516 25.875,7.02 L22.875,10.02 C24.835,13.0941667 24.835,17.0258333 22.875,20.1 L25.875,22.98 Z" id="Shape" fill-rule="nonzero"></path>
                </g>
            </g>
        </g>
    </g>
</svg>