<?xml version="1.0" encoding="UTF-8"?>
<svg width="30px" height="30px" viewBox="0 0 30 30" version="1.1" xmlns="http://www.w3.org/2000/svg" xmlns:xlink="http://www.w3.org/1999/xlink">
    <!-- Generator: Sketch 62 (91390) - https://sketch.com -->
    <title>Icons/Thursday</title>
    <desc>Created with Sketch.</desc>
    <g id="Page-1" stroke="none" stroke-width="1" fill="none" fill-rule="evenodd">
        <g id="Icons" transform="translate(-934.000000, -1312.000000)" fill="#1B1E24">
            <g id="Icons/Thursday" transform="translate(934.000000, 1312.000000)">
                <g id="Actian-Icon__Thursday">
                    <path d="M15,30 C6.71572875,30 0,23.2842712 0,15 C0,6.71572875 6.71572875,0 15,0 C23.2842712,0 30,6.71572875 30,15 C29.950858,23.2638304 23.2638304,29.950858 15,30 Z M15,1.5 C7.54415588,1.5 1.5,7.54415588 1.5,15 C1.5,22.4558441 7.54415588,28.5 15,28.5 C22.4558441,28.5 28.5,22.4558441 28.5,15 C28.4509197,7.56458048 22.4354195,1.54908028 15,1.5 Z" id="Shape" fill-rule="nonzero"></path>
                    <path d="M9.66,9.72 L5.67,9.72 L5.67,8.22 L15.405,8.22 L15.405,9.72 L11.385,9.72 L11.385,21.93 L9.66,21.93 L9.66,9.72 Z M16.29,8.22 L18,8.22 L18,14.04 L18,14.04 C18.2995958,13.5405747 18.7233306,13.1271749 19.23,12.84 C19.7689319,12.5305151 20.3785489,12.3651953 21,12.36 C22.275,12.36 24.3,13.14 24.3,16.365 L24.3,21.93 L22.62,21.93 L22.62,16.5 C22.62,15 22.05,13.71 20.43,13.71 C19.3764561,13.7259439 18.4516251,14.4150336 18.135,15.42 C18.0362892,15.6779868 17.995328,15.954475 18.015,16.23 L18.015,21.87 L16.29,21.87 L16.29,8.22 Z" id="Shape" fill-rule="nonzero"></path>
                </g>
            </g>
        </g>
    </g>
</svg>