<?xml version="1.0" encoding="UTF-8"?>
<svg width="30px" height="30px" viewBox="0 0 30 30" version="1.1" xmlns="http://www.w3.org/2000/svg" xmlns:xlink="http://www.w3.org/1999/xlink">
    <!-- Generator: Sketch 62 (91390) - https://sketch.com -->
    <title>Icons/Time</title>
    <desc>Created with Sketch.</desc>
    <g id="Page-1" stroke="none" stroke-width="1" fill="none" fill-rule="evenodd">
        <g id="Icons" transform="translate(-1021.000000, -1312.000000)" fill="#1B1E24">
            <g id="Icons/Time" transform="translate(1021.000000, 1312.000000)">
                <g id="Actian-Icon__Time">
                    <path d="M15,1.5 C22.4558441,1.5 28.5,7.54415588 28.5,15 C28.5,22.4558441 22.4558441,28.5 15,28.5 C7.54415588,28.5 1.5,22.4558441 1.5,15 C1.5,7.54415588 7.54415588,1.5 15,1.5 M15,0 C6.71572875,0 0,6.71572875 0,15 C0,23.2842712 6.71572875,30 15,30 C23.2842712,30 30,23.2842712 30,15 C30,11.0217527 28.4196474,7.20644396 25.6066017,4.39339828 C22.793556,1.58035261 18.9782473,0 15,0 Z M24.75,17.25 C24.75,17.0510876 24.6709824,16.8603222 24.5303301,16.7196699 C24.3896778,16.5790176 24.1989124,16.5 24,16.5 L14.625,16.5 L14.625,6.75 C14.625,6.33578644 14.2892136,6 13.875,6 C13.4607864,6 13.125,6.33578644 13.125,6.75 L13.125,17.25 C13.125,17.6642136 13.4607864,18 13.875,18 L24,18 C24.4142136,18 24.75,17.6642136 24.75,17.25 L24.75,17.25 Z" id="Shape" fill-rule="nonzero"></path>
                </g>
            </g>
        </g>
    </g>
</svg>