<?xml version="1.0" encoding="UTF-8"?>
<svg width="30px" height="30px" viewBox="0 0 30 30" version="1.1" xmlns="http://www.w3.org/2000/svg" xmlns:xlink="http://www.w3.org/1999/xlink">
    <!-- Generator: Sketch 62 (91390) - https://sketch.com -->
    <title>Icons/Total Jobs</title>
    <desc>Created with Sketch.</desc>
    <g id="Page-1" stroke="none" stroke-width="1" fill="none" fill-rule="evenodd">
        <g id="Icons" transform="translate(-1106.000000, -1312.000000)" fill="#1B1E24">
            <g id="Icons/Total-Jobs" transform="translate(1106.000000, 1312.000000)">
                <g id="Actian-Icon__Total-Jobs-">
                    <path d="M15,1.5 C22.4558441,1.5 28.5,7.54415588 28.5,15 C28.5,22.4558441 22.4558441,28.5 15,28.5 C7.54415588,28.5 1.5,22.4558441 1.5,15 C1.5,7.54415588 7.54415588,1.5 15,1.5 M15,0 C6.71572875,0 0,6.71572875 0,15 C0,23.2842712 6.71572875,30 15,30 C23.2842712,30 30,23.2842712 30,15 C30,11.0217527 28.4196474,7.20644396 25.6066017,4.39339828 C22.793556,1.58035261 18.9782473,0 15,0 Z" id="Shape" fill-rule="nonzero"></path>
                    <path d="M25.02,13.11 L25.02,19.32 C25.0160699,20.3794762 24.5893439,21.3935438 23.8345645,22.1370579 C23.0797851,22.880572 22.0594155,23.2920014 21,23.28 L9,23.28 C6.81636824,23.2717753 5.04822469,21.5036318 5.04,19.32 L5.04,13.11 C5.04,10.9229524 6.81295239,9.15 9,9.15 L11.22,9.15 L11.22,7.98 C11.1690045,6.89163997 12.0069163,5.96658533 13.095,5.91 L16.905,5.91 C17.9930837,5.96658533 18.8309955,6.89163997 18.78,7.98 L18.78,9.15 L21,9.15 C22.0606144,9.13392823 23.0833388,9.54403545 23.8390106,10.2884286 C24.5946825,11.0328218 25.02,12.0492639 25.02,13.11 Z M9.885,21.78 L20.115,21.78 L20.115,10.65 L9.885,10.65 L9.885,21.78 Z M12.72,9.15 L17.22,9.15 L17.22,7.98 C17.22,7.65 17.025,7.41 16.845,7.41 L13.095,7.41 C12.915,7.41 12.72,7.65 12.72,7.98 L12.72,9.15 Z M8.385,21.705 L8.385,10.725 C7.27391481,10.9822923 6.48536956,11.9695261 6.48,13.11 L6.48,19.32 C6.48536956,20.4604739 7.27391481,21.4477077 8.385,21.705 Z M23.52,13.11 C23.5146304,11.9695261 22.7260852,10.9822923 21.615,10.725 L21.615,21.705 C22.7260852,21.4477077 23.5146304,20.4604739 23.52,19.32 L23.52,13.11 Z" id="Shape" fill-rule="nonzero"></path>
                </g>
            </g>
        </g>
    </g>
</svg>