<?xml version="1.0" encoding="UTF-8"?>
<svg width="23px" height="28px" viewBox="0 0 23 28" version="1.1" xmlns="http://www.w3.org/2000/svg" xmlns:xlink="http://www.w3.org/1999/xlink">
    <!-- Generator: Sketch 62 (91390) - https://sketch.com -->
    <title>Icons/Trash</title>
    <desc>Created with Sketch.</desc>
    <g id="Page-1" stroke="none" stroke-width="1" fill="none" fill-rule="evenodd">
        <g id="Icons" transform="translate(-1194.000000, -1313.000000)">
            <g id="Icons/Trash" transform="translate(1191.000000, 1312.000000)">
                <g>
                    <rect id="Rectangle" fill-rule="nonzero" x="0" y="0" width="30" height="30"></rect>
                    <g id="Actian-Icon_Trash" transform="translate(3.000000, 0.000000)" fill="#1B1E24" fill-rule="nonzero">
                        <path d="M19.9090909,4.85454545 L16.0363636,4.85454545 L16.0363636,3.49090909 C16.0363636,2.21061263 14.9984783,1.17272727 13.7181818,1.17272727 L8.61818182,1.17272727 C7.33788535,1.17272727 6.3,2.21061263 6.3,3.49090909 L6.3,4.85454545 L2.42727273,4.85454545 C1.14477363,4.86204558 0.109088545,5.90384261 0.109088545,7.18636364 L0.109088545,7.52727273 C0.10735077,8.75361081 1.06630991,9.76651141 2.29090909,9.83181818 L2.29090909,26.0318182 C2.29090909,27.5380493 3.51195068,28.7590909 5.01818182,28.7590909 L17.3727273,28.7590909 C18.096045,28.7590909 18.7897375,28.4717541 19.3012003,27.9602912 C19.8126632,27.4488284 20.1,26.7551359 20.1,26.0318182 L20.1,9.83181818 C21.3245992,9.76651141 22.2835583,8.75361081 22.2818205,7.52727273 L22.2818205,7.18636364 C22.2818205,6.56077335 22.0306338,5.96138137 21.5844449,5.52288541 C21.138256,5.08438945 20.5345849,4.84357018 19.9090909,4.85454545 Z M7.63636364,3.49090909 C7.63636364,2.96372819 8.06372819,2.53636364 8.59090909,2.53636364 L13.6909091,2.53636364 C14.21809,2.53636364 14.6454545,2.96372819 14.6454545,3.49090909 L14.6454545,4.85454545 L7.66363636,4.85454545 L7.63636364,3.49090909 Z M18.6818182,26.0318182 C18.6818182,26.7849337 18.0712974,27.3954545 17.3181818,27.3954545 L4.99090909,27.3954545 C4.23779352,27.3954545 3.62727273,26.7849337 3.62727273,26.0318182 L3.62727273,9.91363636 L18.6272727,9.91363636 L18.6818182,26.0318182 Z M20.8637339,7.52727273 C20.8637339,7.78043392 20.7630685,8.02322629 20.5840565,8.20223829 C20.4050445,8.38125029 20.1622521,8.48181818 19.9090909,8.48181818 L2.42727273,8.48181818 C1.90009183,8.48181818 1.47262973,8.05445362 1.47262973,7.52727273 L1.47262973,7.18636364 C1.46907668,6.93084806 1.56803066,6.68453774 1.74743986,6.50256555 C1.92684906,6.32059336 2.17173107,6.21815574 2.42727273,6.21818181 L19.9090909,6.21818181 C20.1646326,6.21815574 20.4095146,6.32059336 20.5889238,6.50256555 C20.768333,6.68453774 20.867287,6.93084806 20.8637339,7.18636364 L20.8637339,7.52727273 Z M10.9090909,25.6636366 C10.5325331,25.6636366 10.2272727,25.358376 10.2272727,24.9818182 L10.2272727,12.2727273 C10.2272727,11.8961695 10.5325331,11.5909091 10.9090909,11.5909091 C11.2856487,11.5909091 11.5909091,11.8961695 11.5909091,12.2727273 L11.5909091,24.9545455 C11.5983354,25.1400524 11.5297931,25.3205659 11.4011137,25.4543925 C11.2724342,25.5882192 11.0947464,25.6637849 10.9090909,25.6636366 L10.9090909,25.6636366 Z M15,25.6636366 C14.6234422,25.6636366 14.3181818,25.358376 14.3181818,24.9818182 L14.3181818,12.2727273 C14.3254365,11.8992157 14.6264885,11.5981638 15,11.5909091 C15.3765578,11.5909091 15.6818182,11.8961695 15.6818182,12.2727273 L15.6818182,24.9545455 C15.6892445,25.1400524 15.6207022,25.3205659 15.4920228,25.4543925 C15.3633433,25.5882192 15.1856554,25.6637849 15,25.6636366 L15,25.6636366 Z M6.99545455,25.6636364 C6.61889676,25.6636364 6.31363636,25.358376 6.31363636,24.9818182 L6.31363636,12.2727273 C6.31363636,11.8961695 6.61889676,11.5909091 6.99545455,11.5909091 C7.37201233,11.5909091 7.67727273,11.8961695 7.67727273,12.2727273 L7.67727273,24.9545455 C7.6853508,25.1473793 7.61132423,25.3346027 7.47355702,25.4697705 C7.33578981,25.6049384 7.14719046,25.6753857 6.95454545,25.6636364 L6.99545455,25.6636364 Z" id="Shape"></path>
                    </g>
                </g>
            </g>
        </g>
    </g>
</svg>