<?xml version="1.0" encoding="UTF-8"?>
<svg width="20px" height="20px" viewBox="0 0 20 20" version="1.1" xmlns="http://www.w3.org/2000/svg" xmlns:xlink="http://www.w3.org/1999/xlink">
    <!-- Generator: Sketch 62 (91390) - https://sketch.com -->
    <title>Artboard</title>
    <desc>Created with Sketch.</desc>
    <g id="Artboard" stroke="none" stroke-width="1" fill="none" fill-rule="evenodd">
        <path d="M15.2727273,3.23636364 L12.6909091,3.23636364 L12.6909091,2.32727273 C12.6909091,1.47374175 11.9989855,0.781818182 11.1454545,0.781818182 L7.74545455,0.781818182 C6.89192357,0.781818182 6.2,1.47374175 6.2,2.32727273 L6.2,3.23636364 L3.61818182,3.23636364 C2.76318242,3.24136372 2.07272412,3.93589507 2.07272412,4.79090909 L2.07272412,5.01818182 C2.07156718,5.83574054 2.71087327,6.5110076 3.52727273,6.55454545 L3.52727273,17.3545455 C3.52727273,18.3586995 4.34130045,19.1727273 5.34545455,19.1727273 L13.5818182,19.1727273 C14.06403,19.1727273 14.5264916,18.9811694 14.8674669,18.6401941 C15.2084421,18.2992189 15.4,17.8367573 15.4,17.3545455 L15.4,6.55454545 C16.2163995,6.5110076 16.8557055,5.83574054 16.8545486,5.01818182 L16.8545486,4.79090909 C16.8545486,4.3738489 16.6870892,3.97425424 16.3896299,3.6819236 C16.0921707,3.38959297 15.6897233,3.22904679 15.2727273,3.23636364 Z M7.09090909,2.32727273 C7.09090909,1.9758188 7.3758188,1.69090909 7.72727273,1.69090909 L11.1272727,1.69090909 C11.4787267,1.69090909 11.7636364,1.9758188 11.7636364,2.32727273 L11.7636364,3.23636364 L7.10909091,3.23636364 L7.09090909,2.32727273 Z M14.4545455,17.3545455 C14.4545455,17.8566225 14.0475316,18.2636364 13.5454545,18.2636364 L5.32727273,18.2636364 C4.82519568,18.2636364 4.41818182,17.8566225 4.41818182,17.3545455 L4.41818182,6.60909091 L14.4181818,6.60909091 L14.4545455,17.3545455 Z M15.9092176,5.01818182 C15.9092176,5.18695595 15.8420456,5.34881753 15.7227043,5.46815886 C15.603363,5.58750019 15.4415014,5.65454545 15.2727273,5.65454545 L3.61818182,5.65454545 C3.26672789,5.65454545 2.9816915,5.36963575 2.9816915,5.01818182 L2.9816915,4.79090909 C2.97938445,4.62056537 3.04535377,4.45635849 3.16495991,4.3350437 C3.28456604,4.21372891 3.44782071,4.14543716 3.61818182,4.14545454 L15.2727273,4.14545454 C15.4430884,4.14543716 15.6063431,4.21372891 15.7259492,4.3350437 C15.8455553,4.45635849 15.9115246,4.62056537 15.9092176,4.79090909 L15.9092176,5.01818182 Z M9.27272727,17.1090912 C9.02168875,17.1090912 8.81818182,16.905584 8.81818182,16.6545455 L8.81818182,8.18181818 C8.81818182,7.93077966 9.02168875,7.72727273 9.27272727,7.72727273 C9.5237658,7.72727273 9.72727273,7.93077966 9.72727273,8.18181818 L9.72727273,16.6363636 C9.73222358,16.7600349 9.68652875,16.8803773 9.60074245,16.969595 C9.51495615,17.0588128 9.39649757,17.10919 9.27272727,17.1090912 L9.27272727,17.1090912 Z M12,17.1090912 C11.7489615,17.1090912 11.5454546,16.905584 11.5454546,16.6545455 L11.5454546,8.18181818 C11.550291,7.9328105 11.7509923,7.73210919 12,7.72727273 C12.2510385,7.72727273 12.4545455,7.93077966 12.4545455,8.18181818 L12.4545455,16.6363636 C12.4594963,16.7600349 12.4138015,16.8803773 12.3280152,16.969595 C12.2422289,17.0588128 12.1237703,17.10919 12,17.1090912 L12,17.1090912 Z M6.66363636,17.1090909 C6.41259784,17.1090909 6.20909091,16.905584 6.20909091,16.6545455 L6.20909091,8.18181818 C6.20909091,7.93077966 6.41259784,7.72727273 6.66363636,7.72727273 C6.91467489,7.72727273 7.11818182,7.93077966 7.11818182,8.18181818 L7.11818182,16.6363636 C7.1235672,16.7649195 7.07421615,16.8897351 6.98237135,16.979847 C6.89052654,17.0699589 6.76479364,17.1169238 6.63636364,17.1090909 L6.66363636,17.1090909 Z" id="Shape" fill="#FFFFFF" fill-rule="nonzero"></path>
    </g>
</svg>