<?xml version="1.0" encoding="UTF-8"?>
<svg width="20px" height="20px" viewBox="0 0 20 20" version="1.1" xmlns="http://www.w3.org/2000/svg" xmlns:xlink="http://www.w3.org/1999/xlink">
    <!-- Generator: Sketch 62 (91390) - https://sketch.com -->
    <title>Artboard</title>
    <desc>Created with Sketch.</desc>
    <g id="Artboard" stroke="none" stroke-width="1" fill="none" fill-rule="evenodd">
        <path d="M16.2000047,3.45454546 L13.6181865,3.45454546 L13.6181865,2.54545455 C13.6181865,1.69192357 12.926263,1 12.072732,1 L8.67273199,1 C7.81920101,1 7.12727744,1.69192357 7.12727744,2.54545455 L7.12727744,3.45454546 L4.54545926,3.45454546 C3.69045986,3.45954554 3.00000157,4.15407689 3.00000157,5.00909091 L3.00000157,5.23636364 C2.99884462,6.05392236 3.63815072,6.72918942 4.45455017,6.77272727 L4.45455017,17.5727273 C4.45455017,18.5768813 5.26857789,19.3909091 6.27273199,19.3909091 L14.5090956,19.3909091 C14.9913074,19.3909091 15.453769,19.1993512 15.7947443,18.8583759 C16.1357195,18.5174007 16.3272774,18.0549391 16.3272774,17.5727273 L16.3272774,6.77272727 C17.1436769,6.72918942 17.7829829,6.05392236 17.781826,5.23636364 L17.781826,5.00909091 C17.781826,4.59203072 17.6143666,4.19243606 17.3169073,3.90010542 C17.0194481,3.60777479 16.6170007,3.44722861 16.2000047,3.45454546 Z M8.01818653,2.54545455 C8.01818653,2.19400062 8.30309624,1.90909091 8.65455017,1.90909091 L12.0545502,1.90909091 C12.4060041,1.90909091 12.6909138,2.19400062 12.6909138,2.54545455 L12.6909138,3.45454546 L8.03636835,3.45454546 L8.01818653,2.54545455 Z M15.3818229,17.5727273 C15.3818229,18.0748043 14.974809,18.4818182 14.4727319,18.4818182 L6.25455017,18.4818182 C5.75247312,18.4818182 5.34545926,18.0748043 5.34545926,17.5727273 L5.34545926,6.82727273 L15.3454593,6.82727273 L15.3818229,17.5727273 Z M16.836495,5.23636364 C16.836495,5.40513777 16.769323,5.56699935 16.6499817,5.68634068 C16.5306404,5.80568201 16.3687788,5.87272727 16.2000047,5.87272727 L4.54545926,5.87272727 C4.19400533,5.87272727 3.90896895,5.58781757 3.90896895,5.23636364 L3.90896895,5.00909091 C3.90666189,4.83874719 3.97263121,4.67454031 4.09223735,4.55322552 C4.21184348,4.43191073 4.37509815,4.36361898 4.54545926,4.36363635 L16.2000047,4.36363635 C16.3703658,4.36361898 16.5336205,4.43191073 16.6532266,4.55322552 C16.7728327,4.67454031 16.838802,4.83874719 16.836495,5.00909091 L16.836495,5.23636364 Z M10.2000047,17.3272731 C9.94896619,17.3272731 9.74545926,17.1237658 9.74545926,16.8727273 L9.74545926,8.4 C9.74545926,8.14896148 9.94896619,7.94545455 10.2000047,7.94545455 C10.4510432,7.94545455 10.6545502,8.14896148 10.6545502,8.4 L10.6545502,16.8545454 C10.659501,16.9782167 10.6138062,17.0985591 10.5280199,17.1877768 C10.4422336,17.2769946 10.323775,17.3273718 10.2000047,17.3272731 L10.2000047,17.3272731 Z M12.9272774,17.3272731 C12.6762389,17.3272731 12.472732,17.1237658 12.472732,16.8727273 L12.472732,8.4 C12.4775685,8.15099232 12.6782698,7.95029101 12.9272774,7.94545455 C13.1783159,7.94545455 13.3818229,8.14896148 13.3818229,8.4 L13.3818229,16.8545454 C13.3867737,16.9782167 13.3410789,17.0985591 13.2552926,17.1877768 C13.1695063,17.2769946 13.0510477,17.3273718 12.9272774,17.3272731 L12.9272774,17.3272731 Z M7.5909138,17.3272727 C7.33987528,17.3272727 7.13636835,17.1237658 7.13636835,16.8727273 L7.13636835,8.4 C7.13636835,8.14896148 7.33987528,7.94545455 7.5909138,7.94545455 C7.84195233,7.94545455 8.04545926,8.14896148 8.04545926,8.4 L8.04545926,16.8545454 C8.05084464,16.9831013 8.00149359,17.1079169 7.90964879,17.1980288 C7.81780398,17.2881407 7.69207108,17.3351056 7.56364108,17.3272727 L7.5909138,17.3272727 Z" id="Shape" fill="#FF4A41" fill-rule="nonzero"></path>
    </g>
</svg>