<?xml version="1.0" encoding="UTF-8"?>
<svg width="30px" height="30px" viewBox="0 0 30 30" version="1.1" xmlns="http://www.w3.org/2000/svg" xmlns:xlink="http://www.w3.org/1999/xlink">
    <!-- Generator: Sketch 62 (91390) - https://sketch.com -->
    <title>Icons/Tuesday</title>
    <desc>Created with Sketch.</desc>
    <g id="Page-1" stroke="none" stroke-width="1" fill="none" fill-rule="evenodd">
        <g id="Icons" transform="translate(-1275.000000, -1312.000000)" fill="#1B1E24">
            <g id="Icons/Tuesday" transform="translate(1275.000000, 1312.000000)">
                <g id="Actian-Icon__Tuesday">
                    <path d="M15,30 C6.71572875,30 0,23.2842712 0,15 C0,6.71572875 6.71572875,0 15,0 C23.2842712,0 30,6.71572875 30,15 C29.950858,23.2638304 23.2638304,29.950858 15,30 Z M15,1.5 C7.54415588,1.5 1.5,7.54415588 1.5,15 C1.5,22.4558441 7.54415588,28.5 15,28.5 C22.4558441,28.5 28.5,22.4558441 28.5,15 C28.4509197,7.56458048 22.4354195,1.54908028 15,1.5 Z" id="Shape" fill-rule="nonzero"></path>
                    <polygon id="Path" fill-rule="nonzero" points="14.13 9.87 10.14 9.87 10.14 8.37 19.86 8.37 19.86 9.87 15.855 9.87 15.855 21.57 14.13 21.57"></polygon>
                </g>
            </g>
        </g>
    </g>
</svg>