<?xml version="1.0" encoding="UTF-8"?>
<svg width="24px" height="30px" viewBox="0 0 24 30" version="1.1" xmlns="http://www.w3.org/2000/svg" xmlns:xlink="http://www.w3.org/1999/xlink">
    <!-- Generator: Sketch 62 (91390) - https://sketch.com -->
    <title>Icons/TXT</title>
    <desc>Created with Sketch.</desc>
    <g id="Page-1" stroke="none" stroke-width="1" fill="none" fill-rule="evenodd">
        <g id="Icons" transform="translate(-1278.000000, -200.000000)" fill="#1B1E24">
            <g id="Icons/.TXT" transform="translate(1275.000000, 200.000000)">
                <g id="Actian-Icon__txt" transform="translate(3.000000, 0.000000)">
                    <path d="M5.775,17.88 L5.775,14.28 L4.5,14.28 L4.5,13.275 L5.805,13.275 L5.805,11.775 L6.99,11.49 L6.99,13.275 L8.79,13.275 L8.79,14.28 L6.96,14.28 L6.96,17.595 C6.93563836,17.8345826 7.01167214,18.0735459 7.17,18.255 C7.36688247,18.4052827 7.61358063,18.4750017 7.86,18.45 L8.31,18.45 C8.45473709,18.4289654 8.59599741,18.3886053 8.73,18.33 L8.73,19.35 C8.54814846,19.403381 8.36266072,19.4434865 8.175,19.47 C7.98022557,19.4832645 7.78477443,19.4832645 7.59,19.47 C7.10415464,19.4967404 6.62492492,19.3476467 6.24,19.05 C5.92090802,18.7470719 5.75090518,18.3193228 5.775,17.88 Z M9.09,19.38 L11.46,16.26 L9.18,13.26 L10.59,13.26 L12.09,15.36 L13.665,13.26 L15.03,13.26 L12.765,16.26 L15.18,19.395 L13.77,19.395 L12.09,17.145 L10.5,19.38 L9.09,19.38 Z M16.59,17.88 L16.59,14.28 L15.285,14.28 L15.285,13.275 L16.59,13.275 L16.59,11.775 L17.775,11.49 L17.775,13.275 L19.575,13.275 L19.575,14.28 L17.775,14.28 L17.775,17.595 C17.7506384,17.8345826 17.8266721,18.0735459 17.985,18.255 C18.1804518,18.4081213 18.4283139,18.4781693 18.675,18.45 L19.125,18.45 C19.2697371,18.4289654 19.4109974,18.3886053 19.545,18.33 L19.545,19.35 C19.3631485,19.403381 19.1776607,19.4434865 18.99,19.47 C18.7952256,19.4832645 18.5997744,19.4832645 18.405,19.47 C17.9191546,19.4967404 17.4399249,19.3476467 17.055,19.05 C16.7578346,18.7365061 16.61024,18.3101219 16.65,17.88 L16.59,17.88 Z" id="Shape" fill-rule="nonzero"></path>
                    <path d="M22.815,6.81 C22.815,6.81 22.815,6.81 22.815,6.81 L16.5,0.42 L16.5,0.42 L16.065,-2.24060863e-07 L2.91,-2.24060863e-07 C2.38623924,-2.24060863e-07 1.8847485,0.211829207 1.52009044,0.587794491 C1.15543239,0.963759775 0.958759294,1.47149104 0.975,1.995 L0.975,28.11 C1.00722359,29.1576589 1.86187294,29.9924327 2.91,29.9999998 L21.195,29.9999998 C22.2685553,29.9918357 23.1368357,29.1235553 23.145,28.05 L23.145,7.05 L22.815,6.81 Z M16.68,2.79 L20.4,6.525 L16.68,6.525 L16.68,2.79 Z M21.645,28.11 C21.6372091,28.3552286 21.4402286,28.5522091 21.195,28.56 L2.91,28.56 C2.66734868,28.5519072 2.47486508,28.3527862 2.475,28.11 L2.475,1.995 C2.45753698,1.86964562 2.49553535,1.74290137 2.5790827,1.64783025 C2.66263004,1.55275913 2.78344088,1.49878947 2.91,1.49998006 L15.18,1.49998006 L15.18,7.275 C15.18,7.68921356 15.5157864,8.025 15.93,8.025 L21.645,8.025 L21.645,28.11 Z" id="Shape" fill-rule="nonzero"></path>
                </g>
            </g>
        </g>
    </g>
</svg>