<?xml version="1.0" encoding="UTF-8"?>
<svg width="31px" height="20px" viewBox="0 0 31 20" version="1.1" xmlns="http://www.w3.org/2000/svg" xmlns:xlink="http://www.w3.org/1999/xlink">
    <!-- Generator: Sketch 62 (91390) - https://sketch.com -->
    <title>Icons/Up Arrow Sort</title>
    <desc>Created with Sketch.</desc>
    <g id="Page-1" stroke="none" stroke-width="1" fill="none" fill-rule="evenodd">
        <g id="Icons" transform="translate(-847.000000, -1419.000000)" fill="#1B1E24">
            <g id="Icons/Up-Arrow_Sort" transform="translate(847.500000, 1414.000000)">
                <g id="Actian-Icon__Up-Arrow-(Sort)" transform="translate(0.000000, 4.500000)">
                    <path d="M27.48,19.845 L2.52,19.845 C1.53658879,19.8429903 0.650090191,19.2519912 0.27,18.345 C-0.205547675,17.3419245 -0.0147794474,16.1496231 0.75,15.345 L13.2,1.845 C13.6761781,1.37196364 14.3296383,1.12147057 15,1.155 L15,1.155 C15.6800292,1.15855867 16.3274525,1.44690684 16.785,1.95 L29.28,15.45 C30.0447794,16.2546231 30.2355477,17.4469245 29.76,18.45 C29.343927,19.3260331 28.4494059,19.8733389 27.48,19.845 Z M15,2.655 L15,2.655 C14.7256064,2.66034291 14.4675831,2.78660961 14.295,3 L1.845,16.5 L1.845,16.5 C1.52014511,16.853775 1.43752939,17.3671727 1.635,17.805 C1.77484808,18.175114 2.12449878,18.4240178 2.52,18.435 L27.48,18.435 C27.8755012,18.4240178 28.2251519,18.175114 28.365,17.805 C28.5624706,17.3671727 28.4798549,16.853775 28.155,16.5 L15.645,3 C15.4861492,2.8017264 15.2530985,2.67707137 15,2.655 Z" id="Shape" fill-rule="nonzero"></path>
                </g>
            </g>
        </g>
    </g>
</svg>