<?xml version="1.0" encoding="UTF-8"?>
<svg width="31px" height="30px" viewBox="0 0 31 30" version="1.1" xmlns="http://www.w3.org/2000/svg" xmlns:xlink="http://www.w3.org/1999/xlink">
    <!-- Generator: Sketch 62 (91390) - https://sketch.com -->
    <title>Icons/Up</title>
    <desc>Created with Sketch.</desc>
    <g id="Page-1" stroke="none" stroke-width="1" fill="none" fill-rule="evenodd">
        <g id="Icons" transform="translate(-769.000000, -1414.000000)" fill="#1B1E24">
            <g id="Icons/Up-Arrow_In-Circle" transform="translate(769.500000, 1414.000000)">
                <g id="Actian-Icon__Up">
                    <path d="M15,28.5 C7.54415588,28.5 1.5,22.4558441 1.5,15 C1.5,7.54415588 7.54415588,1.5 15,1.5 C22.4558441,1.5 28.5,7.54415588 28.5,15 C28.5,18.5804226 27.0776827,22.0142004 24.5459415,24.5459415 C22.0142004,27.0776827 18.5804226,28.5 15,28.5 M15,30 C23.2842712,30 30,23.2842712 30,15 C30,6.71572875 23.2842712,0 15,0 C6.71572875,0 0,6.71572875 0,15 C0,23.2842712 6.71572875,30 15,30 Z" id="Shape" fill-rule="nonzero"></path>
                    <path d="M23.55,18.48 C23.3472996,18.4795034 23.1530824,18.3985796 23.01,18.255 L15.09,10.32 L6.975,18.27 C6.83675462,18.4110961 6.64753454,18.4906072 6.45,18.4906072 C6.25246546,18.4906072 6.06324538,18.4110961 5.925,18.27 C5.78301551,18.1291751 5.70315126,17.9374782 5.70315126,17.7375 C5.70315126,17.5375218 5.78301551,17.3458249 5.925,17.205 L14.565,8.73 C14.7058249,8.58801551 14.8975218,8.50815126 15.0975,8.50815126 C15.2974782,8.50815126 15.4891751,8.58801551 15.63,8.73 L24.075,17.19 C24.2200158,17.3261 24.302278,17.5161211 24.302278,17.715 C24.302278,17.9138789 24.2200158,18.1039 24.075,18.24 C23.9390288,18.3868398 23.7500113,18.4732478 23.55,18.48 Z" id="Path" fill-rule="nonzero"></path>
                </g>
            </g>
        </g>
    </g>
</svg>