<?xml version="1.0" encoding="UTF-8"?>
<svg width="31px" height="23px" viewBox="0 0 31 23" version="1.1" xmlns="http://www.w3.org/2000/svg" xmlns:xlink="http://www.w3.org/1999/xlink">
    <!-- Generator: Sketch 62 (91390) - https://sketch.com -->
    <title>Icons/Upload Cloud</title>
    <desc>Created with Sketch.</desc>
    <g id="Page-1" stroke="none" stroke-width="1" fill="none" fill-rule="evenodd">
        <g id="Icons" transform="translate(-935.000000, -1416.000000)" fill="#1B1E24">
            <g id="Icons/Upload_Cloud" transform="translate(935.000000, 1414.000000)">
                <g id="Actian-Icon__Upload-Files" transform="translate(0.000000, 1.500000)">
                    <path d="M21.975,20.46 C21.465,20.46 20.94,20.46 20.4,20.46 C19.9891417,20.4203643 19.6838123,20.0619341 19.71,19.65 C19.7252914,19.450842 19.8193953,19.2660112 19.9714492,19.1364838 C20.1235031,19.0069564 20.320944,18.9434343 20.52,18.96 C23.52,19.2 25.905,18.705 27.27,17.46 C27.9406135,16.9104848 28.3797432,16.1286196 28.5,15.27 C28.795396,13.4344186 27.8748118,11.6174761 26.22,10.77 C25.9179406,10.6501917 25.7335676,10.3429034 25.77,10.02 C25.9295962,7.31945055 24.4506763,4.78753982 22.02,3.6 C18.5321449,2.00644773 14.4039951,3.30053858 12.45,6.6 C12.2877028,6.90064719 11.9396392,7.04981731 11.61,6.96 C10.1591744,6.48918169 8.57967786,6.62441256 7.23,7.335 C6.26992387,7.96440676 5.57564008,8.92572276 5.28,10.035 C5.21185815,10.313832 4.99054972,10.5293166 4.71,10.59 C2.86969298,11.035517 1.55503862,12.6573336 1.5,14.55 C1.55310702,16.4004617 2.61934122,18.0718558 4.275,18.9 L9.405,18.9 C9.81921356,18.9 10.155,19.2357864 10.155,19.65 C10.155,20.0642136 9.81921356,20.4 9.405,20.4 L4.08,20.4 C3.98631052,20.4223159 3.88868948,20.4223159 3.795,20.4 C1.51145812,19.3565385 0.0338117821,17.0904247 0,14.58 C0.0246633607,12.1317259 1.6140617,9.97425363 3.945,9.225 C4.39877618,7.90169199 5.28009542,6.76705944 6.45,6 C7.97053462,5.1375446 9.76542884,4.89571753 11.46,5.325 C13.8998505,1.6772192 18.6149079,0.321006453 22.62,2.115 C25.4435968,3.51246808 27.2455612,6.37475228 27.285,9.525 C29.3040819,10.748237 30.3783336,13.0747931 30,15.405 C29.8680856,16.6360753 29.2597174,17.7666711 28.305,18.555 C26.5001447,19.945037 24.2472507,20.6230406 21.975,20.46 L21.975,20.46 Z" id="Path" fill-rule="nonzero"></path>
                    <path d="M20.265,15.105 C20.1130548,15.2332515 19.9156308,15.2944701 19.7177815,15.2746851 C19.5199322,15.2549002 19.33854,15.1558 19.215,15 L15.705,10.635 L15.705,21.9 C15.705,22.3142136 15.3692136,22.65 14.955,22.65 C14.5407864,22.65 14.205,22.3142136 14.205,21.9 L14.205,10.59 L10.8,15 C10.6568463,15.1870325 10.4355183,15.2976965 10.2,15.3 C10.0314233,15.2957087 9.86857773,15.2379247 9.735,15.135 C9.4159912,14.8776748 9.35645981,14.4146529 9.6,14.085 L14.325,7.98 C14.4634976,7.79727273 14.6807444,7.69143456 14.91,7.69491271 C15.1376993,7.69819482 15.3521382,7.80266508 15.495,7.98 L20.385,13.98 C20.5375671,14.1367035 20.6124235,14.3532109 20.5892264,14.5706841 C20.5660292,14.7881574 20.4471884,14.9840037 20.265,15.105 Z" id="Path" fill-rule="nonzero"></path>
                </g>
            </g>
        </g>
    </g>
</svg>