<?xml version="1.0" encoding="UTF-8"?>
<svg width="30px" height="30px" viewBox="0 0 30 30" version="1.1" xmlns="http://www.w3.org/2000/svg" xmlns:xlink="http://www.w3.org/1999/xlink">
    <!-- Generator: Sketch 62 (91390) - https://sketch.com -->
    <title>Icons/Upload</title>
    <desc>Created with Sketch.</desc>
    <g id="Page-1" stroke="none" stroke-width="1" fill="none" fill-rule="evenodd">
        <g id="Icons" transform="translate(-1020.000000, -1414.000000)" fill="#1B1E24">
            <g id="Icons/Upload_In-Circle" transform="translate(1020.000000, 1414.000000)">
                <g id="Actian-Icon__Upload_2">
                    <path d="M22.41,7.62 C22.41,8.03421356 22.0742136,8.37 21.66,8.37 L8.445,8.37 C8.03078644,8.37 7.695,8.03421356 7.695,7.62 C7.695,7.20578644 8.03078644,6.87 8.445,6.87 L21.66,6.87 C22.0742136,6.87 22.41,7.20578644 22.41,7.62 L22.41,7.62 Z" id="Path" fill-rule="nonzero"></path>
                    <path d="M20.79,17.415 C20.4372545,17.6701668 19.9502019,17.6253067 19.65,17.31 L15.825,13.065 L15.825,24 C15.7929861,24.4251353 15.4255576,24.7458001 15,24.72 C14.7970226,24.7322923 14.5975033,24.663265 14.4455181,24.5281671 C14.293533,24.3930692 14.2015899,24.2030187 14.19,24 L14.19,13.02 L10.5,17.295 C10.2046782,17.6137768 9.72160904,17.6709824 9.36,17.43 C9.19124157,17.3251848 9.07722451,17.1513515 9.04832073,16.9548058 C9.01941695,16.7582601 9.07856171,16.5589618 9.21,16.41 L14.31,10.5 C14.4828294,10.302399 14.7381016,10.1969605 15,10.215 C15.2298222,10.2269057 15.4455653,10.3293837 15.6,10.5 L21,16.395 C21.12639,16.5519373 21.1760566,16.7571346 21.1354228,16.9544988 C21.094789,17.151863 20.9681045,17.3207528 20.79,17.415 L20.79,17.415 Z" id="Path" fill-rule="nonzero"></path>
                    <path d="M15,1.5 C22.4558441,1.5 28.5,7.54415588 28.5,15 C28.5,22.4558441 22.4558441,28.5 15,28.5 C7.54415588,28.5 1.5,22.4558441 1.5,15 C1.5,7.54415588 7.54415588,1.5 15,1.5 M15,0 C6.71572875,0 0,6.71572875 0,15 C0,23.2842712 6.71572875,30 15,30 C23.2842712,30 30,23.2842712 30,15 C30,11.0217527 28.4196474,7.20644396 25.6066017,4.39339828 C22.793556,1.58035261 18.9782473,0 15,0 Z" id="Shape" fill-rule="nonzero"></path>
                </g>
            </g>
        </g>
    </g>
</svg>