<?xml version="1.0" encoding="UTF-8"?>
<svg width="30px" height="28px" viewBox="0 0 30 28" version="1.1" xmlns="http://www.w3.org/2000/svg" xmlns:xlink="http://www.w3.org/1999/xlink">
    <!-- Generator: Sketch 62 (91390) - https://sketch.com -->
    <title>Icons/User Settings</title>
    <desc>Created with Sketch.</desc>
    <g id="Page-1" stroke="none" stroke-width="1" fill="none" fill-rule="evenodd">
        <g id="Icons" transform="translate(-1106.000000, -1415.000000)" fill="#1B1E24">
            <g id="Icons/User-Settings" transform="translate(1106.000000, 1414.000000)">
                <g id="Actian-Icon__Settings-09">
                    <path d="M22.185,22.3050323 C23.6013072,22.3110656 24.8812525,21.4617675 25.4260555,20.1544219 C25.9708585,18.8470762 25.6727958,17.3401835 24.6713061,16.3386939 C23.6698165,15.3372042 22.1629238,15.0391415 20.8555781,15.5839445 C19.5482325,16.1287475 18.6989344,17.4086928 18.7049677,18.825 C18.7049677,20.7469509 20.2630491,22.3050323 22.185,22.3050323 Z M15.375,24.63 C15.871758,23.95921 16.4868495,23.3847857 17.19,22.935 L17.19,22.935 C16.4721435,23.0993527 15.7360079,23.169941 15,23.145 C11.5884322,23.1876873 8.64449779,20.7612294 8.03498894,17.404279 C7.42548009,14.0473286 9.32850263,10.7408269 12.5373219,9.58147546 C15.7461412,8.42212399 19.3231017,9.74869912 21,12.72 C21.307345,12.6670218 21.6181996,12.6369391 21.93,12.63 C22.1862889,12.6394058 22.4417643,12.6644524 22.695,12.705 C20.943946,8.87653985 16.6480696,6.91380252 12.6076167,8.09618863 C8.56716368,9.27857475 6.00714118,13.2476019 6.59628716,17.4160793 C7.18543314,21.5845568 10.7451271,24.6886623 14.955,24.705 L15.375,24.63 Z M19.23,22.92 C17.4259153,21.6811829 16.6383296,19.4122455 17.2868698,17.3220816 C17.9354101,15.2319178 19.8690327,13.8073224 22.0575,13.8073224 C24.2459673,13.8073224 26.1795899,15.2319178 26.8281302,17.3220816 C27.4766704,19.4122455 26.6890847,21.6811829 24.885,22.92 C27.3899145,23.942922 29.1496682,26.2357607 29.49,28.92 L27.99,28.92 C27.5461837,25.9862483 25.024632,23.8174652 22.0575,23.8174652 C19.090368,23.8174652 16.5688163,25.9862483 16.125,28.92 L14.625,28.92 C14.9653318,26.2357607 16.7250855,23.942922 19.23,22.92 L19.23,22.92 Z M29.85,13.92 C29.803894,13.6411426 29.607787,13.4104286 29.34,13.32 L26.67,12.435 C26.3714984,11.6085753 26.020792,10.8019506 25.62,10.02 L26.775,7.5 C26.8980221,7.24441523 26.8629955,6.94085197 26.685,6.72 C25.9008879,5.7471737 24.9989845,4.87550171 24,4.125 C23.761444,3.97566239 23.458556,3.97566239 23.22,4.125 L20.715,5.37 C19.9334505,4.95530645 19.1084358,4.6283189 18.255,4.395 L17.28,1.785 C17.1784911,1.51812123 16.9342492,1.33203216 16.65,1.305 C16.0205648,1.2672739 15.3894352,1.2672739 14.76,1.305 C14.1272434,1.31019508 13.4956547,1.36032117 12.87,1.455 C12.5947802,1.49842373 12.3649334,1.68804734 12.27,1.95 L11.34,4.5 C10.4943784,4.76743347 9.67975403,5.1244602 8.91,5.565 L6.375,4.38 C6.11375044,4.2651909 5.80965956,4.31197411 5.595,4.5 C4.61707988,5.28421281 3.74482718,6.19175897 3,7.2 C2.83362928,7.42648779 2.80483382,7.72596058 2.925,7.98 L4.17,10.5 L3.24,12.93 L0.57,13.935 C0.307580571,14.0341061 0.122401058,14.2713674 0.09,14.55 C0.0122390252,15.1969149 -0.0178420986,15.8486726 4.63791332e-13,16.5 C0.0121099524,17.1324352 0.0622001666,17.7635719 0.15,18.39 C0.190944598,18.6745405 0.387951046,18.9121071 0.66,19.005 L3.33,19.89 C3.62850157,20.7164247 3.97920798,21.5230494 4.38,22.305 L3.225,24.855 C3.10612046,25.1134136 3.14701768,25.4172216 3.33,25.635 C4.11066032,26.5969801 5.00749034,27.4585415 6,28.2 C6.22648779,28.3663707 6.52596058,28.3951662 6.78,28.275 L9.33,27 C10.1131742,27.4073506 10.937926,27.7292049 11.79,27.96 L12.075,28.725 L13.5,28.725 C13.5,28.635 13.5,28.545 13.5,28.47 L12.975,27.06 C12.8784393,26.8284885 12.6782794,26.6561285 12.435,26.595 C11.4772583,26.362617 10.5578675,25.9938504 9.705,25.5 C9.4834069,25.3877392 9.2215931,25.3877392 9,25.5 L6.585,26.7 C5.93092844,26.1786789 5.32818721,25.596029 4.785,24.96 L5.895,22.5 C6.01524394,22.2857159 6.01524394,22.0242841 5.895,21.81 C5.41660223,20.901338 5.00549928,19.9588092 4.665,18.99 C4.59397143,18.7691343 4.42086566,18.5960286 4.2,18.525 L1.635,17.67 C1.5,17.25 1.5,16.83 1.5,16.5 C1.5,16.17 1.5,15.66 1.5,15.24 L4.05,14.28 C4.2655002,14.1892122 4.43010043,14.008152 4.5,13.785 L5.67,10.785 C5.75935319,10.59498 5.75935319,10.37502 5.67,10.185 L4.5,7.74 C5.00118082,7.10595751 5.56392757,6.52311267 6.18,6 L8.655,7.125 C8.8765931,7.23726081 9.1384069,7.23726081 9.36,7.125 C10.2206476,6.60038306 11.1493456,6.19660134 12.12,5.925 C12.3563132,5.85460514 12.5454254,5.67661716 12.63,5.445 L13.5,2.745 C13.9133072,2.69714902 14.3289374,2.67211106 14.745,2.67 C15.159691,2.64735174 15.575309,2.64735174 15.99,2.67 L16.95,5.205 C17.0372888,5.43731365 17.233845,5.61140623 17.475,5.67 C18.4645017,5.89921069 19.4147453,6.27324275 20.295,6.78 C20.5165931,6.89226081 20.7784069,6.89226081 21,6.78 L23.415,5.565 C24.0685554,6.08137644 24.6712926,6.6589996 25.215,7.29 L24.105,9.765 C23.9849419,9.984666 23.9849419,10.250334 24.105,10.47 C24.5862318,11.3772975 24.9974289,12.320042 25.335,13.29 C25.4101615,13.5083125 25.5816875,13.6798385 25.8,13.755 L28.365,14.61 C28.365,15.03 28.365,15.435 28.455,15.855 C28.545,16.275 28.455,16.695 28.455,17.1 L27.69,17.385 C27.770269,17.7340704 27.8055554,18.091975 27.795,18.45 C27.795,18.63 27.795,18.795 27.795,18.975 L29.46,18.345 C29.7268788,18.2434911 29.9129678,17.9992492 29.94,17.715 C30.0030801,17.1021571 30.0231292,16.4856465 30,15.87 C29.9873213,15.2375929 29.9372337,14.60649 29.85,13.98 L29.85,13.92 Z" id="Shape" fill-rule="nonzero"></path>
                </g>
            </g>
        </g>
    </g>
</svg>