<?xml version="1.0" encoding="UTF-8"?>
<svg width="35px" height="36px" viewBox="0 0 35 36" version="1.1" xmlns="http://www.w3.org/2000/svg" xmlns:xlink="http://www.w3.org/1999/xlink">
    <!-- Generator: sketchtool 64 (101010) - https://sketch.com -->
    <title>46EB21D3-8EB7-4096-9607-73126876AE02</title>
    <desc>Created with sketchtool.</desc>
    <g id="Actian---Dashboard" stroke="none" stroke-width="1" fill="none" fill-rule="evenodd">
        <g id="Dashboard" transform="translate(-256.000000, -556.000000)" fill="#9FB1BD" fill-rule="nonzero">
            <g id="Total-Warehouse" transform="translate(47.000000, 521.000000)">
                <g id="Group-9" transform="translate(0.000000, 1.000000)">
                    <path d="M244,52 C244,61.9411255 236.164983,70 226.5,70 C216.835017,70 209,61.9411255 209,52 C209,42.0588745 216.835017,34 226.5,34 C236.164983,34 244,42.0588745 244,52 Z M237,64.024 C237,58.0593247 232.29899,53.224 226.5,53.224 C220.70101,53.224 216,58.0593247 216,64.024 C218.880302,66.6989832 222.619345,68.1860538 226.5,68.2 C230.380655,68.1860538 234.119698,66.6989832 237,64.024 Z M231.508338,48.2729872 C232.350833,46.1951976 231.89252,43.7999359 230.347372,42.2054806 C228.802224,40.6110254 226.474995,40.1318558 224.452202,40.9916824 C222.429408,41.851509 221.11,43.8807455 221.11,46.132 C221.11,49.196792 223.520357,51.6840816 226.5,51.6940584 C228.688708,51.7012856 230.665843,50.3507768 231.508338,48.2729872 Z" id="Shape"></path>
                </g>
            </g>
        </g>
    </g>
</svg>