<?xml version="1.0" encoding="UTF-8"?>
<svg width="30px" height="30px" viewBox="0 0 30 30" version="1.1" xmlns="http://www.w3.org/2000/svg" xmlns:xlink="http://www.w3.org/1999/xlink">
    <!-- Generator: Sketch 62 (91390) - https://sketch.com -->
    <title>Icons/User Profile</title>
    <desc>Created with Sketch.</desc>
    <g id="Page-1" stroke="none" stroke-width="1" fill="none" fill-rule="evenodd">
        <g id="Icons" transform="translate(-1191.000000, -1414.000000)" fill="#1B1E24">
            <g id="Icons/User-Profile" transform="translate(1191.000000, 1414.000000)">
                <g id="Actian-Icon__User">
                    <path d="M30,15 C30,23.2842712 23.2842712,30 15,30 C6.71572875,30 0,23.2842712 0,15 C0,6.71572875 6.71572875,0 15,0 C23.2842712,0 30,6.71572875 30,15 Z M15,28.5 C18.3262759,28.4883781 21.5311693,27.2491527 24,25.02 C24,20.0494373 19.9705627,16.02 15,16.02 C10.0294373,16.02 6,20.0494373 6,25.02 C8.46883065,27.2491527 11.6737241,28.4883781 15,28.5 L15,28.5 Z M15,14.7450244 C16.8760356,14.7510713 18.5707229,13.6256474 19.2928615,11.894156 C20.015,10.1626647 19.6221602,8.16661324 18.2977475,6.83790053 C16.9733348,5.50918783 14.9785673,5.10987987 13.2447442,5.82640202 C11.5109212,6.54292417 10.38,8.23395459 10.38,10.11 C10.38,12.6639934 12.44602,14.7367346 15,14.7450244 L15,14.7450244 Z M28.5000175,15 C28.5095542,9.04017768 24.6098863,3.77925144 18.9048061,2.05540868 C13.199726,0.331565929 7.03927408,2.55273389 3.74691787,7.52062719 C0.454561649,12.4885205 0.809398708,19.0275453 4.62,23.61 C5.23354534,19.7193006 7.97293882,16.4992102 11.715,15.27 C9.41910202,13.8093975 8.36333153,11.0083241 9.12395222,8.39566964 C9.88457292,5.78301519 12.2788776,3.9863603 15,3.9863603 C17.7211224,3.9863603 20.1154271,5.78301519 20.8760478,8.39566964 C21.6366685,11.0083241 20.580898,13.8093975 18.285,15.27 C22.0270612,16.4992102 24.7664547,19.7193006 25.38,23.61 C27.3992479,21.1956845 28.5038447,18.1474222 28.5000175,15 L28.5000175,15 Z" id="Shape" fill-rule="nonzero"></path>
                </g>
            </g>
        </g>
    </g>
</svg>