<?xml version="1.0" encoding="UTF-8"?>
<svg width="31px" height="31px" viewBox="0 0 31 31" version="1.1" xmlns="http://www.w3.org/2000/svg" xmlns:xlink="http://www.w3.org/1999/xlink">
    <!-- Generator: Sketch 62 (91390) - https://sketch.com -->
    <title>Icons/Video 2</title>
    <desc>Created with Sketch.</desc>
    <g id="Page-1" stroke="none" stroke-width="1" fill="none" fill-rule="evenodd">
        <g id="Icons" transform="translate(-681.000000, -1516.000000)" fill="#1B1E24">
            <g id="Icons/Video_2" transform="translate(681.000000, 1516.000000)">
                <g id="Actian-Icon__Video_2">
                    <path d="M30.15,4.935 L30.15,25.17 C30.1417333,27.9145184 27.9145308,30.135 25.17,30.135 L4.95,30.135 C2.2137659,30.1267334 0,27.9062466 0,25.17 L0,25.17 L0,22.41 C0,22.41 0,22.41 0,22.32 C0,22.23 0,22.32 0,22.23 L0,15.12 C0,15.12 0,15 0,15 C0,15 0,15 0,15 L0,7.815 C0,7.815 0,7.815 0,7.71 C0,7.605 0,7.71 0,7.62 L0,4.935 C0.0164504379,2.2104691 2.22543172,0.00818169864 4.95,0 L25.17,0 C27.9028999,0 30.1253051,2.2022117 30.15,4.935 Z M28.65,4.935 C28.6381687,4.00938296 28.2580399,3.12662277 27.593698,2.48198591 C26.9293561,1.83734904 26.0355537,1.48396417 25.11,1.5 L23.61,1.5 L23.61,6.975 L28.59,6.975 L28.65,4.935 Z M23.61,14.28 L28.59,14.28 L28.59,8.52 L23.61,8.52 L23.61,14.28 Z M23.61,21.585 L28.59,21.585 L28.59,15.825 L23.61,15.825 L23.61,21.585 Z M1.5,5.01 L1.5,6.975 L6.48,6.975 L6.48,1.5 L4.98,1.5 C4.05182519,1.5 3.16209663,1.87072259 2.50860077,2.52985204 C1.8551049,3.1889815 1.49199849,4.08185968 1.5,5.01 L1.5,5.01 Z M1.5,14.28 L6.48,14.28 L6.48,8.52 L1.5,8.475 L1.5,14.28 Z M1.5,21.585 L6.48,21.585 L6.48,15.825 L1.5,15.78 L1.5,21.585 Z M6.48,28.635 L6.48,23.115 L1.5,23.085 L1.5,25.155 C1.5,27.0769509 3.05804907,28.635 4.98,28.635 L6.48,28.635 Z M22.125,28.635 L22.125,1.5 L7.965,1.5 L7.965,28.635 L22.125,28.635 Z M25.125,28.635 C27.0469509,28.635 28.605,27.0769509 28.605,25.155 L28.605,23.115 L23.625,23.115 L23.625,28.665 L25.125,28.635 Z" id="Shape" fill-rule="nonzero"></path>
                    <path d="M11.4,21 C11.2745806,20.9988181 11.1512204,20.9679781 11.04,20.91 C10.7988897,20.7780771 10.6492498,20.5248405 10.6499972,20.25 L10.6499972,9.855 C10.6524354,9.58103567 10.8011938,9.32929072 11.04,9.195 C11.2749069,9.05183929 11.5700931,9.05183929 11.805,9.195 L19.86,14.31 C20.0722508,14.4428496 20.2022663,14.6746164 20.205,14.925 C20.2130293,15.1823965 20.0884394,15.425913 19.875,15.57 L11.805,20.88 C11.6832909,20.9557888 11.543351,20.9972525 11.4,21 L11.4,21 Z M12.15,11.22 L12.15,18.87 L18.15,14.97 L12.15,11.22 Z" id="Shape" fill-rule="nonzero"></path>
                </g>
            </g>
        </g>
    </g>
</svg>