<?xml version="1.0" encoding="UTF-8"?>
<svg width="30px" height="30px" viewBox="0 0 30 30" version="1.1" xmlns="http://www.w3.org/2000/svg" xmlns:xlink="http://www.w3.org/1999/xlink">
    <!-- Generator: Sketch 62 (91390) - https://sketch.com -->
    <title>Icons/Video Play 1</title>
    <desc>Created with Sketch.</desc>
    <g id="Page-1" stroke="none" stroke-width="1" fill="none" fill-rule="evenodd">
        <g id="Icons" transform="translate(-1276.000000, -1414.000000)" fill="#1B1E24">
            <g id="Icons/Video_1-Play" transform="translate(1276.000000, 1414.000000)">
                <g id="Actian-Icon__Video_1">
                    <path d="M15,30 C6.71572875,30 0,23.2842712 0,15 C0,6.71572875 6.71572875,0 15,0 C23.2842712,0 30,6.71572875 30,15 C29.950858,23.2638304 23.2638304,29.950858 15,30 Z M15,1.5 C7.54415588,1.5 1.5,7.54415588 1.5,15 C1.5,22.4558441 7.54415588,28.5 15,28.5 C22.4558441,28.5 28.5,22.4558441 28.5,15 C28.4509197,7.56458048 22.4354195,1.54908028 15,1.5 Z" id="Shape" fill-rule="nonzero"></path>
                    <path d="M11.505,8.61 L20.67,15.12 L11.505,21.39 L11.505,8.61 M11.235,6.9 C10.6154478,6.84768909 10.0682436,7.30146822 10.005,7.92 L10.005,22.08 C10.0682436,22.6985318 10.6154478,23.1523109 11.235,23.1 C11.5056297,23.0953942 11.7699706,23.0176469 12,22.875 L21.84,16.14 C22.2095568,15.9371509 22.4392404,15.5490685 22.4392404,15.1275 C22.4392404,14.7059315 22.2095568,14.3178491 21.84,14.115 L12,7.14 C11.7705577,6.9823306 11.4983908,6.89858692 11.22,6.9 L11.235,6.9 Z" id="Shape" fill-rule="nonzero"></path>
                </g>
            </g>
        </g>
    </g>
</svg>