<?xml version="1.0" encoding="UTF-8"?>
<svg width="30px" height="20px" viewBox="0 0 30 20" version="1.1" xmlns="http://www.w3.org/2000/svg" xmlns:xlink="http://www.w3.org/1999/xlink">
    <!-- Generator: Sketch 62 (91390) - https://sketch.com -->
    <title>Icons/Video 3</title>
    <desc>Created with Sketch.</desc>
    <g id="Page-1" stroke="none" stroke-width="1" fill="none" fill-rule="evenodd">
        <g id="Icons" transform="translate(-769.000000, -1521.000000)" fill="#1B1E24">
            <g id="Icons/Video_3" transform="translate(769.000000, 1516.000000)">
                <g id="Actian-Icon__Video_3" transform="translate(0.000000, 4.500000)">
                    <path d="M30,1.845 L30,19.155 C29.9975646,19.4289643 29.8488062,19.6807093 29.61,19.815 C29.3741678,19.9548256 29.0808322,19.9548256 28.845,19.815 L23.04,16.05 L23.04,16.575 C23.04,18.3975397 21.5625397,19.875 19.74,19.875 L3.3,19.875 C1.47746033,19.875 0,18.3975397 0,16.575 L0,4.5 C0,2.67746033 1.47746033,1.2 3.3,1.2 L19.8,1.2 C21.5990656,1.23271567 23.0402974,2.70063697 23.04,4.5 L23.04,4.695 L28.875,1.2 C29.1070508,1.0660254 29.3929492,1.0660254 29.625,1.2 C29.8556584,1.33316422 29.9983924,1.57866671 30,1.845 Z M21.54,4.5 C21.54,3.50588745 20.7341125,2.7 19.74,2.7 L3.3,2.7 C2.30588745,2.7 1.5,3.50588745 1.5,4.5 L1.5,16.65 C1.5,17.6441125 2.30588745,18.45 3.3,18.45 L19.8,18.45 C20.7941125,18.45 21.6,17.6441125 21.6,16.65 L21.54,4.5 Z M28.5,3.15 L23.115,6.315 L23.115,14.325 L28.5,17.775 L28.5,3.15 Z" id="Shape" fill-rule="nonzero"></path>
                    <path d="M6.315,6.435 C6.315,7.26342712 5.64342712,7.935 4.815,7.935 C3.98657288,7.935 3.315,7.26342712 3.315,6.435 C3.315,5.60657288 3.98657288,4.935 4.815,4.935 C5.64342712,4.935 6.315,5.60657288 6.315,6.435 Z" id="Path" fill-rule="nonzero"></path>
                </g>
            </g>
        </g>
    </g>
</svg>