<?xml version="1.0" encoding="UTF-8"?>
<svg width="30px" height="30px" viewBox="0 0 30 30" version="1.1" xmlns="http://www.w3.org/2000/svg" xmlns:xlink="http://www.w3.org/1999/xlink">
    <!-- Generator: Sketch 62 (91390) - https://sketch.com -->
    <title>Icons/Warning</title>
    <desc>Created with Sketch.</desc>
    <g id="Page-1" stroke="none" stroke-width="1" fill="none" fill-rule="evenodd">
        <g id="Icons" transform="translate(-847.000000, -1516.000000)" fill="#1B1E24">
            <g id="Icons/Warning" transform="translate(847.000000, 1516.000000)">
                <g id="Actian-Icon__Warning">
                    <path d="M15,28.5 C7.54415588,28.5 1.5,22.4558441 1.5,15 C1.5,7.54415588 7.54415588,1.5 15,1.5 C22.4558441,1.5 28.5,7.54415588 28.5,15 C28.5,18.5804226 27.0776827,22.0142004 24.5459415,24.5459415 C22.0142004,27.0776827 18.5804226,28.5 15,28.5 M15,30 C23.2842712,30 30,23.2842712 30,15 C30,6.71572875 23.2842712,0 15,0 C6.71572875,0 0,6.71572875 0,15 C0,23.2842712 6.71572875,30 15,30 Z" id="Shape" fill-rule="nonzero"></path>
                    <path d="M15,18.495 C14.5857864,18.495 14.25,18.1592136 14.25,17.745 L14.25,8.22 C14.25,7.80578644 14.5857864,7.47 15,7.47 C15.4142136,7.47 15.75,7.80578644 15.75,8.22 L15.75,17.745 C15.75,18.1592136 15.4142136,18.495 15,18.495 Z" id="Path" fill-rule="nonzero"></path>
                    <path d="M15,22.875 C14.5857864,22.875 14.25,22.5392136 14.25,22.125 C14.25,21.7107864 14.5857864,21.375 15,21.375 C15.4142136,21.375 15.75,21.7107864 15.75,22.125 C15.75,22.5392136 15.4142136,22.875 15,22.875 Z" id="Path" fill-rule="nonzero"></path>
                </g>
            </g>
        </g>
    </g>
</svg>