<?xml version="1.0" encoding="UTF-8"?>
<svg width="30px" height="30px" viewBox="0 0 30 30" version="1.1" xmlns="http://www.w3.org/2000/svg" xmlns:xlink="http://www.w3.org/1999/xlink">
    <!-- Generator: Sketch 62 (91390) - https://sketch.com -->
    <title>Icons/Wednesday</title>
    <desc>Created with Sketch.</desc>
    <g id="Page-1" stroke="none" stroke-width="1" fill="none" fill-rule="evenodd">
        <g id="Icons" transform="translate(-934.000000, -1516.000000)" fill="#1B1E24">
            <g id="Icons/Wednesday" transform="translate(934.000000, 1516.000000)">
                <g id="Actian-Icon__Wednesday">
                    <path d="M15,30 C6.71572875,30 0,23.2842712 0,15 C0,6.71572875 6.71572875,0 15,0 C23.2842712,0 30,6.71572875 30,15 C29.950858,23.2638304 23.2638304,29.950858 15,30 Z M15,1.5 C7.54415588,1.5 1.5,7.54415588 1.5,15 C1.5,22.4558441 7.54415588,28.5 15,28.5 C22.4558441,28.5 28.5,22.4558441 28.5,15 C28.4509197,7.56458048 22.4354195,1.54908028 15,1.5 Z" id="Shape" fill-rule="nonzero"></path>
                    <path d="M10.305,21.57 L6.975,8.43 L8.775,8.43 L10.275,15.075 C10.665,16.71 11.01,18.36 11.25,19.575 L11.25,19.575 C11.475,18.27 11.88,16.71 12.33,15.075 L14.175,8.43 L15.945,8.43 L17.55,15.09 C17.91,16.59 18.27,18.225 18.465,19.59 L18.465,19.59 C18.75,18.09 19.11,16.68 19.53,15.09 L21.255,8.46 L22.995,8.46 L19.275,21.6 L17.52,21.6 L15.87,14.76 C15.4999953,13.3575197 15.2095323,11.9352528 15,10.5 L15,10.5 C14.7255023,11.9276758 14.3750038,13.3396839 13.95,14.73 L12.09,21.57 L10.305,21.57 Z" id="Path" fill-rule="nonzero"></path>
                </g>
            </g>
        </g>
    </g>
</svg>