<?xml version="1.0" encoding="UTF-8"?>
<svg width="32px" height="30px" viewBox="0 0 32 30" version="1.1" xmlns="http://www.w3.org/2000/svg" xmlns:xlink="http://www.w3.org/1999/xlink">
    <!-- Generator: Sketch 62 (91390) - https://sketch.com -->
    <title>Icons/Whats New</title>
    <desc>Created with Sketch.</desc>
    <g id="Page-1" stroke="none" stroke-width="1" fill="none" fill-rule="evenodd">
        <g id="Icons" transform="translate(-846.000000, -288.000000)" fill="#1B1E24">
            <g id="Icons/Whats-New" transform="translate(847.000000, 288.000000)">
                <g id="Actian-Icon__Whats-New" transform="translate(-1.500000, -1.500000)">
                    <path d="M25.35,31.5 C25.1871771,31.5034775 25.0281718,31.4504757 24.9,31.35 L16.5,25.005 L8.1,31.35 C7.83493799,31.5379543 7.48006201,31.5379543 7.215,31.35 C6.94685699,31.162206 6.83149521,30.8221923 6.93,30.51 L10.125,20.115 L1.71,14.01 C1.46500241,13.8053201 1.38014561,13.4658929 1.5,13.17 C1.58851706,12.8552119 1.87804788,12.6396039 2.205,12.645 L12.36,12.645 L15.78,2.025 C15.8756594,1.69012504 16.18173,1.45924285 16.53,1.45924285 C16.87827,1.45924285 17.1843406,1.69012504 17.28,2.025 L20.7,12.645 L30.915,12.645 C31.2419521,12.6396039 31.5314829,12.8552119 31.62,13.17 C31.7267623,13.4788879 31.6167438,13.8211677 31.35,14.01 L22.935,20.13 L26.13,30.525 C26.2285048,30.8371923 26.113143,31.177206 25.845,31.365 C25.699945,31.4645331 25.5255027,31.5121083 25.35,31.5 Z M16.5,23.31 C16.6628229,23.3065225 16.8218282,23.3595243 16.95,23.46 L24,28.755 L21.33,20.07 C21.2355423,19.7655654 21.3438308,19.434684 21.6,19.245 L28.5,14.145 L20.085,14.145 C19.7653237,14.1426257 19.4822904,13.9378782 19.38,13.635 L16.5,4.695 L13.62,13.695 C13.5177096,13.9978782 13.2346763,14.2026257 12.915,14.205 L4.5,14.205 L11.49,19.305 C11.7461692,19.494684 11.8544577,19.8255654 11.76,20.13 L9,28.755 L16.05,23.46 C16.1781718,23.3595243 16.3371771,23.3065225 16.5,23.31 Z" id="Shape" fill-rule="nonzero"></path>
                </g>
            </g>
        </g>
    </g>
</svg>