<?xml version="1.0" encoding="UTF-8"?>
<svg width="24px" height="30px" viewBox="0 0 24 30" version="1.1" xmlns="http://www.w3.org/2000/svg" xmlns:xlink="http://www.w3.org/1999/xlink">
    <!-- Generator: Sketch 62 (91390) - https://sketch.com -->
    <title>Icons/XLS</title>
    <desc>Created with Sketch.</desc>
    <g id="Page-1" stroke="none" stroke-width="1" fill="none" fill-rule="evenodd">
        <g id="Icons" transform="translate(-684.000000, -288.000000)" fill="#1B1E24">
            <g id="Icons/.XLS" transform="translate(681.000000, 288.000000)">
                <g id="Actian-Icon__xls" transform="translate(3.000000, 0.000000)">
                    <path d="M4.875,18.51 L7.26,15.39 L4.98,12.39 L6.375,12.39 L7.875,14.49 L9.375,12.39 L10.725,12.39 L8.475,15.39 L10.89,18.525 L9.615,18.525 L7.935,16.275 L6.24,18.525 L4.875,18.51 Z M12.96,9.855 L12.96,18.51 L11.76,18.51 L11.76,10.11 L12.96,9.855 Z M13.8,17.73 L14.46,16.935 C14.7588495,17.1665619 15.0866112,17.3581765 15.435,17.505 C15.7538425,17.6357069 16.095412,17.7019815 16.44,17.7 C16.811606,17.7136542 17.1798761,17.6254769 17.505,17.445 C17.751915,17.317093 17.9077934,17.063069 17.91,16.785 C17.9197986,16.5856648 17.8298409,16.3945048 17.67,16.275 C17.4489268,16.1190048 17.1897758,16.0257104 16.92,16.005 L15.825,15.855 C15.3269482,15.8017003 14.8539331,15.6093755 14.46,15.3 C14.1490057,15.0040512 13.9797222,14.5890335 13.995,14.16 C13.9827396,13.6336881 14.2293682,13.1348259 14.655,12.825 C15.1563971,12.4660775 15.764039,12.2864269 16.38,12.315 C16.8176943,12.3101221 17.2533034,12.37597 17.67,12.51 C18.0902615,12.6374689 18.485868,12.8352722 18.84,13.095 L18.24,13.89 C17.932424,13.6835178 17.5997314,13.5171715 17.25,13.395 C16.9434963,13.3013493 16.6254381,13.2508638 16.305,13.245 C15.9937854,13.2262017 15.6844473,13.304847 15.42,13.47 C15.2079854,13.5959041 15.0771587,13.8234288 15.075,14.07 C15.059469,14.2704275 15.1506635,14.464216 15.315,14.58 C15.5446506,14.7300606 15.8070339,14.8226665 16.08,14.85 L17.19,15 C17.6974764,15.0443645 18.179136,15.2433108 18.57,15.57 C19.0703115,16.0698442 19.1803426,16.8400623 18.84,17.46 C18.7059082,17.701157 18.5217904,17.9108467 18.3,18.075 C18.0520491,18.2502094 17.7789381,18.3867649 17.49,18.48 C17.1637331,18.5770677 16.8253914,18.6275664 16.485,18.63 C15.9748818,18.6373661 15.4673538,18.5561616 14.985,18.39 C14.5516006,18.2474102 14.149403,18.0234015 13.8,17.73 L13.8,17.73 Z" id="Shape" fill-rule="nonzero"></path>
                    <path d="M22.815,6.81 C22.815,6.81 22.815,6.81 22.815,6.81 L16.5,0.42 L16.5,0.42 L16.065,-2.24060863e-07 L2.91,-2.24060863e-07 C2.38623924,-2.24060863e-07 1.8847485,0.211829207 1.52009044,0.587794491 C1.15543239,0.963759775 0.958759294,1.47149104 0.975,1.995 L0.975,28.11 C1.00722359,29.1576589 1.86187294,29.9924327 2.91,29.9999998 L21.195,29.9999998 C22.2685553,29.9918357 23.1368357,29.1235553 23.145,28.05 L23.145,7.05 L22.815,6.81 Z M16.68,2.79 L20.4,6.525 L16.68,6.525 L16.68,2.79 Z M21.645,28.11 C21.6372091,28.3552286 21.4402286,28.5522091 21.195,28.56 L2.91,28.56 C2.66734868,28.5519072 2.47486508,28.3527862 2.475,28.11 L2.475,1.995 C2.45753698,1.86964562 2.49553535,1.74290137 2.5790827,1.64783025 C2.66263004,1.55275913 2.78344088,1.49878947 2.91,1.49998006 L15.18,1.49998006 L15.18,7.275 C15.18,7.68921356 15.5157864,8.025 15.93,8.025 L21.645,8.025 L21.645,28.11 Z" id="Shape" fill-rule="nonzero"></path>
                </g>
            </g>
        </g>
    </g>
</svg>