<?xml version="1.0" encoding="utf-8"?>
<!-- Generator: Adobe Illustrator 24.0.0, SVG Export Plug-In . SVG Version: 6.00 Build 0)  -->
<svg version="1.1" id="Layer_1" xmlns="http://www.w3.org/2000/svg" xmlns:xlink="http://www.w3.org/1999/xlink" x="0px" y="0px"
	 viewBox="0 0 224.4 224.1" style="enable-background:new 0 0 224.4 224.1;" xml:space="preserve">
<title>Actian-Logo-RGB_Vertical-Black</title>
<g id="Design">
	<path d="M25.4,141.9h41.2c0.7,0,1.4-0.4,1.8-1.1l38.8-66.1c0.1-0.3,0.5-0.5,0.9-0.4c0.2,0.1,0.3,0.2,0.4,0.4l38.8,66.1
		c0.4,0.6,1.1,1,1.8,1.1h41.2c0.7,0,0.9-0.5,0.6-1.1l-6.1-10.4c-0.4-0.6-1.1-1-1.8-1.1h-26.7c-0.7,0-1.4-0.4-1.8-1l-46-78.3
		c-0.1-0.3-0.5-0.5-0.9-0.4c-0.2,0.1-0.3,0.2-0.4,0.4l-46,78.3c-0.4,0.6-1.1,1-1.8,1H32.8c-0.7,0-1.4,0.4-1.8,1.1l-6.1,10.4
		C24.5,141.4,24.7,141.9,25.4,141.9z"/>
	<path d="M205.2,167c0.7,0,0.9-0.5,0.6-1l-6.1-10.5c-0.4-0.6-1.1-1-1.8-1H142c-0.7,0-1.4-0.4-1.8-1l-31.6-54.1
		c-0.1-0.3-0.5-0.5-0.9-0.4c-0.2,0.1-0.3,0.2-0.4,0.4l-31.7,53.9c-0.4,0.6-1.1,1-1.8,1H18c-0.7,0-1.4,0.4-1.8,1L10,165.9
		c-0.3,0.6-0.1,1,0.6,1H81c0.7,0,1.4-0.4,1.8-1l24.5-41.7c0.1-0.3,0.5-0.5,0.9-0.4c0.2,0.1,0.3,0.2,0.4,0.4l24.4,41.7
		c0.4,0.6,1.1,1,1.8,1L205.2,167z"/>
	<path d="M117.9,167c0.7,0,0.9-0.5,0.6-1l-9.9-17c-0.1-0.3-0.5-0.5-0.9-0.4c-0.2,0.1-0.3,0.2-0.4,0.4l-9.9,16.9
		c-0.3,0.6-0.1,1,0.6,1L117.9,167z"/>
	<path d="M40.1,116.8h12.1c0.7,0,1.4-0.4,1.8-1l53.2-90.5c0.1-0.3,0.5-0.5,0.9-0.4c0.2,0.1,0.3,0.2,0.4,0.4l53.2,90.5
		c0.4,0.6,1.1,1,1.8,1h12.1c0.7,0,0.9-0.5,0.6-1L108.5,0.4c-0.1-0.3-0.5-0.5-0.9-0.4c-0.2,0.1-0.3,0.2-0.4,0.4L39.5,115.7
		C39.2,116.3,39.5,116.8,40.1,116.8z"/>
	<path d="M17.3,189c-0.1-0.2-0.2-0.2-0.4-0.2c-0.1,0-0.2,0.1-0.2,0.2L0.1,222.8c-0.1,0.1-0.1,0.3,0.1,0.4c0.1,0,0.1,0.1,0.2,0H7
		c0.3,0,0.6-0.2,0.8-0.5l2.1-4.3c0.2-0.3,0.5-0.5,0.8-0.5h12.7c0.3,0,0.6,0.2,0.8,0.5l2.1,4.3c0.2,0.3,0.4,0.5,0.8,0.5h6.7
		c0.2,0,0.3-0.1,0.3-0.3c0-0.1,0-0.2,0-0.2L17.3,189z M20.6,211.9h-7.3c-0.2,0-0.3-0.1-0.3-0.3c0-0.1,0-0.2,0-0.2l3.7-7.7
		c0.1-0.3,0.3-0.3,0.5,0l3.7,7.7c0.1,0.2,0,0.3-0.1,0.4C20.7,211.8,20.7,211.8,20.6,211.9L20.6,211.9z"/>
	<path d="M152,189c-0.1-0.2-0.2-0.2-0.4-0.2c-0.1,0-0.1,0.1-0.2,0.2l-16.6,33.8c-0.1,0.1-0.1,0.3,0.1,0.4c0.1,0,0.1,0.1,0.2,0h6.6
		c0.3,0,0.6-0.2,0.8-0.5l2.1-4.3c0.2-0.3,0.5-0.5,0.8-0.5h12.7c0.3,0,0.6,0.2,0.8,0.5l2.1,4.3c0.2,0.3,0.5,0.5,0.8,0.5h6.7
		c0.2,0,0.3-0.1,0.3-0.3c0-0.1,0-0.2,0-0.2L152,189z M155.4,211.9h-7.3c-0.2,0-0.3-0.1-0.4-0.3c0-0.1,0-0.2,0-0.2l3.7-7.7
		c0.1-0.3,0.3-0.3,0.5,0l3.7,7.7c0.1,0.2,0,0.3-0.1,0.4C155.5,211.8,155.4,211.8,155.4,211.9L155.4,211.9z"/>
	<path d="M71.4,217.2l-4.1-3.4l-0.1-0.1c-0.2-0.2-0.5-0.2-0.7,0l0,0c-2.1,2.2-5,3.4-8.1,3.4c-5.7,0.2-10.5-4.3-10.7-10.1
		s4.3-10.5,10.1-10.7c0.2,0,0.4,0,0.6,0c3,0,5.9,1.2,8,3.4l0,0c0.2,0.2,0.5,0.2,0.8,0l0,0l4.1-3.5l0,0c0.2-0.2,0.2-0.5,0-0.8l0,0
		c-3.3-3.6-8-5.7-12.9-5.7c-9.8,0-17.7,7.2-17.7,17s8,17,17.7,17c5,0,9.7-2.1,13-5.7l0,0C71.6,217.8,71.6,217.5,71.4,217.2
		L71.4,217.2z"/>
	<path d="M104.2,190.3h-24c-0.3,0-0.5,0.2-0.5,0.5v5.6c0,0.3,0.2,0.5,0.5,0.5h7.9c0.3,0,0.5,0.2,0.5,0.5v25.3c0,0.3,0.2,0.5,0.5,0.5
		h6.2c0.3,0,0.5-0.2,0.5-0.5v-25.3c0-0.3,0.2-0.5,0.5-0.5h7.7c0.3,0,0.5-0.2,0.5-0.5v-5.6C104.7,190.6,104.5,190.3,104.2,190.3z"/>
	<path d="M118.2,190.3h6.2c0.3,0,0.5,0.2,0.5,0.5v31.9c0,0.3-0.2,0.5-0.5,0.5h-6.2c-0.3,0-0.5-0.2-0.5-0.5v-31.9
		C117.7,190.5,117.9,190.3,118.2,190.3z"/>
	<path d="M207.6,190.3h-6.1c-0.3,0-0.5,0.2-0.5,0.5V208c0,0.6-0.4,0.8-0.8,0.4l-20.6-18.6c-0.4-0.4-0.8-0.2-0.8,0.4v32.6
		c0,0.3,0.2,0.5,0.5,0.5h6.1c0.3,0,0.5-0.2,0.5-0.5v-17.1c0-0.6,0.4-0.8,0.8-0.4l20.5,18.5c0.4,0.4,0.8,0.2,0.8-0.4v-32.6
		C208.1,190.5,207.9,190.3,207.6,190.3z"/>
	<polygon points="215.3,190.8 216.6,190.8 216.6,195 217.1,195 217.1,190.8 218.4,190.8 218.4,190.3 215.3,190.3 	"/>
	<polygon points="222.1,193.4 219.8,190.1 219.8,195 220.4,195 220.4,191.7 222.1,194.2 223.9,191.7 223.9,195 224.4,195 
		224.4,190.1 	"/>
</g>
</svg>
