<?xml version="1.0" encoding="utf-8"?>
<!-- Generator: Adobe Illustrator 24.0.0, SVG Export Plug-In . SVG Version: 6.00 Build 0)  -->
<svg version="1.1" id="Layer_1" xmlns="http://www.w3.org/2000/svg" xmlns:xlink="http://www.w3.org/1999/xlink" x="0px" y="0px"
	 viewBox="0 0 402 81.4" style="enable-background:new 0 0 402 81.4;" xml:space="preserve">
<title>Actian-Logo-RGB_Horizontal-Black</title>
<g id="Design">
	<path d="M135.3,17.7c-0.1-0.2-0.3-0.3-0.5-0.3c-0.1,0-0.2,0.1-0.3,0.3l-21.5,43.6c-0.1,0.2-0.1,0.4,0.1,0.6
		c0.1,0.1,0.2,0.1,0.3,0.1h8.6c0.4,0,0.8-0.3,1-0.6l2.7-5.5c0.2-0.4,0.6-0.6,1-0.6h16.3c0.4,0,0.8,0.3,1,0.6l2.7,5.5
		c0.2,0.4,0.6,0.6,1,0.6h8.6c0.2,0,0.4-0.1,0.5-0.3c0-0.1,0-0.2-0.1-0.3L135.3,17.7z M139.6,47.2h-9.4c-0.2,0-0.4-0.1-0.5-0.4
		c0-0.1,0-0.2,0.1-0.3l4.8-9.9c0.2-0.3,0.4-0.3,0.6,0l4.8,9.9c0.1,0.2,0.1,0.4-0.1,0.6C139.8,47.1,139.7,47.2,139.6,47.2z"/>
	<path d="M308.9,17.7c-0.1-0.2-0.3-0.3-0.5-0.3c-0.1,0-0.2,0.1-0.3,0.3l-21.5,43.6c-0.1,0.2-0.1,0.4,0.1,0.6
		c0.1,0.1,0.2,0.1,0.3,0.1h8.5c0.4,0,0.8-0.3,1-0.6l2.7-5.5c0.2-0.4,0.6-0.6,1-0.6h16.4c0.4,0,0.8,0.3,1,0.6l2.7,5.5
		c0.2,0.4,0.6,0.6,1,0.6h8.6c0.2,0,0.4-0.1,0.5-0.3c0-0.1,0-0.2-0.1-0.3L308.9,17.7z M313.2,47.2h-9.4c-0.2,0-0.4-0.1-0.5-0.4
		c0-0.1,0-0.2,0.1-0.3l4.8-9.9c0.2-0.3,0.4-0.3,0.6,0l4.8,9.9c0.1,0.2,0.1,0.4-0.1,0.6C313.4,47.1,313.3,47.2,313.2,47.2z"/>
	<path d="M205.1,54.1l-5.2-4.5l-0.1-0.1c-0.3-0.2-0.7-0.2-0.9,0l0,0c-2.7,2.8-6.5,4.4-10.4,4.4c-7.2,0.2-13.3-5.5-13.5-12.8
		c0-0.2,0-0.4,0-0.5c-0.1-7.3,5.7-13.3,13-13.4c0.2,0,0.3,0,0.5,0c3.9,0,7.6,1.6,10.3,4.3l0,0c0.3,0.3,0.7,0.3,1,0l0,0l5.3-4.5l0,0
		c0.3-0.3,0.3-0.7,0-1l0,0c-4.3-4.7-10.3-7.3-16.7-7.3c-12.6,0-22.9,9.3-22.9,21.9s10.2,21.9,22.9,21.9c6.4,0,12.4-2.7,16.7-7.4l0,0
		c0.3-0.3,0.3-0.7,0-1C205.1,54.2,205.1,54.2,205.1,54.1L205.1,54.1z"/>
	<path d="M247.3,19.4h-30.9c-0.4,0-0.7,0.3-0.7,0.7c0,0,0,0,0,0v7.1c0,0.4,0.3,0.7,0.7,0.7l0,0h10.1c0.4,0,0.7,0.3,0.7,0.7v32.5
		c0,0.4,0.3,0.7,0.7,0.7c0,0,0,0,0,0h8c0.4,0,0.7-0.3,0.7-0.7V28.6c0-0.4,0.3-0.7,0.7-0.7h10c0.4,0,0.7-0.3,0.7-0.7c0,0,0,0,0,0
		v-7.1C248.1,19.7,247.7,19.4,247.3,19.4C247.3,19.4,247.3,19.4,247.3,19.4z"/>
	<path d="M265.3,19.4h8c0.4,0,0.7,0.3,0.7,0.7v41.1c0,0.4-0.3,0.7-0.7,0.7h-8c-0.4,0-0.7-0.3-0.7-0.7V20.1
		C264.6,19.7,264.9,19.4,265.3,19.4z"/>
	<path d="M380.4,19.4h-7.9c-0.4,0-0.7,0.3-0.7,0.7c0,0,0,0,0,0v22c0,0.8-0.5,1-1,0.5l-26.5-23.9c-0.6-0.5-1-0.3-1,0.5v42
		c0,0.4,0.3,0.7,0.7,0.7l0,0h7.9c0.4,0,0.7-0.3,0.7-0.7l0,0v-22c0-0.8,0.5-1,1-0.5L380,62.6c0.6,0.5,1,0.3,1-0.5v-42
		C381,19.8,380.7,19.5,380.4,19.4z"/>
	<polygon points="390.4,20 392,20 392,25.5 392.7,25.5 392.7,20 394.4,20 394.4,19.4 390.4,19.4 	"/>
	<polygon points="399.1,23.4 396.2,19.2 396.2,25.5 396.9,25.5 396.9,21.2 399.1,24.5 401.4,21.2 401.4,25.5 402,25.5 402,19.2 	"/>
	<path d="M7.6,69.1h20.1c0.4,0,0.7-0.2,0.9-0.5l18.9-32.2c0.1-0.2,0.2-0.3,0.4-0.2c0.1,0,0.2,0.1,0.2,0.2L67,68.6
		c0.2,0.3,0.5,0.5,0.9,0.5H88c0.3,0,0.5-0.2,0.3-0.5l-3-5.1c-0.2-0.3-0.5-0.5-0.9-0.5h-13c-0.4,0-0.7-0.2-0.9-0.5L48.1,24.3
		c-0.1-0.2-0.2-0.3-0.4-0.2c-0.1,0-0.2,0.1-0.2,0.2L25,62.5c-0.2,0.3-0.5,0.5-0.9,0.5h-13c-0.4,0-0.7,0.2-0.9,0.5l-3,5.1
		C7.1,68.9,7.2,69.1,7.6,69.1z"/>
	<path d="M92.5,75.8c-0.2-0.3-0.5-0.5-0.9-0.5H64.4c-0.4,0-0.7-0.2-0.9-0.5L48.1,48.5c-0.1-0.2-0.2-0.3-0.4-0.2
		c-0.1,0-0.2,0.1-0.2,0.2L32,74.7c-0.2,0.3-0.5,0.5-0.9,0.5H4c-0.4,0-0.7,0.2-0.9,0.5l-3,5.1c-0.2,0.3,0,0.5,0.3,0.5h34.2
		c0.4,0,0.7-0.2,0.9-0.5l11.9-20.3c0.1-0.2,0.2-0.3,0.4-0.2c0.1,0,0.2,0.1,0.2,0.2L60,80.8c0.2,0.3,0.5,0.5,0.9,0.5h34.3
		c0.3,0,0.5-0.2,0.3-0.5L92.5,75.8z"/>
	<path d="M48.1,72.6c-0.1-0.2-0.2-0.3-0.4-0.2c-0.1,0-0.2,0.1-0.2,0.2l-4.8,8.2c-0.2,0.3,0,0.5,0.3,0.5h9.7c0.3,0,0.5-0.2,0.3-0.5
		L48.1,72.6z"/>
	<path d="M14.7,56.9h5.9c0.4,0,0.7-0.2,0.9-0.5l25.9-44.1c0.1-0.2,0.2-0.3,0.4-0.2c0.1,0,0.2,0.1,0.2,0.2L74,56.4
		c0.2,0.3,0.5,0.5,0.9,0.5h5.9c0.3,0,0.5-0.2,0.3-0.5l-33-56.2C48,0,47.8,0,47.7,0c-0.1,0-0.2,0.1-0.2,0.2l-33,56.2
		C14.3,56.7,14.4,56.9,14.7,56.9z"/>
</g>
</svg>
