<?xml version="1.0" encoding="UTF-8"?>
<svg width="84px" height="71px" viewBox="0 0 84 71" version="1.1" xmlns="http://www.w3.org/2000/svg" xmlns:xlink="http://www.w3.org/1999/xlink">
    <!-- Generator: sketchtool 55.2 (78181) - https://sketchapp.com -->
    <title>A3879DD9-6EF9-42AF-8133-3F94904C523A</title>
    <desc>Created with sketchtool.</desc>
    <defs>
        <filter x="-15.8%" y="-18.8%" width="131.6%" height="137.5%" filterUnits="objectBoundingBox" id="filter-1">
            <feOffset dx="0" dy="2" in="SourceAlpha" result="shadowOffsetOuter1"></feOffset>
            <feGaussianBlur stdDeviation="2" in="shadowOffsetOuter1" result="shadowBlurOuter1"></feGaussianBlur>
            <feColorMatrix values="0 0 0 0 0   0 0 0 0 0   0 0 0 0 0  0 0 0 0.0554250437 0" type="matrix" in="shadowBlurOuter1" result="shadowMatrixOuter1"></feColorMatrix>
            <feMerge>
                <feMergeNode in="shadowMatrixOuter1"></feMergeNode>
                <feMergeNode in="SourceGraphic"></feMergeNode>
            </feMerge>
        </filter>
    </defs>
    <g id="-Actian---Account-Settings" stroke="none" stroke-width="1" fill="none" fill-rule="evenodd">
        <g id="Admin---Settings/Single-Sign-on" transform="translate(-62.000000, -12.000000)" fill="#FFFFFF">
            <g id="Actian-White-Logo">
                <g id="whitelogo" filter="url(#filter-1)" transform="translate(66.000000, 13.500000)">
                    <path d="M67.5807168,50.0152747 C67.4514007,49.7936784 67.1375728,49.6088815 66.8789407,49.6088815 L56.6282794,49.6088815 C56.3696473,49.6088815 56.0550308,49.4248846 55.9257148,49.2000883 L38.2370158,18.6685972 C38.1076998,18.4438009 37.8948014,18.4438009 37.7654854,18.6685972 L20.0759979,49.2000883 C19.9466819,49.4248846 19.6296999,49.6088815 19.3742219,49.6088815 L9.12040646,49.6088815 C8.86492844,49.6088815 8.54715794,49.7936784 8.4178419,50.0152747 L6.05545871,54.0936068 C5.92614268,54.3152031 6.03101483,54.5 6.28649285,54.5 L22.1308613,54.5 C22.3894934,54.5 22.7033213,54.3152031 22.8326373,54.0936068 L37.7654854,28.3220363 C37.8948014,28.10044 38.1076998,28.10044 38.2370158,28.3220363 L53.1659213,54.0936068 C53.2952374,54.3152031 53.6130079,54.5 53.8684859,54.5 L69.7160084,54.5 C69.9714864,54.5 70.0732045,54.3152031 69.9438885,54.0936068 L67.5807168,50.0152747 Z" id="Fill-12"></path>
                    <path d="M37.2699504,0.65756729 C37.3982339,0.44747757 37.6044038,0.44747757 37.729633,0.65756729 L62.9457395,43.116095 C63.0709686,43.3292076 62.9724652,43.5 62.7220069,43.5 L58.2091768,43.5 C57.9617729,43.5 57.6540452,43.3292076 57.5288161,43.116095 L37.729633,9.77606569 C37.6044038,9.56370882 37.3982339,9.56370882 37.2699504,9.77606569 L17.4700037,43.116095 C17.3447746,43.3292076 17.0378105,43.5 16.7904066,43.5 L12.2775765,43.5 C12.029409,43.5 11.9286148,43.3292076 12.0538439,43.116095 L37.2699504,0.65756729 Z" id="Fill-15"></path>
                    <path d="M75.9419947,63.1287024 C76.0756321,63.3332062 75.9698358,63.5 75.7121067,63.5 L48.4429313,63.5 C48.1852022,63.5 47.8646317,63.3332062 47.7341762,63.1287024 L38.2387663,48.4015327 C38.1083108,48.197029 37.8935365,48.197029 37.763081,48.4015327 L28.2644893,63.1287024 C28.1332383,63.3332062 27.8166451,63.5 27.5557341,63.5 L0.28974058,63.5 C0.0280341331,63.5 -0.0737847884,63.3332062 0.0566707048,63.1287024 L2.43986984,59.435307 C2.57032533,59.2308032 2.89010038,59.0640094 3.14782953,59.0640094 L24.7748048,59.0640094 C25.032534,59.0640094 25.352309,58.8993911 25.4827645,58.6956126 L37.763081,39.6506583 C37.8935365,39.4497806 38.1083108,39.4497806 38.2387663,39.6506583 L50.5182873,58.6956126 C50.6487428,58.8993911 50.9661315,59.0640094 51.2238606,59.0640094 L72.8532223,59.0640094 C73.1109514,59.0640094 73.4283401,59.2308032 73.5619774,59.435307 L75.9419947,63.1287024 Z" id="Fill-13"></path>
                    <path d="M38.2888943,56.662273 C38.1316767,56.445909 37.8728429,56.445909 37.7156254,56.662273 L33.0681208,63.1000781 C32.9109032,63.3203476 33.0345683,63.5 33.3490034,63.5 L42.6545576,63.5 C42.9661168,63.5 43.0888232,63.3203476 42.9316056,63.1000781 L38.2888943,56.662273 Z" id="Fill-14"></path>
                </g>
            </g>
        </g>
    </g>
</svg>