<?xml version="1.0" encoding="utf-8"?>
<!-- Generator: Adobe Illustrator 24.0.0, SVG Export Plug-In . SVG Version: 6.00 Build 0)  -->
<svg version="1.1" id="Layer_1" xmlns="http://www.w3.org/2000/svg" xmlns:xlink="http://www.w3.org/1999/xlink" x="0px" y="0px"
	 viewBox="0 0 196.1 166.9" enable-background="new 0 0 196.1 166.9" xml:space="preserve">
<g id="Design">
	<path fill="#FFFFFF" d="M15.5,141.9h41.2c0.7,0,1.4-0.4,1.8-1.1l38.9-66.1c0.1-0.3,0.5-0.5,0.9-0.4c0.2,0.1,0.3,0.2,0.4,0.4
		l38.9,66.1c0.4,0.6,1.1,1,1.8,1.1h41.2c0.7,0,0.9-0.5,0.6-1.1l-6.2-10.4c-0.4-0.6-1.1-1-1.8-1.1h-26.7c-0.7,0-1.4-0.4-1.8-1
		L98.6,50c-0.1-0.3-0.5-0.5-0.9-0.4c-0.2,0.1-0.3,0.2-0.4,0.4l-46,78.3c-0.4,0.6-1.1,1-1.8,1H22.9c-0.8,0-1.4,0.4-1.9,1l-6.1,10.4
		C14.6,141.4,14.8,141.9,15.5,141.9z"/>
	<path fill="#FFFFFF" d="M195.3,167c0.7,0,0.9-0.5,0.6-1l-6.1-10.5c-0.4-0.6-1.1-1-1.8-1h-55.8c-0.7,0-1.4-0.4-1.8-1L98.6,99.5
		c-0.1-0.3-0.5-0.5-0.9-0.4c-0.2,0.1-0.3,0.2-0.4,0.4l-31.7,53.9c-0.4,0.6-1.1,1-1.8,1H8.1c-0.7,0-1.4,0.4-1.8,1l-6.1,10.6
		c-0.3,0.6-0.1,1,0.6,1h70.3c0.7,0,1.4-0.4,1.8-1l24.5-41.7c0.1-0.3,0.5-0.5,0.9-0.4c0.2,0.1,0.3,0.2,0.4,0.4l24.5,41.7
		c0.4,0.6,1.1,1,1.8,1L195.3,167z"/>
	<path fill="#FFFFFF" d="M108,167c0.7,0,0.9-0.5,0.6-1l-9.9-17c-0.1-0.3-0.5-0.5-0.9-0.4c-0.2,0.1-0.3,0.2-0.4,0.4l-9.9,16.9
		c-0.3,0.6-0.1,1,0.6,1L108,167z"/>
	<path fill="#FFFFFF" d="M30.2,116.8h12.1c0.7,0,1.4-0.4,1.8-1l53.2-90.6c0.1-0.3,0.5-0.5,0.9-0.4c0.2,0.1,0.3,0.2,0.4,0.4
		l53.2,90.5c0.4,0.6,1.1,1,1.8,1h12.1c0.7,0,0.9-0.5,0.6-1L98.6,0.4c-0.1-0.3-0.5-0.5-0.9-0.4c-0.2,0.1-0.3,0.2-0.4,0.4L29.6,115.7
		C29.3,116.3,29.6,116.8,30.2,116.8z"/>
</g>
<title>Actian_A_White</title>
</svg>
