<?xml version="1.0" encoding="utf-8"?>
<!-- Generator: Adobe Illustrator 24.0.0, SVG Export Plug-In . SVG Version: 6.00 Build 0)  -->
<svg version="1.1" id="Layer_1" xmlns="http://www.w3.org/2000/svg" xmlns:xlink="http://www.w3.org/1999/xlink" x="0px" y="0px"
	 viewBox="0 0 224.4 224.1" style="enable-background:new 0 0 224.4 224.1;" xml:space="preserve">
<style type="text/css">
	.st0{fill:#238FFB;}
	.st1{fill:#2549C9;}
	.st2{fill:#86C1FD;}
</style>
<title>Actian-Logo-RGB_Vertical-Blue</title>
<g id="Design">
	<path class="st0" d="M184.9,130.4c-0.4-0.6-1.1-1-1.8-1.1h-26.7c-0.7,0-1.4-0.4-1.8-1l-46-78.3c-0.1-0.3-0.5-0.5-0.9-0.4
		c-0.2,0.1-0.3,0.2-0.4,0.4l-46,78.3c-0.4,0.6-1.1,1-1.8,1H32.8c-0.7,0-1.4,0.4-1.8,1.1l-6.1,10.4c-0.3,0.6-0.1,1.1,0.6,1.1h41.2
		c0.7,0,1.4-0.4,1.8-1.1l38.8-66.1c0.1-0.3,0.5-0.5,0.9-0.4c0.2,0.1,0.3,0.2,0.4,0.4l38.8,66.1c0.4,0.6,1.1,1,1.8,1.1h41.2
		c0.7,0,0.9-0.5,0.6-1.1L184.9,130.4z"/>
	<path class="st1" d="M205.8,165.9c0.3,0.6,0.1,1-0.6,1h-70.3c-0.7,0-1.4-0.4-1.8-1l-24.5-41.7c-0.1-0.3-0.5-0.5-0.9-0.4
		c-0.2,0.1-0.3,0.2-0.4,0.4l-24.5,41.7c-0.4,0.6-1.1,1-1.8,1.1H10.6c-0.7,0-0.9-0.5-0.6-1l6.2-10.5c0.4-0.6,1.1-1,1.8-1h55.8
		c0.7,0,1.4-0.4,1.8-1l31.7-53.9c0.1-0.3,0.5-0.5,0.9-0.4c0.2,0.1,0.3,0.2,0.4,0.4l31.7,53.9c0.4,0.6,1.1,1,1.8,1h55.8
		c0.7,0,1.4,0.4,1.8,1L205.8,165.9z"/>
	<path class="st1" d="M108.5,149c-0.1-0.3-0.5-0.5-0.9-0.4c-0.2,0.1-0.3,0.2-0.4,0.4l-9.9,16.9c-0.3,0.6-0.1,1,0.6,1h19.9
		c0.7,0,0.9-0.5,0.6-1L108.5,149z"/>
	<path class="st2" d="M107.3,0.4c0.1-0.3,0.5-0.5,0.9-0.4c0.2,0.1,0.3,0.2,0.4,0.4l67.8,115.3c0.3,0.6,0.1,1-0.6,1h-12.1
		c-0.7,0-1.4-0.4-1.8-1l-53.2-90.5c-0.1-0.3-0.5-0.5-0.9-0.4c-0.2,0.1-0.3,0.2-0.4,0.4l-53.2,90.5c-0.4,0.6-1.1,1-1.8,1H40.1
		c-0.7,0-0.9-0.5-0.6-1L107.3,0.4z"/>
	<path d="M16.7,189c0.1-0.2,0.2-0.2,0.4-0.2c0.1,0,0.2,0.1,0.2,0.2l16.7,33.8c0.1,0.1,0.1,0.3-0.1,0.4c-0.1,0-0.1,0.1-0.2,0h-6.7
		c-0.3,0-0.6-0.2-0.8-0.5l-2.1-4.3c-0.2-0.3-0.5-0.5-0.8-0.5H10.6c-0.3,0-0.6,0.2-0.8,0.5l-2.1,4.3c-0.2,0.3-0.5,0.5-0.8,0.5H0.3
		c-0.2,0-0.3-0.1-0.3-0.3c0-0.1,0-0.2,0-0.2L16.7,189z M20.6,211.9c0.2,0,0.3-0.1,0.3-0.3c0-0.1,0-0.2,0-0.2l-3.7-7.7
		c-0.1-0.3-0.3-0.3-0.5,0l-3.7,7.7c-0.1,0.1-0.1,0.3,0.1,0.4c0.1,0,0.1,0.1,0.2,0L20.6,211.9z"/>
	<path d="M151.5,189c0.1-0.2,0.2-0.2,0.4-0.2c0.1,0,0.1,0.1,0.2,0.2l16.7,33.8c0.1,0.1,0.1,0.3-0.1,0.4c-0.1,0-0.1,0.1-0.2,0h-6.7
		c-0.3,0-0.6-0.2-0.8-0.5l-2.1-4.3c-0.2-0.3-0.5-0.5-0.8-0.5h-12.7c-0.3,0-0.6,0.2-0.8,0.5l-2.1,4.3c-0.2,0.3-0.4,0.5-0.8,0.5h-6.6
		c-0.2,0-0.3-0.1-0.3-0.3c0-0.1,0-0.2,0-0.2L151.5,189z M155.4,211.9c0.2,0,0.3-0.1,0.3-0.3c0-0.1,0-0.2,0-0.2l-3.7-7.7
		c-0.1-0.3-0.3-0.3-0.5,0l-3.7,7.7c-0.1,0.1-0.1,0.3,0.1,0.4c0.1,0,0.1,0.1,0.2,0H155.4z"/>
	<path d="M71.5,217.3c0.2,0.2,0.2,0.5,0,0.8l0,0c-3.3,3.7-8,5.8-13,5.7c-9.8,0-17.7-7.1-17.7-17s8-17,17.7-17
		c4.9,0,9.6,2.1,12.9,5.7l0,0c0.2,0.2,0.2,0.5,0,0.8l0,0l-4.1,3.5l0,0c-0.2,0.2-0.5,0.2-0.8,0l0,0c-2.1-2.1-5-3.4-8-3.4
		c-5.7-0.2-10.5,4.3-10.7,10.1s4.3,10.5,10.1,10.7c0.2,0,0.4,0,0.6,0c3,0,5.9-1.2,8.1-3.4l0,0c0.2-0.2,0.5-0.2,0.7,0l0.1,0.1
		L71.5,217.3L71.5,217.3z"/>
	<path d="M88.7,197.5c0-0.3-0.2-0.5-0.5-0.5h-7.9c-0.3,0-0.5-0.2-0.5-0.5v-5.6c0-0.3,0.2-0.5,0.5-0.5h24c0.3,0,0.5,0.2,0.5,0.5v5.6
		c0,0.3-0.2,0.5-0.5,0.5h-7.8c-0.3,0-0.5,0.2-0.5,0.5v25.3c0,0.3-0.2,0.5-0.5,0.5h-6.2c-0.3,0-0.5-0.2-0.5-0.5V197.5z"/>
	<path d="M117.7,190.8c0-0.3,0.2-0.5,0.5-0.5h6.2c0.3,0,0.5,0.2,0.5,0.5v31.9c0,0.3-0.2,0.5-0.5,0.5h-6.2c-0.3,0-0.5-0.2-0.5-0.5
		V190.8z"/>
	<path d="M200.9,190.8c0-0.3,0.2-0.5,0.5-0.5h6.1c0.3,0,0.5,0.2,0.5,0.5v32.6c0,0.6-0.4,0.8-0.8,0.4l-20.5-18.5
		c-0.4-0.4-0.8-0.2-0.8,0.4v17.1c0,0.3-0.2,0.5-0.5,0.5h-6.1c-0.3,0-0.5-0.2-0.5-0.5v-32.6c0-0.6,0.4-0.8,0.8-0.4l20.6,18.6
		c0.4,0.4,0.8,0.2,0.8-0.4V190.8z"/>
	<path d="M216.6,190.8h-1.3v-0.5h3.1v0.5h-1.3v4.2h-0.5L216.6,190.8z"/>
	<path d="M219.8,190.1l2.3,3.2l2.3-3.2v4.9h-0.5v-3.3l-1.8,2.5l-1.8-2.5v3.3h-0.5V190.1z"/>
</g>
</svg>
