<?xml version="1.0" encoding="UTF-8"?>
<svg width="233px" height="35px" viewBox="0 0 233 35" version="1.1" xmlns="http://www.w3.org/2000/svg" xmlns:xlink="http://www.w3.org/1999/xlink">
    <!-- Generator: Sketch 63.1 (92452) - https://sketch.com -->
    <title>ActianLogo</title>
    <desc>Created with Sketch.</desc>
    <g id="Symbols" stroke="none" stroke-width="1" fill="none" fill-rule="evenodd">
        <g id="ActianLogo" transform="translate(-1.000000, -8.000000)" fill="#FFFFFF">
            <g id="ActianLogo-Copy" transform="translate(1.000000, 8.000000)">
                <g id="Group-3">
                    <g id="Group">
                        <path d="M36.6769545,27.508486 C36.6062348,27.3853769 36.4346101,27.282712 36.2931707,27.282712 L30.6873403,27.282712 C30.5459009,27.282712 30.373845,27.1804914 30.3031253,27.0556046 L20.629618,10.0936651 C20.5588983,9.9687783 20.4424695,9.9687783 20.3717498,10.0936651 L10.6978114,27.0556046 C10.6270917,27.1804914 10.4537421,27.282712 10.3140276,27.282712 L4.70647228,27.282712 C4.56675774,27.282712 4.392977,27.3853769 4.32225729,27.508486 L3.03032898,29.774226 C2.95960928,29.897335 3.01696123,30 3.15667578,30 L11.8215648,30 C11.9630042,30 12.1346288,29.897335 12.2053485,29.774226 L20.3717498,15.4566868 C20.4424695,15.3335778 20.5588983,15.3335778 20.629618,15.4566868 L28.7938632,29.774226 C28.8645829,29.897335 29.0383637,30 29.1780782,30 L37.8446921,30 C37.9844066,30 38.0400337,29.897335 37.969314,29.774226 L36.6769545,27.508486 Z" id="Fill-12"></path>
                        <path d="M20.3691875,0.0879445338 C20.442133,-0.0293148446 20.5593669,-0.0293148446 20.6305756,0.0879445338 L34.969146,23.7857275 C35.0403547,23.904674 34.984343,24 34.8419255,24 L32.2758064,24 C32.1351258,24 31.9601434,23.904674 31.8889347,23.7857275 L20.6305756,5.17733899 C20.5593669,5.05881423 20.442133,5.05881423 20.3691875,5.17733899 L9.11039425,23.7857275 C9.03918553,23.904674 8.86463733,24 8.72395669,24 L6.15783759,24 C6.01672275,24 5.95940842,23.904674 6.03061714,23.7857275 L20.3691875,0.0879445338 Z" id="Fill-15"></path>
                        <path d="M40.9687077,34.7834098 C41.0408015,34.9027036 40.9837272,35 40.8446891,35 L26.1336866,35 C25.9946485,35 25.8217092,34.9027036 25.7513319,34.7834098 L20.6288081,26.1925608 C20.5584308,26.0732669 20.4425657,26.0732669 20.3721884,26.1925608 L15.2479482,34.7834098 C15.1771417,34.9027036 15.006348,35 14.8655934,35 L0.156307418,35 C0.0151236771,35 -0.0398049516,34.9027036 0.0305723539,34.7834098 L1.31624557,32.6289291 C1.38662288,32.5096352 1.5591331,32.4123388 1.69817119,32.4123388 L13.3653552,32.4123388 C13.5043933,32.4123388 13.6769035,32.3163115 13.7472809,32.1974407 L20.3721884,21.087884 C20.4425657,20.9707053 20.5584308,20.9707053 20.6288081,21.087884 L27.2532866,32.1974407 C27.3236639,32.3163115 27.4948867,32.4123388 27.6339248,32.4123388 L39.3023962,32.4123388 C39.4414343,32.4123388 39.6126572,32.5096352 39.684751,32.6289291 L40.9687077,34.7834098 Z" id="Fill-13"></path>
                        <path d="M20.6444471,31.0927274 C20.5658384,30.9690909 20.4364215,30.9690909 20.3578127,31.0927274 L18.0340604,34.7714732 C17.9554516,34.8973415 18.0172841,35 18.1745017,35 L22.8272788,35 C22.9830584,35 23.0444116,34.8973415 22.9658028,34.7714732 L20.6444471,31.0927274 Z" id="Fill-14"></path>
                    </g>
                    <path d="M52.9453125,27.5976562 L54.5742188,24.5976562 L63.84375,24.5976562 L65.4960938,27.5976562 L69.5976562,27.5976562 L59.203125,8.61328125 L48.84375,27.5976562 L52.9453125,27.5976562 Z M61.875,21 L56.5429688,21 L59.203125,16.1015625 L61.875,21 Z M80.15625,27.5976562 L90,9.59765625 L85.8984375,9.59765625 L79.6289062,21.09375 L73.3359375,9.59765625 L69.234375,9.59765625 L79.078125,27.5976562 L80.15625,27.5976562 Z M90.8554688,27.5976562 L92.484375,24.5976562 L101.753906,24.5976562 L103.40625,27.5976562 L107.507812,27.5976562 L97.1132812,8.61328125 L86.7539062,27.5976562 L90.8554688,27.5976562 Z M99.7851562,21 L94.453125,21 L97.1132812,16.1015625 L99.7851562,21 Z M125.625,27.5976562 L125.625,24 L116.027344,24 L116.027344,9.59765625 L112.429688,9.59765625 L112.429688,27.5976562 L125.625,27.5976562 Z M132.257812,27.5976562 L133.886719,24.5976562 L143.15625,24.5976562 L144.808594,27.5976562 L148.910156,27.5976562 L138.515625,8.61328125 L128.15625,27.5976562 L132.257812,27.5976562 Z M141.1875,21 L135.855469,21 L138.515625,16.1015625 L141.1875,21 Z M157.429688,27.5976562 L157.429688,17.0859375 L168.445312,27.5976562 L169.429688,27.5976562 L169.429688,9.59765625 L165.832031,9.59765625 L165.832031,20.109375 L154.792969,9.59765625 L153.832031,9.59765625 L153.832031,27.5976562 L157.429688,27.5976562 Z M183.832031,27.5976562 C185.277344,27.5976562 186.626953,27.2792969 187.880859,26.6425781 C189.134766,26.0058594 190.175781,25.1328125 191.003906,24.0234375 L191.003906,24.0234375 L191.367188,23.5429688 L188.507812,21.3632812 L188.144531,21.84375 C187.644531,22.515625 187.019531,23.0429688 186.269531,23.4257812 C185.519531,23.8085938 184.707031,24 183.832031,24 C182.855469,24 181.953125,23.7578125 181.125,23.2734375 C180.296875,22.7890625 179.640625,22.1328125 179.15625,21.3046875 C178.671875,20.4765625 178.429688,19.5742188 178.429688,18.5976562 C178.429688,17.6210938 178.671875,16.71875 179.15625,15.890625 C179.640625,15.0625 180.296875,14.40625 181.125,13.921875 C181.953125,13.4375 182.855469,13.1953125 183.832031,13.1953125 C184.707031,13.1953125 185.519531,13.3886719 186.269531,13.7753906 C187.019531,14.1621094 187.644531,14.6914062 188.144531,15.3632812 L188.144531,15.3632812 L188.507812,15.84375 L191.367188,13.6523438 L191.003906,13.171875 C190.175781,12.0703125 189.132812,11.1992188 187.875,10.5585938 C186.617188,9.91796875 185.269531,9.59765625 183.832031,9.59765625 C182.199219,9.59765625 180.693359,10 179.314453,10.8046875 C177.935547,11.609375 176.84375,12.7011719 176.039062,14.0800781 C175.234375,15.4589844 174.832031,16.9648438 174.832031,18.5976562 C174.832031,20.2304688 175.234375,21.7382812 176.039062,23.1210938 C176.84375,24.4960938 177.935547,25.5859375 179.314453,26.390625 C180.693359,27.1953125 182.199219,27.5976562 183.832031,27.5976562 Z M200.121094,27.5976562 L200.121094,22.1953125 L208.523438,22.1953125 L208.523438,27.5976562 L212.121094,27.5976562 L212.121094,9.59765625 L208.523438,9.59765625 L208.523438,18.5976562 L200.121094,18.5976562 L200.121094,9.59765625 L196.523438,9.59765625 L196.523438,27.5976562 L200.121094,27.5976562 Z M232.875,27.5976562 L232.875,24 L223.277344,24 L223.277344,22.1953125 L230.484375,22.1953125 L230.484375,18.5976562 L223.277344,18.5976562 L223.277344,13.1953125 L232.875,13.1953125 L232.875,9.59765625 L219.679688,9.59765625 L219.679688,27.5976562 L232.875,27.5976562 Z" id="AVALANCHE" fill-rule="nonzero"></path>
                </g>
            </g>
        </g>
    </g>
</svg>