<?xml version="1.0" encoding="UTF-8"?>
<svg width="185px" height="20px" viewBox="0 0 185 20" version="1.1" xmlns="http://www.w3.org/2000/svg" xmlns:xlink="http://www.w3.org/1999/xlink">
    <!-- Generator: Sketch 63.1 (92452) - https://sketch.com -->
    <title>AVALANCHE</title>
    <desc>Created with Sketch.</desc>
    <g id="Symbols" stroke="none" stroke-width="1" fill="none" fill-rule="evenodd">
        <g id="ActianLogo-Copy" transform="translate(-48.000000, -8.000000)" fill="#FFFFFF" fill-rule="nonzero">
            <g id="Group-3">
                <path d="M52.9453125,27.5976562 L54.5742188,24.5976562 L63.84375,24.5976562 L65.4960938,27.5976562 L69.5976562,27.5976562 L59.203125,8.61328125 L48.84375,27.5976562 L52.9453125,27.5976562 Z M61.875,21 L56.5429688,21 L59.203125,16.1015625 L61.875,21 Z M80.15625,27.5976562 L90,9.59765625 L85.8984375,9.59765625 L79.6289062,21.09375 L73.3359375,9.59765625 L69.234375,9.59765625 L79.078125,27.5976562 L80.15625,27.5976562 Z M90.8554688,27.5976562 L92.484375,24.5976562 L101.753906,24.5976562 L103.40625,27.5976562 L107.507812,27.5976562 L97.1132812,8.61328125 L86.7539062,27.5976562 L90.8554688,27.5976562 Z M99.7851562,21 L94.453125,21 L97.1132812,16.1015625 L99.7851562,21 Z M125.625,27.5976562 L125.625,24 L116.027344,24 L116.027344,9.59765625 L112.429688,9.59765625 L112.429688,27.5976562 L125.625,27.5976562 Z M132.257812,27.5976562 L133.886719,24.5976562 L143.15625,24.5976562 L144.808594,27.5976562 L148.910156,27.5976562 L138.515625,8.61328125 L128.15625,27.5976562 L132.257812,27.5976562 Z M141.1875,21 L135.855469,21 L138.515625,16.1015625 L141.1875,21 Z M157.429688,27.5976562 L157.429688,17.0859375 L168.445312,27.5976562 L169.429688,27.5976562 L169.429688,9.59765625 L165.832031,9.59765625 L165.832031,20.109375 L154.792969,9.59765625 L153.832031,9.59765625 L153.832031,27.5976562 L157.429688,27.5976562 Z M183.832031,27.5976562 C185.277344,27.5976562 186.626953,27.2792969 187.880859,26.6425781 C189.134766,26.0058594 190.175781,25.1328125 191.003906,24.0234375 L191.003906,24.0234375 L191.367188,23.5429688 L188.507812,21.3632812 L188.144531,21.84375 C187.644531,22.515625 187.019531,23.0429688 186.269531,23.4257812 C185.519531,23.8085938 184.707031,24 183.832031,24 C182.855469,24 181.953125,23.7578125 181.125,23.2734375 C180.296875,22.7890625 179.640625,22.1328125 179.15625,21.3046875 C178.671875,20.4765625 178.429688,19.5742188 178.429688,18.5976562 C178.429688,17.6210938 178.671875,16.71875 179.15625,15.890625 C179.640625,15.0625 180.296875,14.40625 181.125,13.921875 C181.953125,13.4375 182.855469,13.1953125 183.832031,13.1953125 C184.707031,13.1953125 185.519531,13.3886719 186.269531,13.7753906 C187.019531,14.1621094 187.644531,14.6914062 188.144531,15.3632812 L188.144531,15.3632812 L188.507812,15.84375 L191.367188,13.6523438 L191.003906,13.171875 C190.175781,12.0703125 189.132812,11.1992188 187.875,10.5585938 C186.617188,9.91796875 185.269531,9.59765625 183.832031,9.59765625 C182.199219,9.59765625 180.693359,10 179.314453,10.8046875 C177.935547,11.609375 176.84375,12.7011719 176.039062,14.0800781 C175.234375,15.4589844 174.832031,16.9648438 174.832031,18.5976562 C174.832031,20.2304688 175.234375,21.7382812 176.039062,23.1210938 C176.84375,24.4960938 177.935547,25.5859375 179.314453,26.390625 C180.693359,27.1953125 182.199219,27.5976562 183.832031,27.5976562 Z M200.121094,27.5976562 L200.121094,22.1953125 L208.523438,22.1953125 L208.523438,27.5976562 L212.121094,27.5976562 L212.121094,9.59765625 L208.523438,9.59765625 L208.523438,18.5976562 L200.121094,18.5976562 L200.121094,9.59765625 L196.523438,9.59765625 L196.523438,27.5976562 L200.121094,27.5976562 Z M232.875,27.5976562 L232.875,24 L223.277344,24 L223.277344,22.1953125 L230.484375,22.1953125 L230.484375,18.5976562 L223.277344,18.5976562 L223.277344,13.1953125 L232.875,13.1953125 L232.875,9.59765625 L219.679688,9.59765625 L219.679688,27.5976562 L232.875,27.5976562 Z" id="AVALANCHE"></path>
            </g>
        </g>
    </g>
</svg>